<?xml version="1.0" encoding="utf-8"?>
<!-- Generator: Adobe Illustrator 25.4.1, SVG Export Plug-In . SVG Version: 6.00 Build 0)  -->
<svg version="1.1" id="Layer_1" xmlns="http://www.w3.org/2000/svg" xmlns:xlink="http://www.w3.org/1999/xlink" x="0px" y="0px"
	 viewBox="0 0 64 64" style="enable-background:new 0 0 64 64;" xml:space="preserve">
<style type="text/css">
	.st0{fill:#221F1F;}
	.st1{fill:#F38065;}
</style>
<path class="st0" d="M31.8,16.8c-0.2,0-0.4,0-0.6,0c0,0.8,0,1.7,0,2.5c0.1,0,0.3,0,0.4,0c2,0,3.9,0,5.9,0c1.5,0,3.1,0,4.6,0.5
	c2.4,0.8,3.8,2.4,4.1,4.9c0.4,2.6,0.2,5.2,0.3,7.8c0,0.7,0,1.3,0,2c-2.5,0-5.1,0-7.6,0c0-2.5,0-5,0-7.6c-9,0-17.9,0-26.9,0
	c0-2.6,0-5.1,0-7.7c4.7,0,9.4,0,14.1,0c0-0.9,0-1.7,0-2.5c-0.2,0-0.3,0-0.5,0"/>
<path class="st0" d="M43.2,34.7c0,0.3,0.1,0.6,0.1,0.9c0.6,3.3,2,6.2,4.1,8.8c0.9,1.2,1.9,2.4,2.7,3.7c1.2,1.8,1.8,3.8,1.8,5.9
	c0,0.2,0,0.4,0,0.5c0.2,2.8-1.2,4.7-3.4,6.1c-1.7,1.1-3.7,1.7-5.8,1.6c-2.9-0.2-5.5-1.2-7.3-3.7c-1-1.4-1.3-3-1.2-4.8
	c0.2-3,1.5-5.5,3.3-7.8c1.2-1.5,2.3-3.1,3.3-4.8c1.1-1.9,1.8-4,2.1-6.2c0-0.1,0.1-0.2,0.1-0.3C43.1,34.7,43.2,34.7,43.2,34.7z"/>
<rect x="21.3" y="1.8" class="st1" width="15" height="15"/>
</svg>
