<?xml version="1.0" encoding="utf-8"?>
<!-- Generator: Adobe Illustrator 25.4.1, SVG Export Plug-In . SVG Version: 6.00 Build 0)  -->
<svg version="1.1" id="Layer_1" xmlns="http://www.w3.org/2000/svg" xmlns:xlink="http://www.w3.org/1999/xlink" x="0px" y="0px"
	 viewBox="0 0 64 64" style="enable-background:new 0 0 64 64;" xml:space="preserve">
<style type="text/css">
	.st0{fill:#221F1F;}
	.st1{fill:#F38065;}
</style>
<path class="st0" d="M32.6,42.6c2.2-4.3,4.3-8.6,6.5-12.9c0.9,0.4,1.9,0.9,2.8,1.3c1.4,0.7,2.8,1.3,4.2,2c1.7,0.9,2.9,2.3,3.5,4.1
	c0.3,0.8,0.3,1.8,0.4,2.7c0.2,1.7,0.4,3.4,0.6,5.1c0,0.2,0,0.4,0,0.7c-12.3,0-24.6,0-37,0c0.1-0.8,0.2-1.6,0.2-2.4
	c0.2-1.9,0.4-3.8,0.7-5.6c0.1-1,0.6-1.8,1.2-2.6c0.7-0.9,1.5-1.5,2.5-2c2.3-1.1,4.5-2.2,6.8-3.3c2.2,4.3,4.3,8.6,6.5,12.9
	c0,0,0,0,0.1,0c-0.2-1.1-0.3-2.1-0.5-3.2c-0.3-1.5-0.5-3-0.7-4.5c0-0.2,0.1-0.5,0.2-0.6c0.5-0.5,1-1.1,1.5-1.6
	c0.6,0.6,1.2,1.2,1.8,1.8c0.1,0.1,0.1,0.3,0,0.4C33.4,37.4,32.9,40,32.6,42.6C32.5,42.6,32.6,42.6,32.6,42.6z M46.8,38.3
	c-2.5,0-4.9,0-7.4,0c0,1.2,0,2.4,0,3.6c2.5,0,4.9,0,7.4,0C46.8,40.7,46.8,39.5,46.8,38.3z"/>
<rect x="24.5" y="11.5" class="st1" width="15" height="15"/>
</svg>
