<?xml version="1.0" encoding="utf-8"?>
<!-- Generator: Adobe Illustrator 25.4.1, SVG Export Plug-In . SVG Version: 6.00 Build 0)  -->
<svg version="1.1" id="Layer_1" xmlns="http://www.w3.org/2000/svg" xmlns:xlink="http://www.w3.org/1999/xlink" x="0px" y="0px"
	 viewBox="0 0 86.2 64" style="enable-background:new 0 0 86.2 64;" xml:space="preserve">
<style type="text/css">
	.st0{fill:#221F1F;}
	.st1{fill:none;stroke:#FFFFFF;stroke-width:2.8;stroke-miterlimit:10;}
	.st2{fill:#F38065;}
</style>
<path class="st0" d="M43.8,42.8c-0.1,0.1-0.2,0.3-0.3,0.4c-0.2,0.2-0.5,0.4-0.7,0.7c-0.3,0.4-0.3,0.7,0.1,1.1
	c0.2,0.2,0.4,0.3,0.6,0.5c0.1,0.1,0.3,0.2,0.4,0.2c0.8,0.5,1.4,1.2,1.3,2.2c-0.1,1.1-0.8,1.7-1.6,2.2c-0.4,0.2-0.8,0.1-1-0.2
	c-0.2-0.3-0.1-0.6,0.3-0.9c0.2-0.1,0.4-0.3,0.6-0.5c0.5-0.4,0.5-0.8,0-1.2c-0.4-0.3-0.9-0.6-1.3-0.9c-0.9-0.7-1.2-1.7-0.9-2.6
	c0.3-0.8,0.9-1.3,1.6-1.6C43.4,41.9,43.8,42.2,43.8,42.8z"/>
<path class="st0" d="M35.9,43.4c0.1,0.1,0.4,0.3,0.5,0.5c0.1,0.2,0,0.5-0.2,0.7c-0.2,0.3-0.5,0.4-0.7,0.7c-0.4,0.4-0.4,0.8,0,1.2
	c0.1,0.1,0.3,0.2,0.4,0.3c0.2,0.1,0.3,0.2,0.5,0.3c0.8,0.5,1.4,1.2,1.4,2.2c0,1.1-0.8,1.7-1.6,2.2c-0.4,0.2-0.8,0.1-1-0.2
	c-0.2-0.3-0.1-0.6,0.3-0.9c0.2-0.1,0.4-0.2,0.6-0.4c0.5-0.4,0.5-0.9,0-1.3c-0.4-0.3-0.8-0.5-1.2-0.8c-0.3-0.2-0.6-0.5-0.8-0.9
	c-0.5-0.7-0.5-1.4,0-2.1c0.3-0.5,0.9-0.8,1.3-1.2C35.5,43.4,35.6,43.4,35.9,43.4z"/>
<path class="st0" d="M50.5,51.5C50.3,51.4,50,51.2,50,51c-0.1-0.2,0.1-0.5,0.2-0.7c0.2-0.3,0.6-0.4,0.8-0.7c0.3-0.3,0.3-0.6,0-0.9
	c-0.2-0.2-0.4-0.3-0.6-0.5c-0.4-0.4-1-0.7-1.3-1.1c-0.7-0.8-0.7-2,0.1-2.8c0.3-0.3,0.7-0.6,1-0.8c0.3-0.2,0.6-0.2,0.9,0.1
	c0.2,0.3,0.1,0.7-0.2,0.9c-0.3,0.2-0.5,0.5-0.8,0.7c-0.3,0.3-0.2,0.7,0.1,1c0.2,0.2,0.3,0.3,0.5,0.4c0.3,0.2,0.5,0.3,0.8,0.5
	c0.7,0.5,1.2,1.2,1.1,2.2c-0.1,1-0.8,1.6-1.7,2C50.8,51.5,50.7,51.5,50.5,51.5z"/>
<rect x="8.2" y="13.7" class="st0" width="70.1" height="27.5"/>
<line class="st1" x1="12.4" y1="33.6" x2="74" y2="33.6"/>
<line class="st1" x1="12.4" y1="27.4" x2="74" y2="27.4"/>
<line class="st1" x1="12.4" y1="21.4" x2="74" y2="21.4"/>
<rect x="35" y="20" class="st2" width="15" height="15"/>
</svg>
