<?xml version="1.0" encoding="utf-8"?>
<!-- Generator: Adobe Illustrator 25.4.1, SVG Export Plug-In . SVG Version: 6.00 Build 0)  -->
<svg version="1.1" id="Layer_1" xmlns="http://www.w3.org/2000/svg" xmlns:xlink="http://www.w3.org/1999/xlink" x="0px" y="0px"
	 viewBox="0 0 64 64" style="enable-background:new 0 0 64 64;" xml:space="preserve">
<style type="text/css">
	.st0{fill:#221F1F;}
	.st1{fill:#F38065;}
</style>
<path class="st0" d="M35.5,12.5c-1.8,0-3.6,0-5.4,0c0-0.9,0-1.8,0-2.8c-0.7,0.1-1.4,0.2-2,0.3c-1.4,0.3-2.9,0.6-4.3,1
	c-0.9,0.2-1.7-0.1-2.1-0.9c-0.3-0.7-0.2-1.5,0.4-2c0.2-0.2,0.5-0.3,0.7-0.4c2-0.5,4.1-1,6.1-1.3c1.5-0.2,3-0.1,4.5-0.1
	c0.6,0,1.2,0,1.9,0c0.9,0,1.6,0.6,1.7,1.5c0.1,0.8-0.4,1.6-1.2,1.8c-0.3,0.1-0.3,0.2-0.3,0.5C35.5,10.9,35.5,11.7,35.5,12.5z"/>
<path class="st0" d="M42.5,21c0-1.5-0.9-2.4-2.4-2.5c-0.3,0-0.7,0-1.1,0c0-0.8,0-1.6,0-2.3c0-1.6-0.9-2.4-2.4-2.4
	c-0.6,0-1.2,0-1.8,0c-2,0-3.9,0-5.9,0c-1.4,0-2.2,0.9-2.3,2.3c0,0.8,0,1.6,0,2.5c-0.4,0-0.8,0-1.2,0c-1.4,0.1-2.3,1-2.3,2.4
	c0,11.4,0,22.9,0,34.3c0,1.6,0.9,2.5,2.5,2.5c4.8,0,9.6,0,14.3,0c1.7,0,2.6-0.9,2.6-2.6C42.5,43.8,42.5,32.4,42.5,21z"/>
<rect x="25.4" y="39.6" class="st1" width="15" height="15"/>
</svg>
