<?xml version="1.0" encoding="utf-8"?>
<!-- Generator: Adobe Illustrator 25.4.1, SVG Export Plug-In . SVG Version: 6.00 Build 0)  -->
<svg version="1.1" id="Layer_1" xmlns="http://www.w3.org/2000/svg" xmlns:xlink="http://www.w3.org/1999/xlink" x="0px" y="0px"
	 viewBox="0 0 60 60" style="enable-background:new 0 0 60 60;" xml:space="preserve">
<style type="text/css">
	.st0{fill:#F48165;}
	.st1{fill:#231F20;}
</style>
<rect x="31.19" y="42.77" class="st0" width="15.02" height="15.02"/>
<path class="st1" d="M22.52,13.97c1.44-2.32,4.6-2.51,6.11-0.5c1.24,1.65,2.45,3.32,3.71,5.03c1.85-1.46,3.66-2.89,5.48-4.32
	c0.67-0.53,1.43-0.62,2.07-0.24c0.65,0.39,0.94,1,0.78,1.71c-0.09,0.4-0.34,0.84-0.65,1.09c-2.29,1.86-4.61,3.68-6.93,5.49
	c-0.87,0.68-1.84,0.49-2.55-0.44c-0.63-0.83-1.24-1.68-1.85-2.51c-0.07,0-0.14,0-0.21,0c-0.29,2.19-0.59,4.38-0.87,6.54
	c1.84,0,3.48,0.01,5.13,0c1.11-0.01,2.23-0.07,3.34-0.07c1.39,0,2.39,0.8,2.67,2.17c0.75,3.68,1.49,7.35,2.2,11.04
	c0.33,1.71-0.59,3.07-2.21,3.35c-1.43,0.25-2.74-0.83-3.05-2.48c-0.54-2.8-1.1-5.59-1.66-8.38c-0.02-0.09-0.04-0.17-0.05-0.21
	c-1.72,0-3.41-0.01-5.1,0c-1.37,0.01-2.74,0.03-4.11,0.11c-2.56,0.15-4.23-1.55-4.53-3.85c-0.34-2.59-0.36-5.18,0.12-7.77
	c0.1-0.55,0.29-0.87,0.92-0.98c1.39-0.24,2.76-0.59,4.13-0.93c1.25-0.31,2.01-1.47,1.73-2.6c-0.31-1.23-1.44-1.91-2.72-1.64
	C23.82,13.71,23.23,13.83,22.52,13.97z"/>
<path class="st1" d="M23.5,31.82c1.89,0,3.71,0,5.61,0c0.6,1.74,1.25,3.52,1.81,5.32c0.15,0.48,0.11,1.07-0.02,1.56
	c-0.99,3.86-2.01,8.7-3.03,12.55c-0.28,1.06-0.96,1.75-2.03,1.97c-1.06,0.21-1.98-0.1-2.66-0.97c-0.59-0.76-0.63-1.61-0.4-2.51
	c0.89-3.38,1.79-7.75,2.65-11.14c0.1-0.41,0.07-0.91-0.06-1.32c-0.54-1.65-1.14-3.28-1.71-4.92C23.6,32.21,23.56,32.06,23.5,31.82z"
	/>
<path class="st1" d="M35.12,7.04c-0.01,2.65-2.13,4.76-4.79,4.77c-2.6,0-4.76-2.19-4.74-4.83c0.02-2.61,2.16-4.77,4.73-4.77
	C33,2.2,35.13,4.35,35.12,7.04z"/>
<path class="st1" d="M26.65,15.7c-0.01,0.88-0.5,1.45-1.47,1.68c-1.85,0.43-3.71,0.83-5.55,1.28c-0.22,0.05-0.5,0.32-0.56,0.54
	c-0.64,2.42-1.24,4.84-1.86,7.27c-0.27,1.06-0.87,1.55-1.78,1.52c-1.04-0.04-1.85-1-1.6-2c0.74-3.04,1.53-6.06,2.29-9.09
	c0.19-0.74,0.69-1.13,1.4-1.29c2.26-0.51,4.52-1.02,6.78-1.52C25.65,13.79,26.66,14.49,26.65,15.7z"/>
</svg>
