<?xml version="1.0" encoding="utf-8"?>
<!-- Generator: Adobe Illustrator 25.4.1, SVG Export Plug-In . SVG Version: 6.00 Build 0)  -->
<svg version="1.1" id="Layer_1" xmlns="http://www.w3.org/2000/svg" xmlns:xlink="http://www.w3.org/1999/xlink" x="0px" y="0px"
	 viewBox="0 0 64 64" style="enable-background:new 0 0 64 64;" xml:space="preserve">
<style type="text/css">
	.st0{fill:#221F1F;}
	.st1{fill:#F38065;}
</style>
<g>
	<path class="st0" d="M56,19.7c0-1.6-0.9-2.4-2.4-2.4c-14.3,0-28.5,0-42.8,0c-1.6,0-2.5,0.9-2.5,2.5c0,8.2,0,16.4,0,24.5
		c0,0.3,0,0.6,0.1,0.9c0.3,1,1.1,1.5,2.4,1.5c7.1,0,14.2,0,21.3,0c0,0,0,0,0,0c7.1,0,14.3,0,21.4,0c1.6,0,2.5-0.8,2.5-2.4
		C56,36.1,56,27.9,56,19.7z M41.5,43.3c-6.1,0-11-4.9-11-11c0-6.1,4.9-11,11-11c6.1,0,11,4.9,11,11C52.5,38.4,47.6,43.3,41.5,43.3z"
		/>
	<path class="st0" d="M48.3,26.6c-2.2,0.3-4.3,0.9-5.8,2.8c-0.3,0.4-0.7,0.4-1.3,0.3c0.3-0.4,0.4-0.8,0.7-1.1
		c0.8-0.8,1.6-1.7,2.4-2.5c1-1,0.9-2-0.4-2.6c-1.3-0.6-2.7-0.8-4.1-0.7c-0.7,0.1-1.2,0.4-1.3,1.1c-0.4,2.3-0.5,4.5,0.8,6.5
		c0.3,0.5,0.2,0.8-0.1,1.3c-0.3-0.3-0.6-0.6-0.8-0.9c-0.6-1.1-1.2-2.2-1.7-3.3c-0.5-1-1.4-1.3-2.2-0.6c-1.2,1.1-1.9,2.6-2.2,4.2
		c-0.1,0.6,0.1,1.1,0.7,1.4c2,1.1,4.1,1.9,6.4,1.3c0.5-0.1,0.9-0.1,1.2,0.5c-0.4,0.2-0.7,0.4-1.1,0.5c-1.2,0.3-2.5,0.5-3.8,0.7
		c-1,0.2-1.5,0.9-1.1,1.9c0.7,1.6,1.9,2.7,3.4,3.5c0.5,0.2,1,0.2,1.4-0.2c1.7-1.6,3-3.3,3.2-5.7c0-0.6,0.3-0.8,0.8-1
		c0,0.4,0.2,0.8,0.1,1.1c-0.1,1.2-0.3,2.5-0.5,3.7c-0.2,1.1,0.4,1.9,1.5,1.8c1.6-0.2,3-0.9,4.2-2c0.4-0.4,0.6-0.9,0.4-1.4
		c-1-2.1-2.2-4-4.4-4.9c-0.5-0.2-0.7-0.5-0.7-1.1c0.4,0.1,0.8,0.1,1.1,0.2c1.1,0.5,2.3,1.1,3.4,1.6c1.1,0.6,1.9,0.3,2.2-1
		c0.3-1.5,0-2.9-0.6-4.3C49.6,26.8,49.1,26.5,48.3,26.6z"/>
</g>
<rect x="12.4" y="25.2" class="st1" width="15" height="15"/>
</svg>
