<?xml version="1.0" encoding="utf-8"?>
<!-- Generator: Adobe Illustrator 25.4.1, SVG Export Plug-In . SVG Version: 6.00 Build 0)  -->
<svg version="1.1" id="Layer_1" xmlns="http://www.w3.org/2000/svg" xmlns:xlink="http://www.w3.org/1999/xlink" x="0px" y="0px"
	 viewBox="0 0 64 64" style="enable-background:new 0 0 64 64;" xml:space="preserve">
<style type="text/css">
	.st0{fill:#231F20;}
	.st1{fill:#F48165;}
</style>
<g>
	<g>
		
			<rect x="5.78" y="29.93" transform="matrix(-1.836970e-16 1 -1 -1.836970e-16 65.2988 -1.2988)" class="st0" width="55.03" height="4.13"/>
		
			<rect x="32.22" y="10.81" transform="matrix(-0.7071 0.7071 -0.7071 -0.7071 73.3477 -4.6226)" class="st0" width="10.82" height="4.13"/>
		
			<rect x="23.7" y="10.81" transform="matrix(0.7071 0.7071 -0.7071 0.7071 17.6338 -16.8128)" class="st0" width="10.82" height="4.13"/>
		
			<rect x="23.7" y="48.68" transform="matrix(0.7071 -0.7071 0.7071 0.7071 -27.3542 35.4474)" class="st0" width="10.82" height="4.13"/>
		
			<rect x="32.22" y="48.68" transform="matrix(-0.7071 -0.7071 0.7071 -0.7071 28.3597 113.2332)" class="st0" width="10.82" height="4.13"/>
	</g>
	<g>
		
			<rect x="5.82" y="29.87" transform="matrix(-0.8458 0.5335 -0.5335 -0.8458 78.5642 41.1713)" class="st0" width="55.03" height="4.13"/>
		
			<rect x="46.41" y="23.34" transform="matrix(-0.9753 -0.2209 0.2209 -0.9753 96.7422 61.6236)" class="st0" width="10.82" height="4.13"/>
		
			<rect x="41.86" y="16.13" transform="matrix(-0.2209 0.9753 -0.9753 -0.2209 75.4605 -23.8879)" class="st0" width="10.82" height="4.13"/>
		
			<rect x="9.84" y="36.33" transform="matrix(0.9753 0.2209 -0.2209 0.9753 8.8573 -2.4191)" class="st0" width="10.82" height="4.13"/>
		
			<rect x="14.38" y="43.54" transform="matrix(0.2209 -0.9753 0.9753 0.2209 -29.0562 54.831)" class="st0" width="10.82" height="4.13"/>
	</g>
	<g>
		
			<rect x="5.9" y="29.87" transform="matrix(-0.8435 -0.5371 0.5371 -0.8435 44.44 76.824)" class="st0" width="55.03" height="4.13"/>
		
			<rect x="41.8" y="43.8" transform="matrix(-0.2167 -0.9762 0.9762 -0.2167 12.671 101.8914)" class="st0" width="10.82" height="4.13"/>
		
			<rect x="46.38" y="36.61" transform="matrix(-0.9762 0.2167 -0.2167 -0.9762 110.7267 65.2101)" class="st0" width="10.82" height="4.13"/>
		
			<rect x="14.44" y="16.27" transform="matrix(0.2167 0.9762 -0.9762 0.2167 33.452 -5.0112)" class="st0" width="10.82" height="4.13"/>
		
			<rect x="9.86" y="23.46" transform="matrix(0.9762 -0.2167 0.2167 0.9762 -5.1688 3.9163)" class="st0" width="10.82" height="4.13"/>
	</g>
	<rect x="25.86" y="24.42" class="st1" width="15.02" height="15.02"/>
</g>
</svg>
