<?xml version="1.0" encoding="utf-8"?>
<!-- Generator: Adobe Illustrator 25.4.1, SVG Export Plug-In . SVG Version: 6.00 Build 0)  -->
<svg version="1.1" id="Layer_1" xmlns="http://www.w3.org/2000/svg" xmlns:xlink="http://www.w3.org/1999/xlink" x="0px" y="0px"
	 viewBox="0 0 60 60" style="enable-background:new 0 0 60 60;" xml:space="preserve">
<style type="text/css">
	.st0{fill:#231F20;}
	.st1{fill:#F48165;}
</style>
<g>
	<path class="st0" d="M58.44,23.29c0-0.14,0-0.28,0-0.41c-0.05-0.03-0.1-0.07-0.16-0.1c-0.14,0.18-0.25,0.37-0.42,0.53
		c-0.17,0.16-0.39,0.27-0.58,0.41c-2.33,1.73-4.94,2.89-7.68,3.8c-5.34,1.77-10.85,2.54-16.45,2.77c-3.77,0.16-7.54,0.04-11.29-0.37
		c-3.48-0.39-6.91-1-10.26-2.01c-3.18-0.96-6.23-2.21-8.93-4.21c-0.36-0.27-0.72-0.55-1.13-0.87c0,0.19,0,0.32,0,0.46
		c0,5.67,0.01,11.35-0.01,17.02c-0.01,1.16,0.37,2.12,1.08,3c0.83,1.03,1.87,1.8,2.99,2.48c2.75,1.66,5.75,2.69,8.85,3.45
		c1.35,0.34,2.73,0.6,4.15,0.91c0-0.25,0-0.41,0-0.58c0-3.93,0-7.87,0-11.8c0-1.1,0.5-1.61,1.6-1.61c6.46,0,12.93,0,19.4,0
		c1.06,0,1.58,0.52,1.58,1.59c0,3.95,0,7.89,0,11.84c0,0.17,0,0.33,0,0.56c0.86-0.17,1.67-0.31,2.47-0.48
		c3.44-0.73,6.79-1.73,9.9-3.41c1.44-0.78,2.78-1.69,3.82-2.98c0.64-0.8,1.06-1.69,1.06-2.75C58.44,34.78,58.44,29.04,58.44,23.29z
		 M6.72,43.11c-0.68,0.11-1.34-0.3-1.54-0.97c-0.05-0.17-0.06-0.36-0.06-0.54c0-1.84,0-3.68,0-5.51c0-1.82,0-3.65,0-5.47
		c0-0.89,0.55-1.5,1.37-1.51c0.84-0.01,1.42,0.59,1.43,1.5c0,3.68,0,7.35,0,11.03C7.91,42.42,7.44,43,6.72,43.11z M14.52,43.88
		c0,1.2-1.04,1.9-2.03,1.41c-0.44-0.22-0.69-0.57-0.75-1.06c-0.02-0.13-0.02-0.25-0.02-0.38c0-3.62,0-7.24,0-10.86
		c0-0.93,0.51-1.53,1.3-1.57c0.88-0.05,1.5,0.59,1.5,1.56c0,1.82,0,3.65,0,5.47C14.53,40.26,14.53,42.07,14.52,43.88z M49.02,44.02
		c0,0.7-0.44,1.24-1.08,1.39c-0.62,0.14-1.26-0.14-1.54-0.71c-0.11-0.22-0.17-0.49-0.17-0.73c-0.01-3.69-0.01-7.38,0-11.07
		c0-0.88,0.59-1.48,1.41-1.48c0.82,0,1.39,0.61,1.39,1.49c0,1.84,0,3.68,0,5.52C49.02,40.28,49.03,42.15,49.02,44.02z M54.92,42.94
		c-0.48,0.27-0.98,0.26-1.45-0.04c-0.46-0.29-0.64-0.73-0.64-1.26c0.01-1.85,0-3.71,0-5.56c0-1.81,0-3.62,0-5.43
		c0-0.93,0.54-1.54,1.37-1.54c0.86-0.01,1.42,0.6,1.42,1.55c0,3.66,0,7.33,0,10.99C55.63,42.21,55.42,42.66,54.92,42.94z"/>
	<path class="st0" d="M23.24,15.76c0.07,0.23,0.19,0.25,0.4,0.24c1.02-0.06,2.03-0.09,3.05-0.13c3.48-0.13,6.96-0.04,10.43,0.18
		c0.33,0.02,0.47-0.06,0.56-0.39c0.53-1.9,1.09-3.8,1.64-5.7c0.23-0.78,0.45-1.56,0.68-2.39c-6.46-0.89-12.87-0.92-19.29-0.1
		c0,0.1-0.01,0.13,0,0.15C21.56,10.35,22.41,13.05,23.24,15.76z"/>
	<path class="st0" d="M10.64,17.72c2.79-0.64,5.61-1.07,8.45-1.35c0.44-0.04,0.88-0.1,1.33-0.15c-0.01-0.1,0-0.14-0.02-0.18
		c-0.81-2.6-1.63-5.2-2.44-7.81C17.87,7.92,17.69,7.96,17.48,8c-2.68,0.53-5.32,1.18-7.87,2.19c-1.1,0.44-2.16,0.95-3.31,1.46
		c1.32,2.06,2.57,4.02,3.83,5.96C10.21,17.72,10.48,17.76,10.64,17.72z"/>
	<path class="st0" d="M50.28,17.95c0.29,0.07,0.42,0.01,0.57-0.24c1.06-1.77,2.13-3.53,3.2-5.3c0.07-0.11,0.13-0.24,0.21-0.38
		c-3.6-2.07-7.46-3.19-11.47-3.98c-0.8,2.77-1.58,5.48-2.38,8.23c0.19,0.03,0.36,0.07,0.52,0.09
		C44.09,16.69,47.21,17.18,50.28,17.95z"/>
	<path class="st0" d="M26.19,23.51c1.21-0.1,2.42-0.21,3.64-0.23c1.74-0.02,3.48,0.03,5.21,0.08c0.34,0.01,0.47-0.09,0.55-0.41
		c0.17-0.68,0.39-1.36,0.58-2.04c0.19-0.67,0.38-1.35,0.59-2.08c-4.2-0.25-8.36-0.28-12.54-0.04c0.06,0.21,0.09,0.35,0.14,0.5
		c0.4,1.27,0.81,2.53,1.18,3.8C25.64,23.48,25.82,23.54,26.19,23.51z"/>
	<path class="st0" d="M21.47,19.43c-0.11-0.38-0.27-0.48-0.65-0.43c-2.17,0.29-4.34,0.54-6.51,0.83c-0.81,0.11-1.6,0.3-2.42,0.46
		c0.04,0.1,0.05,0.16,0.08,0.21c1.04,1.63,2.09,3.26,3.12,4.9c0.15,0.24,0.31,0.17,0.51,0.12c1.09-0.28,2.18-0.59,3.28-0.84
		c1.3-0.29,2.62-0.53,3.95-0.8c-0.02-0.11-0.03-0.22-0.07-0.32C22.33,22.18,21.87,20.81,21.47,19.43z"/>
	<path class="st0" d="M46.47,24.95c0.51-0.85,1.02-1.69,1.53-2.54c0.37-0.61,0.74-1.22,1.13-1.88c-3.15-0.75-6.29-1.2-9.52-1.49
		c-0.44,1.54-0.88,3.04-1.32,4.56c0.12,0.03,0.17,0.05,0.22,0.05c2.54,0.3,5.05,0.78,7.51,1.48C46.27,25.2,46.36,25.13,46.47,24.95z
		"/>
	<path class="st0" d="M7.37,18.53c-1.1-1.73-2.23-3.48-3.35-5.23c-3.08,2.35-3.17,4.94-0.85,7.11C4.58,19.78,5.96,19.16,7.37,18.53z
		"/>
	<path class="st0" d="M40.16,26.79c-6.22-1.01-12.42-0.96-18.61,0.23C27.77,27.76,33.97,27.73,40.16,26.79z"/>
	<path class="st0" d="M55.87,19.97c0.33,0.15,0.72,0.47,0.99,0.4c0.3-0.09,0.53-0.52,0.75-0.83c1.4-1.91,0.92-4.46-1.09-5.76
		c-1.02,1.69-2.04,3.38-3.08,5.08C54.28,19.24,55.07,19.6,55.87,19.97z"/>
	<path class="st0" d="M8.11,21.32C7.3,21.61,6.5,21.94,5.58,22.3c1.91,1.15,3.81,1.94,5.88,2.62c-0.71-1.11-1.35-2.11-2-3.12
		C8.98,21.03,8.97,21.02,8.11,21.32z"/>
	<path class="st0" d="M51.8,21.58c-0.25,0.38-0.48,0.77-0.71,1.16c-0.3,0.5-0.6,1-0.9,1.5c0.03,0.04,0.07,0.09,0.1,0.13
		c1.34-0.64,2.69-1.27,4.03-1.91c0-0.07-0.01-0.13-0.01-0.2c-0.73-0.29-1.46-0.58-2.19-0.85C52.03,21.38,51.86,21.49,51.8,21.58z"/>
</g>
<rect x="22.85" y="39.39" class="st1" width="15.01" height="15.02"/>
</svg>
