<?xml version="1.0" encoding="utf-8"?>
<!-- Generator: Adobe Illustrator 25.4.1, SVG Export Plug-In . SVG Version: 6.00 Build 0)  -->
<svg version="1.1" id="Layer_1" xmlns="http://www.w3.org/2000/svg" xmlns:xlink="http://www.w3.org/1999/xlink" x="0px" y="0px"
	 viewBox="0 0 60 60" style="enable-background:new 0 0 60 60;" xml:space="preserve">
<style type="text/css">
	.st0{fill:#231F20;}
	.st1{fill:#F48165;}
</style>
<g>
	<path class="st0" d="M19.18,22.8h3.17l0.61,2.13h2.62l-3.26-9.71h-3.02l-3.26,9.71h2.52L19.18,22.8z M20.74,17.29h0.05l1.08,3.74
		h-2.21L20.74,17.29z"/>
	<polygon class="st0" points="35.84,18.87 35.89,18.87 38.28,24.83 39.7,24.83 42.1,18.87 42.14,18.87 42.14,24.93 44.32,24.93 
		44.32,15.23 41.47,15.23 39.02,21.46 38.96,21.46 36.51,15.23 33.66,15.23 33.66,24.93 35.84,24.93 	"/>
	<path class="st0" d="M6.71,3.53v54.4h47.48V3.53H6.71z M28.17,39.14h-1.22v-1.97H12.33v1.97h-1.22v-4.27h17.06V39.14z M39.62,51.1
		h-4.27v-4.27h4.27V51.1z M39.62,45.12h-4.27v-4.27h4.27V45.12z M39.62,39.14h-4.27v-4.27h4.27V39.14z M45.76,51.1h-4.27v-4.27h4.27
		V51.1z M45.76,45.12h-4.27v-4.27h4.27V45.12z M45.76,39.14h-4.27v-4.27h4.27V39.14z M46.99,28.84H13.91V10.95h33.09V28.84z
		 M51.9,51.1h-4.27v-4.27h4.27V51.1z M51.9,45.12h-4.27v-4.27h4.27V45.12z M51.9,39.14h-4.27v-4.27h4.27V39.14z"/>
	<polygon class="st0" points="27.48,24.93 29.94,24.93 29.94,17.22 32.62,17.22 32.62,15.23 24.8,15.23 24.8,17.22 27.48,17.22 	"/>
</g>
<rect x="12.13" y="37" class="st1" width="15.01" height="15.02"/>
</svg>
