<?xml version="1.0" encoding="utf-8"?>
<!-- Generator: Adobe Illustrator 25.4.1, SVG Export Plug-In . SVG Version: 6.00 Build 0)  -->
<svg version="1.1" id="Layer_1" xmlns="http://www.w3.org/2000/svg" xmlns:xlink="http://www.w3.org/1999/xlink" x="0px" y="0px"
	 viewBox="0 0 64 64" style="enable-background:new 0 0 64 64;" xml:space="preserve">
<style type="text/css">
	.st0{fill:#F38065;}
	.st1{fill:#221F1F;}
</style>
<rect x="13.7" y="41.6" transform="matrix(0.7071 -0.7071 0.7071 0.7071 -28.5009 29.3869)" class="st0" width="15" height="15"/>
<rect x="27" y="36.2" transform="matrix(0.7071 -0.7071 0.7071 0.7071 -22.2371 32.2565)" class="st1" width="1.6" height="13.5"/>
<path class="st1" d="M31.2,44.2c-0.3-0.3-0.5-0.5-0.8-0.7c0.9-0.7,1.7-1.5,2.6-2.2c0.8-0.7,1.7-1.4,2.5-2.1
	c-0.4-0.4-0.8-0.8-1.2-1.2c-1.6,1.5-3.3,3-5,4.5c-0.2-0.3-0.5-0.5-0.7-0.7c1.5-1.6,3-3.3,4.5-4.9c-0.4-0.4-0.8-0.8-1.2-1.2
	c-1.4,1.7-2.9,3.4-4.4,5.1c-0.2-0.3-0.4-0.5-0.6-0.7c0-0.1,0-0.2,0-0.3c0.9-1.3,1.7-2.6,2.6-3.9c0.4-0.5,0.7-1.1,1.1-1.6
	c-0.4-0.4-0.8-0.8-1.2-1.2c-1.2,1.9-2.4,3.8-3.7,5.8c-0.4-0.4-0.7-0.7-1-1.1c0-0.1,0-0.2,0-0.3c0.8-2,1.7-4,2.5-5.9
	c2.2-5.2,4.4-10.5,6.6-15.7c0.2-0.5,0.4-1,0.6-1.5c0.4-0.8,1-1,1.7-0.7c0.7,0.4,1.2,0.9,1.4,1.7c0.1,0.7,0.2,1.3,0.3,2
	c0,0.1,0,0.2,0,0.4c0.9-0.4,1.7-0.1,2.4,0.2c2.1,0.8,1.9,0.6,2.8,2.7c0.3,0.6,0.4,1.3,0.4,2c0.3,0,0.5,0,0.8,0.1
	c1,0.2,2,0.6,2.9,1.1c0.1,0.1,0.3,0.2,0.4,0.3c0.5,0.9,0.9,1.8,1.1,2.9c0,0.2,0,0.5,0.1,0.8c1.3,0,2.5,0.5,3.6,1.1
	c0.1,0.1,0.3,0.2,0.3,0.3c0.5,0.9,0.9,1.8,1.1,2.8c0.1,0.4,0,0.9,0,1.3c0,0,0.2,0,0.3,0c0.8,0.1,1.6,0.2,2.4,0.4
	c0.7,0.2,1.2,0.8,1.5,1.5c0.2,0.5,0.1,0.9-0.4,1.2c-0.2,0.2-0.5,0.3-0.7,0.4c-4.1,1.7-8.2,3.4-12.4,5.2c-3.5,1.5-7,2.9-10.5,4.4
	c-0.2,0.1-0.3,0.1-0.4-0.1c-0.3-0.3-0.6-0.6-1-0.9c2-1.2,3.9-2.5,5.9-3.7c-0.4-0.4-0.8-0.8-1.2-1.1c-0.1,0-0.2,0-0.3,0.1
	c-1.7,1.1-3.4,2.3-5.2,3.4C31.4,44,31.3,44.1,31.2,44.2z M39.3,38.7c0.4,0.4,0.8,0.8,1.2,1.2c0.1,0.1,0.2,0,0.3,0
	c0.7-0.4,1.4-0.8,2-1.3c0.2-0.1,0.4-0.4,0.5-0.6c0.2-0.4,0.1-0.8-0.1-1.1c-0.3-0.3-0.7-0.3-1.1-0.1c-0.2,0.1-0.4,0.2-0.6,0.4
	C40.9,37.7,40.1,38.2,39.3,38.7z M32.2,31.6c0.6-1,1.3-1.9,1.9-2.8c0.3-0.4,0.2-0.9-0.1-1.2c-0.3-0.3-0.8-0.3-1.2-0.1
	c-0.1,0.1-0.3,0.2-0.4,0.4c-0.5,0.7-0.9,1.5-1.4,2.2c0,0.1,0,0.2,0,0.2C31.4,30.8,31.8,31.2,32.2,31.6z M35.1,34.4
	c0.7-0.8,1.4-1.5,2.1-2.3c0.1-0.1,0.2-0.3,0.2-0.5c0.1-0.6-0.3-1.1-0.9-1c-0.2,0-0.5,0.1-0.7,0.3c-0.7,0.7-1.3,1.5-2,2.2
	C34.3,33.6,34.7,34,35.1,34.4z M36.5,35.8c0.4,0.4,0.8,0.9,1.3,1.3c0.6-0.5,1.2-1,1.8-1.6c0.2-0.2,0.4-0.3,0.5-0.5
	c0.3-0.4,0.3-1,0-1.3c-0.3-0.3-0.9-0.3-1.3,0C38.1,34.4,37.3,35.1,36.5,35.8z"/>
</svg>
