<?xml version="1.0" encoding="utf-8"?>
<!-- Generator: Adobe Illustrator 25.4.1, SVG Export Plug-In . SVG Version: 6.00 Build 0)  -->
<svg version="1.1" id="Layer_1" xmlns="http://www.w3.org/2000/svg" xmlns:xlink="http://www.w3.org/1999/xlink" x="0px" y="0px"
	 viewBox="0 0 64 64" style="enable-background:new 0 0 64 64;" xml:space="preserve">
<style type="text/css">
	.st0{fill:#231F20;}
	.st1{fill:#F48165;}
</style>
<g>
	<g>
		
			<rect x="19.82" y="13.97" transform="matrix(-1 -1.224647e-16 1.224647e-16 -1 43.7807 41.9135)" class="st0" width="4.13" height="13.98"/>
		<path class="st0" d="M26.12,8.04L26.12,8.04l0,2.85c0,2.28-1.85,4.13-4.13,4.13h0v-2.85C21.99,9.89,23.84,8.04,26.12,8.04z"/>
		<path class="st0" d="M16.49,5.73L16.49,5.73l0,3.8c0,3.04,2.46,5.5,5.5,5.5h0v-3.8C21.99,8.19,19.53,5.73,16.49,5.73z"/>
	</g>
	<g>
		<rect x="15.19" y="16.45" class="st1" width="15.02" height="15.02"/>
		
			<rect x="5.33" y="35.6" transform="matrix(-1 -1.224647e-16 1.224647e-16 -1 14.8015 85.1758)" class="st0" width="4.13" height="13.98"/>
		
			<rect x="29.79" y="5.87" transform="matrix(6.123234e-17 -1 1 6.123234e-17 -1.6734 65.3936)" class="st0" width="4.13" height="55.32"/>
		
			<rect x="29.79" y="23.85" transform="matrix(6.123234e-17 -1 1 6.123234e-17 -19.6489 83.3691)" class="st0" width="4.13" height="55.32"/>
		
			<rect x="13.6" y="35.6" transform="matrix(-1 -1.224647e-16 1.224647e-16 -1 31.3348 85.1758)" class="st0" width="4.13" height="13.98"/>
		
			<rect x="21.71" y="35.6" transform="matrix(-1 -1.224647e-16 1.224647e-16 -1 47.5515 85.1758)" class="st0" width="4.13" height="13.98"/>
		
			<rect x="29.98" y="35.6" transform="matrix(-1 -1.224647e-16 1.224647e-16 -1 64.0848 85.1758)" class="st0" width="4.13" height="13.98"/>
		
			<rect x="38.02" y="35.6" transform="matrix(-1 -1.224647e-16 1.224647e-16 -1 80.1765 85.1758)" class="st0" width="4.13" height="13.98"/>
		
			<rect x="46.29" y="35.6" transform="matrix(-1 -1.224647e-16 1.224647e-16 -1 96.7098 85.1758)" class="st0" width="4.13" height="13.98"/>
		
			<rect x="54.4" y="35.6" transform="matrix(-1 -1.224647e-16 1.224647e-16 -1 112.9265 85.1758)" class="st0" width="4.13" height="13.98"/>
	</g>
</g>
</svg>
