<?xml version="1.0" encoding="utf-8"?>
<!-- Generator: Adobe Illustrator 25.4.1, SVG Export Plug-In . SVG Version: 6.00 Build 0)  -->
<svg version="1.1" id="Layer_1" xmlns="http://www.w3.org/2000/svg" xmlns:xlink="http://www.w3.org/1999/xlink" x="0px" y="0px"
	 viewBox="0 0 60 60" style="enable-background:new 0 0 60 60;" xml:space="preserve">
<style type="text/css">
	.st0{fill:#231F20;}
	.st1{fill:#F48165;}
</style>
<path class="st0" d="M42.23,15.25c0-0.87,0-1.63,0-2.4c0.01-0.85,0.49-1.4,1.22-1.41c0.73,0,1.24,0.55,1.26,1.38
	c0.02,0.63,0.04,1.27,0,1.9c-0.02,0.44,0.14,0.55,0.56,0.54c0.85-0.03,1.71-0.01,2.56-0.01c0.99,0.01,1.49,0.51,1.47,1.5
	c-0.07,3.7-1.02,7.16-3,10.29c-0.38,0.59-0.42,1.13-0.31,1.77c0.79,4.78,1.57,9.57,2.35,14.35c0.08,0.47,0.2,0.94,0.23,1.41
	c0.03,0.5,0.27,0.66,0.74,0.7c1.51,0.14,2.79,0.78,3.82,1.88c1.73,1.84,2.23,4.02,1.45,6.4c-0.79,2.39-2.52,3.83-5,4.26
	c-3.11,0.54-6.04-1.31-7.06-4.39c-0.94-2.83,0.4-6.06,3.12-7.5c0.32-0.17,0.7-0.24,0.57-0.79c-0.11-0.46-0.27-0.63-0.77-0.63
	c-10.99,0.02-21.98,0.01-32.97,0c-0.46,0-0.6,0.14-0.67,0.6c-0.4,2.77-0.85,5.53-1.28,8.3c-0.16,1.06-0.31,2.13-0.46,3.19
	c-0.08,0.56-0.3,1.04-0.87,1.21c-0.48,0.14-1,0.12-1.3-0.34c-0.19-0.31-0.34-0.74-0.3-1.09c0.32-2.35,0.7-4.69,1.06-7.04
	c0.39-2.58,0.78-5.16,1.17-7.75c0.43-2.8,0.86-5.6,1.29-8.4c0.31-1.99,0.63-3.98,0.93-5.97c0.02-0.12-0.05-0.26-0.11-0.37
	c-1.29-2.17-2.18-4.48-2.56-6.98c-0.17-1.13-0.22-2.28-0.27-3.42c-0.03-0.73,0.52-1.2,1.3-1.22c0.87-0.02,1.74-0.03,2.61,0
	c0.48,0.02,0.68-0.11,0.64-0.62c-0.04-0.6-0.01-1.2-0.01-1.79c0.01-0.86,0.53-1.42,1.29-1.41c0.7,0.01,1.19,0.57,1.2,1.38
	c0.01,0.58,0,1.16,0,1.74c0,0.68,0,0.68,0.66,0.68c5.37,0,10.73,0,16.1,0c2.89,0,5.78,0,8.67,0C41.75,15.25,41.95,15.25,42.23,15.25
	z M14.13,29.91c-0.1,0.53-0.19,0.96-0.25,1.4c-0.51,3.34-1,6.68-1.51,10.02c-0.11,0.72-0.12,0.72,0.6,0.72c10.66,0,21.32,0,31.99,0
	c0.2,0,0.4-0.02,0.69-0.04c-0.63-3.86-1.25-7.66-1.89-11.59c-4.19,4.17-9.13,6.31-14.94,6.2C23,36.52,18.15,34.19,14.13,29.91z
	 M48.52,53.4c1.05,0.02,1.9-0.78,1.9-1.8c0.01-1.02-0.77-1.85-1.78-1.87c-1.08-0.03-1.9,0.75-1.93,1.82
	C46.68,52.52,47.53,53.39,48.52,53.4z"/>
<path class="st0" d="M26.76,11.99c-0.47,0.03-0.6-0.19-0.52-0.48c0.06-0.24,0.2-0.48,0.37-0.66c0.31-0.33,0.68-0.62,1.02-0.94
	c0.31-0.29,0.64-0.57,0.92-0.89c0.66-0.77,0.68-1.28,0.11-2.12c-0.48-0.7-0.83-1.45-0.95-2.3c-0.21-1.47,0.62-3.07,1.9-3.67
	c0.32-0.15,0.71-0.3,0.93,0.04c0.13,0.2,0.06,0.57-0.01,0.85c-0.07,0.28-0.24,0.52-0.36,0.79c-0.46,1.08-0.42,2.12,0.26,3.12
	c0.28,0.41,0.53,0.84,0.74,1.29c0.5,1.09,0.31,2.21-0.52,3.08C29.56,11.24,28.13,11.69,26.76,11.99z"/>
<path class="st0" d="M35.8,5.25c-0.08,0.28-0.14,0.51-0.23,0.74c-0.41,1.06-0.41,2.08,0.14,3.11c0.41,0.78,0.66,1.59,0.42,2.51
	c-0.33,1.27-1.68,2.12-2.74,2.37c-0.39,0.09-0.46-0.2-0.36-0.46c0.11-0.3,0.3-0.57,0.49-0.83c0.25-0.34,0.55-0.65,0.81-0.99
	c0.46-0.6,0.52-1.22,0.13-1.91c-0.46-0.82-0.66-1.72-0.55-2.67c0.1-0.85,0.39-1.64,1.15-2.14c0.13-0.09,0.36-0.11,0.52-0.06
	C35.69,4.95,35.74,5.15,35.8,5.25z"/>
<path class="st0" d="M48.59,52.39c-0.43,0.01-0.81-0.36-0.83-0.8c-0.02-0.45,0.33-0.83,0.77-0.85c0.46-0.02,0.82,0.3,0.84,0.77
	C49.39,52,49.06,52.37,48.59,52.39z"/>
<rect x="22.62" y="18.75" class="st1" width="13.54" height="13.54"/>
</svg>
