<?xml version="1.0" encoding="utf-8"?>
<!-- Generator: Adobe Illustrator 25.4.1, SVG Export Plug-In . SVG Version: 6.00 Build 0)  -->
<svg version="1.1" id="Layer_1" xmlns="http://www.w3.org/2000/svg" xmlns:xlink="http://www.w3.org/1999/xlink" x="0px" y="0px"
	 viewBox="0 0 64 64" style="enable-background:new 0 0 64 64;" xml:space="preserve">
<style type="text/css">
	.st0{fill:#231F20;}
	.st1{fill:#F48165;}
</style>
<rect x="12.91" y="7.01" transform="matrix(-1 -1.224647e-16 1.224647e-16 -1 34.6473 18.155)" class="st0" width="8.83" height="4.13"/>
<g>
	<path class="st0" d="M40.49,53.93H22.04C13,53.93,5.67,46.6,5.67,37.56v-4.72h51.19v4.72C56.85,46.6,49.53,53.93,40.49,53.93z"/>
	
		<rect x="9.9" y="48.63" transform="matrix(6.123234e-17 -1 1 6.123234e-17 -36.4567 64.9374)" class="st0" width="8.69" height="4.13"/>
	
		<rect x="44.24" y="48.63" transform="matrix(6.123234e-17 -1 1 6.123234e-17 -2.1085 99.2856)" class="st0" width="8.69" height="4.13"/>
	
		<rect x="3.75" y="28.71" transform="matrix(-1 -1.224647e-16 1.224647e-16 -1 62.5217 61.555)" class="st0" width="55.03" height="4.13"/>
	<rect x="31.26" y="28.71" class="st1" width="15.02" height="15.02"/>
</g>
<rect x="-2.95" y="22.14" transform="matrix(6.123234e-17 -1 1 6.123234e-17 -9.9654 38.446)" class="st0" width="34.39" height="4.13"/>
</svg>
