<?xml version="1.0" encoding="utf-8"?>
<!-- Generator: Adobe Illustrator 25.4.1, SVG Export Plug-In . SVG Version: 6.00 Build 0)  -->
<svg version="1.1" id="Layer_1" xmlns="http://www.w3.org/2000/svg" xmlns:xlink="http://www.w3.org/1999/xlink" x="0px" y="0px"
	 viewBox="0 0 60 60" style="enable-background:new 0 0 60 60;" xml:space="preserve">
<style type="text/css">
	.st0{fill:#231F20;}
	.st1{fill:#F48165;}
</style>
<path class="st0" d="M16.53,26.32c0.07,1.25,0.16,2.34,0.17,3.43c0.05,3.41-0.66,6.68-1.82,9.87c-0.05,0.13-0.24,0.29-0.37,0.29
	c-1.3,0.02-2.59,0.01-3.94,0.01c0.07-0.12,0.1-0.21,0.16-0.28c1.39-1.75,2.04-3.78,2.35-5.96c0.29-2.03,0.52-4.06,0.43-6.11
	c-0.02-0.47-0.08-0.95-0.14-1.49c-1.51,0.86-2.37,2.04-2.55,3.68c-0.09,0.85,0.04,1.68,0.43,2.45c0.2,0.39,0.22,0.76-0.18,1.04
	c-0.37,0.26-0.7,0.11-1.02-0.14c-2.13-1.72-2.69-4.59-1.36-7c0.05-0.09,0.11-0.19,0.19-0.34c-0.15,0.02-0.25,0.01-0.33,0.04
	c-1.83,0.69-3.07,1.97-3.74,3.8c-0.09,0.25-0.22,0.54-0.42,0.7c-0.48,0.38-1.14,0.01-1.25-0.67c-0.21-1.28-0.08-2.52,0.4-3.72
	c1.37-3.43,5.02-5.17,8.58-4.11c0.13,0.04,0.26,0.07,0.53,0.14c-0.91-0.85-1.86-1.32-2.94-1.53c-2.06-0.4-3.89,0.1-5.46,1.52
	c-0.45,0.41-0.81,0.46-1.17,0.2c-0.36-0.26-0.42-0.62-0.2-1.18c1.06-2.73,3.59-4.53,6.49-4.54c2.25,0,4.11,0.9,5.54,2.66
	c0.09,0.11,0.17,0.22,0.26,0.33c0.02,0.02,0.05,0.03,0.1,0.05c0.62-0.89,1.41-1.61,2.36-2.15c3.01-1.71,6.95-0.88,9.01,1.9
	c0.27,0.36,0.45,0.72,0.12,1.14c-0.28,0.36-0.63,0.4-1.17,0.15c-1.96-0.92-3.88-0.88-5.78,0.17c-0.08,0.04-0.15,0.1-0.22,0.17
	c1.33-0.28,2.63-0.22,3.92,0.21c2.82,0.93,4.82,3.75,4.74,6.72c-0.01,0.53-0.21,0.82-0.63,0.91c-0.48,0.1-0.76-0.15-0.97-0.55
	c-1.26-2.41-3.51-3.65-6.19-3.41c-0.15,0.01-0.3,0.06-0.35,0.07c0.5,0.63,1.08,1.23,1.49,1.93c1.4,2.38,0.61,5.6-1.69,7.12
	c-0.32,0.21-0.64,0.26-0.94,0c-0.32-0.28-0.29-0.61-0.11-0.97c1.03-2.14,0.66-4.16-1.07-5.72C17.45,26.86,17.02,26.65,16.53,26.32z"
	/>
<path class="st0" d="M42.52,29.57c-0.86,0-1.63,0-2.42,0c-0.05-0.46-0.06-0.91-0.14-1.35c-0.22-1.19-1.21-1.98-2.36-1.9
	c-1.24,0.08-2.13,0.98-2.16,2.22c-0.03,0.89-0.01,1.77-0.01,2.68c3.38,0,6.71,0,10.09,0c0-0.81-0.01-1.6,0-2.4
	c0.02-2.39,1.6-4.39,3.84-4.85c2.85-0.6,5.62,1.6,5.67,4.5c0.01,0.36,0,0.71,0,1.09c-0.82,0-1.6,0-2.43,0c0-0.28,0-0.54,0-0.8
	c-0.03-1.41-1.03-2.48-2.3-2.45c-1.36,0.03-2.32,1.05-2.32,2.48c0,5.25,0,10.5,0,15.75c0,0.75,0,1.49,0,2.27c-0.83,0-1.61,0-2.44,0
	c0-0.83,0-1.65,0-2.5c-3.38,0-6.72,0-10.1,0c0,0.83,0,1.65,0,2.5c-0.83,0-1.61,0-2.45,0c0-0.35,0-0.68,0-1.02
	c0-5.75-0.01-11.5,0.02-17.25c0.01-2.48,2.03-4.5,4.51-4.63c2.46-0.13,4.61,1.67,4.91,4.14C42.49,28.52,42.49,29.02,42.52,29.57z
	 M35.45,41.81c3.38,0,6.71,0,10.04,0c0-0.99,0-1.95,0-2.94c-3.36,0-6.69,0-10.04,0C35.45,39.86,35.45,40.82,35.45,41.81z
	 M35.45,33.7c0,0.92,0,1.79,0,2.68c3.37,0,6.71,0,10.04,0c0-0.92,0-1.8,0-2.68C42.13,33.7,38.81,33.7,35.45,33.7z"/>
<path class="st0" d="M31.51,37.59c0,0.63,0.01,1.21-0.01,1.78c0,0.1-0.18,0.22-0.3,0.28c-0.58,0.26-1.2,0.45-1.74,0.77
	c-2.38,1.4-4.77,1.46-7.12,0.01c-1.91-1.18-3.7-1.12-5.61,0.05c-2.32,1.42-4.71,1.34-7.03-0.09c-0.58-0.36-0.72-0.94-0.39-1.44
	c0.33-0.5,0.9-0.6,1.48-0.25c1.72,1.03,3.41,0.99,5.11-0.06c2.39-1.47,4.84-1.53,7.24-0.05c1.32,0.81,2.67,1.11,4.15,0.62
	c0.47-0.15,0.9-0.42,1.33-0.67C29.5,38.03,30.41,37.67,31.51,37.59z"/>
<path class="st0" d="M31.49,43.16c0,0.71,0,1.34,0,1.83c-0.83,0.42-1.58,0.77-2.31,1.17c-2.28,1.24-4.54,1.21-6.76-0.11
	c-0.8-0.48-1.62-0.89-2.56-0.94c-1.04-0.05-2.01,0.22-2.87,0.82c-1.02,0.69-2.16,1.06-3.38,1.12c-1.42,0.06-2.75-0.3-3.94-1.1
	c-0.54-0.37-0.67-0.92-0.34-1.41c0.32-0.48,0.91-0.6,1.44-0.26c1.28,0.8,2.64,1.01,4.07,0.49c0.36-0.13,0.71-0.33,1.04-0.53
	c2.41-1.45,4.85-1.54,7.26-0.07c1.84,1.12,3.6,1.16,5.45,0.03c0.74-0.45,1.63-0.66,2.46-0.97C31.16,43.17,31.31,43.18,31.49,43.16z"
	/>
<path class="st0" d="M55.03,31.29c0,0.72,0.01,1.4-0.01,2.09c0,0.09-0.15,0.26-0.24,0.26c-1.75,0.02-3.49,0.01-5.27,0.01
	c0-0.82,0-1.57,0-2.36C51.33,31.29,53.14,31.29,55.03,31.29z"/>
<path class="st0" d="M49.49,39.22c1.01,0.24,1.97,0.34,2.91,0c0.38-0.14,0.74-0.32,1.09-0.52c0.6-0.33,1.2-0.23,1.51,0.27
	c0.31,0.51,0.14,1.08-0.47,1.46c-1.45,0.92-3.02,1.23-4.7,0.9c-0.13-0.02-0.33-0.18-0.33-0.28C49.47,40.47,49.49,39.86,49.49,39.22z
	"/>
<path class="st0" d="M49.5,46.85c0-0.68,0-1.33,0-2.03c0.24,0.05,0.45,0.1,0.67,0.14c1.21,0.23,2.31-0.02,3.35-0.67
	c0.67-0.42,1.41-0.15,1.6,0.57c0.12,0.42-0.06,0.81-0.49,1.11C53.21,46.95,51.24,47.3,49.5,46.85z"/>
<rect x="32.98" y="36.58" class="st1" width="15.01" height="15.02"/>
</svg>
