<?xml version="1.0" encoding="utf-8"?>
<!-- Generator: Adobe Illustrator 25.4.1, SVG Export Plug-In . SVG Version: 6.00 Build 0)  -->
<svg version="1.1" id="Layer_1" xmlns="http://www.w3.org/2000/svg" xmlns:xlink="http://www.w3.org/1999/xlink" x="0px" y="0px"
	 viewBox="0 0 64 64" style="enable-background:new 0 0 64 64;" xml:space="preserve">
<style type="text/css">
	.st0{fill:#F48165;}
	.st1{fill:#231F20;}
	.st2{fill:none;stroke:#FFFEFF;stroke-width:1.0586;stroke-miterlimit:10;}
</style>
<g>
	<rect x="40.45" y="27.9" class="st0" width="15.02" height="15.02"/>
	<rect x="7.32" y="28.86" class="st1" width="31.19" height="9.17"/>
	<polygon class="st1" points="38.5,27.84 7.32,27.84 13.25,18.67 33.5,18.67 	"/>
	<rect x="8.43" y="38.03" class="st1" width="2.71" height="4.89"/>
	<rect x="33.5" y="38.03" class="st1" width="2.71" height="4.89"/>
	<path class="st2" d="M11.36,28.23c0.19-0.5,0.59-1.22,1.45-1.79c1.78-1.17,4.75-1.4,6.66-0.25c1.04,0.62,1.46,1.47,1.64,1.96"/>
	<path class="st2" d="M25.1,28.23c0.19-0.5,0.59-1.22,1.45-1.79c1.78-1.17,4.75-1.4,6.66-0.25c1.04,0.62,1.46,1.47,1.64,1.96"/>
	<polygon class="st1" points="52.11,24.66 43.81,24.66 45.39,18.67 50.78,18.67 	"/>
	<rect x="46.86" y="23.97" class="st1" width="2.2" height="3.97"/>
</g>
</svg>
