<?xml version="1.0" encoding="utf-8"?>
<!-- Generator: Adobe Illustrator 25.4.1, SVG Export Plug-In . SVG Version: 6.00 Build 0)  -->
<svg version="1.1" id="Layer_1" xmlns="http://www.w3.org/2000/svg" xmlns:xlink="http://www.w3.org/1999/xlink" x="0px" y="0px"
	 viewBox="0 0 60 60" style="enable-background:new 0 0 60 60;" xml:space="preserve">
<style type="text/css">
	.st0{fill:#F48165;}
	.st1{fill:#231F20;}
</style>
<rect x="29.66" y="2.92" class="st0" width="14.29" height="14.29"/>
<path class="st1" d="M41.78,21.68c-2.07,0-4.07,0-6.17,0c0,1.39,0,2.67,0,4.02c-1.15,0-2.2,0-3.36,0c0-1.39,0-2.7,0-4.06
	c-0.94-0.04-1.77-0.08-2.6-0.12c0-3.07,0-6.01,0-9.13c0.01,0.01,0.02,0.01,0.04,0.02V2.92h-1c0,5.32,0,13.95,0,18.6
	c-0.93,0.04-1.76,0.08-2.7,0.13c0,1.42,0,2.73,0,4.06c-1.14,0-2.16,0-3.32,0c0-1.38,0-2.69,0-4.04c-2.14,0-4.15,0-6.12,0
	c0,4.19,0,8.27,0,12.35c0.63,0.07,1.16,0.12,1.79,0.19c-0.51,7.93-1.01,15.81-1.52,23.7h24.66c-0.51-7.91-1.01-15.8-1.52-23.72
	c0.69-0.06,1.22-0.11,1.82-0.16C41.78,29.89,41.78,25.8,41.78,21.68z M26.06,41.68c0.06-1.87,1.45-3.25,3.12-3.26
	c1.52-0.01,2.99,1.35,3.05,3.09c0.1,2.62,0.03,5.24,0.03,8.04c-1.94,0-3.75,0.03-5.55-0.03c-0.23-0.01-0.63-0.47-0.64-0.73
	C26.02,46.41,25.99,44.04,26.06,41.68z M23.27,53.52c0.16-0.79,0.32-1.54,0.48-2.3c0.11,1.35,0.9,1.45,1.96,1.42
	c2.33-0.07,4.66-0.06,6.99,0c0.98,0.03,1.68-0.1,1.89-1.25c0.15,0.67,0.31,1.34,0.48,2.13C31.12,53.52,27.27,53.52,23.27,53.52z"/>
</svg>
