<?xml version="1.0" encoding="utf-8"?>
<!-- Generator: Adobe Illustrator 25.4.1, SVG Export Plug-In . SVG Version: 6.00 Build 0)  -->
<svg version="1.1" id="Layer_1" xmlns="http://www.w3.org/2000/svg" xmlns:xlink="http://www.w3.org/1999/xlink" x="0px" y="0px"
	 viewBox="0 0 60 60" style="enable-background:new 0 0 60 60;" xml:space="preserve">
<style type="text/css">
	.st0{fill:#231F20;}
	.st1{fill:#F48165;}
</style>
<path class="st0" d="M16.05,45.24c1.31,0.34,2.58,0.61,3.82,1c0.73,0.23,1.42,0.62,2.1,1c0.67,0.38,0.94,1.06,1.06,1.79
	c0.05,0.3,0.04,0.6,0.08,0.9c0.06,0.34-0.12,0.55-0.4,0.63c-0.53,0.16-1.06,0.38-1.6,0.39c-4.08,0.03-8.17,0.04-12.26,0
	c-0.57-0.01-1.13-0.27-1.69-0.44c-0.21-0.06-0.31-0.24-0.28-0.48c0.06-0.46,0.07-0.93,0.18-1.38c0.23-1.02,1.01-1.55,1.89-1.96
	c1.46-0.69,3.03-0.97,4.59-1.29c0.15-0.03,0.29-0.07,0.46-0.1c0-7.2,0-14.4,0-21.63c-0.11-0.01-0.19-0.02-0.28-0.02
	c-2.49-0.02-4.98-0.03-7.47-0.05c-0.19,0-0.38,0.01-0.56-0.04c-0.6-0.15-0.85-0.69-0.64-1.39c0.64-2.18,1.29-4.35,1.95-6.52
	c0.64-2.1,1.29-4.19,1.95-6.28c0.22-0.69,0.7-1.18,1.35-1.44c1.87-0.75,3.83-1.02,5.81-0.83c1.04,0.1,2.07,0.4,3.08,0.68
	c0.9,0.25,1.49,0.94,1.76,1.79c0.99,3.04,1.93,6.1,2.87,9.16c0.34,1.09,0.65,2.19,0.97,3.29c0.05,0.18,0.1,0.36,0.13,0.55
	c0.08,0.56-0.32,0.94-1.03,0.95c-1.2,0.02-2.4,0.02-3.6,0.02c-1.32,0-2.63,0-3.95,0c-0.09,0-0.17,0.02-0.29,0.03
	C16.05,30.81,16.05,38.04,16.05,45.24z M17.11,10.45c0,0.03,0,0.13,0.02,0.23c0.85,3.27,1.71,6.55,2.57,9.82
	c0.16,0.6,0.68,0.91,1.24,0.76c0.52-0.13,0.78-0.67,0.63-1.27c-0.65-2.5-1.3-5-1.94-7.5c-0.2-0.76-0.4-1.53-0.59-2.29
	c-0.15-0.57-0.59-0.88-1.15-0.8C17.44,9.46,17.11,9.88,17.11,10.45z M21.36,49.17c-2.65-2.83-10.2-2.73-12.83,0
	C12.81,49.17,17.07,49.17,21.36,49.17z"/>
<path class="st0" d="M38.04,46.97c-3.73,0-7.46,0.01-11.2-0.01c-0.47,0-0.96-0.05-1.42-0.18c-1.26-0.33-1.79-1.07-1.9-2.37
	c-0.1-1.17-0.08-2.35-0.09-3.52c-0.01-2.5-0.02-5.01,0.01-7.51c0.01-0.52,0.11-1.06,0.27-1.55c0.44-1.32,1.48-1.9,2.73-1.82
	c1.5,0.1,2.33,0.87,2.55,2.33c0.19,1.21,0.15,2.46,0.17,3.7c0.03,1.57-0.01,3.14,0.01,4.7c0.01,0.67,0.43,1.09,1.1,1.09
	c2.21,0.02,4.43,0.01,6.64,0.01c2.76,0,5.52,0.01,8.27,0.01c0.29,0,0.58,0.03,0.87-0.02c0.59-0.08,0.98-0.5,0.98-1.11
	c0.02-1.21,0-2.43,0-3.64c0-1.24-0.01-2.48,0.02-3.72c0.02-0.9,0.17-1.79,0.81-2.5c0.76-0.84,1.75-1.02,2.8-0.78
	c1.07,0.25,1.69,1.01,1.95,2.05c0.11,0.44,0.16,0.9,0.16,1.34c0.01,3.28,0.02,6.55,0,9.83c0,0.53-0.06,1.06-0.18,1.57
	c-0.31,1.34-1.16,1.85-2.42,1.99c-0.66,0.08-1.34,0.08-2,0.08C44.8,46.98,41.42,46.97,38.04,46.97z"/>
<path class="st0" d="M30.68,35.47c4.91,0,9.8,0,14.72,0c0.01,0.1,0.03,0.2,0.03,0.29c0,0.95,0.01,1.9,0,2.85
	c-0.01,1-0.65,1.67-1.66,1.67c-3.82,0.01-7.64,0.01-11.46,0c-1.02,0-1.66-0.68-1.66-1.7c0-1,0-2,0-3
	C30.65,35.56,30.66,35.54,30.68,35.47z"/>
<path class="st0" d="M46.99,50.99c-0.4,0-0.81,0-1.21,0c-0.46,0-0.79-0.23-0.88-0.67c-0.06-0.34-0.07-0.71-0.01-1.05
	c0.08-0.49,0.42-0.74,0.95-0.74c0.76-0.01,1.52-0.01,2.27,0c0.65,0.01,0.95,0.35,0.98,0.99c0.06,1.14-0.13,1.56-1.45,1.48
	C47.42,50.98,47.21,50.99,46.99,50.99z"/>
<path class="st0" d="M29.41,50.99c-0.42,0-0.83,0.01-1.25,0c-0.5-0.01-0.85-0.35-0.86-0.86c-0.01-0.21,0-0.43,0-0.64
	c0.01-0.57,0.36-0.95,0.93-0.96c0.77-0.01,1.54-0.02,2.31,0c0.66,0.02,0.96,0.37,0.99,1.03c0.05,1.12-0.22,1.51-1.44,1.43
	C29.87,50.98,29.64,50.99,29.41,50.99z"/>
<rect x="30.67" y="19.12" class="st1" width="15.01" height="15.02"/>
</svg>
