<?xml version="1.0" encoding="utf-8"?>
<!-- Generator: Adobe Illustrator 25.4.1, SVG Export Plug-In . SVG Version: 6.00 Build 0)  -->
<svg version="1.1" id="Layer_1" xmlns="http://www.w3.org/2000/svg" xmlns:xlink="http://www.w3.org/1999/xlink" x="0px" y="0px"
	 viewBox="0 0 60 60" style="enable-background:new 0 0 60 60;" xml:space="preserve">
<style type="text/css">
	.st0{fill:#231F20;}
	.st1{fill:#F48165;}
</style>
<path class="st0" d="M15.66,12.53c0,9.39,0,18.73,0,28.14c0.96,0,1.89,0,2.84,0c0.16,0.66,0.3,1.27,0.44,1.89
	c1.33,5.91,6.02,10.14,11.88,10.72c6.49,0.64,12.56-3.58,14.24-9.88c0.24-0.9,0.45-1.8,0.68-2.76c0.97,0,1.9,0,2.84,0
	c0-9.39,0-18.72,0-28.11C37.56,12.53,26.61,12.53,15.66,12.53z M37.6,16.46c1.14,0,2.27,0,3.44,0c0,0.37,0,0.73,0,1.18
	c-0.6,0-1.22,0-1.88,0c0,0.4,0,0.71,0,1.08c0.59,0,1.15,0,1.76,0c0,0.41,0,0.76,0,1.23c-0.31,0-0.59,0-0.87,0c-0.28,0-0.56,0-0.89,0
	c0,0.4,0,0.75,0,1.17c0.64,0,1.26,0,1.94,0c0,0.44,0,0.81,0,1.23c-1.16,0-2.31,0-3.5,0C37.6,20.4,37.6,18.45,37.6,16.46z
	 M33.6,16.48c1.12,0,2.24,0,3.42,0c0,0.36,0,0.73,0,1.19c-0.61,0-1.23,0-1.88,0c0,0.38,0,0.68,0,1.05c0.57,0,1.15,0,1.77,0
	c0,0.43,0,0.78,0,1.21c-0.56,0-1.14,0-1.81,0c0,0.88,0,1.65,0,2.45c-0.51,0-0.98,0-1.49,0C33.6,20.42,33.6,18.47,33.6,16.48z
	 M33.75,29.19c0.24-0.55,0.3-1.12-0.05-1.69c0.61,0.19,0.99,0.92,0.77,1.66c-0.16,0.54-0.44,1.03-0.68,1.55
	c-0.2,0.42-0.44,0.82-0.6,1.25c-0.19,0.53-0.24,1.07,0.37,1.6c-0.75-0.38-1.1-1.02-0.95-1.73c0.1-0.45,0.29-0.88,0.47-1.3
	C33.27,30.07,33.55,29.65,33.75,29.19z M29.62,16.46c1.13,0,2.24,0,3.39,0c0,0.39,0,0.75,0,1.2c-0.61,0-1.23,0-1.89,0
	c0,0.38,0,0.68,0,1.05c0.56,0,1.14,0,1.76,0c0,0.44,0,0.81,0,1.24c-0.6,0-1.16,0-1.8,0c0,0.83,0,1.62,0,2.43c-0.52,0-0.96,0-1.46,0
	C29.62,20.4,29.62,18.45,29.62,16.46z M31.56,29.03c-0.3-0.6-0.71-1.15-0.91-1.78c-0.15-0.47-0.11-1.03-0.03-1.54
	c0.04-0.25,0.34-0.45,0.6-0.65c-0.43,0.76-0.18,1.44,0.16,2.11c0.27,0.53,0.58,1.05,0.81,1.6c0.39,0.92,0.19,1.76-0.52,2.24
	C32.1,30.32,31.88,29.67,31.56,29.03z M25.99,16.31c1.29,0.07,2.56,1.2,2.87,2.54c0.26,1.13,0.07,2.14-0.77,2.98
	c-0.08,0.08-0.2,0.13-0.4,0.25c-0.23-0.47-0.42-0.86-0.61-1.26c-0.58-1.23-1.15-2.47-1.72-3.7C25.07,16.49,25.24,16.27,25.99,16.31z
	 M21.69,22.4c-1.41,0.35-2.48-0.17-2.64-1.46c-0.13-1.08-0.1-2.2,0.05-3.28c0.14-1.04,1.07-1.51,2.25-1.34
	c1.06,0.15,1.63,0.82,1.57,1.89c-0.01,0.13-0.21,0.33-0.34,0.35c-0.34,0.05-0.69,0.02-1.1,0.02c-0.03-0.3-0.01-0.54-0.09-0.74
	c-0.08-0.19-0.26-0.35-0.4-0.52c-0.15,0.16-0.4,0.31-0.43,0.5c-0.08,0.44-0.06,0.89-0.06,1.34c0,0.55-0.03,1.11,0.04,1.65
	c0.03,0.22,0.29,0.41,0.45,0.62c0.14-0.19,0.33-0.36,0.41-0.57c0.09-0.26,0.08-0.55,0.12-0.86c0.47,0,0.91,0,1.35,0
	C23.15,21.15,22.65,22.16,21.69,22.4z M23.68,20.5c-0.52-1.19-0.44-2.35,0.42-3.37c0.4-0.48,0.56-0.44,0.84,0.15
	c0.69,1.47,1.37,2.95,2.05,4.42c0.28,0.61,0.16,0.78-0.63,0.78C25.11,22.39,24.2,21.69,23.68,20.5z M38.97,49.84
	c-0.94,0.01-1.88-0.01-2.82,0.01c-0.17,0-0.34,0.15-0.51,0.22c-0.15,0.06-0.3,0.18-0.45,0.18c-2.06,0.01-4.11,0.01-6.17,0.01
	c-1.25-0.59-2.6-0.26-3.9-0.43c-0.41-0.05-0.59-0.33-0.59-0.74c0-0.4,0.17-0.67,0.59-0.73c0.19-0.03,0.38-0.02,0.57-0.02
	c2.14,0,4.29,0,6.43,0c2.13,0,4.25,0,6.38,0c0.17,0,0.35,0,0.52,0.01c0.47,0.04,0.68,0.33,0.67,0.77
	C39.68,49.56,39.44,49.84,38.97,49.84z M43.03,43.73c0,1.22-0.99,2.21-2.21,2.21h-1.59v-0.97h1.59c0.68,0,1.24-0.56,1.24-1.24v-5.61
	c0-0.68-0.56-1.24-1.24-1.24h-1.59V35.9h1.59c1.22,0,2.21,0.99,2.21,2.21V43.73z M45.28,22.36c-1.19,0-2.34,0-3.52,0
	c0-1.98,0-3.92,0-5.91c1.19,0,2.3,0,3.46,0c0,0.4,0,0.77,0,1.21c-0.63,0-1.23,0-1.88,0c0,0.38,0,0.69,0,1.05c0.57,0,1.14,0,1.75,0
	c0,0.42,0,0.79,0,1.21c-0.57,0-1.14,0-1.75,0c0,0.4,0,0.76,0,1.2c0.63,0,1.27,0,1.94,0C45.28,21.58,45.28,21.96,45.28,22.36z"/>
<path class="st0" d="M51.49,43.61c-0.96,0-1.88,0.04-2.79-0.01c-0.51-0.03-0.68,0.16-0.82,0.63c-1.78,5.97-5.66,9.89-11.67,11.49
	c-8.67,2.32-17.49-2.86-19.87-11.53c-0.05-0.17-0.11-0.35-0.17-0.57c-1.13,0-2.26,0-3.43,0c0-11.36,0-22.66,0-34.01
	c12.9,0,25.8,0,38.76,0C51.49,20.9,51.49,32.22,51.49,43.61z M14.82,11.65c0,9.99,0,19.92,0,29.89c1.02,0,2,0,2.96,0
	c1.69,7.5,6.02,12.34,13.91,12.54c8.34,0.21,12.97-4.67,14.82-12.57c0.96,0,1.93,0,2.88,0c0-9.99,0-19.92,0-29.86
	C37.85,11.65,26.36,11.65,14.82,11.65z"/>
<path class="st0" d="M19.91,4.67c0-0.56,0-1,0-1.47c0.94,0,1.83,0,2.79,0c0,0.45,0,0.91,0,1.42c6.27,0,12.49,0,18.76,0
	c0-0.45,0-0.91,0-1.41c0.97,0,1.88,0,2.86,0c0,0.47,0,0.92,0,1.44c3.19,0,6.3,0,9.47,0c0,0.63,0,1.2,0,1.83c-3.13,0-6.24,0-9.44,0
	c0,0.73,0,1.41,0,2.14c-0.99,0-1.89,0-2.87,0c0-0.7,0-1.38,0-2.09c-6.27,0-12.47,0-18.73,0c0,0.68,0,1.36,0,2.09
	c-0.97,0-1.88,0-2.84,0c0-0.69,0-1.35,0-1.97c-0.08-0.07-0.11-0.12-0.14-0.12c-1.9-0.01-3.81-0.14-5.69,0.02
	c-2.77,0.24-4.67,2.61-4.67,5.58c-0.01,5.41,0,10.82,0,16.23c0,9.64,0,19.27,0,28.91c0,0.2,0,0.4,0,0.65c-0.58,0-1.12,0-1.72,0
	c-0.01-0.19-0.03-0.38-0.03-0.58c0-15.13,0-30.26,0-45.38c0-3.55,2.26-6.39,5.71-7.1c0.93-0.19,1.91-0.15,2.86-0.17
	C17.43,4.65,18.63,4.67,19.91,4.67z"/>
<path class="st0" d="M36.37,39.63c0-0.76-0.01-1.53,0.02-2.31c0-0.09,0.29-0.25,0.43-0.24c0.75,0.03,1.26,0.68,1.18,1.46
	C37.92,39.3,37.29,39.76,36.37,39.63z"/>
<rect x="25.72" y="34.16" class="st1" width="13.52" height="13.52"/>
</svg>
