<?xml version="1.0" encoding="utf-8"?>
<!-- Generator: Adobe Illustrator 25.4.1, SVG Export Plug-In . SVG Version: 6.00 Build 0)  -->
<svg version="1.1" id="Layer_1" xmlns="http://www.w3.org/2000/svg" xmlns:xlink="http://www.w3.org/1999/xlink" x="0px" y="0px"
	 viewBox="0 0 60 60" style="enable-background:new 0 0 60 60;" xml:space="preserve">
<style type="text/css">
	.st0{fill:#231F20;}
	.st1{fill:#F48165;}
</style>
<g>
	<path class="st0" d="M3.5,55.71c0-15.41,0-30.83,0-46.24c2.5,0,5,0,7.65,0c0-1.51,0-2.88,0-4.24c12.95,0,25.75,0,38.69,0
		c0,1.43,0,2.81,0,4.24c2.62,0,5.09,0,7.56,0c0,15.41,0,30.83,0,46.24c-1.41,0-2.82,0-4.34,0c0-14.01,0-27.92,0-41.84
		c-1.12,0-2.13,0-3.26,0c0,1.42,0,2.76,0,4.16c-12.95,0-25.77,0-38.75,0c0-1.44,0-2.81,0-4.15c-1.17,0-2.18,0-3.3,0
		c0,14,0,27.92,0,41.84C6.27,55.71,4.88,55.71,3.5,55.71z"/>
	<path class="st0" d="M14.29,49.35c-0.78,0-1.45,0.04-2.12-0.01c-1.36-0.09-2.16-0.84-2.18-2.2c-0.04-3.55-0.08-7.11,0.05-10.66
		c0.02-0.68,0.75-1.38,1.25-1.99c0.39-0.48,1.08-0.75,1.39-1.27c2.1-3.48,4.15-6.98,6.17-10.5c0.54-0.94,1.24-1.34,2.32-1.33
		c6.19,0.03,12.38,0.03,18.56,0c1.08,0,1.78,0.41,2.32,1.34c2.05,3.55,4.12,7.09,6.24,10.61c0.27,0.45,0.78,0.81,1.26,1.08
		c0.84,0.47,1.36,1.11,1.37,2.08c0.01,3.55,0.03,7.11-0.01,10.66c-0.01,1.36-0.79,2.09-2.19,2.18c-0.67,0.04-1.34,0.01-2.11,0.01
		c0,1.14,0.02,2.13,0,3.12c-0.06,2.2-1.31,3.35-3.61,3.34c-2.43-0.02-3.83-1.26-3.85-3.42c-0.01-0.95,0-1.9,0-2.94
		c-5.79,0-11.48,0-17.38,0c0,0.98,0.01,1.96,0,2.93c-0.04,2.18-1.43,3.41-3.85,3.42c-2.3,0.02-3.55-1.12-3.62-3.34
		C14.26,51.48,14.29,50.48,14.29,49.35z M17.32,34.26c8.85,0,17.48,0,26.28,0c-1.66-3.02-3.2-5.93-4.87-8.77
		c-0.28-0.47-1.1-0.88-1.67-0.89c-4.39-0.07-8.78-0.07-13.17,0c-0.58,0.01-1.4,0.41-1.68,0.88C20.53,28.32,18.98,31.23,17.32,34.26z
		 M42.55,40.26c0.02,1.47,1.24,2.71,2.64,2.7c1.39-0.02,2.63-1.29,2.63-2.73c0.01-1.52-1.24-2.77-2.72-2.73
		C43.67,37.54,42.53,38.78,42.55,40.26z M18.36,40.19c-0.01-1.5-1.16-2.69-2.6-2.69c-1.42,0-2.64,1.22-2.66,2.67
		c-0.02,1.47,1.31,2.83,2.7,2.78C17.25,42.91,18.36,41.71,18.36,40.19z"/>
</g>
<rect x="22.94" y="4.12" class="st1" width="15.01" height="15.02"/>
</svg>
