<?xml version="1.0" encoding="utf-8"?>
<!-- Generator: Adobe Illustrator 25.4.1, SVG Export Plug-In . SVG Version: 6.00 Build 0)  -->
<svg version="1.1" id="Layer_1" xmlns="http://www.w3.org/2000/svg" xmlns:xlink="http://www.w3.org/1999/xlink" x="0px" y="0px"
	 viewBox="0 0 64 64" style="enable-background:new 0 0 64 64;" xml:space="preserve">
<style type="text/css">
	.st0{fill:#231F20;}
	.st1{fill:#F48165;}
</style>
<g>
	<rect x="50.81" y="21.37" class="st0" width="4.25" height="31.89"/>
	<g>
		<ellipse class="st0" cx="12.11" cy="48.61" rx="5.41" ry="5.65"/>
		<ellipse class="st0" cx="38.35" cy="48.61" rx="5.41" ry="5.65"/>
		
			<rect x="37.07" y="35.95" transform="matrix(-1 -5.652735e-11 5.652735e-11 -1 84.4783 84.8675)" class="st0" width="10.33" height="12.97"/>
		<path class="st0" d="M37.07,35.95c-0.23-0.29-0.46-0.58-0.71-0.88c-0.28-0.34-0.56-0.66-0.83-0.97c-2.25-2.31-4.5-4.61-6.75-6.92
			c-5.1,0-10.19,0-15.29,0c-1.91,3.02-3.82,6.04-5.73,9.06c-0.01,4.26-0.02,8.51-0.03,12.77c9.78-0.03,19.56-0.06,29.34-0.09
			C37.07,44.59,37.07,40.27,37.07,35.95z"/>
		<rect x="3.56" y="36.31" class="st0" width="5.1" height="12.7"/>
	</g>
	
		<rect x="45.43" y="9.74" transform="matrix(-1 -4.494417e-11 4.494417e-11 -1 105.8659 34.4868)" class="st1" width="15.02" height="15.02"/>
	<path class="st0" d="M37.07,36.96H7.73v-9.78h23.83c3.04,0,5.51,2.47,5.51,5.51V36.96z"/>
</g>
</svg>
