<?xml version="1.0" encoding="utf-8"?>
<!-- Generator: Adobe Illustrator 25.4.1, SVG Export Plug-In . SVG Version: 6.00 Build 0)  -->
<svg version="1.1" id="Layer_1" xmlns="http://www.w3.org/2000/svg" xmlns:xlink="http://www.w3.org/1999/xlink" x="0px" y="0px"
	 viewBox="0 0 60 60" style="enable-background:new 0 0 60 60;" xml:space="preserve">
<style type="text/css">
	.st0{fill:#F48165;}
	.st1{fill:#231F20;}
</style>
<rect x="24.61" y="3.41" transform="matrix(0.8438 0.5366 -0.5366 0.8438 9.7515 -14.9157)" class="st0" width="11.78" height="11.78"/>
<g>
	<path class="st1" d="M58.6,50.99c-0.66-2.33-2.27-3.7-4.66-3.95C53.62,47.01,53.3,47.01,53,47c-0.26-1.67-0.51-3.27-0.75-4.87
		c-0.79-5.32-1.56-10.63-2.36-15.95c-0.05-0.33,0.03-0.5,0.25-0.66l1.42-0.87c0.74-0.46,1.49-0.91,2.23-1.37
		c1.23-0.76,2.47-1.52,3.73-2.3c-0.46-0.75-0.89-1.44-1.35-2.19l-14.8,9l1.11,2.45l1.96-1.21c0.12-0.07,0.24-0.14,0.36-0.22
		c0.31,6.35,0.62,12.57,0.92,18.83c-0.29,0.02-0.49,0.04-0.7,0.05c-2.55,0.2-5.11,0.4-7.66,0.6c-3.19,0.26-6.37,0.53-9.56,0.79
		c-3.23,0.26-6.47,0.5-9.7,0.76c-3.98,0.31-7.96,0.68-11.95,0.93c-1.9,0.12-3.31,0.76-3.9,2.7c0,0.42,0,0.85,0,1.27
		c0.43,1.27,1.26,2.13,2.54,2.54c16.56,0,33.13,0,49.69,0c1.07-0.36,2.18-0.71,2.86-1.67c0.55-0.79,0.93-1.7,1.38-2.56
		c0-0.61,0-1.22,0-1.84C58.69,51.15,58.63,51.08,58.6,50.99z"/>
	<path class="st1" d="M11.88,29.05c0.11-0.2,0.2-0.36,0.28-0.52c0.92-1.82,1.83-3.65,2.76-5.47c0.1-0.19,0.28-0.42,0.46-0.47
		c0.83-0.22,1.67-0.39,2.56-0.58c-0.03,0.17-0.04,0.25-0.06,0.34c-0.51,1.9-1.01,3.81-1.55,5.7c-0.58,1.99-0.13,3.64,1.41,5.04
		c1.45,1.31,2.78,2.76,4.3,3.97c1.55,1.23,2.47,2.61,2.07,4.66c-0.04,0.23-0.01,0.47-0.01,0.7c0,1.45,0,2.9,0,4.42
		c2.16-0.18,4.26-0.35,6.4-0.53c0-0.28,0-0.49,0-0.7c0-3.18,0.01-6.35-0.02-9.53c0-0.35-0.19-0.77-0.43-1.02
		c-1.3-1.36-2.68-2.64-3.97-4.01c-0.47-0.5-0.92-0.96-1.53-1.05l1.28-5.04l0,0c0.06-0.22,0.12-0.45,0.18-0.67
		c0.87,0.96,1.69,1.83,2.47,2.73c0.3,0.35,0.62,0.49,1.09,0.49c2.68-0.02,5.36-0.01,8.05-0.01c0.18,0,0.36-0.03,0.58-0.05
		c0-1.8,0-3.55,0-5.42c-1.75,0-3.44-0.01-5.13,0.01c-0.43,0.01-0.72-0.1-1-0.47c-1.63-2.15-3.3-4.28-4.96-6.41
		c-1.05-1.35-2.25-1.75-3.85-1.26c-3.68,1.13-7.35,2.25-11.02,3.41c-0.31,0.1-0.64,0.39-0.78,0.68c-0.88,1.76-1.71,3.55-2.55,5.32
		c-0.5,1.05-0.98,2.11-1.49,3.21c0.78,0.45,1.51,0.87,2.24,1.29C10.38,28.2,11.11,28.62,11.88,29.05z"/>
	<path class="st1" d="M9.56,47.97c2.04-0.16,3.99-0.42,5.93-0.43c1.42-0.01,2.06-0.61,2.55-1.88c0.82-2.11,1.85-4.14,2.79-6.2
		c-1.68-1.59-3.33-3.16-5.02-4.76C13.74,39.1,11.68,43.47,9.56,47.97z"/>
</g>
</svg>
