<?xml version="1.0" encoding="utf-8"?>
<!-- Generator: Adobe Illustrator 25.4.1, SVG Export Plug-In . SVG Version: 6.00 Build 0)  -->
<svg version="1.1" id="Layer_1" xmlns="http://www.w3.org/2000/svg" xmlns:xlink="http://www.w3.org/1999/xlink" x="0px" y="0px"
	 viewBox="0 0 60 60" style="enable-background:new 0 0 60 60;" xml:space="preserve">
<style type="text/css">
	.st0{fill:#F48165;}
	.st1{fill:#231F20;}
</style>
<rect x="33.63" y="22.46" class="st0" width="15.01" height="15.02"/>
<path class="st1" d="M41.11,18.26c-2.66,0-5.12-0.01-7.57,0c-2.8,0.02-4.38,1.46-4.42,4.26c-0.07,4.97-0.06,9.93,0,14.9
	c0.03,2.72,1.63,4.21,4.32,4.23c2.5,0.02,4.99,0,7.68,0c0,1.27,0,2.42,0,3.57c0,2.38-0.03,4.75,0.01,7.13
	c0.02,0.94-0.28,1.3-1.26,1.3c-8.77-0.02-17.53-0.03-26.3,0.01c-1.06,0-1.31-0.4-1.31-1.37c0.02-14.9,0.02-29.8,0-44.7
	c0-1.02,0.31-1.34,1.34-1.34c8.77,0.03,17.53,0.01,26.3,0.06c0.41,0,1.15,0.49,1.16,0.76C41.14,10.74,41.11,14.4,41.11,18.26z
	 M18.74,33.27c0-2.3,0-4.44,0-6.59c-1.18,0-2.27,0-3.37,0c0,2.26,0,4.43,0,6.59C16.55,33.27,17.62,33.27,18.74,33.27z"/>
</svg>
