<?xml version="1.0" encoding="utf-8"?>
<!-- Generator: Adobe Illustrator 25.4.1, SVG Export Plug-In . SVG Version: 6.00 Build 0)  -->
<svg version="1.1" id="Layer_1" xmlns="http://www.w3.org/2000/svg" xmlns:xlink="http://www.w3.org/1999/xlink" x="0px" y="0px"
	 viewBox="0 0 60 60" style="enable-background:new 0 0 60 60;" xml:space="preserve">
<style type="text/css">
	.st0{fill:#231F20;}
	.st1{fill:#F48165;}
</style>
<path class="st0" d="M6,21.17c4.6-5.96,9.15-11.85,13.73-17.79c11.18,8,22.32,15.97,33.56,24.02c-5.63,5.26-11.21,10.47-16.8,15.7
	c-2.79-2-5.53-3.96-8.34-5.97c-3.19,9.3-10.12,12.26-19.3,11.57c0,3.53,0,7.03,0,10.58c-2.73,0-5.37,0-8.07,0
	c0-10.28,0-20.56,0-30.9c2.65,0,5.29,0,8.01,0c0.02,0.21,0.05,0.42,0.05,0.64c0,5.39,0,10.78,0,16.17c0,1.06-0.01,1.08,1.03,1.15
	c3.43,0.25,6.75-0.12,9.81-1.85c3.32-1.88,5.21-4.82,6.25-8.4c0.12-0.41-0.06-0.61-0.37-0.84c-3.94-2.82-7.86-5.65-11.79-8.48
	c-2.39-1.72-4.79-3.44-7.18-5.16C6.41,21.5,6.24,21.36,6,21.17z"/>
<path class="st0" d="M40.32,42.74c1.79-1.67,3.5-3.28,5.22-4.88c2.33-2.18,4.67-4.36,6.99-6.55c0.36-0.34,0.59-0.35,0.97-0.04
	c1.25,0.99,2.53,1.94,3.86,2.95c-0.39,0.52-0.76,1.01-1.12,1.49c-2.76,3.69-5.53,7.38-8.29,11.06c-0.55,0.73-0.54,0.74-1.31,0.22
	c-1.88-1.25-3.76-2.51-5.63-3.76C40.79,43.09,40.6,42.94,40.32,42.74z"/>
<rect x="13.55" y="10.39" transform="matrix(0.7995 0.6006 -0.6006 0.7995 14.6943 -8.9172)" class="st1" width="14.32" height="14.32"/>
</svg>
