<?xml version="1.0" encoding="utf-8"?>
<!-- Generator: Adobe Illustrator 25.4.1, SVG Export Plug-In . SVG Version: 6.00 Build 0)  -->
<svg version="1.1" id="Layer_1" xmlns="http://www.w3.org/2000/svg" xmlns:xlink="http://www.w3.org/1999/xlink" x="0px" y="0px"
	 viewBox="0 0 64 64" style="enable-background:new 0 0 64 64;" xml:space="preserve">
<style type="text/css">
	.st0{fill:#231F20;}
	.st1{fill:#F48165;}
</style>
<g>
	
		<rect x="10.13" y="38.46" transform="matrix(-1 -1.224647e-16 1.224647e-16 -1 24.3879 94.1749)" class="st0" width="4.13" height="17.25"/>
	
		<rect x="50.07" y="31.9" transform="matrix(-0.8977 -0.4405 0.4405 -0.8977 82.7422 92.7457)" class="st0" width="4.13" height="9.74"/>
	
		<rect x="15.51" y="41.37" transform="matrix(6.123234e-17 -1 1 6.123234e-17 -29.1805 64.337)" class="st0" width="4.13" height="10.77"/>
	
		<rect x="22.34" y="38.94" transform="matrix(-0.7785 -0.6276 0.6276 -0.7785 15.9399 93.1664)" class="st0" width="4.13" height="9.65"/>
	
		<rect x="25.74" y="33.01" transform="matrix(0.4405 -0.8977 0.8977 0.4405 -19.3776 46.7318)" class="st0" width="4.13" height="11.81"/>
	
		<rect x="22.74" y="8.57" transform="matrix(0.4405 -0.8977 0.8977 0.4405 -6.7414 45.1766)" class="st0" width="20.27" height="38.86"/>
	
		<rect x="15.81" y="12.84" transform="matrix(0.8977 0.4405 -0.4405 0.8977 11.3491 -8.1897)" class="st1" width="15.02" height="15.02"/>
</g>
</svg>
