<?xml version="1.0" encoding="utf-8"?>
<!-- Generator: Adobe Illustrator 25.4.1, SVG Export Plug-In . SVG Version: 6.00 Build 0)  -->
<svg version="1.1" id="Layer_1" xmlns="http://www.w3.org/2000/svg" xmlns:xlink="http://www.w3.org/1999/xlink" x="0px" y="0px"
	 viewBox="0 0 60 60" style="enable-background:new 0 0 60 60;" xml:space="preserve">
<style type="text/css">
	.st0{fill:#F48165;}
	.st1{fill:#231F20;}
</style>
<rect x="30.5" y="29.44" class="st0" width="16.52" height="16.52"/>
<g>
	<path class="st1" d="M26.52,23.8c0.15-0.32,0.43-0.64,0.44-0.97c0.05-1.6,0.02-3.19,0.02-4.79c0-3.85,0-7.7,0-11.55
		c0-1.39,0.42-1.85,1.8-1.86c5.48-0.01,10.96-0.01,16.45,0c1.16,0,1.76,0.46,1.76,1.47c0.03,4.6,0.01,9.21,0.01,14.1
		c-1.55-1-2.92-1.88-4.49-2.89c0.47-0.39,0.81-0.73,1.21-0.99c1.99-1.32,2.8-3.53,2.06-5.68C45.04,8.49,43.03,7.2,40.7,7.4
		c-2.12,0.18-3.87,1.9-4.26,4.17c-0.17,0.98,0.23,1.72,1.01,1.89c0.77,0.16,1.36-0.39,1.53-1.42c0.2-1.19,0.89-1.93,1.92-2.04
		c1.13-0.12,2.05,0.41,2.42,1.42c0.39,1.05,0.07,2.08-0.99,2.72c-1.11,0.67-1.86,1.56-2.29,2.79c-0.12,0.36-0.53,0.66-0.87,0.88
		c-4.8,3.12-9.62,6.22-14.43,9.34c-1.67,1.08-2.21,2.51-1.64,4.17c0.46,1.32,1.63,2.2,3.04,2.24c1.08,0.03,2.17,0.01,3.37,0.01
		c0.02,0.46,0.06,0.85,0.06,1.23c0,3.99,0,7.99,0,11.98c0,1.78,0.63,2.41,2.44,2.41c4.68,0,9.37,0,14.05-0.03
		c0.66,0,0.95,0.23,0.95,0.86c0,1.49,0.03,2.98-0.01,4.47c-0.03,0.94-0.58,1.49-1.53,1.49c-5.66,0.01-11.33,0.02-16.99-0.01
		c-1.06,0-1.49-0.55-1.49-1.71c-0.01-5.66,0-11.33,0-16.99c0-0.22,0.05-0.45-0.01-0.65c-0.11-0.37-0.3-0.71-0.45-1.07
		c-0.15,0.35-0.42,0.7-0.42,1.05c-0.03,5.7-0.02,11.4-0.02,17.1c0,1.85-0.37,2.23-2.23,2.23c-5.26,0-10.53,0-15.79,0
		c-1.6,0-2-0.4-2-1.97c0-15.79,0-31.59,0-47.38c0-1.59,0.39-1.98,1.99-1.99c5.34,0,10.67,0,16.01,0c1.57,0,2.02,0.44,2.02,2
		c0.01,5.26,0,10.53,0,15.79c0,0.42,0,0.85,0,1.27C26.23,23.71,26.38,23.76,26.52,23.8z M12.01,10.6c-0.8,0.41-1.45,0.68-2.04,1.06
		c-0.19,0.12-0.19,0.52-0.27,0.8c0.28-0.04,0.62,0.02,0.83-0.12c1.26-0.84,1.97-0.79,3.05,0.27c1.82,1.79,3.23,1.77,4.99-0.06
		c0.92-0.95,1.8-1.02,2.9-0.29c0.24,0.16,0.6,0.14,0.9,0.21c-0.12-0.31-0.15-0.71-0.36-0.91c-1.12-1.05-2.91-0.88-4.08,0.35
		c-1.4,1.47-2.26,1.44-3.74,0.07C13.59,11.41,12.79,11.08,12.01,10.6z M11.93,14.77c-0.76,0.4-1.41,0.68-1.98,1.07
		c-0.17,0.12-0.15,0.53-0.22,0.8c0.25-0.03,0.56,0.01,0.75-0.12c1.38-0.88,2.03-0.84,3.13,0.27c1.73,1.74,3.22,1.72,4.92-0.06
		c0.97-1.01,1.8-1.08,2.98-0.3c0.23,0.15,0.55,0.15,0.83,0.22c-0.09-0.31-0.09-0.71-0.29-0.91c-1.08-1.06-2.97-1.06-3.98,0.2
		c-1.21,1.52-2.8,1.57-4.09,0C13.54,15.39,12.68,15.18,11.93,14.77z"/>
	<path class="st1" d="M47.86,30.04c-0.46-1.71-0.96-2.09-2.63-2.09c-4.17-0.01-8.34-0.01-12.51-0.01c-2.68,0-2.94,0.24-3.24,3.02
		c-1.09,0-2.2,0.04-3.3-0.03c-0.24-0.01-0.56-0.35-0.65-0.6c-0.07-0.2,0.11-0.54,0.27-0.75c0.14-0.19,0.4-0.31,0.61-0.44
		c4.68-3.03,9.37-6.05,14.04-9.1c0.56-0.36,0.94-0.41,1.53-0.02c4.7,3.08,9.43,6.1,14.13,9.18c0.38,0.25,0.55,0.8,0.82,1.21
		c-0.45,0.19-0.91,0.54-1.36,0.55c-1.19,0.02-2.46,0.34-3.45-0.75c-0.19-0.2-0.69-0.16-1.04-0.17
		C50.03,30.03,48.98,30.04,47.86,30.04z"/>
	<path class="st1" d="M54.97,32.73c-0.47,0-0.95,0.04-1.41-0.02c-0.22-0.03-0.42-0.26-0.63-0.39c0.22-0.17,0.43-0.46,0.67-0.47
		c0.79-0.06,1.6-0.04,2.39-0.02c0.87,0.02,1.5-0.33,1.72-1.18c0.22-0.82-0.06-1.47-0.81-1.95c-5.03-3.24-10.05-6.5-15.09-9.71
		c-0.29-0.19-0.92-0.16-1.22,0.04c-4.98,3.18-9.94,6.4-14.91,9.6c-0.73,0.47-1.22,1.04-0.96,1.97c0.27,0.96,0.97,1.28,1.91,1.24
		c0.76-0.03,1.53-0.04,2.29,0.02c0.2,0.02,0.38,0.32,0.56,0.49c-0.19,0.13-0.37,0.37-0.56,0.37c-1.05,0.02-2.11,0.06-3.15-0.05
		c-1.11-0.11-1.7-0.91-1.98-1.91c-0.29-1.02,0.14-2.07,1.12-2.72c2.48-1.64,4.98-3.25,7.48-4.86c2.53-1.63,5.06-3.26,7.58-4.9
		c0.31-0.21,0.71-0.5,0.79-0.81c0.32-1.3,1.18-2.09,2.25-2.79c1.39-0.91,1.68-2.9,0.72-4.24c-0.93-1.31-2.88-1.77-4.13-0.77
		c-0.65,0.52-0.97,1.45-1.44,2.19c-0.17,0.26-0.36,0.52-0.54,0.77c-0.12-0.34-0.37-0.69-0.34-1.01c0.19-1.72,1.68-3.16,3.37-3.35
		c1.95-0.22,3.57,0.71,4.28,2.45c0.68,1.66,0.14,3.61-1.29,4.68c-0.46,0.35-0.99,0.64-1.37,1.06c-0.76,0.84-0.67,1.27,0.28,1.88
		c4.93,3.19,9.87,6.37,14.8,9.56c1.22,0.79,1.62,1.81,1.24,3.06c-0.36,1.19-1.21,1.76-2.65,1.79
		C55.62,32.74,55.29,32.73,54.97,32.73z"/>
	<path class="st1" d="M47.77,30.94c1.24,0,2.4-0.04,3.55,0.03c0.26,0.02,0.69,0.46,0.69,0.71c0.04,4.03,0.04,8.05,0,12.08
		c0,0.23-0.4,0.65-0.63,0.66c-1.18,0.07-2.37,0.03-3.61,0.03C47.77,39.92,47.77,35.51,47.77,30.94z"/>
</g>
</svg>
