<?xml version="1.0" encoding="utf-8"?>
<!-- Generator: Adobe Illustrator 25.4.1, SVG Export Plug-In . SVG Version: 6.00 Build 0)  -->
<svg version="1.1" id="Layer_1" xmlns="http://www.w3.org/2000/svg" xmlns:xlink="http://www.w3.org/1999/xlink" x="0px" y="0px"
	 viewBox="0 0 60 60" style="enable-background:new 0 0 60 60;" xml:space="preserve">
<style type="text/css">
	.st0{fill:#231F20;}
	.st1{fill:#F48165;}
</style>
<path class="st0" d="M7.93,42.36c-0.53-0.61-0.97-1.12-1.42-1.6c-0.09-0.1-0.27-0.14-0.41-0.18c-2.11-0.52-2.9-1.62-2.83-3.79
	c0.1-3.01,1.01-5.75,2.59-8.29c0.87-1.4,2.12-2.2,3.8-2.21c1.85-0.02,2.95,1.3,2.62,3.13c-0.03,0.16-0.08,0.32-0.17,0.66
	c-0.46-0.57-0.85-1.04-1.21-1.52c-0.44-0.59-1-0.89-1.74-0.75c-0.76,0.14-1.27,0.63-1.35,1.38c-0.05,0.42,0.09,0.93,0.31,1.31
	c0.57,1,1.35,1.83,2.29,2.5c0.31,0.22,0.33,0.41,0.23,0.77c-0.38,1.37-0.72,2.76-1.04,4.14c-0.04,0.19,0.06,0.47,0.19,0.63
	c1.18,1.38,2.37,2.74,3.57,4.11c0.54,0.61,0.99,1.25,0.74,2.14c-0.23,0.81-0.74,1.35-1.58,1.42c-0.86,0.08-1.72,0.06-2.59,0.06
	c-1.8,0.01-3.59,0.03-5.39-0.01c-0.45-0.01-0.94-0.11-1.33-0.33c-0.76-0.42-1.06-1.36-0.81-2.21c0.23-0.78,0.97-1.34,1.83-1.35
	C5.41,42.35,6.59,42.36,7.93,42.36z"/>
<path class="st0" d="M50.66,39.62c-1.18-0.24-2.22-0.48-3.26-0.66c-1.05-0.18-2.11-0.28-3.02-0.4c0.41-0.48,0.89-0.99,1.33-1.54
	c0.89-1.09,0.34-2.58-1.04-2.81c-0.61-0.1-1.1,0.14-1.53,0.57c-0.5,0.49-1.04,0.94-1.56,1.4c-0.05-0.03-0.11-0.06-0.16-0.09
	c0.06-0.3,0.09-0.62,0.18-0.91c0.54-1.63,2.13-2.79,3.87-2.88c3.12-0.15,6.06,0.45,8.84,1.91c1.75,0.93,2.32,2.31,1.78,4.23
	c-0.38,1.35-1.2,2.39-2.13,3.36c-0.12,0.12-0.23,0.25-0.35,0.38c-0.02,0.02-0.02,0.06-0.05,0.14c0.16,0.01,0.3,0.03,0.44,0.03
	c1.02,0,2.04-0.01,3.06,0.01c1.09,0.02,1.77,0.72,1.77,1.78c0,1.52-0.61,2.13-2.16,2.13c-2.47,0-4.94,0-7.41-0.01
	c-1.13-0.01-1.85-0.56-2.09-1.56c-0.15-0.62,0.01-1.17,0.42-1.64c0.84-0.96,1.7-1.91,2.55-2.86C50.29,40.05,50.42,39.89,50.66,39.62
	z"/>
<path class="st0" d="M14.74,27.13c-2.4-0.01-4.28-1.91-4.25-4.28c0.02-2.38,1.93-4.25,4.31-4.23c2.33,0.02,4.24,1.97,4.22,4.29
	C19,25.26,17.09,27.14,14.74,27.13z"/>
<path class="st0" d="M37.13,34.94c-2.34,0-4.27-1.9-4.28-4.22c-0.01-2.36,1.91-4.3,4.26-4.31c2.34-0.01,4.27,1.93,4.28,4.29
	C41.39,33.02,39.47,34.93,37.13,34.94z"/>
<path class="st0" d="M38.21,40.19c-1.74-0.01-3.03-0.29-4.28-0.79c-0.76-0.31-1.07-0.94-0.82-1.6c0.27-0.7,0.92-0.97,1.7-0.67
	c3.32,1.27,6.18,0.52,8.65-1.97c0.58-0.59,1.26-0.65,1.78-0.16c0.55,0.51,0.57,1.21-0.02,1.83C43.22,38.96,40.76,40.13,38.21,40.19z
	"/>
<path class="st0" d="M15.41,34.22c-3.08-0.08-5.36-1.55-6.98-4.11c-0.38-0.6-0.17-1.33,0.4-1.67c0.6-0.36,1.26-0.21,1.66,0.4
	c1.01,1.54,2.34,2.6,4.21,2.88c1.09,0.16,2.12-0.07,3.14-0.43c0.3-0.11,0.63-0.21,0.94-0.19c0.56,0.04,0.98,0.5,1.06,1.04
	c0.08,0.51-0.23,1.05-0.77,1.28C17.91,33.93,16.69,34.21,15.41,34.22z"/>
<path class="st0" d="M29.99,31.05c-1.85,0-3.66,0-5.54,0c0.14-0.39,0.28-0.75,0.41-1.12c0.49-1.34,1-2.68,1.48-4.02
	c0.11-0.32,0.26-0.46,0.62-0.45c1,0.01,1-0.01,1.34,0.9c0.51,1.39,1.02,2.78,1.53,4.17C29.89,30.69,29.93,30.85,29.99,31.05z"/>
<path class="st0" d="M30.2,42.39c0,0,0,0.01,0,0.01h-0.96c0-0.01,0-0.01,0-0.02c-1.26,0-2.5,0-3.76,0c0,0.01,0,0.01,0,0.02h-0.93
	c-1.28,0-2.53,0-3.76,0c0,1.28,0,2.51,0,3.76c0,0,0,0,0,0c1.27,0,2.5,0,3.76,0c0,0,0,0,0,0h5.66c1.28,0,2.51,0,3.76,0
	c0-1.27,0-2.51,0-3.76c0,0,0-0.01,0-0.01C32.69,42.39,31.46,42.39,30.2,42.39z"/>
<rect x="21.86" y="31.79" class="st1" width="10.34" height="10.34"/>
</svg>
