<?xml version="1.0" encoding="utf-8"?>
<!-- Generator: Adobe Illustrator 25.4.1, SVG Export Plug-In . SVG Version: 6.00 Build 0)  -->
<svg version="1.1" id="Layer_1" xmlns="http://www.w3.org/2000/svg" xmlns:xlink="http://www.w3.org/1999/xlink" x="0px" y="0px"
	 viewBox="0 0 60 60" style="enable-background:new 0 0 60 60;" xml:space="preserve">
<style type="text/css">
	.st0{fill:#231F20;}
	.st1{fill:#F48165;}
</style>
<g>
	<path class="st0" d="M48.06,44.78c-0.9-0.49-1.59-0.8-2.19-1.24c-0.23-0.17-0.32-0.64-0.32-0.98c-0.03-2.36-0.01-4.73-0.01-7.18
		c-7.19,0-14.3,0-21.56,0c0,1.97,0,3.91,0,5.84c0,2.26,0,2.26-2.35,3.13c0-1.06,0-2.08,0-3.09c0-1.3,0-2.6,0-3.9
		c0-1.97,0-1.99-1.94-2.07c-0.86-0.04-1.26-0.45-1.26-1.27c-0.01-2.9,0-5.8,0-8.71c0-0.99,0.54-1.31,1.47-1.3
		c1.78,0.01,1.74,0.41,1.74-1.8c0-2.7,0-5.41,0-8.27c-1.45,0-2.77,0.03-4.09-0.02c-0.36-0.01-0.71-0.26-1.06-0.4
		c0.23-0.28,0.4-0.64,0.69-0.82c5.65-3.6,11.3-7.2,16.99-10.75c0.31-0.19,0.96-0.17,1.28,0.03c5.65,3.53,11.27,7.1,16.88,10.69
		c0.31,0.2,0.48,0.6,0.71,0.91c-0.37,0.12-0.74,0.33-1.11,0.35c-1.25,0.04-2.51,0.02-3.84,0.02c0,3.36,0,6.62,0,10.08
		c0.53,0,1.08,0.02,1.64,0c0.9-0.04,1.38,0.37,1.38,1.27c0.01,2.9,0.01,5.8,0,8.71c0,0.9-0.45,1.33-1.36,1.29
		c-0.53-0.02-1.05,0-1.69,0C48.06,38.43,48.06,41.47,48.06,44.78z M45.46,23.91c0-3.37,0-6.6,0-9.85c-7.18,0-14.29,0-21.41,0
		c0,3.33,0,6.55,0,9.85C31.21,23.91,38.3,23.91,45.46,23.91z"/>
</g>
<path class="st0" d="M17.9,50.84c0.47-1.03,0.61-1.07,1.46-0.38c0.18,0.15,0.34,0.31,0.51,0.47c1.28,1.24,2.59,1.24,3.9,0.01
	c0.73-0.7,1.52-1.28,2.57-1.38c1.22-0.11,2.19,0.4,3.06,1.2c1.6,1.48,2.68,1.47,4.24,0c1.73-1.63,3.68-1.64,5.4,0
	c0.73,0.7,1.52,1.3,2.57,1c0.59-0.17,1.1-0.6,1.65-0.91c0.73-0.42,1.45-0.85,2.19-1.24c0.15-0.08,0.4-0.11,0.54-0.04
	c0.24,0.12,0.57,0.31,0.6,0.51c0.03,0.19-0.27,0.59-0.46,0.61c-1.1,0.12-1.82,0.79-2.58,1.49c-1.36,1.27-3.31,1.2-4.83-0.12
	c-0.17-0.15-0.33-0.32-0.5-0.48c-1.12-1.09-2.47-1.1-3.64-0.04c-0.38,0.34-0.75,0.7-1.17,0.97c-1.61,1.04-3.16,0.72-4.96-0.98
	c-1.1-1.03-2.43-1.04-3.53-0.03c-0.25,0.24-0.53,0.45-0.79,0.67c-1.44,1.22-3.24,1.22-4.66-0.01C18.96,51.73,18.45,51.3,17.9,50.84z
	"/>
<path class="st0" d="M17.6,55.71c0.1-0.23,0.22-0.52,0.38-0.89c0.16,0.04,0.35,0.05,0.48,0.14c0.47,0.33,0.95,0.66,1.37,1.05
	c1.33,1.24,2.67,1.27,3.96-0.01c0.9-0.89,1.89-1.44,3.2-1.34c1.1,0.08,1.87,0.69,2.62,1.41c1.14,1.1,2.46,1.17,3.6,0.22
	c0.23-0.19,0.43-0.42,0.65-0.62c1.64-1.42,3.51-1.39,5.11,0.08c0.63,0.58,1.21,1.21,2.18,1.19c0.69-0.02,1.23-0.26,1.76-0.68
	c0.7-0.55,1.45-1.04,2.22-1.48c0.25-0.15,0.65-0.14,0.95-0.07c0.22,0.05,0.52,0.31,0.53,0.49c0.01,0.19-0.27,0.58-0.43,0.58
	c-1.15,0-1.86,0.76-2.59,1.45c-1.37,1.3-3.6,1.27-5.04-0.23c-0.17-0.18-0.37-0.34-0.57-0.51c-1.05-0.88-2.29-0.85-3.33,0.04
	c-0.52,0.45-1.03,0.95-1.63,1.27c-1.36,0.73-2.84,0.41-4.13-0.78c-0.61-0.56-1.2-1.13-2.13-1.17c-1.02-0.04-1.67,0.56-2.34,1.18
	c-1.1,1.02-2.35,1.46-3.81,0.92c-0.42-0.16-0.82-0.43-1.18-0.71C18.82,56.75,18.24,56.23,17.6,55.71z"/>
<path class="st0" d="M20.15,47.58c0.33-0.68,0.66-1.01,1.42-0.83c0.87,0.2,1.61-0.25,2.22-0.88c0.93-0.96,2-1.52,3.4-1.33
	c0.94,0.12,1.62,0.64,2.26,1.24c1.43,1.36,2.76,1.43,4.1,0.02c1.47-1.54,3.82-1.93,5.61,0c1.09,1.18,2.84,1.4,4.11-0.01
	c0.65-0.73,1.48-1.25,2.53-1.27c0.42-0.01,0.77,0.09,0.82,0.55c0.04,0.46-0.26,0.65-0.7,0.66c-0.71,0.02-1.27,0.35-1.75,0.85
	c-0.96,0.99-2.06,1.6-3.52,1.39c-0.93-0.13-1.65-0.62-2.25-1.27c-1.33-1.44-2.98-1.18-4.11,0.04c-1.56,1.69-3.93,1.73-5.56-0.01
	c-0.85-0.91-1.86-1.33-3.05-0.79c-0.51,0.23-0.93,0.67-1.35,1.06c-1.09,1-2.34,1.22-3.73,0.81c-0.09-0.03-0.17-0.07-0.25-0.11
	C20.29,47.66,20.23,47.62,20.15,47.58z"/>
<path class="st0" d="M10.52,57.41c-1.48,1.13-3.17,0.99-4.77-0.45c-0.65-0.58-1.26-1.14-2.21-1.17c-0.19-0.01-0.37-0.38-0.55-0.59
	c0.23-0.18,0.44-0.49,0.68-0.52c0.85-0.1,1.56,0.27,2.21,0.8c0.61,0.49,1.2,1.06,1.9,1.33C8.62,57.15,9.57,57.21,10.52,57.41z"/>
<path class="st0" d="M10.52,46.98c-0.48,1-0.7,1.05-1.65,0.27c-0.5-0.41-0.96-0.88-1.49-1.23c-0.31-0.2-0.76-0.17-1.1-0.33
	c-0.26-0.13-0.45-0.41-0.67-0.62c0.25-0.19,0.54-0.58,0.73-0.54c0.7,0.16,1.42,0.37,2.03,0.74C9.11,45.74,9.76,46.37,10.52,46.98z"
	/>
<path class="st0" d="M10.01,52.76c-0.35-0.28-0.73-0.53-1.05-0.84c-0.59-0.58-1.21-1.06-2.06-1.16c-0.41-0.05-0.82-0.18-0.72-0.72
	c0.1-0.51,0.53-0.51,0.93-0.48c1.22,0.1,2.09,0.86,2.83,1.71c0.26,0.3,0.17,0.9,0.25,1.37C10.13,52.68,10.07,52.72,10.01,52.76z"/>
<path class="st0" d="M16.56,38.18c0.54,0,1.08,0.01,1.62,0c0.34-0.01,0.49,0.12,0.48,0.47c-0.01,0.87-0.01,1.75,0,2.62
	c0.01,0.34-0.15,0.43-0.45,0.43c-0.62-0.01-1.25-0.03-1.87,0.01c-0.21,0.01-0.47,0.16-0.6,0.32c-0.38,0.52-0.68,1.09-1.04,1.63
	c-0.24,0.36-0.14,0.6,0.19,0.82c0.89,0.58,1.78,1.15,2.65,1.76c0.92,0.64,1.05,1.26,0.39,2.22c-0.8,1.19-1.63,2.36-2.5,3.5
	c-0.39,0.51-0.42,1.05-0.38,1.65c0.06,0.81,0.11,1.62,0.12,2.43c0.01,0.74-0.48,1.23-1.23,1.3c-0.68,0.07-1.39,0.23-1.88-0.45
	c-0.14-0.19-0.29-0.43-0.3-0.66c-0.11-1.35-0.2-2.7-0.24-4.05c-0.01-0.34,0.14-0.74,0.32-1.04c0.58-0.91,1.2-1.8,1.83-2.67
	c0.25-0.34,0.2-0.53-0.14-0.75c-0.89-0.58-1.75-1.19-2.63-1.79c-0.81-0.56-0.93-1.24-0.4-2.07c0.97-1.53,1.94-3.05,2.86-4.61
	c0.47-0.79,1.08-1.16,1.99-1.09C15.77,38.2,16.17,38.18,16.56,38.18z"/>
<rect x="27.25" y="21.57" class="st1" width="15.01" height="15.02"/>
</svg>
