<?xml version="1.0" encoding="utf-8"?>
<!-- Generator: Adobe Illustrator 25.4.1, SVG Export Plug-In . SVG Version: 6.00 Build 0)  -->
<svg version="1.1" id="Layer_1" xmlns="http://www.w3.org/2000/svg" xmlns:xlink="http://www.w3.org/1999/xlink" x="0px" y="0px"
	 viewBox="0 0 64 64" style="enable-background:new 0 0 64 64;" xml:space="preserve">
<style type="text/css">
	.st0{fill:#231F20;}
	.st1{fill:#F48165;}
</style>
<g>
	
		<rect x="25.71" y="9.34" transform="matrix(6.123234e-17 -1 1 6.123234e-17 17.3956 40.2133)" class="st0" width="6.19" height="4.13"/>
	<rect x="30.87" y="5.76" class="st0" width="22.75" height="11.29"/>
	<path class="st0" d="M53.62,60.79h-27.2V25.94c0-2.59,2.1-4.7,4.7-4.7h22.5V60.79z"/>
	<rect x="38.61" y="45.78" class="st1" width="15.02" height="15.02"/>
	<g>
		
			<rect x="9.02" y="16.53" transform="matrix(-1.836970e-16 1 -1 -1.836970e-16 30.6712 7.5102)" class="st0" width="5.12" height="5.12"/>
		
			<rect x="19.26" y="16.53" transform="matrix(-1.836970e-16 1 -1 -1.836970e-16 40.9137 -2.7323)" class="st0" width="5.12" height="5.12"/>
		
			<rect x="14.14" y="11.41" transform="matrix(-1.836970e-16 1 -1 -1.836970e-16 30.6712 -2.7323)" class="st0" width="5.12" height="5.12"/>
		
			<rect x="14.14" y="21.65" transform="matrix(-1.836970e-16 1 -1 -1.836970e-16 40.9137 7.5102)" class="st0" width="5.12" height="5.12"/>
	</g>
</g>
</svg>
