<?xml version="1.0" encoding="utf-8"?>
<!-- Generator: Adobe Illustrator 25.4.1, SVG Export Plug-In . SVG Version: 6.00 Build 0)  -->
<svg version="1.1" id="Layer_1" xmlns="http://www.w3.org/2000/svg" xmlns:xlink="http://www.w3.org/1999/xlink" x="0px" y="0px"
	 viewBox="0 0 64 64" style="enable-background:new 0 0 64 64;" xml:space="preserve">
<style type="text/css">
	.st0{fill:#010101;}
	.st1{fill:#F48165;}
</style>
<g>
	<g>
		<rect x="25.56" y="9.32" class="st0" width="15.02" height="38.83"/>
		<g>
			<g>
				<path class="st0" d="M58.56,40.28v-5.37c-5.99-4.49-11.99-8.97-17.98-13.46c-1.16-4.91-2.32-9.81-3.48-14.72
					c0-2.23-1.8-4.02-4.02-4.02s-4.02,1.8-4.02,4.02c-1.16,4.91-2.32,9.81-3.48,14.72c-5.99,4.49-11.99,8.97-17.98,13.46v5.37
					l21.47-6.71c-1.16,4.86-2.32,9.72-3.48,14.58c-2.84,1.7-5.68,3.4-8.52,5.1c0.08,1.06,0.17,2.12,0.25,3.19
					c5.26-0.92,10.52-1.83,15.78-2.75c4.98,0.83,9.96,1.67,14.93,2.5c-0.01-1.24-0.02-2.48-0.03-3.71c-2.47-1.44-4.93-2.89-7.4-4.33
					c-1.16-4.86-2.32-9.72-3.48-14.58L58.56,40.28z"/>
			</g>
		</g>
		<rect x="25.56" y="21.46" class="st1" width="15.02" height="15.02"/>
	</g>
	<path class="st0" d="M33.79,2.72h-1.43c-3.75,0-6.79,3.04-6.79,6.79v0h15.02v0C40.58,5.76,37.54,2.72,33.79,2.72z"/>
</g>
</svg>
