<?xml version="1.0" encoding="utf-8"?>
<!-- Generator: Adobe Illustrator 25.4.1, SVG Export Plug-In . SVG Version: 6.00 Build 0)  -->
<svg version="1.1" id="Layer_1" xmlns="http://www.w3.org/2000/svg" xmlns:xlink="http://www.w3.org/1999/xlink" x="0px" y="0px"
	 viewBox="0 0 60 60" style="enable-background:new 0 0 60 60;" xml:space="preserve">
<style type="text/css">
	.st0{fill:#231F20;}
	.st1{fill:#F48165;}
</style>
<path class="st0" d="M13.05,11.87c0,10.03,0,20.02,0,30.07c1.02,0,2.02,0,3.03,0c0.17,0.71,0.33,1.36,0.47,2.02
	c1.42,6.32,6.43,10.83,12.69,11.45c6.93,0.68,13.43-3.82,15.21-10.56c0.25-0.96,0.48-1.93,0.73-2.95c1.03,0,2.03,0,3.03,0
	c0-10.04,0-20,0-30.03C36.46,11.87,24.76,11.87,13.05,11.87z M36.5,16.07c1.22,0,2.43,0,3.68,0c0,0.4,0,0.78,0,1.26
	c-0.65,0-1.31,0-2.01,0c0,0.43,0,0.76,0,1.15c0.63,0,1.23,0,1.88,0c0,0.43,0,0.82,0,1.31c-0.33,0-0.63,0-0.93,0c-0.3,0-0.6,0-0.95,0
	c0,0.43,0,0.81,0,1.25c0.68,0,1.35,0,2.07,0c0,0.47,0,0.87,0,1.32c-1.24,0-2.47,0-3.74,0C36.5,20.28,36.5,18.19,36.5,16.07z
	 M32.23,16.09c1.19,0,2.4,0,3.65,0c0,0.38,0,0.78,0,1.27c-0.65,0-1.32,0-2.01,0c0,0.4,0,0.72,0,1.12c0.61,0,1.22,0,1.89,0
	c0,0.45,0,0.84,0,1.3c-0.6,0-1.22,0-1.94,0c0,0.94,0,1.76,0,2.61c-0.55,0-1.04,0-1.59,0C32.23,20.3,32.23,18.22,32.23,16.09z
	 M32.38,29.67c0.26-0.59,0.32-1.2-0.05-1.8c0.66,0.2,1.05,0.98,0.82,1.77c-0.17,0.57-0.47,1.11-0.73,1.65
	c-0.21,0.45-0.47,0.87-0.64,1.33c-0.21,0.56-0.25,1.14,0.39,1.7c-0.81-0.4-1.17-1.09-1.01-1.85c0.1-0.48,0.31-0.94,0.51-1.38
	C31.88,30.61,32.17,30.16,32.38,29.67z M27.97,16.06c1.21,0,2.4,0,3.62,0c0,0.42,0,0.8,0,1.28c-0.65,0-1.31,0-2.02,0
	c0,0.41,0,0.72,0,1.12c0.6,0,1.22,0,1.88,0c0,0.48,0,0.87,0,1.32c-0.64,0-1.24,0-1.93,0c0,0.89,0,1.73,0,2.59c-0.56,0-1.03,0-1.56,0
	C27.97,20.28,27.97,18.19,27.97,16.06z M30.05,29.5c-0.32-0.64-0.76-1.23-0.97-1.9c-0.16-0.5-0.12-1.1-0.04-1.64
	c0.04-0.26,0.36-0.48,0.64-0.69c-0.46,0.82-0.19,1.54,0.17,2.26c0.29,0.57,0.62,1.12,0.87,1.71c0.42,0.98,0.2,1.88-0.56,2.39
	C30.62,30.88,30.39,30.18,30.05,29.5z M24.09,15.91c1.37,0.08,2.73,1.28,3.06,2.72c0.28,1.21,0.07,2.29-0.83,3.18
	c-0.09,0.09-0.21,0.14-0.42,0.27c-0.24-0.5-0.45-0.92-0.65-1.35c-0.61-1.32-1.23-2.64-1.84-3.96C23.11,16.1,23.29,15.87,24.09,15.91
	z M19.49,22.42c-1.5,0.37-2.65-0.19-2.82-1.56c-0.14-1.15-0.1-2.35,0.06-3.5c0.15-1.11,1.14-1.61,2.41-1.43
	c1.13,0.16,1.75,0.88,1.68,2.01c-0.01,0.14-0.22,0.36-0.36,0.38c-0.36,0.05-0.74,0.02-1.17,0.02c-0.03-0.32-0.01-0.58-0.1-0.79
	c-0.08-0.21-0.28-0.37-0.42-0.55c-0.16,0.18-0.43,0.33-0.46,0.53c-0.08,0.47-0.06,0.95-0.06,1.43c0,0.59-0.03,1.18,0.05,1.76
	c0.03,0.24,0.31,0.44,0.48,0.66c0.15-0.2,0.36-0.38,0.44-0.61c0.1-0.28,0.09-0.59,0.13-0.92c0.5,0,0.97,0,1.44,0
	C21.06,21.08,20.52,22.16,19.49,22.42z M21.62,20.38c-0.56-1.27-0.47-2.51,0.44-3.61c0.43-0.52,0.6-0.47,0.9,0.16
	c0.73,1.57,1.46,3.15,2.19,4.72c0.3,0.65,0.17,0.83-0.67,0.84C23.16,22.4,22.18,21.66,21.62,20.38z M37.96,51.74
	c-1.01,0.01-2.01-0.01-3.02,0.02c-0.18,0-0.36,0.16-0.55,0.24c-0.16,0.07-0.32,0.19-0.48,0.19c-2.2,0.01-4.4,0.01-6.59,0.01
	c-1.34-0.63-2.78-0.28-4.17-0.46c-0.44-0.06-0.63-0.36-0.63-0.79c0-0.43,0.18-0.72,0.63-0.78c0.2-0.03,0.41-0.02,0.61-0.02
	c2.29,0,4.58,0,6.87,0c2.27,0,4.54,0,6.82,0c0.19,0,0.37,0,0.56,0.01c0.5,0.04,0.73,0.35,0.72,0.82
	C38.72,51.44,38.47,51.74,37.96,51.74z M42.31,45.2c0,1.3-1.06,2.36-2.36,2.36h-1.7v-1.04h1.7c0.73,0,1.32-0.59,1.32-1.32v-5.99
	c0-0.73-0.59-1.32-1.32-1.32h-1.7v-1.04h1.7c1.3,0,2.36,1.06,2.36,2.36V45.2z M44.71,22.38c-1.27,0-2.5,0-3.76,0
	c0-2.11,0-4.19,0-6.32c1.27,0,2.46,0,3.7,0c0,0.43,0,0.83,0,1.3c-0.67,0-1.31,0-2.01,0c0,0.4,0,0.73,0,1.12c0.61,0,1.22,0,1.87,0
	c0,0.45,0,0.84,0,1.3c-0.61,0-1.21,0-1.87,0c0,0.43,0,0.81,0,1.28c0.68,0,1.36,0,2.07,0C44.71,21.55,44.71,21.94,44.71,22.38z"/>
<path class="st0" d="M51.34,45.08c-1.03,0-2.01,0.04-2.99-0.01c-0.55-0.03-0.72,0.17-0.87,0.67c-1.9,6.37-6.05,10.57-12.47,12.28
	c-9.27,2.48-18.68-3.06-21.23-12.32c-0.05-0.19-0.11-0.37-0.19-0.61c-1.21,0-2.42,0-3.67,0c0-12.14,0-24.21,0-36.35
	c13.78,0,27.57,0,41.41,0C51.34,20.82,51.34,32.91,51.34,45.08z M12.16,10.93c0,10.68,0,21.29,0,31.94c1.09,0,2.13,0,3.16,0
	c1.8,8.01,6.43,13.19,14.86,13.4c8.91,0.22,13.86-4.99,15.83-13.43c1.03,0,2.06,0,3.08,0c0-10.68,0-21.29,0-31.91
	C36.77,10.93,24.48,10.93,12.16,10.93z"/>
<path class="st0" d="M17.6,3.47c0-0.59,0-1.07,0-1.57c1.01,0,1.96,0,2.98,0c0,0.48,0,0.97,0,1.51c6.71,0,13.34,0,20.05,0
	c0-0.49,0-0.98,0-1.51c1.04,0,2.01,0,3.06,0c0,0.5,0,0.99,0,1.53c3.41,0,6.74,0,10.12,0c0,0.67,0,1.28,0,1.95
	c-3.34,0-6.67,0-10.09,0c0,0.78,0,1.51,0,2.28c-1.05,0-2.02,0-3.07,0c0-0.75,0-1.47,0-2.24c-6.7,0-13.32,0-20.02,0
	c0,0.73,0,1.46,0,2.24c-1.04,0-2.01,0-3.04,0c0-0.73,0-1.44,0-2.1c-0.09-0.08-0.12-0.13-0.15-0.13c-2.03-0.01-4.07-0.15-6.08,0.02
	c-2.96,0.26-4.99,2.79-5,5.97c-0.01,5.78,0,11.56,0,17.34c0,10.3,0,20.59,0,30.89c0,0.22,0,0.43,0,0.69c-0.62,0-1.2,0-1.84,0
	c-0.01-0.2-0.03-0.41-0.03-0.62c0-16.17,0-32.33,0-48.5c0-3.8,2.41-6.83,6.1-7.58c0.99-0.2,2.04-0.16,3.06-0.19
	C14.94,3.45,16.22,3.47,17.6,3.47z"/>
<path class="st0" d="M35.18,40.83c0-0.81-0.02-1.64,0.02-2.46c0-0.1,0.31-0.27,0.46-0.26c0.8,0.04,1.34,0.73,1.26,1.56
	C36.84,40.48,36.16,40.96,35.18,40.83z"/>
<rect x="23.8" y="34.99" class="st1" width="14.44" height="14.44"/>
</svg>
