<?xml version="1.0" encoding="utf-8"?>
<!-- Generator: Adobe Illustrator 25.4.1, SVG Export Plug-In . SVG Version: 6.00 Build 0)  -->
<svg version="1.1" id="Layer_1" xmlns="http://www.w3.org/2000/svg" xmlns:xlink="http://www.w3.org/1999/xlink" x="0px" y="0px"
	 viewBox="0 0 60 60" style="enable-background:new 0 0 60 60;" xml:space="preserve">
<style type="text/css">
	.st0{fill:#231F20;}
	.st1{fill:#F48165;}
</style>
<path class="st0" d="M55.93,54.77c0,1.48,0,2.92,0,4.39c-17.28,0-34.55,0-51.85,0c0-1.47,0-2.91,0-4.39
	C21.36,54.77,38.61,54.77,55.93,54.77z"/>
<path class="st0" d="M38.1,20.56c0-0.96,0.03-1.84-0.01-2.72c-0.02-0.35-0.12-0.74-0.32-1.02c-2.13-3.06-4.25-6.13-6.44-9.14
	c-0.61-0.83-0.54-1.65-0.47-2.6c1.38,0,2.73,0,4.08,0c0-1.13,0-2.2,0-3.25c-1.72,0-3.4,0-5.12,0c0,1.56,0.02,3.07-0.01,4.58
	c-0.01,0.31-0.11,0.66-0.29,0.92c-2.19,3.17-4.4,6.31-6.58,9.48c-0.19,0.28-0.3,0.67-0.32,1.02c-0.04,0.9-0.01,1.8-0.01,2.77
	c-5.77,0-11.47,0-17.18,0c0,1.51,0,2.93,0,4.42c0.46,0,0.88,0,1.37,0c0,9.44,0,18.81,0,28.21c6.2,0,12.32,0,18.51,0
	c0-0.01,0-0.01,0-0.02h9.42c1.2,0,2.39,0,3.58,0c4.96,0,9.91,0,14.89,0c0-9.42,0-18.78,0-28.21c0.49,0,0.91,0,1.33,0
	c0-1.49,0-2.92,0-4.42C49.05,20.56,43.6,20.56,38.1,20.56z M42.55,28.7c1.23,0,2.42,0,3.66,0c0,1.51,0,3.01,0,4.54
	c-1.22,0-2.42,0-3.66,0C42.55,31.73,42.55,30.25,42.55,28.7z M46.22,36.96c0,1.53,0,3.01,0,4.52c-1.22,0-2.42,0-3.67,0
	c0-1.5,0-3,0-4.52C43.77,36.96,44.96,36.96,46.22,36.96z M29.98,23.87c1.54-0.01,2.77,1.26,2.77,2.84
	c-0.01,1.48-1.26,2.71-2.77,2.71c-1.5,0-2.77-1.23-2.78-2.7C27.2,25.16,28.45,23.88,29.98,23.87z M13.79,28.7c1.24,0,2.44,0,3.69,0
	c0,1.51,0,3.01,0,4.54c-1.23,0-2.44,0-3.69,0C13.79,31.7,13.79,30.22,13.79,28.7z M17.49,49.77c-1.24,0-2.43,0-3.67,0
	c0-1.51,0-3,0-4.53c1.22,0,2.43,0,3.67,0C17.49,46.74,17.49,48.22,17.49,49.77z M17.5,41.48c-1.23,0-2.45,0-3.7,0
	c0-1.49,0-2.97,0-4.52c1.26,0,2.46,0,3.7,0C17.5,38.48,17.5,39.96,17.5,41.48z M46.26,49.74c-1.26,0-2.46,0-3.72,0
	c0-1.51,0-2.97,0-4.53c1.16,0,2.31-0.01,3.46,0.02c0.09,0,0.26,0.23,0.26,0.35C46.27,46.95,46.26,48.32,46.26,49.74z"/>
<rect x="23.3" y="39.87" class="st1" width="13.35" height="13.35"/>
</svg>
