<?xml version="1.0" encoding="utf-8"?>
<!-- Generator: Adobe Illustrator 25.4.1, SVG Export Plug-In . SVG Version: 6.00 Build 0)  -->
<svg version="1.1" id="Layer_1" xmlns="http://www.w3.org/2000/svg" xmlns:xlink="http://www.w3.org/1999/xlink" x="0px" y="0px"
	 viewBox="0 0 60 60" style="enable-background:new 0 0 60 60;" xml:space="preserve">
<style type="text/css">
	.st0{fill:#231F20;}
	.st1{fill:#F48165;}
</style>
<g>
	<path class="st0" d="M41.9,22.22c-0.33-0.56-1.26-1.09-1.91-1.1c-6.41-0.08-12.82-0.08-19.23,0c-0.67,0.01-1.62,0.5-1.94,1.06
		C13.98,30.51,9.22,38.9,4.46,47.29c-0.55,0.97-0.16,1.91,0.91,2.22c0.45,0.13,0.94,0.14,1.42,0.14c5.12,0.01,10.24,0.01,15.36,0
		c0.41,0,0.83-0.06,1.41-0.11c0-1.23-0.06-2.37,0.01-3.51c0.12-2.06,1.38-3.4,3.45-3.5c2.24-0.1,4.5-0.1,6.74,0.02
		c1.98,0.1,3.32,1.61,3.38,3.58c0.04,1.1,0.01,2.2,0.01,3.52c3.28,0,6.38,0,9.49,0c2.63,0,5.26,0.05,7.89-0.03
		c1.74-0.05,2.36-1.13,1.56-2.54C51.38,38.79,46.67,30.48,41.9,22.22z"/>
	<path class="st0" d="M33.05,44.4c-1.81-0.04-3.63-0.04-5.44,0.01c-1.42,0.04-2.09,0.71-2.15,2.14c-0.05,1.34-0.01,2.68-0.01,4.01
		c0,1.75,0,3.49,0,5.29c3.32,0,6.42,0,9.7,0c0-3.3,0.02-6.45-0.01-9.59C35.12,44.92,34.22,44.43,33.05,44.4z"/>
	<path class="st0" d="M47.19,16.22c-2.41,2.91-2.28,7.31,0.4,10.59C50.08,22.87,49.9,18.7,47.19,16.22z"/>
	<path class="st0" d="M13.23,16.21c-2.7,3.01-2.82,7.18-0.29,10.5C15.6,23.81,15.74,18.66,13.23,16.21z"/>
	<path class="st0" d="M8.57,24.59c-2.72,2.92-2.87,7.11-0.31,10.55C10.97,31.87,11.07,27.42,8.57,24.59z"/>
	<path class="st0" d="M52.31,35.06c2.48-3.41,2.33-7.63-0.39-10.48C49.37,27.53,49.56,32.67,52.31,35.06z"/>
	<path class="st0" d="M56.64,43.75c2.48-3.41,2.33-7.63-0.39-10.48C53.71,36.23,53.9,41.36,56.64,43.75z"/>
	<path class="st0" d="M2.94,43.03c2.48-3.41,2.33-7.63-0.39-10.48C0.01,35.5,0.19,40.64,2.94,43.03z"/>
</g>
<rect x="24.31" y="5.77" class="st1" width="12.04" height="12.04"/>
</svg>
