<?xml version="1.0" encoding="utf-8"?>
<!-- Generator: Adobe Illustrator 25.4.1, SVG Export Plug-In . SVG Version: 6.00 Build 0)  -->
<svg version="1.1" id="Layer_1" xmlns="http://www.w3.org/2000/svg" xmlns:xlink="http://www.w3.org/1999/xlink" x="0px" y="0px"
	 viewBox="0 0 60 60" style="enable-background:new 0 0 60 60;" xml:space="preserve">
<style type="text/css">
	.st0{fill:#231F20;}
	.st1{fill:#F48165;}
</style>
<path class="st0" d="M26.03,7.34c-2.34,0-4.49-0.04-6.64,0.04c-0.35,0.01-0.81,0.48-0.99,0.85c-1.9,3.94-3.79,7.88-5.57,11.88
	c-0.35,0.79-0.1,1.81-0.31,2.69c-0.23,0.96-0.44,2.06-1.05,2.77c-2.03,2.35-6.43,2.69-8.93,0.86c-1.84-1.35-2.4-4.58-1.09-6.59
	c1.88-2.9,3.81-5.78,5.71-8.66c1.41-2.14,3.33-4.08,2.43-7.15c13.85,0,27.4,0,40.98,0c0.04,0.05,0.17,0.15,0.16,0.23
	C50.35,7,51.87,9.06,53.25,11.2c1.61,2.5,3.04,5.12,4.76,7.53c1.19,1.66,1.27,3.39,1.05,5.23c-0.21,1.78-1.96,3.22-4.32,3.55
	c-1.88,0.26-3.65-0.1-5.27-1.14c-1.29-0.82-1.85-1.95-1.95-3.5c-0.09-1.41-0.37-2.88-0.91-4.19c-1.39-3.4-3.01-6.7-4.43-10.08
	c-0.44-1.04-1-1.34-2.07-1.3c-2.09,0.08-4.19,0.02-6.4,0.02c0.61,3.94,1.22,7.66,1.73,11.4c0.22,1.6,0.37,3.25,0.2,4.84
	c-0.1,0.9-0.74,1.96-1.47,2.52c-2.1,1.63-4.53,1.95-7.05,1.03c-1.99-0.73-3.05-2.06-2.9-4.18c0.27-3.66,0.76-7.3,1.18-10.94
	C25.57,10.51,25.8,9.03,26.03,7.34z"/>
<path class="st0" d="M50.61,31.97c-4.49,0-9.13,0-13.82,0c-0.12,0.55-0.2,0.95-0.33,1.51c-1.65,0-3.3,0-5.05,0
	c0,5.62,0,11.07,0,16.69c1.69,0,3.34,0,5.11,0c0,1.28,0,2.37,0,3.55c-8.86,0-17.66,0-26.67,0c0-1.81,0-3.52,0-5.24
	c0-5.63,0.01-11.26,0.02-16.89c0.01-3.1,0.01-3.1,2.68-4.88c4.14,2.94,7.28,2.94,11.76,0c4.29,2.97,7.12,2.95,11.85-0.07
	c4.62,3.02,7.98,3.04,11.66,0.1C50.09,27.69,51.82,28.96,50.61,31.97z M29.43,33.57c-3.78,0-7.41,0-11.12,0c0,5.54,0,8.36,0,13.83
	c3.77,0,7.41,0,11.12,0C29.43,41.91,29.43,39.11,29.43,33.57z"/>
<path class="st0" d="M38.01,33.47c7.13,0,14.15,0,21.26,0c0,7.78,0,15.49,0,23.33c-1,0-1.99,0-3.07,0
	c-0.06-0.93-0.11-1.82-0.17-2.79c-4.95,0-9.8,0-14.81,0c0,0.96,0,1.9,0,2.99c-1.15,0-2.13,0-3.21,0
	C38.01,49.2,38.01,41.43,38.01,33.47z M52.52,41.04c-3.54-1.97-6.29-1.79-7.86,0.54c0.76,0.44,1.53,0.88,2.3,1.32
	c-0.09,0.18-0.18,0.36-0.26,0.54c-0.44-0.16-0.87-0.32-1.31-0.48c-2.1-0.82-4.26-0.03-5.05,1.86c-0.69,1.63,0.04,2.87,1.79,2.9
	c1.01,0.02,2.1,0,3.03-0.33c3.49-1.24,6.97-2.53,10.36-4.01c0.69-0.3,1.37-1.53,1.33-2.29c-0.04-0.65-1.03-1.55-1.77-1.78
	c-1.19-0.38-2.52-0.29-3.79-0.41c-0.06,0.19-0.12,0.38-0.18,0.56c0.3,0.22,0.64,0.41,0.89,0.68C52.22,40.4,52.35,40.74,52.52,41.04z
	"/>
<path class="st0" d="M33.58,40.59c0.75,0.04,1.21,0.06,1.76,0.09c0,1.06,0,2.01,0,3.07c-0.61,0-1.16,0-1.76,0
	C33.58,42.7,33.58,41.71,33.58,40.59z"/>
<path class="st0" d="M24.98,43.76c0-1.08,0-1.98,0-3.06c0.58-0.03,1.13-0.06,1.8-0.1c0,1.09,0,2.07,0,3.16
	C26.23,43.76,25.67,43.76,24.98,43.76z"/>
<rect x="14.41" y="33.57" class="st1" width="15.01" height="15.02"/>
</svg>
