<?xml version="1.0" encoding="utf-8"?>
<!-- Generator: Adobe Illustrator 25.4.1, SVG Export Plug-In . SVG Version: 6.00 Build 0)  -->
<svg version="1.1" id="Layer_1" xmlns="http://www.w3.org/2000/svg" xmlns:xlink="http://www.w3.org/1999/xlink" x="0px" y="0px"
	 viewBox="0 0 60 60" style="enable-background:new 0 0 60 60;" xml:space="preserve">
<style type="text/css">
	.st0{fill:#231F20;}
	.st1{fill:#FFFFFF;}
	.st2{fill:#F48165;}
</style>
<path class="st0" d="M24.11,31.44c4.35,0,8.45,0,12.68,0c0,2.66,0,3.68,0,6.34c-4.16,0-8.32,0-12.68,0
	C24.11,35.14,24.11,34.11,24.11,31.44z"/>
<rect x="6.78" y="14.43" class="st0" width="47.35" height="10.98"/>
<rect x="11.79" y="21.79" class="st0" width="37.33" height="10.98"/>
<path class="st0" d="M46.21,58.9l-9.77-20.08h-2.65c-0.62,0-1.23,0-1.84,0c-0.98,0-1.98,0-2.98,0c-0.53,0-1.04,0-1.58,0h-2.91
	L14.69,58.9h4.5l8.19-16.83c0,6.21,0,9.63,0,16.83c2.2,0,4.31,0,6.41,0c0-7.04,0-10.46,0-16.29l7.93,16.29H46.21z"/>
<path class="st1" d="M32.38,27.44c-0.05-0.12-0.1-0.22-0.15-0.33c-0.06-0.13-0.2-0.2-0.32-0.14c-0.13,0.06-0.18,0.18-0.12,0.33
	c0.03,0.09,0.07,0.18,0.11,0.26c-0.02,0.01-0.02,0.02-0.03,0.02c-0.32,0.08-0.31,0.08-0.45-0.22c-0.5-1.08-0.88-2.21-1.13-3.37
	c-0.14-0.65-0.23-1.32-0.27-1.99c-0.05-0.73-0.03-1.47,0.06-2.19c0.13-1.09,0.39-2.15,0.85-3.15c0.21-0.47,0.48-0.91,0.72-1.36
	c0.04-0.07,0.08-0.09,0.16-0.07c1.23,0.28,2.28,0.88,3.15,1.78c0.94,0.97,1.53,2.13,1.72,3.48c0.25,1.79-0.18,3.4-1.29,4.83
	C34.61,26.33,33.6,27.02,32.38,27.44z M31.52,25.84c-0.1,0-0.24,0.14-0.19,0.28c0.07,0.21,0.14,0.41,0.23,0.61
	c0.05,0.12,0.19,0.17,0.31,0.13c0.12-0.05,0.19-0.18,0.14-0.31c-0.07-0.19-0.14-0.38-0.21-0.56C31.75,25.9,31.68,25.84,31.52,25.84z
	 M30.96,20.17c0-0.09-0.09-0.2-0.23-0.22c-0.12-0.01-0.23,0.08-0.25,0.22c-0.02,0.2-0.03,0.4-0.04,0.6c0,0.04,0.01,0.08,0.03,0.12
	c0.05,0.1,0.14,0.15,0.25,0.13c0.11-0.02,0.19-0.09,0.2-0.21C30.93,20.63,30.94,20.43,30.96,20.17z M30.96,24.99
	c0.06,0.19,0.13,0.42,0.22,0.65c0.04,0.1,0.18,0.14,0.28,0.1c0.1-0.04,0.18-0.16,0.15-0.26c-0.06-0.21-0.12-0.43-0.19-0.64
	c-0.04-0.11-0.17-0.17-0.28-0.13C31.02,24.75,30.96,24.83,30.96,24.99z M31.29,24.31c-0.04-0.19-0.09-0.41-0.15-0.63
	c-0.03-0.11-0.16-0.16-0.27-0.14c-0.11,0.03-0.21,0.13-0.19,0.25c0.04,0.22,0.09,0.43,0.14,0.65c0.03,0.11,0.15,0.18,0.25,0.16
	C31.2,24.58,31.29,24.47,31.29,24.31z M31.56,16.48c-0.11,0-0.19,0.06-0.23,0.16c-0.07,0.17-0.14,0.35-0.21,0.53
	c-0.05,0.15,0,0.29,0.13,0.34c0.13,0.05,0.26-0.01,0.32-0.17c0.07-0.18,0.14-0.36,0.21-0.54C31.83,16.64,31.72,16.48,31.56,16.48z
	 M30.51,22.63c0.02,0.16,0.05,0.35,0.08,0.54c0.02,0.17,0.12,0.26,0.27,0.24c0.14-0.01,0.23-0.14,0.21-0.31
	c-0.02-0.18-0.05-0.37-0.08-0.55c-0.02-0.13-0.13-0.22-0.26-0.21C30.6,22.36,30.51,22.47,30.51,22.63z M30.94,21.7
	c-0.01,0-0.01,0-0.02,0c0-0.1,0-0.19,0-0.29c-0.01-0.16-0.11-0.26-0.25-0.25c-0.14,0-0.23,0.11-0.23,0.26
	c0,0.19,0.01,0.38,0.02,0.57c0.01,0.14,0.12,0.25,0.24,0.25c0.14,0,0.24-0.11,0.24-0.26C30.94,21.89,30.94,21.8,30.94,21.7z
	 M31.39,17.9c0.01-0.15-0.07-0.25-0.19-0.29c-0.1-0.03-0.23,0.03-0.26,0.14c-0.07,0.21-0.12,0.42-0.17,0.63
	c-0.03,0.12,0.05,0.23,0.16,0.27c0.12,0.04,0.25-0.02,0.29-0.14C31.28,18.31,31.34,18.09,31.39,17.9z M31.11,19.04
	c0-0.15-0.08-0.24-0.21-0.26c-0.12-0.02-0.24,0.06-0.27,0.18c-0.04,0.21-0.08,0.41-0.1,0.62c-0.02,0.13,0.08,0.24,0.21,0.26
	c0.11,0.02,0.23-0.04,0.25-0.16C31.04,19.46,31.08,19.24,31.11,19.04z M31.57,16.13c-0.01,0.15,0.05,0.23,0.16,0.27
	c0.11,0.04,0.23-0.01,0.29-0.12c0.09-0.16,0.18-0.32,0.26-0.49c0.08-0.15,0.04-0.3-0.08-0.36c-0.12-0.06-0.27,0-0.35,0.14
	c-0.08,0.15-0.16,0.3-0.24,0.46C31.58,16.07,31.57,16.12,31.57,16.13z"/>
<path class="st1" d="M28.71,15.32c-0.09,0.18-0.18,0.35-0.27,0.51c-0.09,0.16-0.05,0.31,0.09,0.38c0.13,0.06,0.26,0,0.34-0.15
	c0.07-0.14,0.15-0.28,0.22-0.42c0.1-0.18,0.1-0.23-0.05-0.41c0.15-0.03,0.29-0.06,0.43-0.08c0.15-0.02,0.29-0.03,0.46-0.05
	c-0.1,0.18-0.19,0.34-0.28,0.5c-0.54,1.04-0.91,2.13-1.12,3.28c-0.18,0.93-0.25,1.87-0.22,2.81c0.05,1.39,0.29,2.75,0.74,4.07
	c0.21,0.61,0.46,1.21,0.7,1.81c0.02,0.04,0.03,0.08,0.06,0.15c-0.2-0.03-0.38-0.05-0.55-0.08c-0.03-0.01-0.06-0.05-0.08-0.09
	c-0.05-0.1-0.1-0.21-0.14-0.31c-0.07-0.16-0.19-0.23-0.33-0.17c-0.14,0.06-0.18,0.18-0.12,0.36c0,0.01,0.01,0.02,0.01,0.04
	c-1.9-0.47-4.16-2.4-4.49-5.3C23.71,18.76,26.02,16.04,28.71,15.32z M28.38,25.52c-0.06-0.19-0.13-0.43-0.22-0.66
	c-0.04-0.1-0.17-0.13-0.27-0.1c-0.11,0.04-0.19,0.15-0.16,0.25c0.06,0.22,0.12,0.44,0.2,0.66c0.04,0.11,0.16,0.16,0.27,0.13
	C28.3,25.79,28.38,25.69,28.38,25.52z M28.05,24.36c-0.04-0.2-0.09-0.43-0.14-0.66c-0.03-0.1-0.16-0.17-0.25-0.16
	c-0.12,0.02-0.23,0.13-0.21,0.25c0.04,0.24,0.09,0.47,0.15,0.7c0.03,0.11,0.16,0.16,0.27,0.13C27.98,24.6,28.05,24.5,28.05,24.36z
	 M28.07,26.17c0.1,0.24,0.2,0.49,0.31,0.72c0.04,0.09,0.15,0.11,0.26,0.06c0.1-0.05,0.18-0.13,0.14-0.24
	c-0.07-0.24-0.16-0.47-0.26-0.69c-0.04-0.1-0.15-0.13-0.26-0.09C28.16,25.97,28.1,26.05,28.07,26.17z M28.61,16.57
	c0-0.13-0.06-0.21-0.18-0.24c-0.11-0.03-0.23,0.02-0.28,0.13c-0.08,0.19-0.16,0.38-0.23,0.57c-0.05,0.14,0.02,0.28,0.14,0.32
	c0.12,0.05,0.26-0.02,0.31-0.16c0.07-0.18,0.14-0.36,0.21-0.54C28.61,16.63,28.61,16.59,28.61,16.57z M27.9,18.94
	c0.01-0.15-0.07-0.25-0.2-0.27c-0.12-0.02-0.24,0.07-0.27,0.21c-0.04,0.2-0.07,0.4-0.1,0.61c-0.02,0.13,0.07,0.24,0.2,0.26
	c0.12,0.02,0.24-0.05,0.27-0.17C27.84,19.36,27.87,19.14,27.9,18.94z M27.79,18.54c0.13,0,0.2-0.06,0.24-0.18
	c0.05-0.19,0.1-0.38,0.15-0.57c0.04-0.14-0.03-0.27-0.16-0.31c-0.12-0.03-0.26,0.05-0.29,0.18c-0.06,0.2-0.11,0.4-0.16,0.61
	C27.53,18.41,27.64,18.54,27.79,18.54z M27.83,23.14c-0.03-0.2-0.05-0.41-0.08-0.61c-0.02-0.12-0.16-0.21-0.26-0.19
	c-0.13,0.02-0.22,0.13-0.21,0.27c0.02,0.2,0.05,0.39,0.07,0.59c0.02,0.15,0.13,0.24,0.26,0.23C27.74,23.41,27.83,23.3,27.83,23.14z
	 M27.73,20.23c0,0.01,0-0.01,0-0.03c0.01-0.2-0.06-0.31-0.22-0.32c-0.14-0.01-0.25,0.11-0.26,0.28c-0.01,0.18-0.03,0.36-0.03,0.54
	c-0.01,0.15,0.09,0.26,0.22,0.27c0.13,0.01,0.25-0.1,0.26-0.25C27.71,20.57,27.72,20.41,27.73,20.23z M27.7,21.7
	C27.7,21.7,27.71,21.7,27.7,21.7c-0.01-0.13,0-0.27-0.03-0.4c-0.02-0.12-0.13-0.18-0.25-0.18c-0.12,0-0.21,0.07-0.21,0.19
	c0,0.23,0,0.47,0.02,0.7c0.01,0.14,0.13,0.2,0.25,0.19c0.12-0.01,0.21-0.11,0.21-0.24C27.7,21.87,27.7,21.78,27.7,21.7z"/>
<path class="st1" d="M31.15,15.12c-0.21,0.42-0.43,0.82-0.62,1.23c-0.43,0.93-0.7,1.91-0.87,2.93c-0.16,0.98-0.19,1.96-0.12,2.95
	c0.11,1.43,0.43,2.81,0.94,4.16c0.15,0.41,0.33,0.81,0.5,1.21c0.02,0.04,0.03,0.08,0.06,0.14c-0.23,0.01-0.45,0.02-0.66,0.02
	c-0.02,0-0.05-0.05-0.07-0.08c-0.5-1.08-0.91-2.19-1.18-3.35c-0.26-1.13-0.39-2.28-0.35-3.44c0.06-1.82,0.48-3.55,1.35-5.17
	c0.11-0.2,0.23-0.38,0.34-0.57c0.02-0.03,0.06-0.06,0.09-0.06C30.77,15.09,30.96,15.11,31.15,15.12z"/>
<rect x="23.75" y="1.03" class="st2" width="13.4" height="13.4"/>
</svg>
