<?xml version="1.0" encoding="utf-8"?>
<!-- Generator: Adobe Illustrator 25.4.1, SVG Export Plug-In . SVG Version: 6.00 Build 0)  -->
<svg version="1.1" id="Layer_1" xmlns="http://www.w3.org/2000/svg" xmlns:xlink="http://www.w3.org/1999/xlink" x="0px" y="0px"
	 viewBox="0 0 60 60" style="enable-background:new 0 0 60 60;" xml:space="preserve">
<style type="text/css">
	.st0{fill:#F48165;}
	.st1{fill:#231F20;}
</style>
<rect x="22.43" y="23" class="st0" width="15.01" height="15.02"/>
<path class="st1" d="M8.06,28.38c0.27-2.76,0.18-7.18,1.2-11.33C11.69,7.25,21.29,0.7,31.53,1.3c9.89,0.59,18.75,8.29,19.95,18.09
	c0.7,5.65,0.38,11.43,0.41,17.16c0.01,1.63-0.2,3.29-0.53,4.88c-2.11,10.3-11.28,17.47-22.04,17.3
	c-9.88-0.16-19.06-7.97-20.64-17.91C8.13,37.26,8.3,33.58,8.06,28.38z M47.4,30.11c-0.09-0.01-0.18-0.01-0.27-0.02
	c0-2.29,0.05-4.59-0.01-6.88c-0.14-5.73-2.43-10.38-7.04-13.86c-10.07-7.6-25.3-1.24-26.69,11.31c-0.51,4.63-0.27,9.36-0.29,14.04
	c-0.01,1.84,0,3.71,0.34,5.51c1.46,7.64,8.34,13.49,15.98,13.73c8,0.24,15.26-4.94,17.02-12.71C47.25,37.64,47.11,33.83,47.4,30.11z
	"/>
<path class="st1" d="M15.73,29.87c0-3.03-0.28-6.1,0.06-9.09c0.78-6.93,7.19-12.31,14.31-12.32c7.11,0,13.68,5.38,14.32,12.29
	c0.62,6.63,1.06,13.37-0.31,19.94c-1.4,6.71-7.91,11.18-14.89,10.85c-6.71-0.32-12.65-5.64-13.45-12.42
	c-0.36-3.04-0.06-6.16-0.06-9.24C15.71,29.88,15.72,29.88,15.73,29.87z M21.13,40.49c0,1.03,0.04,1.87-0.01,2.71
	c-0.08,1.27,0.46,1.79,1.75,1.78c4.68-0.04,9.37-0.05,14.05,0c1.38,0.01,1.9-0.56,1.83-1.88c-0.04-0.83-0.01-1.66-0.01-2.61
	c0.99,0,1.77-0.01,2.56,0c0.8,0.02,1.54-0.23,1.35-1.12c-0.11-0.49-0.78-1.07-1.3-1.21c-0.78-0.2-1.65-0.05-2.52-0.05
	c0-5.15,0-10.11,0-15.21c0.87,0,1.66,0,2.44,0c0.76,0,1.57-0.16,1.38-1.08c-0.1-0.5-0.77-1.09-1.3-1.23
	c-0.77-0.21-1.65-0.05-2.62-0.05c0-1.45,0-2.68,0-3.92c0-1.01-0.4-1.58-1.51-1.58c-4.88,0.02-9.77,0.01-14.65,0
	c-1,0-1.46,0.47-1.46,1.46c0.01,1.29,0,2.57,0,4.04c-0.93,0-1.76-0.16-2.48,0.05c-0.53,0.16-0.91,0.81-1.36,1.24
	c0.46,0.36,0.87,0.9,1.39,1.02c0.74,0.18,1.55,0.04,2.37,0.04c0,5.15,0,10.11,0,15.23c-0.91,0-1.79-0.15-2.57,0.06
	c-0.47,0.13-0.8,0.81-1.19,1.24c0.41,0.35,0.78,0.91,1.24,1.01C19.29,40.62,20.11,40.49,21.13,40.49z"/>
<path class="st1" d="M36.29,17.55c0,1.02,0,1.9,0,2.88c-4.24,0-8.4,0-12.67,0c0-0.92,0-1.85,0-2.88C27.8,17.55,32,17.55,36.29,17.55
	z"/>
<path class="st1" d="M36.26,42.51c-4.22,0-8.38,0-12.63,0c0-0.65,0-1.25,0-1.94c4.21,0,8.37,0,12.63,0
	C36.26,41.19,36.26,41.76,36.26,42.51z"/>
</svg>
