<?xml version="1.0" encoding="utf-8"?>
<!-- Generator: Adobe Illustrator 25.4.1, SVG Export Plug-In . SVG Version: 6.00 Build 0)  -->
<svg version="1.1" id="Layer_1" xmlns="http://www.w3.org/2000/svg" xmlns:xlink="http://www.w3.org/1999/xlink" x="0px" y="0px"
	 viewBox="0 0 60 60" style="enable-background:new 0 0 60 60;" xml:space="preserve">
<style type="text/css">
	.st0{fill:#F48165;}
	.st1{fill:#231F20;}
</style>
<rect x="25.82" y="4.86" class="st0" width="12.59" height="12.59"/>
<path class="st1" d="M6.93,53.44c0-1.92,0-3.69,0-5.45c0-2.55-0.01-5.1,0.01-7.64c0-0.23,0.11-0.57,0.28-0.67
	c2.26-1.26,4.48-2.6,6.82-3.7c2.73-1.29,5.63-1.12,8.47-0.37c2.8,0.73,5.56,1.66,8.36,2.4c1.04,0.27,2.15,0.33,3.23,0.36
	c1.75,0.06,3.5,0,5.25,0.02c1.43,0.01,2.38,0.93,2.39,2.25c0,1.31-1.02,2.31-2.41,2.32c-3.82,0.01-7.64,0-11.47,0.01
	c-0.51,0-1.2-0.13-1.22,0.62c-0.02,0.8,0.69,0.68,1.23,0.68c3.8,0,7.6,0.01,11.4,0c1.78,0,3.05-1,3.57-2.7
	c0.08-0.26,0.33-0.54,0.58-0.65c3-1.29,6.02-2.54,9.03-3.8c1.32-0.55,2.69-0.76,4.05-0.31c0.57,0.19,1.13,0.6,1.54,1.05
	c0.8,0.88,0.62,1.69-0.42,2.28c-1.76,0.99-3.54,1.96-5.3,2.94c-4.51,2.5-9.01,5-13.51,7.51c-1.68,0.94-3.52,1.31-5.4,1.48
	c-2.53,0.23-4.97-0.32-7.41-0.89c-3.37-0.79-6.76-1.4-10.23-1.44c-2.62-0.03-4.95,0.79-7.03,2.36C8.17,52.49,7.61,52.92,6.93,53.44z
	"/>
<path class="st1" d="M38.19,32.06c-4.05,0-8,0-12.04,0c0-1.42,0-2.79,0-4.17c0-0.93,0-1.87,0-2.8c0-1.03-0.42-1.28-1.3-0.78
	c-2.43,1.37-4.87,2.74-7.3,4.11c-0.6,0.34-1.21,0.41-1.8,0c-0.54-0.37-0.82-0.9-0.78-1.57c0.04-0.69,0.48-1.1,1.04-1.41
	c3.49-1.95,6.99-3.87,10.44-5.88c1.02-0.59,1.81-0.73,2.94-0.19c2.13,1.01,4.34,0.75,6.42-0.34c0.44-0.23,0.75-0.22,1.16,0.02
	c3.82,2.19,7.66,4.35,11.49,6.52c0.88,0.5,1.15,1.4,0.7,2.27c-0.43,0.83-1.41,1.15-2.28,0.67c-2.29-1.26-4.55-2.56-6.83-3.84
	c-0.26-0.14-0.51-0.3-0.77-0.43c-0.69-0.35-1.09-0.12-1.1,0.66c-0.01,1.36,0,2.73,0,4.09C38.19,30,38.19,31,38.19,32.06z"/>
<path class="st1" d="M5.83,47.05c0,2.59,0,5.19,0,7.78c0,1.11-0.47,1.58-1.57,1.58c-0.48,0-0.96,0.01-1.43,0
	c-0.85-0.02-1.37-0.51-1.37-1.36c-0.01-5.37,0-10.73,0-16.1c0-0.81,0.49-1.32,1.3-1.37c0.5-0.03,1-0.01,1.5,0
	c1.02,0.01,1.56,0.53,1.56,1.55C5.83,41.77,5.83,44.41,5.83,47.05z"/>
<path class="st1" d="M38.32,33.4c-0.05,1.11-0.09,2.17-0.15,3.22c-0.02,0.34-0.17,0.52-0.6,0.55c-3.66,0.19-7.23-0.21-10.69-1.49
	c-0.51-0.19-0.76-0.38-0.69-0.94c0.05-0.42,0.01-0.86,0.01-1.34C30.21,33.4,34.19,33.4,38.32,33.4z"/>
</svg>
