<?xml version="1.0" encoding="utf-8"?>
<!-- Generator: Adobe Illustrator 25.4.1, SVG Export Plug-In . SVG Version: 6.00 Build 0)  -->
<svg version="1.1" id="Layer_1" xmlns="http://www.w3.org/2000/svg" xmlns:xlink="http://www.w3.org/1999/xlink" x="0px" y="0px"
	 viewBox="0 0 60 60" style="enable-background:new 0 0 60 60;" xml:space="preserve">
<style type="text/css">
	.st0{fill:#F48165;}
	.st1{fill:#231F20;}
</style>
<rect x="23.9" y="6.88" class="st0" width="12.24" height="12.24"/>
<path class="st1" d="M53.77,32.66c0,0.34,0,0.59,0,0.84c0,5.07,0,10.14,0,15.21c0,1.16-0.33,1.47-1.51,1.48
	c-0.55,0-1.27-0.14-1.61,0.14c-0.28,0.23-0.11,1-0.13,1.53c-0.03,0.73-0.4,1.14-1.04,1.16c-0.67,0.02-1.08-0.4-1.13-1.15
	c-0.03-0.55,0.12-1.32-0.18-1.58c-0.32-0.28-1.06-0.09-1.62-0.1c-0.47-0.01-0.93,0-1.48,0c-0.01-0.28-0.03-0.53-0.03-0.77
	c0.03-4.46,0.05-8.93,0.08-13.39c0-0.26,0.01-0.52-0.02-0.77c-0.13-1.32-1.23-2.12-2.53-1.82c-4.85,1.12-9.75,1.64-14.73,1.46
	c-3.09-0.11-6.14-0.49-9.11-1.36c-1.72-0.5-2.88,0.38-2.89,2.19c-0.02,4.44-0.04,8.88-0.07,13.32c0,0.35,0,0.7,0,1.12
	c-1.09,0-2.11,0-3.25,0c0,0.6,0.01,1.13,0,1.65c-0.02,0.81-0.43,1.24-1.12,1.21c-0.65-0.02-1.01-0.45-1.03-1.24
	c-0.01-0.47-0.02-0.93-0.03-1.4c0-0.04-0.04-0.08-0.11-0.2c-0.51,0-1.07,0-1.62,0c-1.17,0-1.49-0.31-1.49-1.5
	c-0.01-3.15,0-6.31,0-9.46c0-2.01,0-4.02,0-6.03c0-0.16-0.04-0.32-0.07-0.55c-0.79,0-1.55,0.01-2.32,0
	c-0.85-0.01-1.34-0.42-1.33-1.1c0.01-0.68,0.53-1.09,1.43-1.09c6.78,0,13.56-0.01,20.33-0.01c10.12,0,20.24,0,30.36,0.01
	c0.3,0,0.61-0.02,0.91,0.01c0.62,0.06,1.07,0.54,1.07,1.1c-0.01,0.6-0.48,1.06-1.15,1.08C55.54,32.68,54.72,32.66,53.77,32.66z"/>
<path class="st1" d="M16.89,43.13c0-2.43,0-4.86,0-7.29c0-1.27,0.43-1.6,1.64-1.29c5.65,1.46,11.38,1.79,17.16,1.1
	c2.29-0.28,4.55-0.73,6.83-1.13c1.15-0.2,1.55,0.1,1.55,1.28c-0.01,4.86-0.03,9.72-0.05,14.58c0,1.04-0.26,1.34-1.27,1.48
	c-5.68,0.8-11.38,1.2-17.11,0.83c-2.56-0.16-5.1-0.53-7.65-0.85c-0.93-0.11-1.14-0.41-1.14-1.35c0-2.45,0-4.91,0-7.36
	C16.86,43.13,16.87,43.13,16.89,43.13z M30.07,38.51c-3.37-0.01-6.08,2.63-6.08,5.93c0,3.31,2.67,5.97,6.02,6.01
	c3.28,0.03,6.04-2.7,6.06-5.98C36.08,41.21,33.36,38.52,30.07,38.51z"/>
<path class="st1" d="M39.33,28.93c-5.95,0-11.8,0-17.75,0c0.31-2.95,1.62-5.25,4.08-6.8c3.11-1.94,6.33-1.97,9.46-0.08
	C37.65,23.58,39,25.91,39.33,28.93z"/>
<path class="st1" d="M25.11,44.43c0.01-2.7,2.21-4.86,4.94-4.85c2.71,0.01,4.89,2.21,4.89,4.91c-0.01,2.66-2.2,4.83-4.88,4.84
	C27.3,49.35,25.1,47.18,25.11,44.43z M32.95,43.43c-0.26-0.02-0.48-0.04-0.71-0.04c-1.25-0.01-1.13,0.14-1.13-1.12
	c0-0.14,0.03-0.29-0.01-0.42c-0.04-0.11-0.15-0.28-0.24-0.29c-0.56-0.02-1.12-0.03-1.68,0.02c-0.1,0.01-0.22,0.31-0.24,0.49
	c-0.04,0.41-0.01,0.82-0.01,1.27c-0.67,0.03-1.24,0.06-1.79,0.09c0,0.74,0,1.4,0,2.14c0.61,0,1.16,0,1.8,0
	c0,0.51-0.04,0.96,0.02,1.39c0.02,0.16,0.24,0.4,0.39,0.41c0.55,0.05,1.11,0.02,1.72,0.02c0.03-0.63,0.06-1.2,0.09-1.79
	c0.64-0.03,1.21-0.06,1.8-0.08C32.95,44.78,32.95,44.14,32.95,43.43z"/>
</svg>
