<?xml version="1.0" encoding="utf-8"?>
<!-- Generator: Adobe Illustrator 25.4.1, SVG Export Plug-In . SVG Version: 6.00 Build 0)  -->
<svg version="1.1" id="Layer_1" xmlns="http://www.w3.org/2000/svg" xmlns:xlink="http://www.w3.org/1999/xlink" x="0px" y="0px"
	 viewBox="0 0 60 60" style="enable-background:new 0 0 60 60;" xml:space="preserve">
<style type="text/css">
	.st0{fill:#231F20;}
	.st1{fill:#F48165;}
	.st2{fill:#FFFFFF;}
	.st3{fill:#231F20;stroke:#FFFFFF;stroke-width:3;stroke-linecap:round;stroke-miterlimit:10;}
</style>
<g>
	<g>
		<rect x="17" y="9.8" transform="matrix(0.99 -0.1413 0.1413 0.99 -4.3945 4.5893)" class="st0" width="26.2" height="46.9"/>
		<path class="st0" d="M32.8,1.7c-4.1,0.4-8.2,0.8-12.2,1.2l-6.7,9c8.7-1.2,17.3-2.5,26-3.7C37.5,6,35.1,3.9,32.8,1.7z"/>
	</g>
	<rect x="30.5" y="40.6" transform="matrix(0.99 -0.1413 0.1413 0.99 -6.4223 5.8488)" class="st1" width="15" height="15"/>
	<rect x="24.1" y="4.2" transform="matrix(0.1413 0.99 -0.99 0.1413 30.1152 -19.1886)" class="st2" width="4.1" height="7.1"/>
</g>
<line class="st3" x1="25.8" y1="31.9" x2="33.3" y2="21.2"/>
<path class="st2" d="M25.4,26L25.4,26c-1.3,0.2-2.5-0.6-2.7-1.9v0c-0.2-1.3,0.6-2.5,1.9-2.7h0c1.3-0.2,2.5,0.6,2.7,1.9l0,0
	C27.5,24.5,26.6,25.8,25.4,26z"/>
<path class="st2" d="M34.5,32.2L34.5,32.2c-1.3,0.2-2.5-0.6-2.7-1.9v0c-0.2-1.3,0.6-2.5,1.9-2.7h0c1.3-0.2,2.5,0.6,2.7,1.9v0
	C36.7,30.7,35.8,31.9,34.5,32.2z"/>
</svg>
