<?xml version="1.0" encoding="utf-8"?>
<!-- Generator: Adobe Illustrator 25.4.1, SVG Export Plug-In . SVG Version: 6.00 Build 0)  -->
<svg version="1.1" id="Layer_1" xmlns="http://www.w3.org/2000/svg" xmlns:xlink="http://www.w3.org/1999/xlink" x="0px" y="0px"
	 viewBox="0 0 60 60" style="enable-background:new 0 0 60 60;" xml:space="preserve">
<style type="text/css">
	.st0{fill:#231F20;}
	.st1{fill:#F48165;}
</style>
<path class="st0" d="M53.23,21.74c0.01-1.53-1.22-3.32-3.32-3.31c-8,0.05-16,0.02-23.99,0.02c-0.66,0-0.8-0.24-0.5-0.85
	c0.44-0.89,0.89-1.78,1.34-2.67c0.95-1.88,1.9-3.76,2.84-5.64c0.35-0.71,0.26-1.3-0.25-1.69c-0.66-0.51-1.53-0.28-1.93,0.52
	c-1.46,2.91-2.91,5.83-4.38,8.74c-0.1,0.2-0.33,0.4-0.53,0.45c-0.1,0.03-0.34-0.25-0.43-0.43c-0.91-1.8-1.81-3.61-2.71-5.42
	c-0.56-1.12-1.1-2.25-1.67-3.36c-0.26-0.51-0.71-0.79-1.29-0.75c-0.5,0.04-0.88,0.35-0.99,0.82c-0.07,0.34-0.04,0.78,0.11,1.09
	c1.37,2.78,2.79,5.54,4.19,8.31c0.34,0.67,0.2,0.89-0.56,0.89c-2.17,0-4.33-0.01-6.5,0c-1.6,0.01-2.82,1.21-2.82,2.82
	c-0.01,4.18,0,8.35,0,12.53c0,0,0,0,0,0c0,2.72,0,5.45,0,8.17c0,1.55-0.02,3.11,0.04,4.66c0.05,1.29,1.13,2.37,2.43,2.45
	c1.09,0.07,2.19,0.04,3.29,0.05c0.61,0,0.7,0.07,0.76,0.66c0.04,0.32,0.2,0.49,0.52,0.49c0.97,0,1.94,0,2.91,0
	c0.31,0,0.47-0.17,0.52-0.46c0.11-0.66,0.12-0.68,0.77-0.68c4.92,0,9.84,0,14.75,0c2.08,0,4.16,0,6.24,0.01
	c0.53,0,0.62,0.08,0.67,0.6c0.04,0.38,0.22,0.55,0.61,0.55c0.91-0.01,1.82-0.01,2.74,0c0.38,0,0.58-0.14,0.61-0.54
	c0.05-0.53,0.15-0.61,0.67-0.61c0.93,0,1.85,0,2.78-0.01c0.33,0,0.66-0.01,0.97-0.09c1.33-0.34,2.1-1.43,2.1-2.95
	C53.22,37.97,53.2,29.85,53.23,21.74z M42.38,43.95c-4.36-0.01-8.72,0-13.09,0c0,0,0,0,0,0c-4.38,0-8.75,0-13.13,0
	c-0.01,0-0.01,0-0.02,0h13.15h13.14C42.41,43.95,42.4,43.95,42.38,43.95z M43.45,43.38H14.27V23.71h29.17V43.38z M48.39,25.34
	c1.21-0.01,2.19,0.95,2.2,2.14c0.01,1.17-1.03,2.24-2.19,2.24c-1.21,0-2.18-0.98-2.18-2.21C46.22,26.31,47.18,25.35,48.39,25.34z
	 M48.42,38.73c-1.23,0.01-2.19-0.97-2.19-2.24c0-1.18,0.95-2.13,2.15-2.13c1.25,0,2.22,0.95,2.22,2.16
	C50.59,37.68,49.56,38.72,48.42,38.73z"/>
<rect x="27.22" y="26.04" class="st1" width="15.01" height="15.02"/>
</svg>
