<?xml version="1.0" encoding="utf-8"?>
<!-- Generator: Adobe Illustrator 25.4.1, SVG Export Plug-In . SVG Version: 6.00 Build 0)  -->
<svg version="1.1" id="Layer_1" xmlns="http://www.w3.org/2000/svg" xmlns:xlink="http://www.w3.org/1999/xlink" x="0px" y="0px"
	 viewBox="0 0 64 64" style="enable-background:new 0 0 64 64;" xml:space="preserve">
<style type="text/css">
	.st0{fill:#231F20;}
	.st1{fill:#F48165;}
</style>
<path class="st0" d="M45.37,42.36c-1.3,4.48-5.86,8.49-11.43,8.64c0-0.71,0-1.43,0.01-2.14c0-0.08,0.07-0.16,0.12-0.23
	c0.48-0.64,0.96-1.27,1.45-1.94c-0.42-0.56-0.82-1.12-1.25-1.66c-0.19-0.24-0.22-0.42-0.07-0.69c0.33-0.59,0.6-1.21,0.92-1.8
	c0.05-0.09,0.19-0.19,0.28-0.19c3.29-0.01,6.58-0.01,9.87,0C45.29,42.34,45.32,42.35,45.37,42.36z"/>
<path class="st0" d="M32.12,50.97c-2.62-0.3-4.91-1.28-6.88-2.98c-1.76-1.52-3.01-3.39-3.76-5.64c3.4,0,6.77,0,10.16,0
	c-0.03,0.09-0.06,0.17-0.1,0.25c-0.33,0.66-0.65,1.32-0.99,1.97c-0.09,0.17-0.08,0.28,0.04,0.43c0.39,0.5,0.76,1.02,1.15,1.52
	c0.13,0.16,0.13,0.28,0.04,0.46c-0.23,0.43-0.41,0.88-0.66,1.29c-0.15,0.26-0.13,0.46,0.01,0.72
	C31.47,49.63,31.78,50.29,32.12,50.97z"/>
<path class="st0" d="M34.1,42.32c-0.36,0.73-0.69,1.42-1.05,2.09c-0.15,0.27-0.15,0.47,0.06,0.72c0.37,0.44,0.69,0.92,1.04,1.37
	c0.11,0.14,0.11,0.23,0,0.36c-0.35,0.45-0.7,0.91-1.03,1.38c-0.09,0.13-0.15,0.31-0.15,0.46c-0.02,0.52-0.01,1.05-0.06,1.59
	c-0.22-0.43-0.42-0.88-0.66-1.3c-0.16-0.28-0.15-0.5,0-0.77c0.26-0.46,0.49-0.93,0.7-1.4c0.05-0.1,0.03-0.28-0.04-0.37
	c-0.38-0.53-0.77-1.06-1.17-1.58c-0.11-0.14-0.11-0.25-0.03-0.41c0.33-0.65,0.65-1.29,0.97-1.95c0.07-0.15,0.16-0.23,0.34-0.22
	C33.36,42.33,33.7,42.32,34.1,42.32z"/>
<rect x="25.92" y="25.08" class="st1" width="15.01" height="15.02"/>
<polygon class="st0" points="18.73,22.86 33.47,9.89 48.13,22.86 "/>
<rect x="12.36" y="19.82" transform="matrix(0.866 0.5 -0.5 0.866 13.3694 -3.5786)" class="st0" width="2" height="6.68"/>
<rect x="12.36" y="29.38" transform="matrix(0.866 0.5 -0.5 0.866 18.1526 -2.297)" class="st0" width="2" height="6.68"/>
<rect x="12.36" y="24.6" transform="matrix(-0.866 0.5 -0.5 -0.866 38.9053 45.4575)" class="st0" width="2" height="6.68"/>
<rect x="12.36" y="34.17" transform="matrix(-0.866 0.5 -0.5 -0.866 43.6894 63.3118)" class="st0" width="2" height="6.68"/>
<rect x="51.69" y="19.82" transform="matrix(-0.866 0.5 -0.5 -0.866 109.895 16.8704)" class="st0" width="2" height="6.68"/>
<rect x="51.69" y="29.38" transform="matrix(-0.866 0.5 -0.5 -0.866 114.6783 34.7217)" class="st0" width="2" height="6.68"/>
<rect x="51.69" y="24.6" transform="matrix(0.866 0.5 -0.5 0.866 21.0293 -22.6003)" class="st0" width="2" height="6.68"/>
<rect x="51.69" y="34.17" transform="matrix(0.866 0.5 -0.5 0.866 25.8133 -21.3184)" class="st0" width="2" height="6.68"/>
</svg>
