<?xml version="1.0" encoding="utf-8"?>
<!-- Generator: Adobe Illustrator 25.4.1, SVG Export Plug-In . SVG Version: 6.00 Build 0)  -->
<svg version="1.1" id="Layer_1" xmlns="http://www.w3.org/2000/svg" xmlns:xlink="http://www.w3.org/1999/xlink" x="0px" y="0px"
	 viewBox="0 0 64 64" style="enable-background:new 0 0 64 64;" xml:space="preserve">
<style type="text/css">
	.st0{fill:#221F1F;}
	.st1{fill:#F38065;}
	.st2{fill:#FFFFFF;}
</style>
<g>
	<g>
		<polygon class="st0" points="41.4,29.1 33.1,21.3 24.9,29.1 16.7,36.9 16.7,55 28.4,55 28.4,43.8 36.4,43.8 36.4,43.8 39.6,43.8 
			39.6,46.2 49.6,46.2 49.6,36.9 		"/>
		<rect x="39.1" y="43.5" class="st0" width="10.5" height="11.6"/>
	</g>
</g>
<rect x="25.6" y="40.1" class="st1" width="15" height="15"/>
<path class="st0" d="M38.2,14.7c0,2.8-2.3,5.1-5.1,5.1c-2.8,0-5.1-2.3-5.1-5.1c0-1.5,0.2-2.7,0.9-4.2c0.6-1.4,1.8-3.7,4.3-6
	c1.1,1.2,2.6,3.1,3.8,5.6C37.9,12,38.2,13.2,38.2,14.7z"/>
<polygon class="st2" points="32.8,20.7 34.1,20.6 33.1,6.2 "/>
</svg>
