<?xml version="1.0" encoding="utf-8"?>
<!-- Generator: Adobe Illustrator 25.4.1, SVG Export Plug-In . SVG Version: 6.00 Build 0)  -->
<svg version="1.1" id="Layer_1" xmlns="http://www.w3.org/2000/svg" xmlns:xlink="http://www.w3.org/1999/xlink" x="0px" y="0px"
	 viewBox="0 0 60 60" style="enable-background:new 0 0 60 60;" xml:space="preserve">
<style type="text/css">
	.st0{fill:#231F20;}
	.st1{fill:#F48165;}
</style>
<path class="st0" d="M27.45,29.34c3.82,0,7.55,0,11.34,0c0-1.07,0-2.13,0-3.25c-2.4,0-4.81,0-7.27,0c0-3.82,0-7.58,0-11.38
	c6.2,0,12.4,0,18.66,0c0,3.76,0,7.51,0,11.33c-2.42,0-4.83,0-7.28,0c0,1.12,0,2.18,0,3.29c4.45,0,8.88,0,13.31,0
	c0,1.09,0.03,2.15-0.01,3.21c-0.02,0.63-0.39,0.88-1.04,0.87C44.9,33.39,34.63,33.4,24.36,33.4c-0.26,0-0.52,0-0.84,0
	c0,1.34,0,2.66,0,4.04c1.75,0,3.49,0,5.23,0c8.57,0,17.14,0,25.71,0c0.15,0,0.31,0,0.46,0.01c0.87,0.06,1.26,0.38,1.3,1.24
	c0.06,1.81,0.07,3.62,0.07,5.43c0.01,3.4,0,6.8,0,10.2c0,0.15-0.02,0.3-0.03,0.49c-17.85,0-35.67,0-53.54,0
	c-0.01-0.14-0.03-0.27-0.03-0.39c0-4.91,0.01-9.81-0.01-14.72c0-0.87,0.37-1.47,1.14-1.7c0.91-0.27,1.86-0.49,2.8-0.52
	c2-0.08,4.01-0.02,6.07-0.02c0-1.35,0-2.67,0-4.05c-1.85,0-3.68-0.09-5.5,0.02C5.07,33.56,3.9,32.3,2.9,30.76
	c-0.55-0.86-0.2-1.42,0.85-1.43c1.42-0.02,2.83,0.03,4.25,0.05c0.21,0,0.42,0,0.7,0c0-0.3,0-0.53,0-0.77c0-3.9,0-7.81,0-11.71
	c0-0.99,0.28-1.48,1.22-1.76c0.83-0.24,1.7-0.44,2.56-0.45c4.4-0.05,8.81-0.03,13.21-0.03c0.2,0,0.39,0,0.59,0.02
	c0.82,0.08,1.13,0.38,1.14,1.21c0.03,1.77,0.03,3.53,0.03,5.3c0,2.44,0,4.88,0,7.33C27.45,28.78,27.45,29.04,27.45,29.34z"/>
<path class="st0" d="M19.69,12.92c-2.67-0.03-4.68-2.08-4.65-4.75c0.02-2.48,2.19-4.6,4.68-4.56c2.6,0.04,4.64,2.13,4.62,4.75
	C24.32,10.88,22.22,12.95,19.69,12.92z"/>
<rect x="35.19" y="11.09" class="st1" width="15.01" height="15.02"/>
</svg>
