<?xml version="1.0" encoding="utf-8"?>
<!-- Generator: Adobe Illustrator 25.4.1, SVG Export Plug-In . SVG Version: 6.00 Build 0)  -->
<svg version="1.1" id="Layer_1" xmlns="http://www.w3.org/2000/svg" xmlns:xlink="http://www.w3.org/1999/xlink" x="0px" y="0px"
	 viewBox="0 0 64 64" style="enable-background:new 0 0 64 64;" xml:space="preserve">
<style type="text/css">
	.st0{fill:#231F20;}
	.st1{fill:#F48165;}
</style>
<rect x="4.7" y="18.47" transform="matrix(-1 -1.224647e-16 1.224647e-16 -1 13.5349 60.0001)" class="st0" width="4.13" height="23.06"/>
<rect x="29.3" y="-3.4" transform="matrix(6.123234e-17 -1 1 6.123234e-17 7.106 55.6353)" class="st0" width="4.13" height="55.32"/>
<rect x="29.16" y="15.8" transform="matrix(6.123234e-17 -1 1 6.123234e-17 -12.238 74.6912)" class="st0" width="4.13" height="55.32"/>
<rect x="12.97" y="18.47" transform="matrix(-1 -1.224647e-16 1.224647e-16 -1 30.0683 60.0001)" class="st0" width="4.13" height="23.06"/>
<rect x="21.08" y="18.47" transform="matrix(-1 -1.224647e-16 1.224647e-16 -1 46.2849 60.0001)" class="st0" width="4.13" height="23.06"/>
<rect x="29.34" y="18.47" transform="matrix(-1 -1.224647e-16 1.224647e-16 -1 62.8183 60.0001)" class="st0" width="4.13" height="23.06"/>
<rect x="37.39" y="18.47" transform="matrix(-1 -1.224647e-16 1.224647e-16 -1 78.9099 60.0001)" class="st0" width="4.13" height="23.06"/>
<rect x="45.65" y="18.47" transform="matrix(-1 -1.224647e-16 1.224647e-16 -1 95.4433 60.0001)" class="st0" width="4.13" height="23.06"/>
<rect x="53.76" y="18.47" transform="matrix(-1 -1.224647e-16 1.224647e-16 -1 111.6599 60.0001)" class="st0" width="4.13" height="23.06"/>
<rect x="23.86" y="26.38" class="st1" width="15.02" height="15.02"/>
</svg>
