<?xml version="1.0" encoding="utf-8"?>
<!-- Generator: Adobe Illustrator 25.4.1, SVG Export Plug-In . SVG Version: 6.00 Build 0)  -->
<svg version="1.1" id="Layer_1" xmlns="http://www.w3.org/2000/svg" xmlns:xlink="http://www.w3.org/1999/xlink" x="0px" y="0px"
	 viewBox="0 0 64 64" style="enable-background:new 0 0 64 64;" xml:space="preserve">
<style type="text/css">
	.st0{fill:#231F20;}
	.st1{fill:#F48165;}
</style>
<path class="st0" d="M39.73,48.71c0-0.24,0-0.47,0-0.71c0.01-4.51,0.01-9.01,0.02-13.52c0-0.89-0.04-1.78-0.02-2.67
	c0.03-1,0.63-1.82,1.48-2.1c0.89-0.3,1.7-0.12,2.3,0.61c0.27,0.33,0.5,0.8,0.52,1.22c0.07,1.6,0.05,3.21,0.05,4.82
	c0.01,2.02,0,4.04,0.01,6.06c0,0.2,0.05,0.41,0.15,0.64c0.3-1.3,0.91-2.25,2.37-2.25c1.46,0,1.98,1.01,2.3,2.29
	c0.31-1.42,0.97-2.38,2.54-2.29c1.37,0.08,1.81,1.07,2.17,2.21c0.06-0.19,0.13-0.38,0.18-0.58c0.27-1.02,1.09-1.64,2.15-1.64
	c1.04,0,1.81,0.61,2.05,1.66c0.08,0.34,0.11,0.69,0.11,1.03c0.01,5.59,0.01,11.19,0,16.78c0,1.65-1,2.63-2.66,2.63
	c-3.66,0-7.31,0-10.97,0c-1.67,0-2.62-0.96-2.64-2.63c0-0.09-0.01-0.18,0-0.26c0.24-1.94-0.53-3.39-1.95-4.71
	c-2.36-2.19-4.58-4.52-6.85-6.81c-1.02-1.03-1.08-2.28-0.19-3.18c0.89-0.9,2.23-0.87,3.26,0.12c0.97,0.94,1.91,1.9,2.87,2.85
	c0.18,0.18,0.38,0.33,0.56,0.5C39.62,48.77,39.67,48.74,39.73,48.71z"/>
<path class="st0" d="M44.85,40.57c0-1.12,0-2.09,0-3.11c0.53,0,1.05,0.01,1.56,0c1.07-0.02,1.51-0.54,1.49-1.59
	c-0.03-1.89,0.02-3.79,0.01-5.68c-0.02-2.77-1.93-5.18-4.56-5.8c-3.76-0.89-7.28,1.87-7.34,5.79c-0.03,1.98,0.01,3.96,0.04,5.94
	c0.01,0.87,0.43,1.28,1.28,1.3c0.52,0.01,1.03,0,1.59,0c0,1.25,0,2.42,0,3.63c-0.93,0-1.86,0.06-2.78-0.02
	c-0.71-0.06-1.08-0.63-1.09-1.47c-0.01-1.65,0-3.31,0-4.96c0-4.81,0-9.62,0-14.43c0-0.2-0.01-0.39,0-0.59
	c0.06-0.9,0.56-1.41,1.46-1.41c3.61-0.01,7.23-0.01,10.84,0c1.01,0,1.51,0.53,1.51,1.55c0,6.6,0.01,13.19-0.01,19.79
	c0,0.38-0.16,0.77-0.28,1.27C47.32,39.86,46.13,39.85,44.85,40.57z"/>
<path class="st0" d="M38.96,36.77c-0.64,0-1.23,0.03-1.81-0.02c-0.17-0.02-0.44-0.29-0.44-0.45c0.01-2.37-0.11-4.76,0.14-7.1
	c0.29-2.63,2.89-4.52,5.45-4.29c2.83,0.25,4.87,2.44,4.88,5.23c0.01,1.92,0.02,3.83,0.05,5.75c0.01,0.59-0.1,0.9-0.83,0.89
	c-1.56-0.04-1.56,0.01-1.56-1.57c0-1.06,0.01-2.13,0-3.19c-0.02-1.87-1.23-3.19-2.9-3.19c-1.7,0-2.97,1.36-2.98,3.21
	C38.95,33.6,38.96,35.16,38.96,36.77z"/>
<path class="st0" d="M54.1,9.76c0-2.16-1.39-3.54-3.55-3.54c-6.55,0-13.1,0-19.65,0c-0.23,0-0.46,0-0.7,0c0,12.82,0,25.55,0,38.35
	c1.06-0.07,2.07,0.22,3.06-0.39c0.75-0.46,1.67-0.42,2.44,0.04c1.05,0.63,2.14,0.24,3.25,0.34c0-0.85,0-1.61,0-2.37
	c0-0.13-0.02-0.25-0.03-0.44c-0.83,0-1.63,0.01-2.43,0c-1.26-0.01-2.11-0.86-2.12-2.14c-0.01-0.91,0.02-1.83,0.02-2.74
	c-0.01-5.7-0.02-11.4-0.02-17.11c0-1.47,0.83-2.3,2.31-2.3c3.46,0,6.92,0,10.38,0c1.72,0,2.48,0.74,2.48,2.44
	c0,6.04,0.01,12.09,0.01,18.13c0,0.84,0,1.68,0,2.51c1.44-0.86,2.82-0.66,4.2,0.75c0.14-0.51,0.34-0.87,0.34-1.23
	C54.11,29.96,54.1,19.86,54.1,9.76z M49.79,14.59c0,0.22-0.18,0.4-0.4,0.4H33.96c-0.22,0-0.4-0.18-0.4-0.4
	c0-0.25,0.2-0.45,0.45-0.45h15.38c0.22,0,0.4,0.18,0.4,0.4V14.59z M49.79,12.8c0,0.22-0.18,0.4-0.4,0.4H33.96
	c-0.22,0-0.4-0.18-0.4-0.4c0-0.25,0.2-0.45,0.45-0.45h15.38c0.22,0,0.4,0.18,0.4,0.4V12.8z M49.79,10.94c0,0.22-0.18,0.4-0.4,0.4
	H33.96c-0.22,0-0.4-0.18-0.4-0.4c0-0.25,0.2-0.45,0.45-0.45h15.38c0.22,0,0.4,0.18,0.4,0.4V10.94z M49.79,9.15
	c0,0.22-0.18,0.4-0.4,0.4H33.96c-0.22,0-0.4-0.18-0.4-0.4c0-0.25,0.2-0.45,0.45-0.45h15.38c0.22,0,0.4,0.18,0.4,0.4V9.15z"/>
<path class="st0" d="M28.45,6.23c-8.71,0-10.42-0.01-19.12,0c-2.05,0-3.45,1.46-3.45,3.53c0,10.41,0,20.81,0,31.22
	c0,2.25,1.36,3.6,3.63,3.6c8.6,0,10.2,0,18.8,0c0.23,0,0.46-0.02,0.7-0.03c0-12.8,0-25.53,0-38.29C28.79,6.25,28.62,6.23,28.45,6.23
	z M11.67,41.67c-0.97,0-1.75-0.78-1.75-1.75s0.78-1.75,1.75-1.75c0.97,0,1.75,0.78,1.75,1.75S12.64,41.67,11.67,41.67z M11.67,36.51
	c-0.97,0-1.75-0.78-1.75-1.75s0.78-1.75,1.75-1.75c0.97,0,1.75,0.78,1.75,1.75S12.64,36.51,11.67,36.51z M11.67,31.34
	c-0.97,0-1.75-0.78-1.75-1.75c0-0.97,0.78-1.75,1.75-1.75c0.97,0,1.75,0.78,1.75,1.75C13.42,30.56,12.64,31.34,11.67,31.34z
	 M17.44,41.67c-0.97,0-1.75-0.78-1.75-1.75s0.78-1.75,1.75-1.75c0.97,0,1.75,0.78,1.75,1.75S18.4,41.67,17.44,41.67z M17.44,36.51
	c-0.97,0-1.75-0.78-1.75-1.75s0.78-1.75,1.75-1.75c0.97,0,1.75,0.78,1.75,1.75S18.4,36.51,17.44,36.51z M17.44,31.34
	c-0.97,0-1.75-0.78-1.75-1.75c0-0.97,0.78-1.75,1.75-1.75c0.97,0,1.75,0.78,1.75,1.75C19.18,30.56,18.4,31.34,17.44,31.34z
	 M23.2,41.67c-0.97,0-1.75-0.78-1.75-1.75s0.78-1.75,1.75-1.75c0.97,0,1.75,0.78,1.75,1.75S24.16,41.67,23.2,41.67z M23.2,36.51
	c-0.97,0-1.75-0.78-1.75-1.75s0.78-1.75,1.75-1.75c0.97,0,1.75,0.78,1.75,1.75S24.16,36.51,23.2,36.51z M23.2,31.34
	c-0.97,0-1.75-0.78-1.75-1.75c0-0.97,0.78-1.75,1.75-1.75c0.97,0,1.75,0.78,1.75,1.75C24.95,30.56,24.16,31.34,23.2,31.34z"/>
<rect x="9.93" y="9.87" class="st1" width="15.02" height="15.02"/>
</svg>
