<?xml version="1.0" encoding="utf-8"?>
<!-- Generator: Adobe Illustrator 25.4.1, SVG Export Plug-In . SVG Version: 6.00 Build 0)  -->
<svg version="1.1" id="Layer_1" xmlns="http://www.w3.org/2000/svg" xmlns:xlink="http://www.w3.org/1999/xlink" x="0px" y="0px"
	 viewBox="0 0 60 60" style="enable-background:new 0 0 60 60;" xml:space="preserve">
<style type="text/css">
	.st0{fill:#231F20;}
	.st1{fill:#F48165;}
</style>
<g>
	<path class="st0" d="M37.05,42.45c-5.52,0-11.05,0-16.57,0c-3.29,0-6.58,0-9.87,0c-2.27,0-4.54-0.01-6.82,0
		c-1.49,0.01-2.63,1.2-2.54,2.64c0.09,1.37,1.19,2.33,2.69,2.33c11.01,0,22.02,0,33.02,0c0.21,0,0.42-0.01,0.62-0.04
		c1.34-0.19,2.3-1.52,2.05-2.85C39.42,43.26,38.42,42.45,37.05,42.45z"/>
	<path class="st0" d="M6.61,41.79c9.23,0,18.47,0,27.7,0c0.07,0,0.13,0,0.2,0c1.56-0.06,2.67-1.43,2.39-2.97
		c-0.21-1.19-1.23-2.02-2.48-2.02c-4.64,0-9.27,0-13.91,0c-1.55,0-3.11,0-4.66,0c-3.12,0-6.24,0-9.36,0c-1.45,0-2.56,1.14-2.52,2.57
		C4,40.76,5.13,41.79,6.61,41.79z"/>
	<path class="st0" d="M10.43,36.14c6.68,0,13.37,0,20.05,0c0.09,0,0.18,0,0.27,0c1.35-0.07,2.41-1.07,2.48-2.32
		c0.08-1.5-1.02-2.68-2.53-2.68c-3.39-0.01-6.79,0-10.18,0c-2.47,0-4.94,0-7.4,0c-0.98,0-1.96-0.01-2.94,0
		c-1.73,0.03-2.89,1.67-2.35,3.31C8.18,35.5,9.16,36.14,10.43,36.14z"/>
	<path class="st0" d="M25.05,30.46c0.64,0,0.65,0,0.88-0.61c0.58-1.55,1.1-3.13,1.73-4.66c0.85-2.05,2.26-3.55,4.45-4.22
		c1.38-0.42,2.79-0.52,4.22-0.44c0.54,0.03,1.09,0.07,1.65,0.11c0-1.63,0-3.24,0-4.87c-0.15-0.02-0.29-0.04-0.43-0.05
		c-2.07-0.08-4.12-0.01-6.16,0.38c-3.97,0.75-6.78,2.89-8.2,6.74c-0.52,1.39-0.98,2.81-1.52,4.19c-0.56,1.43-1.37,2.67-2.83,3.43
		c0.14,0,0.28,0,0.42,0C21.18,30.46,23.11,30.46,25.05,30.46z"/>
	<path class="st0" d="M49.71,15.52c0,1.8,0,3.54,0,5.33c0.37-0.09,0.71-0.17,1.05-0.25c1.68-0.4,3.37-0.8,5.05-1.22
		c0.11-0.03,0.28-0.15,0.29-0.23c0.02-0.69,0.01-1.38,0.01-2.07C53.96,16.55,51.86,16.04,49.71,15.52z"/>
	<path class="st0" d="M57.42,16.39c-0.36,0-0.6,0.25-0.61,0.67c-0.01,0.38,0,0.76,0,1.14c0,0.38-0.01,0.76,0,1.14
		c0.01,0.41,0.25,0.67,0.61,0.68c0.34,0.01,0.63-0.27,0.64-0.66c0.01-0.77,0.01-1.54,0-2.31C58.04,16.64,57.78,16.39,57.42,16.39z"
		/>
</g>
<rect x="38.73" y="13.02" class="st1" width="10.32" height="10.32"/>
</svg>
