<?xml version="1.0" encoding="utf-8"?>
<!-- Generator: Adobe Illustrator 25.4.1, SVG Export Plug-In . SVG Version: 6.00 Build 0)  -->
<svg version="1.1" id="Layer_1" xmlns="http://www.w3.org/2000/svg" xmlns:xlink="http://www.w3.org/1999/xlink" x="0px" y="0px"
	 viewBox="0 0 64 64" style="enable-background:new 0 0 64 64;" xml:space="preserve">
<style type="text/css">
	.st0{fill:#221F1F;}
	.st1{fill:#F38065;}
</style>
<path class="st0" d="M35.1,12.3c2.5,0.6,4.9,1.1,7.3,1.6c0-3.4,0-6.8,0-10.2c-0.2,0.1-0.4,0.1-0.5,0.2c-3.3,1.4-6.5,2.7-9.8,4.1
	c-1.5,0.6-1.5,0.6-1.5,2.2c0,0.5-0.2,0.8-0.7,1c-2.5,1.2-4.8,2.7-6.7,4.8c-3.2,3.5-4.2,7.8-3.9,12.4c0.2,2.5,0.3,5,0.3,7.5
	c0,2.2-0.9,4.1-2.4,5.8c-1.8,2.1-4.2,3.3-6.8,4.1c-1,0.3-1.5,1.1-1.2,2c0.3,0.9,1.1,1.4,2.1,1c1.4-0.5,2.8-1,4.1-1.7
	c4.8-2.6,7.4-6.7,7.3-12.3c0-1.8-0.2-3.6-0.3-5.5c-0.2-2.4-0.2-4.8,0.6-7.1c1.3-3.6,4-6,7.3-7.7c0,0,0.1,0,0.2,0c0,1.9,0,3.9,0,5.8
	c0,0.2-0.3,0.4-0.5,0.4c-3.8,1.3-6.3,4.7-6.3,8.7c0,1.9,0,3.7,0,5.6c0,8,0,16,0,24c0,0.2,0,0.4,0,0.7c6,0,12,0,18.1,0
	c0-0.2,0-0.5,0-0.7c0-9.9,0-19.7,0-29.6c0-4.1-2.4-7.5-6.3-8.7c-0.5-0.2-0.6-0.3-0.6-0.8c0-2.3,0-4.6,0-6.9
	C35.1,12.8,35.1,12.6,35.1,12.3z"/>
<rect x="25.5" y="39.4" class="st1" width="15" height="15"/>
</svg>
