<?xml version="1.0" encoding="utf-8"?>
<!-- Generator: Adobe Illustrator 25.4.1, SVG Export Plug-In . SVG Version: 6.00 Build 0)  -->
<svg version="1.1" id="Layer_1" xmlns="http://www.w3.org/2000/svg" xmlns:xlink="http://www.w3.org/1999/xlink" x="0px" y="0px"
	 viewBox="0 0 64 64" style="enable-background:new 0 0 64 64;" xml:space="preserve">
<style type="text/css">
	.st0{fill:#F48165;}
	.st1{fill:#231F20;}
	.st2{fill:#010101;}
</style>
<g>
	<rect x="39.44" y="31.73" class="st0" width="15.02" height="15.02"/>
	<rect x="34.5" y="9.24" class="st1" width="10.85" height="4.13"/>
	
		<rect x="38.16" y="16.34" transform="matrix(-1.836970e-16 1 -1 -1.836970e-16 65.7269 -28.9194)" class="st1" width="18.33" height="4.13"/>
	<g>
		<path class="st2" d="M12.99,32.46h23.06v27.51H12.99V32.46z"/>
		<path class="st2" d="M45.71,26.26c-1.31,0.58-2.26,1.84-2.37,3.36l-0.16,2.11h8.28l-0.16-2.11c-0.11-1.52-1.06-2.78-2.37-3.36"/>
		<path class="st2" d="M20.78,14.08v4.26h-0.1c-4.25,0-7.69,3.44-7.69,7.69v7.49h23.06v-7.49c0-4.25-3.44-7.69-7.69-7.69H28.2v-3.16
			h3.71c1.47,0,2.74-0.86,3.34-2.1"/>
		<path class="st2" d="M35.03,9.48c-0.66-1.03-1.81-1.72-3.13-1.72H28.2v-2.8H11.25v3.71l7.18,2.79"/>
		<rect x="11.25" y="7.64" class="st2" width="23.79" height="7.88"/>
	</g>
</g>
</svg>
