<?xml version="1.0" encoding="utf-8"?>
<!-- Generator: Adobe Illustrator 25.4.1, SVG Export Plug-In . SVG Version: 6.00 Build 0)  -->
<svg version="1.1" id="Layer_1" xmlns="http://www.w3.org/2000/svg" xmlns:xlink="http://www.w3.org/1999/xlink" x="0px" y="0px"
	 viewBox="0 0 60 60" style="enable-background:new 0 0 60 60;" xml:space="preserve">
<style type="text/css">
	.st0{fill:#231F20;}
	.st1{fill:#F48165;}
</style>
<path class="st0" d="M27.57,49.7c-7.28,0-14.56,0-21.84-0.01c-0.29,0-0.62-0.04-0.86-0.18c-0.4-0.24-0.38-0.64-0.25-1.07
	c1.41-4.8,2.82-9.6,4.22-14.4c1-3.41,1.99-6.82,2.99-10.22c0.22-0.74,0.39-0.87,1.18-0.87c14.65,0,29.29,0,43.94,0
	c0.99,0,1.28,0.39,0.99,1.36c-2.39,8.16-4.77,16.32-7.16,24.48c-0.22,0.75-0.43,0.91-1.21,0.91C42.23,49.7,34.9,49.7,27.57,49.7z"/>
<path class="st0" d="M50.7,21.35c-0.28,0-0.49,0-0.7,0c-12.33,0-24.65,0-36.98,0c-1.55,0-2.3,0.56-2.74,2.03
	C8.45,29.62,6.62,35.86,4.79,42.1c-0.05,0.17-0.11,0.34-0.24,0.51c-0.01-0.14-0.03-0.27-0.03-0.41c0-10.27,0-20.54,0-30.82
	c0-0.82,0.26-1.08,1.08-1.08c5.34,0,10.69,0.01,16.03-0.01c0.59,0,0.92,0.23,1.17,0.74c0.86,1.72,1.76,3.41,2.62,5.12
	c0.18,0.36,0.39,0.49,0.8,0.49c7.75-0.01,15.5-0.01,23.25-0.01c1.06,0,1.23,0.17,1.23,1.22c0,0.97,0,1.94,0,2.91
	C50.7,20.94,50.7,21.11,50.7,21.35z"/>
<rect x="23.78" y="29.44" class="st1" width="15.01" height="15.02"/>
</svg>
