<?xml version="1.0" encoding="utf-8"?>
<!-- Generator: Adobe Illustrator 25.4.1, SVG Export Plug-In . SVG Version: 6.00 Build 0)  -->
<svg version="1.1" id="Layer_1" xmlns="http://www.w3.org/2000/svg" xmlns:xlink="http://www.w3.org/1999/xlink" x="0px" y="0px"
	 viewBox="0 0 60 60" style="enable-background:new 0 0 60 60;" xml:space="preserve">
<style type="text/css">
	.st0{fill:#231F20;}
	.st1{fill:#F48165;}
</style>
<path class="st0" d="M42.76,48.41c-1.65,2.67-3.28,5.29-4.91,7.9c-0.08,0.13-0.25,0.25-0.4,0.29c-2.06,0.52-4.13,0.87-6.27,0.89
	c-2.6,0.02-5.16-0.16-7.67-0.87c-0.17-0.05-0.37-0.15-0.46-0.29c-1.65-2.63-3.28-5.26-4.93-7.92c1.86-1.97,3.75-3.89,5.54-5.9
	c0.69-0.78,1.4-1.06,2.43-1.04c3.21,0.07,6.43,0.03,9.64,0.02c0.35,0,0.59,0.09,0.84,0.35C38.61,44.04,40.68,46.21,42.76,48.41z"/>
<path class="st0" d="M50.99,23.63c2.22,2.63,4.44,5.27,6.64,7.91c0.11,0.13,0.17,0.36,0.14,0.53c-0.31,1.84-0.52,3.71-1.02,5.5
	c-0.46,1.67-1.22,3.26-1.87,4.87c-0.07,0.18-0.29,0.35-0.48,0.43c-2.99,1.16-5.98,2.3-8.96,3.46c-0.32,0.12-0.51,0.08-0.74-0.17
	c-1.96-2.08-3.93-4.15-5.88-6.24c-0.13-0.14-0.2-0.46-0.14-0.64c1.08-3.39,2.17-6.77,3.28-10.15c0.06-0.18,0.2-0.39,0.36-0.48
	c2.81-1.65,5.63-3.29,8.45-4.93C50.84,23.68,50.91,23.66,50.99,23.63z"/>
<path class="st0" d="M9.91,23.61c2.92,1.7,5.8,3.37,8.68,5.06c0.16,0.09,0.28,0.32,0.34,0.5c1.1,3.37,2.19,6.73,3.26,10.11
	c0.06,0.19-0.01,0.5-0.14,0.64c-1.94,2.08-3.9,4.13-5.84,6.21c-0.26,0.28-0.48,0.32-0.83,0.19c-2.95-1.16-5.91-2.3-8.85-3.47
	c-0.26-0.1-0.53-0.36-0.66-0.61c-1.47-2.98-2.38-6.12-2.71-9.44c-0.07-0.68-0.01-1.19,0.47-1.74C5.75,28.61,7.8,26.12,9.91,23.61z"
	/>
<path class="st0" d="M40.93,26.03c-2.92-2.12-5.8-4.2-8.66-6.3c-0.18-0.13-0.33-0.43-0.33-0.65c-0.02-3.36-0.01-6.72-0.02-10.08
	c0-0.3,0.1-0.43,0.38-0.54c2.91-1.1,5.82-2.21,8.74-3.3c0.21-0.08,0.5-0.08,0.7,0.01c2.89,1.3,5.49,3.04,7.75,5.26
	c0.19,0.18,0.34,0.51,0.34,0.77c0.02,3.07,0.02,6.15,0,9.22c0,0.19-0.1,0.48-0.24,0.56C46.71,22.68,43.83,24.35,40.93,26.03z"/>
<path class="st0" d="M19.94,26.03c-2.46-1.43-4.91-2.85-7.35-4.28c-0.51-0.3-1.22-0.49-1.46-0.93c-0.26-0.47-0.08-1.18-0.08-1.79
	c0-2.57,0.01-5.15-0.01-7.72c0-0.38,0.09-0.66,0.38-0.93c2.28-2.18,4.86-3.91,7.73-5.2c0.2-0.09,0.49-0.09,0.7-0.01
	c2.92,1.09,5.82,2.21,8.74,3.3c0.27,0.1,0.38,0.23,0.38,0.53c-0.01,3.38,0,6.75-0.02,10.13c0,0.18-0.1,0.43-0.24,0.54
	C25.79,21.79,22.87,23.91,19.94,26.03z"/>
<path class="st0" d="M8.13,14.32c0,1.21,0,2.36,0,3.51c0,0.8-0.03,1.61,0.01,2.41c0.03,0.6-0.12,1.07-0.53,1.54
	c-1.42,1.62-2.8,3.28-4.19,4.93c-0.04,0.05-0.11,0.09-0.17,0.14C3.82,21.48,6.41,16.4,8.13,14.32z"/>
<path class="st0" d="M52.75,14.42c2.72,3.71,4.31,7.86,4.91,12.51c-0.69-0.81-1.33-1.55-1.95-2.29c-0.91-1.08-1.82-2.15-2.72-3.24
	c-0.12-0.14-0.23-0.34-0.23-0.51C52.74,18.74,52.75,16.58,52.75,14.42z"/>
<path class="st0" d="M36.82,3.59c-2.06,0.78-4.11,1.57-6.18,2.34c-0.13,0.05-0.32,0.03-0.46-0.02c-2.05-0.77-4.09-1.54-6.28-2.37
	C28.31,2.41,32.55,2.42,36.82,3.59z"/>
<path class="st0" d="M8.96,47c2.04,0.78,4.08,1.56,6.12,2.35c0.09,0.04,0.2,0.1,0.25,0.19c1.07,1.72,2.14,3.44,3.17,5.19
	C14.69,52.94,11.5,50.38,8.96,47z"/>
<path class="st0" d="M42.35,54.68c1.04-1.68,2.08-3.36,3.13-5.03c0.08-0.13,0.22-0.25,0.35-0.3c1.99-0.77,3.98-1.53,5.98-2.29
	c0.04-0.02,0.1-0.01,0.21-0.03C49.38,50.38,46.19,52.93,42.35,54.68z"/>
<rect x="22.93" y="24.36" class="st1" width="15.02" height="15.02"/>
</svg>
