<?xml version="1.0" encoding="utf-8"?>
<!-- Generator: Adobe Illustrator 25.4.1, SVG Export Plug-In . SVG Version: 6.00 Build 0)  -->
<svg version="1.1" id="Layer_1" xmlns="http://www.w3.org/2000/svg" xmlns:xlink="http://www.w3.org/1999/xlink" x="0px" y="0px"
	 viewBox="0 0 60 60" style="enable-background:new 0 0 60 60;" xml:space="preserve">
<style type="text/css">
	.st0{fill:#231F20;}
	.st1{fill:#F48165;}
</style>
<path class="st0" d="M11.51,54.12v-1.8c0-0.22-0.17-0.4-0.39-0.41c-0.81-0.03-1.55-0.05-2.29-0.11c-4.02-0.36-7.04-3.66-7.06-7.69
	c-0.01-2.41,0-4.82,0-7.34c0-0.23,0.18-0.41,0.41-0.41h24.42c0.23,0,0.41-0.18,0.41-0.41v-9.86c0-0.23-0.18-0.41-0.41-0.41
	c-1.88,0-3.72,0.01-5.56-0.01c-0.58-0.01-1.2-0.04-1.74-0.21c-1.17-0.38-2.05-1.21-2.23-2.41c-0.2-1.32-0.18-2.68-0.24-4.11
	c-0.01-0.23,0.17-0.42,0.41-0.42h11.92c0.23,0,0.41-0.18,0.41-0.41c0-0.71,0-1.38,0-2.04c0-2.02,0.02-4.04-0.01-6.06
	c-0.02-2.17-1.5-3.64-3.59-3.63c-2.03,0.01-3.47,1.49-3.5,3.62c-0.01,0.7,0.02,1.4-0.03,2.09c-0.01,0.07-0.07,0.14-0.15,0.2
	c-0.17,0.14-0.42,0.12-0.56-0.05c-0.04-0.05-0.07-0.1-0.07-0.15c0-1.11-0.11-2.26,0.12-3.32c0.37-1.7,1.54-2.81,3.25-3.16
	c1.76-0.36,3.31,0.08,4.47,1.56c0.13,0.16,0.26,0.33,0.39,0.49c0.02,0.02,0.06,0.02,0.18,0.05c1.07-1.59,2.56-2.42,4.56-2.15
	c2.08,0.27,3.69,2.02,3.73,4.11c0.02,0.73,0.04,1.47-0.02,2.19c0,0.02-0.01,0.05-0.01,0.07c-0.1,0.37-0.66,0.37-0.77,0
	c-0.01-0.03-0.02-0.07-0.02-0.1c-0.05-0.69,0-1.39-0.03-2.09c-0.09-1.86-1.53-3.28-3.36-3.33c-2-0.06-3.64,1.25-3.7,3.18
	c-0.09,2.79-0.03,5.59-0.02,8.5c0,0.22,0.18,0.41,0.41,0.41h11.88c0.22,0,0.4,0.18,0.41,0.41c0.02,1.33,0.1,2.56-0.03,3.77
	c-0.18,1.7-1.63,2.96-3.36,3.01c-1.95,0.06-3.9,0.02-5.85,0.02c-0.47,0-0.92-0.03-0.91,0.66c0.02,3.24,0.03,6.48,0.04,9.72
	c0,0.02,0.01,0.04,0.02,0.06c0.07,0.13,0.21,0.21,0.36,0.21h24.41c0.22,0,0.41,0.18,0.41,0.41c0,0.42,0,0.81,0,1.19
	c-0.02,2.44,0.18,4.9-0.13,7.3c-0.51,3.94-3.57,6.47-7.53,6.63c-2,0.08-2,0.08-2.08,2.1c0,0.07-0.01,0.15-0.03,0.22
	c-0.03,0.2-0.2,0.34-0.4,0.34H11.92C11.69,54.53,11.51,54.34,11.51,54.12z"/>
<path class="st0" d="M23.21,14.75c-0.17,0-0.31-0.14-0.31-0.31v-1.17c0-0.17,0.14-0.31,0.31-0.31c0.17,0,0.31,0.14,0.31,0.31v1.17
	C23.52,14.61,23.38,14.75,23.21,14.75z"/>
<path class="st0" d="M22.01,16.1c-0.17,0-0.31-0.14-0.31-0.31v-1.17c0-0.17,0.14-0.31,0.31-0.31c0.17,0,0.31,0.14,0.31,0.31v1.17
	C22.32,15.96,22.18,16.1,22.01,16.1z"/>
<path class="st0" d="M20.96,14.75c-0.17,0-0.31-0.14-0.31-0.31v-1.17c0-0.17,0.14-0.31,0.31-0.31c0.17,0,0.31,0.14,0.31,0.31v1.17
	C21.27,14.61,21.13,14.75,20.96,14.75z"/>
<path class="st0" d="M39.25,15.92c-0.17,0-0.31-0.14-0.31-0.31v-1.17c0-0.17,0.14-0.31,0.31-0.31c0.17,0,0.31,0.14,0.31,0.31v1.17
	C39.57,15.78,39.43,15.92,39.25,15.92z"/>
<path class="st0" d="M38.06,14.51c-0.17,0-0.31-0.14-0.31-0.31v-1.17c0-0.17,0.14-0.31,0.31-0.31c0.17,0,0.31,0.14,0.31,0.31v1.17
	C38.37,14.37,38.23,14.51,38.06,14.51z"/>
<path class="st0" d="M37.13,15.51c-0.17,0-0.31-0.14-0.31-0.31v-1.17c0-0.17,0.14-0.31,0.31-0.31c0.17,0,0.31,0.14,0.31,0.31v1.17
	C37.44,15.37,37.3,15.51,37.13,15.51z"/>
<rect x="23.21" y="40.26" class="st1" width="14.27" height="14.27"/>
</svg>
