<?xml version="1.0" encoding="utf-8"?>
<!-- Generator: Adobe Illustrator 25.4.1, SVG Export Plug-In . SVG Version: 6.00 Build 0)  -->
<svg version="1.1" id="Layer_1" xmlns="http://www.w3.org/2000/svg" xmlns:xlink="http://www.w3.org/1999/xlink" x="0px" y="0px"
	 viewBox="0 0 60 60" style="enable-background:new 0 0 60 60;" xml:space="preserve">
<style type="text/css">
	.st0{fill:#231F20;}
	.st1{fill:#F48165;}
</style>
<path class="st0" d="M24.55,50.26c-6.06,0-12.04,0-18.12,0c0-0.24-0.01-0.48,0-0.71c0.13-3.99,0.17-7.98,0.43-11.97
	c0.22-3.46,0.74-6.9,2.02-10.16c0.94-2.38,1.77-3.48,3.77-5.04c-1.66-0.78-2.9-1.97-3.63-3.65c-0.73-1.69-0.82-3.41-0.2-5.14
	c1.11-3.13,3.95-4.84,6.91-4.73c3.31,0.12,5.92,2.36,6.65,5.6c0.63,2.81-0.56,6.23-3.92,7.88c0.71,0.76,1.51,1.47,2.14,2.31
	c1.47,1.98,2.12,4.31,2.63,6.68c0.88,4.11,1.09,8.28,1.2,12.47c0.04,1.81,0.08,3.62,0.12,5.43C24.55,49.55,24.55,49.87,24.55,50.26z
	"/>
<path class="st0" d="M41.12,50.25c-4.9,0-9.76,0-14.68,0c-0.05-1.78-0.06-3.54-0.15-5.3c-0.2-3.6-0.4-7.21-0.69-10.81
	c-0.1-1.26-0.47-2.5-0.66-3.76c-0.07-0.45-0.09-0.96,0.04-1.4c0.65-2.21,1.55-4.3,3.35-5.86c0.3-0.26,0.62-0.49,0.94-0.73
	c-3.59-1.79-4.75-5.16-3.99-8.26c0.76-3.1,3.67-5.31,6.83-5.3c3.17,0,6.05,2.2,6.83,5.3c0.77,3.08-0.4,6.47-4.01,8.27
	c2.1,1.32,3.2,3.35,3.99,5.58c0.1,0.27,0.08,0.65-0.03,0.91c-1.75,4.07-3.51,8.13-5.28,12.19c-0.9,2.08-0.18,3.98,1.89,4.9
	c1.64,0.73,3.29,1.45,4.95,2.14c0.49,0.2,0.76,0.44,0.69,1C41.09,49.47,41.12,49.83,41.12,50.25z"/>
<path class="st0" d="M50.21,50.28c-0.12-0.04-0.39-0.11-0.65-0.22c-4.42-1.91-8.85-3.83-13.27-5.75c-1.15-0.5-1.47-1.32-0.98-2.45
	c1.93-4.44,3.86-8.88,5.8-13.32c0.47-1.09,1.26-1.4,2.35-0.93c4.47,1.93,8.93,3.86,13.39,5.81c1.08,0.47,1.41,1.28,0.95,2.35
	c-1.94,4.49-3.89,8.97-5.84,13.45C51.66,49.9,51.16,50.29,50.21,50.28z M48.25,44.87c-0.01-0.73-0.69-1.38-1.42-1.35
	c-0.7,0.02-1.34,0.68-1.33,1.37c0.01,0.74,0.66,1.36,1.42,1.33C47.64,46.2,48.25,45.58,48.25,44.87z M43.24,42.72
	c0-0.78-0.54-1.32-1.32-1.32c-0.79,0-1.33,0.53-1.34,1.31c-0.01,0.82,0.54,1.36,1.35,1.36C42.71,44.05,43.24,43.5,43.24,42.72z
	 M45.4,37.73c-0.01-0.74-0.64-1.35-1.36-1.34c-0.71,0.01-1.34,0.66-1.34,1.37c0,0.73,0.7,1.41,1.41,1.37
	C44.85,39.1,45.42,38.48,45.4,37.73z M52.51,34.93c-0.01-0.75-0.61-1.35-1.34-1.34c-0.72,0-1.32,0.62-1.33,1.36
	c0,0.77,0.63,1.4,1.37,1.37C51.95,36.29,52.52,35.68,52.51,34.93z M46.2,34.13c0.76,0.01,1.37-0.56,1.4-1.29
	c0.03-0.72-0.64-1.38-1.39-1.38c-0.72,0-1.36,0.62-1.36,1.33C44.84,33.51,45.47,34.13,46.2,34.13z M49.02,38.59
	c-0.76,0-1.34,0.57-1.34,1.33c0,0.75,0.57,1.34,1.32,1.35c0.75,0.01,1.39-0.63,1.38-1.37C50.38,39.14,49.8,38.59,49.02,38.59z"/>
<rect x="24.74" y="7.5" class="st1" width="15.01" height="15.02"/>
<rect x="7.98" y="7.5" class="st0" width="15.01" height="15.02"/>
</svg>
