<?xml version="1.0" encoding="utf-8"?>
<!-- Generator: Adobe Illustrator 25.4.1, SVG Export Plug-In . SVG Version: 6.00 Build 0)  -->
<svg version="1.1" id="Layer_1" xmlns="http://www.w3.org/2000/svg" xmlns:xlink="http://www.w3.org/1999/xlink" x="0px" y="0px"
	 viewBox="0 0 60 60" style="enable-background:new 0 0 60 60;" xml:space="preserve">
<style type="text/css">
	.st0{fill:#231F20;}
	.st1{fill:#F48165;}
</style>
<path class="st0" d="M49.51,14.55c-0.62,3.88-1.22,7.67-1.82,11.47c-0.65,4.15-1.3,8.3-1.95,12.45c-0.6,3.86-1.21,7.72-1.82,11.57
	c-0.23,1.45-0.48,2.9-0.69,4.35c-0.06,0.38-0.18,0.53-0.59,0.53c-8.37-0.01-16.74-0.01-25.11,0c-0.4,0-0.53-0.14-0.59-0.52
	c-0.53-3.49-1.09-6.97-1.63-10.45c-0.56-3.55-1.12-7.09-1.68-10.64c-0.53-3.36-1.06-6.72-1.59-10.08c-0.44-2.8-0.87-5.6-1.31-8.4
	c-0.01-0.08-0.01-0.16-0.02-0.27C23.64,14.55,36.54,14.55,49.51,14.55z M24.1,26.09c-0.81,1.4-1.55,2.64-2.24,3.91
	c-1.09,1.99,0.22,4.27,2.48,4.34c1.01,0.03,2.02,0,3.02,0.01c0.42,0,0.81-0.1,0.82-0.57c0.02-0.53-0.41-0.61-0.84-0.61
	c-0.97,0-1.93,0.02-2.9-0.01c-1.48-0.03-2.25-1.35-1.53-2.65c0.64-1.16,1.32-2.29,1.99-3.43c0.06-0.1,0.14-0.18,0.29-0.37
	c0.16,0.4,0.29,0.72,0.42,1.05c0.15,0.37,0.41,0.56,0.79,0.41c0.38-0.15,0.44-0.46,0.29-0.83c-0.31-0.8-0.6-1.61-0.93-2.4
	c-0.05-0.12-0.28-0.26-0.41-0.25c-0.87,0.13-1.75,0.26-2.6,0.48c-0.21,0.05-0.34,0.43-0.51,0.66c0.23,0.16,0.45,0.41,0.7,0.45
	C23.26,26.3,23.6,26.17,24.1,26.09z M36.08,26.08c0.45,0.08,0.71,0.14,0.97,0.18c0.4,0.06,0.79,0.04,0.87-0.46
	c0.07-0.46-0.24-0.63-0.63-0.71c-0.8-0.15-1.61-0.3-2.42-0.41c-0.15-0.02-0.41,0.12-0.46,0.25c-0.33,0.79-0.62,1.6-0.93,2.4
	c-0.14,0.37-0.08,0.68,0.31,0.83c0.38,0.14,0.64-0.06,0.79-0.42c0.13-0.32,0.26-0.64,0.42-1.05c0.16,0.21,0.25,0.32,0.32,0.44
	c0.64,1.11,1.3,2.21,1.92,3.32c0.76,1.36-0.01,2.68-1.57,2.7c-0.97,0.01-1.93,0-2.9,0c-0.42,0-0.79,0.13-0.77,0.62
	c0.02,0.44,0.37,0.57,0.77,0.56c1.05,0,2.1,0.01,3.15-0.01c0.33-0.01,0.67-0.09,0.97-0.21c1.67-0.68,2.31-2.52,1.42-4.13
	C37.62,28.73,36.89,27.49,36.08,26.08z M30.09,18.32c-0.98,0.1-1.76,0.52-2.28,1.38c-0.53,0.88-1.03,1.78-1.55,2.66
	c-0.22,0.37-0.32,0.73,0.13,0.97c0.43,0.23,0.7-0.04,0.9-0.41c0.44-0.79,0.89-1.57,1.35-2.35c0.83-1.42,2.08-1.42,2.91,0
	c0.48,0.81,0.95,1.63,1.42,2.45c0.2,0.35,0.48,0.49,0.84,0.3c0.37-0.2,0.38-0.52,0.18-0.86c-0.56-0.96-1.1-1.94-1.69-2.88
	C31.8,18.79,31.02,18.41,30.09,18.32z"/>
<path class="st0" d="M30.08,13.32c-6.98,0-13.96,0-20.94,0c-0.19,0-0.38,0.02-0.57-0.01c-0.5-0.07-0.71-0.4-0.5-0.85
	c0.36-0.78,0.74-1.56,1.12-2.33c0.25-0.51,0.69-0.78,1.25-0.83c0.25-0.02,0.5-0.02,0.76-0.02c12.62,0,25.23,0.01,37.85-0.02
	c1.14,0,1.89,0.35,2.29,1.44c0.21,0.57,0.52,1.1,0.78,1.65c0.27,0.58,0.06,0.92-0.59,0.96c-0.19,0.01-0.38,0-0.57,0
	C44,13.32,37.04,13.32,30.08,13.32z"/>
<path class="st0" d="M24.03,8.07c0.17-0.9,0.63-1.58,1.38-1.96c0.62-0.32,1.32-0.59,2-0.63c1.8-0.09,3.62-0.04,5.42-0.02
	c1.49,0.02,2.84,0.94,3.29,2.22c0.04,0.11,0.04,0.24,0.07,0.4C32.13,8.07,28.1,8.07,24.03,8.07z"/>
<rect x="22.2" y="39.12" class="st1" width="15.81" height="15.81"/>
</svg>
