<?xml version="1.0" encoding="utf-8"?>
<!-- Generator: Adobe Illustrator 25.4.1, SVG Export Plug-In . SVG Version: 6.00 Build 0)  -->
<svg version="1.1" id="Layer_1" xmlns="http://www.w3.org/2000/svg" xmlns:xlink="http://www.w3.org/1999/xlink" x="0px" y="0px"
	 viewBox="0 0 64 64" style="enable-background:new 0 0 64 64;" xml:space="preserve">
<style type="text/css">
	.st0{fill:#231F20;}
	.st1{fill:#F48165;}
</style>
<g>
	
		<rect x="11.59" y="40.83" transform="matrix(-1 -1.224647e-16 1.224647e-16 -1 45.7363 85.7994)" class="st0" width="22.55" height="4.13"/>
	
		<rect x="37.36" y="38.39" transform="matrix(6.123234e-17 -1 1 6.123234e-17 8.1767 89.0935)" class="st0" width="22.55" height="4.13"/>
	
		<rect x="3.04" y="34.27" transform="matrix(0.2629 0.9648 -0.9648 0.2629 43.4751 15.7601)" class="st0" width="16.77" height="4.13"/>
	
		<rect x="8.78" y="39.83" transform="matrix(-0.4304 0.9026 -0.9026 -0.4304 63.4422 43.7642)" class="st0" width="18.26" height="4.13"/>
	
		<rect x="26.06" y="43.95" transform="matrix(0.4304 0.9026 -0.9026 0.4304 58.9871 -1.4327)" class="st0" width="9.13" height="4.13"/>
	<rect x="20.15" y="32.76" class="st0" width="9.13" height="4.13"/>
	<g>
		<ellipse class="st0" cx="48.64" cy="23.93" rx="8.14" ry="10.33"/>
		<ellipse class="st0" cx="48.64" cy="12.34" rx="6.55" ry="7.68"/>
	</g>
	<rect x="41.05" y="36.72" class="st1" width="15.02" height="15.02"/>
</g>
</svg>
