<?xml version="1.0" encoding="utf-8"?>
<!-- Generator: Adobe Illustrator 25.4.1, SVG Export Plug-In . SVG Version: 6.00 Build 0)  -->
<svg version="1.1" id="Layer_1" xmlns="http://www.w3.org/2000/svg" xmlns:xlink="http://www.w3.org/1999/xlink" x="0px" y="0px"
	 viewBox="0 0 60 60" style="enable-background:new 0 0 60 60;" xml:space="preserve">
<style type="text/css">
	.st0{fill:#F48165;}
	.st1{fill:#231F20;}
</style>
<rect x="9.28" y="8.8" class="st0" width="14.37" height="14.37"/>
<path class="st1" d="M10.49,6.81c0,12.96,0,25.84,0,38.79c0.36-0.02,0.69-0.04,1.01-0.06c5.01-0.33,10-0.22,14.94,0.8
	c0.91,0.19,1.8,0.49,2.65,0.87c0.45,0.2,0.78,0.66,1.18,0.99c0.12,0.1,0.29,0.17,0.44,0.18c2.75,0.07,5.5,0.12,8.24,0.2
	c1.02,0.03,2.03,0.09,2.93,0.14c-0.36-0.51-0.81-1.02-1.1-1.61c-0.31-0.63-0.19-1.31,0.11-1.94c0.49-1.02,1.59-1.59,2.71-1.44
	c1.08,0.15,2,1.03,2.19,2.09c0.23,1.26-0.31,2.2-1.8,3.04c1.22,0.12,2.36,0.22,3.5,0.34c3.2,0.35,6.41,0.71,9.49,1.71
	c0.63,0.2,1.24,0.5,1.8,0.86c0.65,0.42,0.67,1.07,0,1.44c-0.87,0.48-1.8,0.89-2.76,1.15c-2.98,0.83-6.04,1.19-9.11,1.49
	c-6.69,0.66-13.4,0.83-20.11,0.72c-5.66-0.09-11.31-0.38-16.91-1.18c-2.15-0.31-4.27-0.86-6.4-1.35c-0.49-0.11-0.95-0.36-1.4-0.61
	c-1.04-0.59-1.07-1.32-0.02-1.86c0.82-0.42,1.73-0.68,2.6-1c0.15-0.05,0.3-0.09,0.57-0.16c-0.3-0.11-0.5-0.17-0.7-0.25
	c-0.62-0.24-1.26-0.45-1.86-0.73c-0.43-0.2-0.87-0.48-0.88-1.03c-0.01-0.58,0.46-0.87,0.9-1.07c0.79-0.34,1.6-0.66,2.43-0.87
	c1.02-0.26,2.07-0.41,3.11-0.58c0.73-0.12,0.73-0.11,0.73-0.82c0-3.42-0.01-6.84-0.01-10.26c0-9.08,0-18.15,0.01-27.23
	c0-0.87-0.07-0.76,0.76-0.77C9.97,6.81,10.19,6.81,10.49,6.81z M15.64,49.67c0.98-0.17,1.97-0.31,2.94-0.55
	c0.3-0.08,0.54-0.43,0.8-0.66c-0.27-0.22-0.5-0.56-0.81-0.66c-1.94-0.62-3.91-0.61-5.86-0.01c-0.32,0.1-0.56,0.45-0.83,0.69
	c0.27,0.22,0.52,0.57,0.83,0.64C13.66,49.36,14.63,49.49,15.64,49.67z"/>
</svg>
