<?xml version="1.0" encoding="utf-8"?>
<!-- Generator: Adobe Illustrator 25.4.1, SVG Export Plug-In . SVG Version: 6.00 Build 0)  -->
<svg version="1.1" id="Layer_1" xmlns="http://www.w3.org/2000/svg" xmlns:xlink="http://www.w3.org/1999/xlink" x="0px" y="0px"
	 viewBox="0 0 64 64" style="enable-background:new 0 0 64 64;" xml:space="preserve">
<style type="text/css">
	.st0{fill:#231F20;}
	.st1{fill:#F48165;}
</style>
<path class="st0" d="M54.81,51.35c0-0.25-0.02-0.49-0.04-0.78c-1.48,0-2.9,0-4.35,0c-0.01-0.16-0.02-0.27-0.02-0.38
	c0-8.67,0-17.34-0.01-26c0-0.19,0.04-0.32,0.14-0.42h-6.34c-5.71,3.32-17.77,3.33-23.08,0h-6.11c0.15,0.16,0.2,0.35,0.19,0.64
	c-0.01,8.53-0.01,17.06-0.01,25.59c0,0.19-0.02,0.38-0.03,0.61c-1.47,0-2.9,0-4.33,0c0,1.48,0,2.92,0,4.37c4.41,0,8.76,0,13.13,0
	c0-1.47,0-2.91,0-4.39c-1.46,0-2.88,0-4.33,0c0-3.89,0-7.73,0-11.64c4.23,1.91,8.61,2.9,13.21,2.87c4.59-0.03,8.93-1.14,13.13-2.99
	c0,3.97,0,7.85,0,11.79c-1.47,0-2.89,0-4.31,0c0,1.49,0,2.92,0,4.38c0.19,0.01,0.35,0.02,0.5,0.02c2.15,0,4.3,0,6.46,0
	c1.88,0,3.76-0.01,5.63,0.01c0.47,0.01,0.6-0.16,0.59-0.61C54.8,53.39,54.82,52.37,54.81,51.35z M45.98,33.62
	c0,0.13-0.17,0.3-0.3,0.37c-3.29,1.71-6.75,2.85-10.45,3.22c-4.86,0.49-9.49-0.3-13.92-2.35c-1.72-0.8-1.73-0.79-1.73-2.68
	c-0.01-1.39,0-2.77,0-4.26c8.84,3.91,17.59,3.79,26.41-0.14C45.99,29.79,46,31.71,45.98,33.62z"/>
<rect x="10.82" y="8.99" class="st1" width="15.02" height="15.02"/>
<rect x="39.8" y="8.99" class="st0" width="15.02" height="15.02"/>
</svg>
