<?xml version="1.0" encoding="utf-8"?>
<!-- Generator: Adobe Illustrator 25.4.1, SVG Export Plug-In . SVG Version: 6.00 Build 0)  -->
<svg version="1.1" id="Layer_1" xmlns="http://www.w3.org/2000/svg" xmlns:xlink="http://www.w3.org/1999/xlink" x="0px" y="0px"
	 viewBox="0 0 64 64" style="enable-background:new 0 0 64 64;" xml:space="preserve">
<style type="text/css">
	.st0{fill:none;stroke:#221F1F;stroke-width:2;stroke-miterlimit:10;}
	.st1{fill:#221F1F;}
	.st2{fill:#F38065;}
</style>
<rect x="16.7" y="5.1" class="st0" width="33.7" height="18.3"/>
<rect x="32.3" y="23.4" class="st1" width="2.5" height="6.5"/>
<polygon class="st1" points="10,27.5 10,61.6 35,61.6 35,38.2 48.9,38.2 48.9,61.6 57.1,61.6 57.1,27.5 "/>
<rect x="13.5" y="38.2" class="st2" width="15" height="15"/>
<path class="st1" d="M39.6,17.7H41c0.3,0,0.5-0.2,0.5-0.5v-5.8c0-0.3-0.2-0.5-0.5-0.5h-1.4c-0.3,0-0.5,0.2-0.5,0.5v5.8
	C39.1,17.5,39.3,17.7,39.6,17.7z"/>
<path class="st1" d="M42.5,16.9h1.4c0.3,0,0.5-0.2,0.5-0.5v-4.1c0-0.3-0.2-0.5-0.5-0.5h-1.4c-0.3,0-0.5,0.2-0.5,0.5v4.1
	C42,16.6,42.2,16.9,42.5,16.9z"/>
<path class="st1" d="M27.4,17.7H26c-0.3,0-0.5-0.2-0.5-0.5v-5.8c0-0.3,0.2-0.5,0.5-0.5h1.4c0.3,0,0.5,0.2,0.5,0.5v5.8
	C27.9,17.5,27.7,17.7,27.4,17.7z"/>
<path class="st1" d="M24.5,16.9h-1.4c-0.3,0-0.5-0.2-0.5-0.5v-4.1c0-0.3,0.2-0.5,0.5-0.5h1.4c0.3,0,0.5,0.2,0.5,0.5v4.1
	C25,16.6,24.8,16.9,24.5,16.9z"/>
<rect x="27.4" y="13.3" class="st1" width="12.1" height="2"/>
</svg>
