<?xml version="1.0" encoding="utf-8"?>
<!-- Generator: Adobe Illustrator 25.4.1, SVG Export Plug-In . SVG Version: 6.00 Build 0)  -->
<svg version="1.1" id="Layer_1" xmlns="http://www.w3.org/2000/svg" xmlns:xlink="http://www.w3.org/1999/xlink" x="0px" y="0px"
	 viewBox="0 0 64 64" style="enable-background:new 0 0 64 64;" xml:space="preserve">
<style type="text/css">
	.st0{fill:#F48165;}
	.st1{fill:#231F20;}
</style>
<g>
	<rect x="20.68" y="8.31" class="st0" width="15.02" height="15.02"/>
	
		<rect x="26.13" y="22.89" transform="matrix(-1 -1.224647e-16 1.224647e-16 -1 56.3851 67.293)" class="st1" width="4.13" height="21.51"/>
	
		<rect x="32.2" y="36.26" transform="matrix(6.123234e-17 -1 1 6.123234e-17 -10.1369 78.6668)" class="st1" width="4.13" height="16.28"/>
	
		<rect x="31.24" y="22.39" transform="matrix(6.123234e-17 -1 1 6.123234e-17 3.7364 62.8768)" class="st1" width="4.13" height="14.36"/>
	
		<rect x="47.68" y="50.93" transform="matrix(6.123234e-17 -1 1 6.123234e-17 -4.9466 104.4402)" class="st1" width="4.13" height="7.53"/>
	<rect x="42.13" y="42.41" transform="matrix(0.866 -0.5 0.5 0.866 -18.8569 28.7374)" class="st1" width="4.13" height="14.29"/>
	<path class="st1" d="M26.49,31.09c-0.75-0.14-1.53-0.21-2.33-0.21c-7.15,0-12.94,5.79-12.94,12.94s5.79,12.94,12.94,12.94
		c6.24,0,11.45-4.42,12.67-10.29l-1.55-3.68l-5.71,0.08L26.49,31.09z M28.49,43.63l4.82,0.2c0,5.05-4.1,9.15-9.15,9.15
		s-9.15-4.1-9.15-9.15c0-5.05,4.1-9.15,9.15-9.15c0.63,0,1.25,0.06,1.84,0.19L28.49,43.63z"/>
</g>
</svg>
