<?xml version="1.0" encoding="utf-8"?>
<!-- Generator: Adobe Illustrator 25.4.1, SVG Export Plug-In . SVG Version: 6.00 Build 0)  -->
<svg version="1.1" id="Layer_1" xmlns="http://www.w3.org/2000/svg" xmlns:xlink="http://www.w3.org/1999/xlink" x="0px" y="0px"
	 viewBox="0 0 64 64" style="enable-background:new 0 0 64 64;" xml:space="preserve">
<style type="text/css">
	.st0{fill:#231F20;}
	.st1{fill:#F48165;}
</style>
<path class="st0" d="M36.94,25.07c1.02-2.8,2.02-5.55,3.02-8.29c7.94,0,15.86,0,23.88,0c-0.29,0.27-0.52,0.5-0.76,0.72
	c-2.7,2.45-5.4,4.9-8.12,7.34c-0.16,0.14-0.4,0.26-0.61,0.26C48.68,25.11,43,25.1,37.32,25.1C37.22,25.1,37.12,25.09,36.94,25.07z"
	/>
<path class="st0" d="M29.73,42.11c0.39,2.15,0.77,4.31,1.16,6.46c0.04,0.22,0.09,0.44,0.12,0.66c0.02,0.16,0.11,0.22,0.25,0.24
	c1.77,0.32,3.55,0.63,5.32,0.95c0.56,0.1,1.12,0.2,1.68,0.3c0.04,0.01,0.08,0.03,0.16,0.07c-1.55,0.28-3.05,0.55-4.55,0.82
	c-0.86,0.16-1.72,0.32-2.59,0.46c-0.2,0.03-0.26,0.13-0.3,0.31c-0.2,1.13-0.4,2.26-0.6,3.39c-0.21,1.2-0.43,2.39-0.65,3.59
	c-0.01,0.03-0.01,0.06-0.07,0.09c-0.06-0.32-0.12-0.64-0.18-0.96c-0.37-2.03-0.73-4.07-1.09-6.1c-0.04-0.2-0.11-0.29-0.31-0.33
	c-1.77-0.31-3.55-0.63-5.32-0.95c-0.58-0.1-1.16-0.21-1.74-0.37c0.31-0.06,0.62-0.11,0.93-0.17c2.06-0.37,4.12-0.74,6.17-1.11
	c0.16-0.03,0.23-0.1,0.26-0.26c0.41-2.32,0.83-4.64,1.25-6.95c0.01-0.05,0.03-0.1,0.04-0.16C29.7,42.1,29.72,42.11,29.73,42.11z"/>
<path class="st0" d="M18.37,25.08c0-2.78,0-5.52,0-8.29c6.05,0,12.08,0,18.15,0c-0.34,0.95-0.68,1.87-1.01,2.79
	c-0.62,1.71-1.26,3.42-1.87,5.13c-0.1,0.27-0.2,0.39-0.52,0.39c-4.8-0.01-9.59-0.01-14.39-0.01C18.63,25.1,18.52,25.09,18.37,25.08z
	"/>
<path class="st0" d="M18.38,28.35c4.64,0,9.24,0,13.88,0c-0.02,0.11-0.03,0.2-0.06,0.29c-0.98,2.69-1.96,5.38-2.93,8.07
	c-0.09,0.25-0.22,0.33-0.48,0.33c-3.34-0.01-6.68,0-10.02,0.01c-0.26,0-0.44-0.01-0.44-0.36c0.01-2.71,0.01-5.41,0.01-8.12
	C18.34,28.51,18.36,28.45,18.38,28.35z"/>
<path class="st0" d="M32.59,37.04c0.27-0.75,0.51-1.44,0.76-2.12c0.76-2.08,1.53-4.16,2.28-6.25c0.09-0.25,0.2-0.33,0.47-0.33
	c4.87,0.01,9.74,0.01,14.61,0.01c0.1,0,0.19,0.01,0.38,0.02c-0.58,0.53-1.09,1-1.61,1.47c-2.53,2.29-5.06,4.58-7.58,6.87
	c-0.24,0.22-0.49,0.33-0.82,0.32c-2.66-0.01-5.33,0-7.99,0C32.95,37.04,32.8,37.04,32.59,37.04z"/>
<path class="st0" d="M40.19,43c0.33-0.06,0.66-0.12,0.99-0.18c1.29-0.23,2.58-0.47,3.88-0.69c0.17-0.03,0.19-0.14,0.21-0.25
	c0.14-0.76,0.27-1.53,0.41-2.29c0.15-0.84,0.3-1.67,0.5-2.52c0.03,0.17,0.07,0.34,0.1,0.5c0.26,1.44,0.52,2.88,0.78,4.32
	c0.03,0.16,0.08,0.22,0.24,0.25c1.55,0.27,3.09,0.56,4.63,0.84c0.06,0.01,0.12,0.03,0.18,0.09c-1.03,0.19-2.06,0.37-3.08,0.56
	c-0.59,0.11-1.17,0.21-1.76,0.31c-0.13,0.02-0.19,0.08-0.22,0.22c-0.26,1.45-0.52,2.9-0.78,4.34c-0.03,0.17-0.06,0.34-0.14,0.51
	c-0.1-0.56-0.21-1.12-0.31-1.68c-0.19-1.04-0.37-2.08-0.56-3.12c-0.03-0.17-0.11-0.24-0.28-0.27c-1.6-0.28-3.2-0.57-4.8-0.86
	C40.19,43.04,40.19,43.02,40.19,43z"/>
<rect x="0.15" y="10.08" class="st1" width="15.02" height="15.02"/>
<rect x="6.46" y="28.35" class="st0" width="8.71" height="8.71"/>
</svg>
