<?xml version="1.0" encoding="utf-8"?>
<!-- Generator: Adobe Illustrator 25.4.1, SVG Export Plug-In . SVG Version: 6.00 Build 0)  -->
<svg version="1.1" id="Layer_1" xmlns="http://www.w3.org/2000/svg" xmlns:xlink="http://www.w3.org/1999/xlink" x="0px" y="0px"
	 viewBox="0 0 64 64" style="enable-background:new 0 0 64 64;" xml:space="preserve">
<style type="text/css">
	.st0{fill:#231F20;}
	.st1{fill:#F48165;}
</style>
<path class="st0" d="M55.39,52.83l-5.57,5.57l-9.97-9.97l-1.59-1.59c2.37-1.24,4.32-3.19,5.57-5.56L55.39,52.83z"/>
<path class="st0" d="M27.83,7.9c-11.58,0-20.97,9.38-20.97,20.97c0,11.57,9.38,20.97,20.97,20.97c3.85,0,7.45-1.03,10.54-2.84
	c3.14-1.83,5.76-4.45,7.58-7.59c1.81-3.09,2.84-6.69,2.84-10.53C48.8,17.29,39.41,7.9,27.83,7.9z M36.21,44.83
	c-2.5,1.32-5.35,2.07-8.38,2.07c-9.96,0-18.03-8.07-18.03-18.03c0-9.96,8.07-18.04,18.03-18.04c9.96,0,18.03,8.08,18.03,18.04
	c0,3.03-0.75,5.87-2.06,8.38C42.1,40.48,39.45,43.13,36.21,44.83z"/>
<rect x="21.9" y="28.53" class="st1" width="12.98" height="12.98"/>
<polygon class="st0" points="34.33,20.12 28.38,13.65 22.44,20.12 16.49,26.59 16.49,41.51 21.9,41.51 21.9,28.53 34.87,28.53 
	34.87,41.51 40.28,41.51 40.28,34.25 40.28,31.97 40.28,26.59 "/>
</svg>
