<?xml version="1.0" encoding="utf-8"?>
<!-- Generator: Adobe Illustrator 25.4.1, SVG Export Plug-In . SVG Version: 6.00 Build 0)  -->
<svg version="1.1" id="Layer_1" xmlns="http://www.w3.org/2000/svg" xmlns:xlink="http://www.w3.org/1999/xlink" x="0px" y="0px"
	 viewBox="0 0 64 64" style="enable-background:new 0 0 64 64;" xml:space="preserve">
<style type="text/css">
	.st0{fill:#221F1F;}
	.st1{fill:#F38065;}
</style>
<path class="st0" d="M48.6,7.9c0,0.5,0.1,0.9,0.1,1.4c0.4,0,0.7,0,1,0c0.9,0,1.9,0.1,2.8,0.1c0.4,0,0.4,0.1,0.3,0.5
	c-0.5,1.7-1,3.3-1.5,5c0,0.1-0.1,0.2-0.1,0.4c0,0.1,0.1,0.2,0.1,0.3c0.4,0.2,0.5,0.5,0.5,0.9c0,0.9,0,0.9-0.9,0.9
	c-0.2,0-0.3,0-0.5,0c-0.5,0-0.6,0.2-0.6,0.6c0,0.5,0.1,1,0.1,1.5c0.3,2.3,0.8,4.5,1.7,6.6c0.3,0.7,0.7,1.4,1.1,2.1
	c0.2,0.4,0.5,0.6,1,0.8c0.6,0.2,1.1,0.5,1.3,1.1c0.3,0.7,0.1,1.4-0.4,1.9c-0.5,0.5-0.7,1-0.7,1.7c0,0.3,0,0.7,0,1.1
	c-4.4,0-8.7,0-13.1,0c0-0.1,0-0.2,0-0.3c0-0.5,0-1,0-1.5c0-0.2-0.1-0.3-0.3-0.4c-0.6-0.3-1-0.8-1.1-1.4c-0.2-0.9,0.6-1.9,1.5-2
	c0.4,0,0.7-0.3,0.9-0.6c0.5-0.8,1-1.7,1.4-2.6c0.9-2,1.4-4.1,1.6-6.3c0.1-0.6,0-1.2,0.1-1.8c0-0.2-0.1-0.2-0.3-0.2
	c-0.4,0-0.7,0-1.1-0.1c-0.4,0-0.5-0.2-0.5-0.6c0-0.2,0-0.4,0-0.6c0-0.3,0.1-0.5,0.4-0.5c0.3,0,0.2-0.2,0.2-0.4
	c-0.5-1.5-0.9-3-1.4-4.6c-0.1-0.4-0.2-0.7-0.3-1.2c1.4,0,2.8,0,4.2,0c0-0.6-0.1-1-0.1-1.5c-0.5,0-1-0.1-1.5-0.1c0-0.7,0-1.4,0-2.1
	c0.6,0,1.1-0.1,1.6-0.1c0-0.4,0-0.8,0-1.2c0-0.3,0.1-0.4,0.4-0.4c0.6,0,1.2,0,1.8,0c0,0.4,0.1,0.8,0.1,1.2c0,0.3,0.1,0.3,0.3,0.3
	c0.4,0,0.9,0.1,1.4,0.1c0,0.6,0,1.2,0,1.8c0,0.3-0.2,0.5-0.6,0.5C49.4,7.9,49,7.9,48.6,7.9z"/>
<path class="st0" d="M31.5,28c0.2,0.3,0.4,0.6,0.6,0.9c1.1,1.5,2.1,2.9,3.2,4.4c0.1,0.2,0.2,0.4,0.2,0.6c0.1,0.8,0.1,1.6,0.1,2.4
	c0,0.3,0.1,0.4,0.3,0.4c0.6,0.2,1,0.6,1.2,1.2c0.2,0.7-0.1,1.6-0.7,2c-0.5,0.3-0.6,0.6-0.6,1.1c0,0.6,0,0.6-0.6,0.6
	c-3.8,0-7.5,0-11.3,0c-0.3,0-0.4-0.1-0.4-0.4c0-0.3-0.1-0.6-0.2-0.9c-0.1-0.2-0.3-0.4-0.5-0.5c-0.3-0.2-0.5-0.6-0.5-0.9
	c-0.1-0.7,0-1.4,0.7-1.8c0.6-0.3,0.7-0.8,0.7-1.4c0-2.1,0.1-4.3,0.2-6.4c0-1.1,0.1-2.1,0.2-3.1c0.2-1.3,0.7-2.5,1.5-3.6
	c1-1.4,2.2-2.6,3.7-3.6c0.4-0.3,0.4-0.2,0.6,0.1c0.1,0.2,0.3,0.4,0.4,0.7c0.1,0.2,0.2,0.2,0.4,0.1c0.5-0.3,1-0.5,1.5-0.8
	c0.1-0.1,0.3,0,0.4-0.1c0,0.1,0,0.3,0,0.4c-0.1,0.4-0.2,0.8-0.3,1.2c-0.1,0.3,0,0.5,0.2,0.7c1.6,1.9,3.3,3.8,4.9,5.7
	c0.5,0.5,0.4,0.4,0.1,0.9c-0.2,0.4-0.6,0.7-1,0.8c-0.1,0-0.1,0-0.2,0.1c-0.7,0.4-1.5,0.3-2.2,0c-0.6-0.3-1.3-0.4-1.9-0.6
	C31.8,28.1,31.7,28,31.5,28z"/>
<path class="st0" d="M17.8,47.4c-3.6,0-7.1,0-10.6,0c0-0.4,0-0.7,0-1c0-0.3-0.1-0.5-0.4-0.6c-0.9-0.3-1.1-1.2-1-2
	c0.1-0.7,0.8-1.3,1.5-1.4c0.4,0,0.7-0.3,1-0.6c1.3-2.1,2-4.4,2.3-6.8c0.1-0.4,0.1-0.9,0.1-1.3c0-0.1,0-0.3-0.1-0.4
	c-0.3-0.4-0.7-0.7-1-1.1c-0.5-0.6-0.5-1.3-0.5-2c0-1.3,0.7-2.2,1.8-2.9c1-0.6,2-0.5,3-0.1c2.2,0.9,2.7,4.1,0.8,5.7
	c-0.3,0.3-0.5,0.6-0.5,1c0.1,2.3,0.7,4.5,1.7,6.6c0.2,0.5,0.5,1,0.8,1.5c0.1,0.2,0.4,0.4,0.7,0.4c0.9,0.1,1.5,0.6,1.7,1.4
	c0.2,0.8-0.2,1.6-1,2.1c-0.2,0.1-0.3,0.3-0.3,0.5C17.8,46.7,17.8,47,17.8,47.4z"/>
<rect x="40" y="35.7" class="st1" width="15" height="15"/>
<rect x="23.4" y="42.6" class="st0" width="12.8" height="12.8"/>
<rect x="7.3" y="48.7" class="st0" width="10.3" height="10.3"/>
</svg>
