<?xml version="1.0" encoding="utf-8"?>
<!-- Generator: Adobe Illustrator 25.4.1, SVG Export Plug-In . SVG Version: 6.00 Build 0)  -->
<svg version="1.1" id="Layer_1" xmlns="http://www.w3.org/2000/svg" xmlns:xlink="http://www.w3.org/1999/xlink" x="0px" y="0px"
	 viewBox="0 0 60 60" style="enable-background:new 0 0 60 60;" xml:space="preserve">
<style type="text/css">
	.st0{fill:#231F20;}
	.st1{fill:#F48165;}
</style>
<path class="st0" d="M1.52,14.85c0-1.45,0-2.67,0-4c9.11,0,18.2,0,27.39,0c0,4.03,0,8.08,0,12.22c-3.11,0.9-4.98,2.9-4.95,6.28
	c0.03,2.73,1.77,4.66,4.97,5.76c0,4.04,0,8.09,0,12.23c-9.13,0-18.22,0-27.38,0c0-1.3,0-2.56,0-4.04c5.33,0.5,10.02-0.76,13.38-5.23
	c2.11-2.81,3.08-6.02,2.94-9.51c-0.17-4.21-1.78-7.79-4.96-10.62C9.67,15.03,5.74,14.59,1.52,14.85z"/>
<path class="st0" d="M58.47,43.3c0,1.48,0,2.74,0,4.06c-9.13,0-18.19,0-27.35,0c0-4.05,0-8.1,0-12.24c3.06-0.92,4.99-2.89,4.95-6.28
	c-0.03-2.76-1.84-4.77-4.98-5.77c0-4.04,0-8.1,0-12.24c9.11,0,18.21,0,27.37,0c0,1.29,0,2.54,0,4.03
	c-5.5-0.49-10.32,0.85-13.67,5.63c-1.91,2.73-2.78,5.8-2.66,9.1c0.16,4.21,1.76,7.81,4.94,10.64C50.32,43.1,54.25,43.61,58.47,43.3z
	"/>
<path class="st0" d="M58.48,16.97c0,1.34,0,2.6,0,3.94c-4.39,0.9-8.75,1.8-13.08,2.7C47.01,19.39,51.16,15.97,58.48,16.97z"/>
<path class="st0" d="M14.68,23.63c-4.42-0.91-8.75-1.81-13.13-2.72c0-1.32,0-2.62,0-3.9C7.54,15.98,12.75,18.61,14.68,23.63z"/>
<path class="st0" d="M1.57,37.25c4.34-0.9,8.7-1.8,13.03-2.69c-1.41,3.87-5.42,7.66-13.03,6.65C1.57,39.93,1.57,38.63,1.57,37.25z"
	/>
<path class="st0" d="M45.32,34.53c4.44,0.92,8.8,1.82,13.16,2.72c0,1.37,0,2.63,0,3.88C52.44,42.08,47.71,39.95,45.32,34.53z"/>
<path class="st0" d="M25.94,29.04c0-2.35,1.73-4.05,4.1-4.03c2.35,0.02,4.04,1.74,4.04,4.11c0,2.32-1.77,4.06-4.11,4.04
	C27.63,33.14,25.93,31.41,25.94,29.04z"/>
<path class="st0" d="M10.6,32.89c-1.98-0.44-3.07-1.96-3-4.03c0.06-1.84,1.28-3.29,3-3.54C10.6,27.82,10.6,30.31,10.6,32.89z"/>
<path class="st0" d="M12.77,25.31c1.73,0.28,2.93,1.73,2.97,3.55c0.05,2.1-1.05,3.61-2.97,4C12.77,30.34,12.77,27.83,12.77,25.31z"
	/>
<path class="st0" d="M49.41,32.88c0-2.58,0-5.07,0-7.57c1.66,0.22,2.92,1.68,3,3.4C52.51,30.88,51.44,32.42,49.41,32.88z"/>
<path class="st0" d="M47.28,25.27c0,2.58,0,5.07,0,7.57c-1.63-0.2-2.92-1.67-3.01-3.39C44.16,27.31,45.25,25.75,47.28,25.27z"/>
<rect x="23.47" y="22.54" class="st1" width="13.02" height="13.02"/>
</svg>
