<?xml version="1.0" encoding="utf-8"?>
<!-- Generator: Adobe Illustrator 25.4.1, SVG Export Plug-In . SVG Version: 6.00 Build 0)  -->
<svg version="1.1" id="Layer_1" xmlns="http://www.w3.org/2000/svg" xmlns:xlink="http://www.w3.org/1999/xlink" x="0px" y="0px"
	 viewBox="0 0 60 60" style="enable-background:new 0 0 60 60;" xml:space="preserve">
<style type="text/css">
	.st0{fill:#231F20;}
	.st1{fill:#F48165;}
</style>
<path class="st0" d="M13.54,33.42c4.39-3.16,8.7-6.26,13.09-9.42c-0.55-0.72-1.08-1.41-1.62-2.1c-1.68-2.15-3.37-4.3-5.05-6.45
	c-0.98-1.25-0.91-2.23,0.41-3.13c3.21-2.18,6.46-4.29,9.72-6.39c0.84-0.54,1.72-1.04,2.65-1.4c0.98-0.38,1.89,0.02,2.48,0.85
	C35.82,6.23,35.85,7.15,35.2,8c-0.34,0.45-0.78,0.85-1.25,1.17c-2.37,1.62-4.77,3.2-7.16,4.8c-0.17,0.11-0.33,0.23-0.56,0.39
	c5.4,6.46,10.78,12.89,16.16,19.32c-0.05,0.07-0.09,0.14-0.14,0.21c-0.53-0.16-1.07-0.28-1.58-0.49c-2.54-1.02-5.07-0.99-7.63-0.06
	c-0.63,0.23-1.29,0.43-1.95,0.54c-1.39,0.23-2.78,0.22-4.11-0.38c-1.85-0.82-3.76-1.14-5.76-0.65c-0.47,0.12-0.93,0.32-1.37,0.53
	c-1.91,0.9-3.86,0.78-5.82,0.27C13.9,33.62,13.78,33.53,13.54,33.42z"/>
<path class="st0" d="M56.96,37.45c0,0.96,0,2.09,0,3.27c-0.98,0.13-1.91-0.05-2.83-0.32c-0.63-0.19-1.23-0.45-1.85-0.67
	c-1.31-0.47-2.6-0.51-3.86,0.19c-1.82,1.01-3.8,0.97-5.76,0.76c-1.21-0.13-2.4-0.49-3.56-0.88c-1.44-0.48-2.85-0.56-4.28-0.08
	c-1.81,0.62-3.64,1.22-5.58,1.01c-1.15-0.12-2.28-0.42-3.41-0.68c-0.63-0.15-1.23-0.46-1.87-0.58c-0.9-0.18-1.77-0.08-2.63,0.33
	c-2.88,1.36-5.86,1.35-8.78,0.24c-2.2-0.83-4.3-0.88-6.45,0c-1.48,0.6-2.48,0.79-3.55,0.65c0-1.13,0-2.27,0-3.31
	c1.52-0.46,2.98-1.02,4.49-1.32c2.27-0.45,4.5-0.28,6.69,0.62c2.06,0.85,4.2,0.83,6.26-0.16c2.05-0.99,4.18-0.96,6.21-0.1
	c2.36,1.01,4.63,0.97,6.98,0.09c2.5-0.94,5.02-0.92,7.5,0.1c1.57,0.64,3.2,0.68,4.84,0.55c0.47-0.04,0.96-0.23,1.39-0.45
	c2.18-1.15,4.4-1.08,6.67-0.3C54.66,36.77,55.75,37.08,56.96,37.45z"/>
<path class="st0" d="M56.94,44.04c0,1.02,0,2.16,0,3.33c-1.36,0.03-2.63-0.22-3.87-0.71c-0.61-0.24-1.23-0.47-1.87-0.59
	c-1.04-0.19-2.01,0.02-2.96,0.53c-1.51,0.82-3.19,0.83-4.86,0.76c-1.45-0.06-2.84-0.38-4.19-0.91c-1.65-0.64-3.3-0.57-4.93,0.04
	c-1.95,0.73-3.96,1.11-6.03,0.78c-0.96-0.15-1.92-0.43-2.83-0.78c-1.56-0.6-3.02-0.67-4.55,0.14c-1.59,0.84-3.37,0.8-5.12,0.73
	c-1.37-0.05-2.64-0.46-3.92-0.95c-1.77-0.68-3.59-0.59-5.35,0.11c-1.25,0.49-2.51,0.88-3.91,0.86c0-1.16,0-2.3,0-3.42
	c1.64-0.46,3.26-1.07,4.94-1.35c2.03-0.35,4.06-0.21,6.04,0.62c2.17,0.92,4.38,0.9,6.55-0.13c2.05-0.98,4.19-0.89,6.21-0.03
	c2.26,0.97,4.44,0.96,6.7,0.12c2.56-0.96,5.12-0.99,7.68,0.03c1.58,0.63,3.22,0.78,4.9,0.53c0.44-0.07,0.89-0.18,1.28-0.39
	c2.26-1.21,4.56-1.11,6.9-0.27C54.77,43.43,55.82,43.7,56.94,44.04z"/>
<rect x="36.19" y="13.02" transform="matrix(0.8152 -0.5792 0.5792 0.8152 -3.2956 28.1052)" class="st1" width="12.4" height="12.4"/>
</svg>
