<?xml version="1.0" encoding="utf-8"?>
<!-- Generator: Adobe Illustrator 25.4.1, SVG Export Plug-In . SVG Version: 6.00 Build 0)  -->
<svg version="1.1" id="Layer_1" xmlns="http://www.w3.org/2000/svg" xmlns:xlink="http://www.w3.org/1999/xlink" x="0px" y="0px"
	 viewBox="0 0 60 60" style="enable-background:new 0 0 60 60;" xml:space="preserve">
<style type="text/css">
	.st0{fill:#231F20;}
	.st1{fill:#F48165;}
</style>
<path class="st0" d="M38.58,22.05c-0.97,0-1.89,0-2.96,0c0-0.38,0-0.73,0-1.08c0-3.11,0.01-6.23,0-9.34
	c-0.01-3.42-2.64-6.31-5.88-6.47c-3.6-0.19-6.51,2.18-6.88,5.71c-0.15,1.41-0.11,2.84-0.11,4.27c-0.01,4.47,0.01,8.94-0.01,13.41
	c0,0.78,0.03,1.41,1.13,1.28c0,14.13,0,8.2,0,22.4c0.89,0,1.69,0,2.54,0c0,1.98,0,3.81,0,5.73c-3.45,0-6.84,0-10.28,0
	c0-1.88,0-3.73,0-5.7c0.84,0,1.64,0,2.55,0c0-14.19,0-8.25,0-22.36c0.36-0.08,0.64-0.15,0.99-0.22c0.02-0.29,0.07-0.58,0.07-0.87
	c0-5.7,0-11.39,0-17.09c0-2.6,0.83-4.91,2.68-6.74c2.86-2.83,6.29-3.65,10.05-2.27c3.8,1.4,5.96,4.29,6.17,8.34
	c0.18,3.53,0.05,7.08,0.05,10.63C38.69,21.77,38.64,21.86,38.58,22.05z"/>
<rect x="29.77" y="21.5" class="st1" width="15.01" height="15.02"/>
</svg>
