<?xml version="1.0" encoding="utf-8"?>
<!-- Generator: Adobe Illustrator 25.4.1, SVG Export Plug-In . SVG Version: 6.00 Build 0)  -->
<svg version="1.1" id="Layer_1" xmlns="http://www.w3.org/2000/svg" xmlns:xlink="http://www.w3.org/1999/xlink" x="0px" y="0px"
	 viewBox="0 0 60 60" style="enable-background:new 0 0 60 60;" xml:space="preserve">
<style type="text/css">
	.st0{fill:#231F20;}
	.st1{fill:#F48165;}
</style>
<path class="st0" d="M49.34,43.06c0,1.57-0.02,3.15,0.01,4.72c0.02,0.76-0.27,1.08-1.05,1.08c-2.33-0.02-4.66-0.02-6.98,0
	c-0.65,0-0.89-0.25-1.04-0.91c-0.26-1.21-0.54-2.46-1.1-3.56c-1.09-2.16-2.37-4.22-3.55-6.33c-0.15-0.27-0.31-0.57-0.32-0.86
	c-0.01-0.19,0.23-0.53,0.39-0.55c0.27-0.03,0.64,0.06,0.82,0.24c0.45,0.47,0.76,1.1,1.25,1.53c0.4,0.36,1.01,0.78,1.47,0.73
	c0.75-0.09,1.05-0.82,1.05-1.58c0.01-2.52,0.01-5.03,0.02-7.55c0-0.28-0.07-0.6,0.02-0.84c0.12-0.29,0.38-0.53,0.57-0.79
	c0.17,0.26,0.48,0.51,0.48,0.77c0.04,2.11,0.01,4.22,0.04,6.32c0.01,0.57-0.32,1.49,0.61,1.52c1.03,0.03,0.61-0.95,0.69-1.53
	c0.05-0.37,0.02-0.75,0.01-1.13c-0.02-0.5,0-1.03,0.64-1.04c0.72-0.01,0.69,0.57,0.68,1.09c-0.01,1.07-0.01,2.14-0.01,3.21
	c0,0.51-0.05,1.12,0.68,1.09c0.7-0.02,0.66-0.62,0.66-1.14c0-0.5-0.07-1.02,0.02-1.5c0.05-0.26,0.39-0.46,0.59-0.69
	c0.24,0.23,0.65,0.44,0.68,0.7c0.1,0.71-0.02,1.45,0.07,2.16c0.04,0.32,0.39,0.61,0.6,0.91c0.23-0.28,0.6-0.52,0.67-0.83
	c0.1-0.46,0.01-1.02,0.69-0.99c0.67,0.03,0.63,0.57,0.63,1.05C49.34,39.92,49.34,41.49,49.34,43.06z"/>
<path class="st0" d="M39.02,30.92c-1.6-1.02-2.17-2.56-1.71-4.2c0.43-1.51,1.85-2.59,3.44-2.61c1.65-0.02,3.05,1,3.55,2.58
	c0.49,1.56-0.06,3.11-1.56,4.13c0-0.64,0.02-1.18,0-1.73c-0.05-1.2-0.77-2-1.8-2.03c-1.08-0.03-1.84,0.75-1.91,2.01
	C39,29.65,39.02,30.21,39.02,30.92z"/>
<path class="st0" d="M17.21,37.93c-0.87,0-1.61,0.75-1.6,1.62c0.02,0.86,0.7,1.54,1.56,1.55c0.95,0.02,1.61-0.62,1.61-1.56
	C18.8,38.62,18.12,37.93,17.21,37.93z"/>
<path class="st0" d="M17.21,37.93c0.91,0,1.58,0.69,1.58,1.62c-0.01,0.94-0.66,1.58-1.61,1.56c-0.86-0.01-1.54-0.69-1.56-1.55
	C15.6,38.68,16.34,37.93,17.21,37.93z"/>
<path class="st0" d="M25.15,37.93c0.91,0.01,1.56,0.7,1.54,1.64c-0.02,0.89-0.65,1.53-1.54,1.54c-0.91,0.01-1.62-0.69-1.62-1.58
	C23.52,38.65,24.26,37.92,25.15,37.93z"/>
<path class="st0" d="M49.81,13.73c-12.75,0-25.49,0-38.24,0c-1.74,0-2.32,0.57-2.32,2.32c0,8.44,0,16.87,0,25.31
	c0,1.87,0.55,2.41,2.43,2.41c8.18,0,16.37,0,24.55,0c0.34,0,0.67,0,1.13,0c-0.24-0.45-0.4-0.78-0.58-1.1
	c-0.82-1.45-1.66-2.89-2.47-4.35c-0.57-1.03-0.32-2.13,0.59-2.75c0.87-0.6,1.89-0.41,2.66,0.53c0.43,0.52,0.84,1.07,1.26,1.6
	c0.19-1.39,0.16-2.72,0.21-4.05c0.03-0.79-0.17-1.28-0.91-1.73c-2.17-1.34-2.85-4.15-1.69-6.39c1.17-2.25,3.78-3.28,6.09-2.4
	c2.4,0.92,3.81,3.53,3.02,5.96c-0.34,1.06-1.12,1.97-1.69,2.93c1.03,0.4,1.26,0.67,1.59,2.03c1.75,0.04,1.9,0.15,2.72,1.84
	c0.51,0.11,1,0.13,1.41,0.33c0.82,0.4,1.08,1.17,1.07,2.05c-0.01,1.78,0,3.56,0,5.38c1.17-0.4,1.41-0.79,1.41-2.22
	c0-8.5,0-17,0-25.49C52.06,14.34,51.43,13.73,49.81,13.73z M17.2,42.45c-1.55-0.01-2.84-1.34-2.84-2.92
	c0.01-1.59,1.28-2.9,2.84-2.92c1.52-0.02,2.89,1.33,2.9,2.87C20.11,41.08,18.77,42.45,17.2,42.45z M25.1,42.44
	c-1.57-0.03-2.83-1.33-2.83-2.92c0-1.58,1.29-2.89,2.85-2.9c1.53-0.01,2.88,1.32,2.9,2.88C28.04,41.07,26.66,42.47,25.1,42.44z
	 M47.98,19.17c-4.59,0-9.18,0-13.78,0c-0.5,0-1.07-0.06-0.97-0.69c0.04-0.25,0.61-0.59,0.95-0.6c2.33-0.05,4.65-0.03,6.98-0.03
	c2.26,0,4.53,0,6.79,0c0.48,0,1.04-0.03,1.04,0.64C49.02,19.16,48.47,19.17,47.98,19.17z"/>
<rect x="13.48" y="19.72" class="st1" width="15.01" height="15.02"/>
</svg>
