<?xml version="1.0" encoding="utf-8"?>
<!-- Generator: Adobe Illustrator 25.4.1, SVG Export Plug-In . SVG Version: 6.00 Build 0)  -->
<svg version="1.1" id="Layer_1" xmlns="http://www.w3.org/2000/svg" xmlns:xlink="http://www.w3.org/1999/xlink" x="0px" y="0px"
	 viewBox="0 0 64 64" style="enable-background:new 0 0 64 64;" xml:space="preserve">
<style type="text/css">
	.st0{fill:#221F1F;}
	.st1{fill:#F38065;}
</style>
<g>
	<path class="st0" d="M39.4,49.1H20.9c-9,0-16.4-7.3-16.4-16.4V28h51.2v4.7C55.7,41.7,48.4,49.1,39.4,49.1z"/>
	
		<rect x="8.8" y="43.8" transform="matrix(6.123234e-17 -1 1 6.123234e-17 -32.702 58.9517)" class="st0" width="8.7" height="4.1"/>
	
		<rect x="43.1" y="43.8" transform="matrix(6.123234e-17 -1 1 6.123234e-17 1.6462 93.2999)" class="st0" width="8.7" height="4.1"/>
	
		<rect x="2.6" y="23.8" transform="matrix(-1 -1.224647e-16 1.224647e-16 -1 60.2909 51.8146)" class="st0" width="55" height="4.1"/>
	<rect x="30.1" y="23.8" class="st1" width="15" height="15"/>
</g>
<path class="st0" d="M8.8,22.8c0.8-1,1.7-1.5,2.8-1.6c1.2-0.1,2.1,0.3,3.1,1c0.5-1.6,1.5-2.8,3.1-3.4c1.6-0.6,3.1-0.4,4.5,0.5
	c1.1-5,7-6.5,10.2-3c0.2-0.2,0.3-0.5,0.5-0.7c2.2-2.8,5.1-4,8.6-3.2c3.4,0.7,5.6,3,6.5,6.4c0.1,0.4,0.2,0.6,0.7,0.7
	c1.7,0.2,3,1.8,2.7,3.5C37.3,22.8,23.1,22.8,8.8,22.8z M44.7,16.7c0-1.1-0.9-1.9-1.9-1.9c-1,0-1.9,0.9-1.9,1.9
	c0,1.1,0.8,1.9,1.9,1.9C43.8,18.6,44.7,17.7,44.7,16.7z M30.9,17.2c0-0.6-0.5-1.2-1.1-1.2c-0.6,0-1.1,0.5-1.1,1.1
	c0,0.6,0.5,1.1,1.1,1.2C30.4,18.3,30.9,17.8,30.9,17.2z M20.3,20.6c0-0.4-0.4-0.7-0.8-0.7c-0.4,0-0.7,0.4-0.7,0.8
	c0,0.4,0.4,0.8,0.8,0.7C20,21.4,20.3,21,20.3,20.6z M50.2,21.3c0-0.4-0.3-0.6-0.7-0.6c-0.4,0-0.7,0.3-0.6,0.7c0,0.4,0.3,0.7,0.7,0.6
	C49.9,21.9,50.2,21.6,50.2,21.3z"/>
<path class="st0" d="M23.8,9.3c0,2-1.6,3.5-3.5,3.5c-1.9,0-3.5-1.6-3.5-3.6c0-2,1.6-3.6,3.6-3.5C22.2,5.8,23.8,7.3,23.8,9.3z
	 M21.6,9.6c0.5,0,0.9-0.4,0.9-0.9c0-0.5-0.4-0.8-0.8-0.8c-0.5,0-0.9,0.4-0.8,0.9C20.8,9.2,21.2,9.6,21.6,9.6z"/>
<path class="st0" d="M29.7,9c0-1.5,1.1-2.6,2.6-2.6c1.5,0,2.6,1.2,2.6,2.6c0,1.4-1.2,2.6-2.6,2.6C30.9,11.6,29.7,10.4,29.7,9z
	 M33.5,7.6c-0.4,0-0.6,0.3-0.6,0.6c0,0.4,0.2,0.6,0.6,0.6c0.3,0,0.6-0.3,0.6-0.6C34.1,7.8,33.9,7.6,33.5,7.6z"/>
</svg>
