<?xml version="1.0" encoding="utf-8"?>
<!-- Generator: Adobe Illustrator 25.4.1, SVG Export Plug-In . SVG Version: 6.00 Build 0)  -->
<svg version="1.1" id="Layer_1" xmlns="http://www.w3.org/2000/svg" xmlns:xlink="http://www.w3.org/1999/xlink" x="0px" y="0px"
	 viewBox="0 0 64 64" style="enable-background:new 0 0 64 64;" xml:space="preserve">
<style type="text/css">
	.st0{fill:#231F20;}
	.st1{fill:#F48165;}
</style>
<g>
	<g>
		<g>
			<polygon class="st0" points="25.92,21.64 19.04,14.15 12.15,21.64 5.27,29.13 5.27,46.39 15.07,46.39 15.07,35.66 21.76,35.66 
				21.76,35.66 24.4,35.66 24.4,37.99 32.8,37.99 32.8,29.13 			"/>
			<rect x="24" y="35.35" class="st0" width="8.8" height="11.03"/>
		</g>
	</g>
	<rect x="11.53" y="31.37" class="st1" width="15.02" height="15.02"/>
	<polygon class="st0" points="53.44,21.64 46.56,14.15 39.68,21.64 32.8,29.13 32.8,46.39 39.06,46.39 39.06,31.37 54.07,31.37 
		54.07,46.39 60.33,46.39 60.33,37.99 60.33,35.35 60.33,29.13 	"/>
</g>
</svg>
