<?xml version="1.0" encoding="utf-8"?>
<!-- Generator: Adobe Illustrator 25.4.1, SVG Export Plug-In . SVG Version: 6.00 Build 0)  -->
<svg version="1.1" id="Layer_1" xmlns="http://www.w3.org/2000/svg" xmlns:xlink="http://www.w3.org/1999/xlink" x="0px" y="0px"
	 viewBox="0 0 64 64" style="enable-background:new 0 0 64 64;" xml:space="preserve">
<style type="text/css">
	.st0{fill:#221F1F;}
	.st1{fill:#F38065;}
</style>
<path class="st0" d="M36.8,39c1.3,0.8,2.5,1.6,3.7,2.4c3.1,1.9,5.4,4.4,6.9,7.8c0.8,1.9,1.7,3.7,2.6,5.6c0.8,1.7,0.2,3.1-1.5,3.9
	c-1.5,0.7-3,0.1-3.7-1.6c-1.2-2.4-2.2-4.9-3.5-7.2c-0.5-1-1.4-1.9-2.3-2.6c-2.3-1.8-4.9-3.3-7.6-4.4c-0.6-0.2-0.8,0-1.1,0.4
	c-3,3.3-6.8,4.9-11.3,4.9c-2.4,0-4.7-0.7-6.7-2c-1.4-0.8-1.8-2.3-1.2-3.6c0.8-1.5,2.3-2.2,3.9-1.6c0.9,0.4,1.9,0.9,2.8,1.1
	c2.8,0.6,5-0.6,7-2.3c1.7-1.5,2.8-3.5,3.8-5.5c1.6-3,3.1-5.9,4.7-8.9c0.1-0.1,0.1-0.2,0.1-0.3c-1.2-0.7-3.6-0.7-5.2-0.1
	c-1.5,0.6-2.7,1.6-3.7,2.8c-0.3,0.4-0.6,0.7-0.9,1.1c-1.5,1.6-4.4,1-5-1.1c-0.2-0.5-0.1-1.4,0.3-1.8c3.1-4.6,7.3-7.4,13.1-7.1
	c2.4,0.1,4.7,1,6.8,2.2c1.2,0.7,2.4,1.4,3.6,2c4.2,2.1,8,1.2,10.9-2.5c0.3-0.4,0.6-0.8,1-1.1c1.2-1,3.3-0.7,4.2,0.5
	c0.7,0.9,0.8,1.8,0.2,2.8c-3.1,4.5-7.2,7.3-13,7c-0.8,0-1.7-0.2-2.5-0.4c-0.5-0.1-0.9-0.1-1.2,0.4C40.3,32.7,38.5,35.8,36.8,39z"/>
<rect x="19" y="14.1" class="st0" width="6.7" height="1.9"/>
<rect x="8.7" y="21.1" class="st0" width="8.7" height="1.9"/>
<rect x="5" y="36.9" class="st0" width="8.7" height="1.9"/>
<rect x="11.7" y="30.5" class="st0" width="11.4" height="1.9"/>
<rect x="38.4" y="9" transform="matrix(0.4428 -0.8966 0.8966 0.4428 11.6372 46.8462)" class="st1" width="10.1" height="10.1"/>
</svg>
