<?xml version="1.0" encoding="utf-8"?>
<!-- Generator: Adobe Illustrator 25.4.1, SVG Export Plug-In . SVG Version: 6.00 Build 0)  -->
<svg version="1.1" id="Layer_1" xmlns="http://www.w3.org/2000/svg" xmlns:xlink="http://www.w3.org/1999/xlink" x="0px" y="0px"
	 viewBox="0 0 64 64" style="enable-background:new 0 0 64 64;" xml:space="preserve">
<style type="text/css">
	.st0{fill:#221F1F;}
	.st1{fill:#F38065;}
</style>
<path class="st0" d="M22.8,40.3c-0.6,2.8-1.2,5.4-1.8,8c-1.7-0.9-3.5-1.8-5.4-1.3c-1.7,0.4-3.4,1.3-5.1,2c0.4-1.6,0.7-3.4,1.1-5.2
	c0.4-1.7,0.8-3.4,1.1-5.1c0.1-0.4,0-1-0.3-1.3c-1-1.6-2.1-3.2-3.2-4.9C9.2,32,9,31.4,9.1,30.9c0.3-2.7,0.6-5.4,0.9-8.1
	c0.1-0.8,0.7-1.3,1.5-1.2c0.8,0.1,1.3,0.6,1.3,1.4c0.1,2.2,0,4.3,0.2,6.5c0.1,0.8,0.3,1.7,0.7,2.4c0.5,1,1.3,1.9,2,2.8
	c0.9,1.1,2.2,1.8,3.6,1.8c3.5,0.1,7,0.1,10.4,0.1c1.1,0,2.3-0.1,3.4-0.1c1.2,0,2,0.6,2,1.6c0.1,1-0.6,1.8-1.8,1.9
	c-1.8,0.1-3.6,0.2-5.4,0.2C26.2,40.3,24.5,40.3,22.8,40.3z"/>
<path class="st0" d="M49.5,54.2c-0.4-1.9-0.8-3.5-1.1-5.1c-0.1-0.6-0.4-0.8-1-0.8c-2.3,0-4.5-0.1-6.8-0.2c-0.3,0-0.5,0-0.8-0.1
	c-0.9-0.1-1.5-0.7-1.4-1.5c0.1-0.8,0.7-1.3,1.7-1.3c3.4,0,6.8,0.1,10.1,0.1c3.1-0.1,5.8-2.7,5.9-5.8c0.1-1.6,0-3.1,0.1-4.7
	c0-1,0.4-1.5,1.1-1.5c0.7,0,1.1,0.5,1.2,1.4c0.2,1.8,0.4,3.5,0.7,5.3c0.1,0.9,0,1.7-0.6,2.5c-0.8,1.1-1.5,2.2-2.2,3.3
	c-0.2,0.4-0.2,0.9-0.2,1.3c0,0.4,0.1,0.8,0.2,1.2c0.4,1.7,0.4,1.7-1.1,2.6C53.4,52,51.5,53,49.5,54.2z"/>
<path class="st0" d="M20.1,27.3c2.3,0,4.3,1.9,4.3,4.3c0,2.3-2,4.3-4.3,4.3c-2.4,0-4.2-1.9-4.2-4.2C15.8,29.2,17.6,27.3,20.1,27.3z"
	/>
<path class="st0" d="M50.3,44.6c-1.9,0-3.4-1.5-3.4-3.4c0-1.9,1.5-3.4,3.4-3.4c1.8,0,3.4,1.6,3.4,3.4C53.8,43.1,52.2,44.6,50.3,44.6
	z"/>
<path class="st0" d="M57.1,52.3c-1.6,0.3-2.9,1.1-4.4,1.6c-1.9,0.7-3.7,0.5-5.4-0.3c-0.8-0.3-1.6-0.7-2.3-1
	c-1.1-0.5-2.1-0.3-3.1,0.2c-1,0.5-2.1,0.9-3.2,1.3c-1.2,0.4-2.4,0.4-3.6,0c-1.1-0.4-2.2-0.8-3.2-1.3c-1.2-0.6-2.4-0.5-3.6,0.1
	c-1.1,0.5-2.2,0.9-3.3,1.3c-1.3,0.4-2.5,0.3-3.8-0.2c-0.9-0.4-1.8-0.7-2.7-1.1c-1.3-0.6-2.4-0.5-3.7,0c-1.1,0.5-2.3,1-3.4,1.3
	c-1,0.3-2,0.3-3-0.1c-0.9-0.3-1.8-0.6-2.6-1c-0.8-0.3-1.5-0.7-2.4-0.8c0,0-0.1,0-0.1-0.1c0-1.1,0-2.2,0-3.4c0.1,0,0.3,0,0.4,0
	c0.2,0,0.4,0.1,0.7,0.1c1.3,0.2,2.6,0.8,3.8,1.4c1.3,0.6,2.6,0.7,3.9,0c0.5-0.3,1-0.5,1.5-0.7c0.9-0.3,1.9-0.6,2.9-0.8
	c0.3,0,0.5,0,0.8,0c0.4,0.1,0.7,0.1,1.1,0.2c1.2,0.4,2.3,0.8,3.4,1.3c1.3,0.6,2.5,0.6,3.8,0c0.5-0.3,1-0.5,1.6-0.7
	c0.9-0.3,1.9-0.6,2.9-0.8c0.3,0,0.5,0,0.8,0c0.4,0.1,0.7,0.1,1.1,0.2c1,0.3,2,0.7,2.9,1.1c1.3,0.6,2.6,1,4,0.3
	c0.6-0.3,1.2-0.6,1.9-0.8c0.9-0.3,1.9-0.6,2.9-0.8c0.3,0,0.5,0,0.8,0c0.5,0.1,1.1,0.2,1.6,0.3c0.9,0.3,1.7,0.6,2.5,1
	c1.4,0.7,2.8,0.9,4.3,0.1c0.5-0.3,1-0.5,1.5-0.6c0.9-0.3,1.9-0.6,2.9-0.8c0.2,0,0.3,0,0.5,0C57.1,50.1,57.1,51.2,57.1,52.3z"/>
<path class="st0" d="M57.1,58.8c-0.8-0.1-1.5,0.3-2.2,0.6c-1.1,0.5-2.2,1-3.4,1.3c-1.3,0.3-2.5,0.1-3.7-0.4
	c-0.9-0.3-1.7-0.7-2.6-1.1c-1.1-0.5-2.2-0.5-3.3,0c-0.8,0.4-1.6,0.7-2.5,1.1c-1.9,0.8-3.7,0.7-5.6-0.2c-0.8-0.3-1.6-0.6-2.3-1
	c-1.1-0.5-2.1-0.3-3.1,0.1c-0.9,0.4-1.8,0.8-2.7,1.1c-1.8,0.7-3.5,0.6-5.2-0.2c-0.6-0.3-1.2-0.5-1.8-0.8c-0.7-0.3-1.4-0.5-2.2-0.6
	c-0.9-0.1-1.6-0.9-1.5-1.8c0.1-1,0.9-1.7,1.8-1.6c1.1,0.1,2.2,0.4,3.2,0.8c0.7,0.3,1.4,0.6,2.1,0.9c1,0.4,1.9,0.3,2.9-0.1
	c0.9-0.4,1.9-0.8,2.8-1.2c1.8-0.7,3.5-0.5,5.2,0.2c0.8,0.4,1.7,0.7,2.5,1.1c1,0.5,2,0.3,2.9-0.1c1-0.5,2.1-0.9,3.2-1.3
	c1.7-0.6,3.3-0.3,4.9,0.3c0.8,0.3,1.6,0.7,2.4,1c1,0.5,2,0.4,3.1-0.1c1.1-0.5,2.3-1,3.4-1.4c0.5-0.2,1.1-0.2,1.7-0.3
	C57.1,56.5,57.1,57.6,57.1,58.8z"/>
<rect x="19.8" y="5.6" transform="matrix(-0.5792 -0.8152 0.8152 -0.5792 32.3861 42.9796)" class="st1" width="15" height="15"/>
</svg>
