<?xml version="1.0" encoding="utf-8"?>
<!-- Generator: Adobe Illustrator 25.4.1, SVG Export Plug-In . SVG Version: 6.00 Build 0)  -->
<svg version="1.1" id="Layer_1" xmlns="http://www.w3.org/2000/svg" xmlns:xlink="http://www.w3.org/1999/xlink" x="0px" y="0px"
	 viewBox="0 0 64 64" style="enable-background:new 0 0 64 64;" xml:space="preserve">
<style type="text/css">
	.st0{fill:#221F1F;}
	.st1{fill:#F38065;}
</style>
<path class="st0" d="M9.4,39.3c-0.5-0.6-1-1.1-1.4-1.6c-0.1-0.1-0.3-0.1-0.4-0.2c-2.1-0.5-2.9-1.7-2.9-3.9c0.1-3.1,1-5.8,2.6-8.4
	c0.9-1.4,2.2-2.2,3.9-2.2c1.9,0,3,1.3,2.7,3.2c0,0.2-0.1,0.3-0.2,0.7c-0.5-0.6-0.9-1.1-1.2-1.5c-0.4-0.6-1-0.9-1.8-0.8
	c-0.8,0.1-1.3,0.6-1.4,1.4c0,0.4,0.1,0.9,0.3,1.3c0.6,1,1.4,1.9,2.3,2.5c0.3,0.2,0.3,0.4,0.2,0.8c-0.4,1.4-0.7,2.8-1.1,4.2
	c0,0.2,0.1,0.5,0.2,0.6c1.2,1.4,2.4,2.8,3.6,4.2c0.5,0.6,1,1.3,0.7,2.2c-0.2,0.8-0.8,1.4-1.6,1.4c-0.9,0.1-1.8,0.1-2.6,0.1
	c-1.8,0-3.7,0-5.5,0c-0.5,0-1-0.1-1.4-0.3c-0.8-0.4-1.1-1.4-0.8-2.2c0.2-0.8,1-1.4,1.9-1.4C6.8,39.3,8,39.3,9.4,39.3z"/>
<path class="st0" d="M52.8,36.5c-1.2-0.2-2.3-0.5-3.3-0.7c-1.1-0.2-2.1-0.3-3.1-0.4c0.4-0.5,0.9-1,1.3-1.6c0.9-1.1,0.3-2.6-1.1-2.9
	c-0.6-0.1-1.1,0.1-1.6,0.6c-0.5,0.5-1.1,1-1.6,1.4c-0.1,0-0.1-0.1-0.2-0.1c0.1-0.3,0.1-0.6,0.2-0.9c0.5-1.7,2.2-2.8,3.9-2.9
	c3.2-0.1,6.2,0.5,9,1.9c1.8,0.9,2.4,2.3,1.8,4.3c-0.4,1.4-1.2,2.4-2.2,3.4c-0.1,0.1-0.2,0.3-0.4,0.4c0,0,0,0.1,0,0.1
	c0.2,0,0.3,0,0.5,0c1,0,2.1,0,3.1,0c1.1,0,1.8,0.7,1.8,1.8c0,1.5-0.6,2.2-2.2,2.2c-2.5,0-5,0-7.5,0c-1.2,0-1.9-0.6-2.1-1.6
	c-0.1-0.6,0-1.2,0.4-1.7c0.9-1,1.7-1.9,2.6-2.9C52.4,37,52.6,36.8,52.8,36.5z"/>
<path class="st0" d="M16.3,23.8c-2.4,0-4.3-1.9-4.3-4.4c0-2.4,2-4.3,4.4-4.3c2.4,0,4.3,2,4.3,4.4C20.6,21.9,18.7,23.9,16.3,23.8z"/>
<path class="st0" d="M39.1,31.8c-2.4,0-4.3-1.9-4.3-4.3c0-2.4,1.9-4.4,4.3-4.4c2.4,0,4.3,2,4.3,4.4C43.4,29.8,41.4,31.8,39.1,31.8z"
	/>
<path class="st0" d="M40.2,37.1c-1.8,0-3.1-0.3-4.3-0.8c-0.8-0.3-1.1-1-0.8-1.6c0.3-0.7,0.9-1,1.7-0.7c3.4,1.3,6.3,0.5,8.8-2
	c0.6-0.6,1.3-0.7,1.8-0.2c0.6,0.5,0.6,1.2,0,1.9C45.2,35.9,42.8,37.1,40.2,37.1z"/>
<path class="st0" d="M17,31c-3.1-0.1-5.4-1.6-7.1-4.2c-0.4-0.6-0.2-1.4,0.4-1.7c0.6-0.4,1.3-0.2,1.7,0.4c1,1.6,2.4,2.6,4.3,2.9
	c1.1,0.2,2.2-0.1,3.2-0.4c0.3-0.1,0.6-0.2,1-0.2c0.6,0,1,0.5,1.1,1.1c0.1,0.5-0.2,1.1-0.8,1.3C19.5,30.8,18.3,31,17,31z"/>
<path class="st0" d="M31.8,27.8c-1.9,0-3.7,0-5.6,0c0.1-0.4,0.3-0.8,0.4-1.1c0.5-1.4,1-2.7,1.5-4.1c0.1-0.3,0.3-0.5,0.6-0.5
	c1,0,1,0,1.4,0.9c0.5,1.4,1,2.8,1.6,4.2C31.7,27.5,31.7,27.6,31.8,27.8z"/>
<path class="st0" d="M32,39.4C32,39.4,32,39.4,32,39.4l-1,0c0,0,0,0,0,0c-1.3,0-2.5,0-3.8,0c0,0,0,0,0,0h-0.9c-1.3,0-2.6,0-3.8,0
	c0,1.3,0,2.6,0,3.8c0,0,0,0,0,0c1.3,0,2.5,0,3.8,0c0,0,0,0,0,0H32c1.3,0,2.6,0,3.8,0c0-1.3,0-2.6,0-3.8c0,0,0,0,0,0
	C34.5,39.4,33.3,39.4,32,39.4z"/>
<rect x="23.5" y="28.6" class="st1" width="10.5" height="10.5"/>
</svg>
