<?xml version="1.0" encoding="utf-8"?>
<!-- Generator: Adobe Illustrator 25.4.1, SVG Export Plug-In . SVG Version: 6.00 Build 0)  -->
<svg version="1.1" id="Layer_1" xmlns="http://www.w3.org/2000/svg" xmlns:xlink="http://www.w3.org/1999/xlink" x="0px" y="0px"
	 viewBox="0 0 60 60" style="enable-background:new 0 0 60 60;" xml:space="preserve">
<style type="text/css">
	.st0{fill:#231F20;}
	.st1{fill:#F48165;}
</style>
<path class="st0" d="M40.1,13.93c0,10.23,0,20.4,0,30.67c-3.26,0-6.5,0-9.85,0c0-2.91,0-5.85,0-8.8c4.15-1.23,6.12-3.48,5.96-6.79
	c-0.15-3.24-2.26-5.47-5.99-6.26c0-2.9,0-5.82,0-8.82C33.49,13.93,36.73,13.93,40.1,13.93z"/>
<path class="st0" d="M29.44,44.66c-3.38,0-6.57,0-9.85,0c0-10.24,0-20.44,0-30.72c3.24,0,6.49,0,9.94,0c0,0.56,0,1.16,0,1.77
	c0,2.1,0.03,4.19-0.03,6.28c-0.01,0.31-0.35,0.8-0.63,0.87c-3.38,0.88-5.45,3.31-5.41,6.44c0.04,3.15,2.06,5.51,5.41,6.32
	c0.17,0.04,0.35,0.07,0.57,0.12C29.44,38.72,29.44,41.67,29.44,44.66z"/>
<path class="st0" d="M9.03,13.88c3.35,0,6.51,0,9.75,0c0,10.26,0,20.48,0,30.76c-3.26,0-6.47,0-9.75,0
	C9.03,34.36,9.03,24.13,9.03,13.88z M13.73,16.23c-1.91,0-3.37,1.48-3.39,3.45c-0.02,1.9,1.51,3.44,3.41,3.43
	c1.89,0,3.42-1.56,3.4-3.46C17.14,17.72,15.64,16.23,13.73,16.23z M17.16,38.85c0.01-1.92-1.48-3.43-3.39-3.44
	c-1.9-0.02-3.41,1.47-3.44,3.39c-0.03,1.9,1.47,3.49,3.33,3.51C15.6,42.34,17.15,40.8,17.16,38.85z M9.45,24.24
	c0,3.4,0,6.73,0,10.09c2.13-0.64,3.65-2.88,3.6-5.18C13,26.94,11.32,24.53,9.45,24.24z"/>
<path class="st0" d="M50.64,44.64c-3.27,0-6.49,0-9.79,0c0-10.24,0-20.47,0-30.75c3.25,0,6.47,0,9.79,0
	C50.64,24.13,50.64,34.35,50.64,44.64z M45.92,42.31c1.91,0,3.4-1.49,3.42-3.43c0.03-1.93-1.45-3.45-3.36-3.47
	c-1.91-0.02-3.47,1.47-3.5,3.34C42.45,40.69,44.01,42.3,45.92,42.31z M45.89,23.11c1.91,0.01,3.44-1.49,3.46-3.38
	c0.01-1.94-1.44-3.47-3.33-3.5c-1.95-0.03-3.56,1.53-3.54,3.43C42.49,21.54,44.03,23.1,45.89,23.11z M50.28,24.21
	c-2.1,0.53-3.72,2.89-3.65,5.15c0.07,2.34,1.72,4.57,3.65,4.9C50.28,30.93,50.28,27.61,50.28,24.21z"/>
<path class="st0" d="M51.4,44.7c0-10.37,0-20.57,0-30.85c1.01,0,1.97-0.06,2.91,0.02c0.89,0.08,1.47,0.63,1.61,1.54
	c0.06,0.36,0.05,0.73,0.05,1.1c0,8.53,0.01,17.05,0.01,25.58c0,2.07-0.55,2.61-2.61,2.61C52.75,44.7,52.12,44.7,51.4,44.7z"/>
<path class="st0" d="M8.27,44.69c-0.97,0-1.89,0.07-2.79-0.02c-1.03-0.1-1.66-0.71-1.76-1.79c-0.02-0.22-0.01-0.44-0.01-0.66
	c0-8.6,0-17.2,0-25.8c0-2.07,0.53-2.58,2.62-2.59c0.62,0,1.24,0,1.94,0C8.27,24.14,8.27,34.36,8.27,44.69z"/>
<path class="st0" d="M35.39,29.32c-0.01,3.15-2.47,5.58-5.62,5.55c-3.09-0.04-5.48-2.47-5.49-5.57c0-3.2,2.48-5.71,5.62-5.7
	C32.94,23.61,35.4,26.17,35.39,29.32z M30.84,29.29c-0.47-0.33-0.73-0.64-0.99-0.65c-0.22-0.01-0.66,0.39-0.63,0.53
	c0.06,0.28,0.34,0.67,0.59,0.72C30.03,29.94,30.33,29.6,30.84,29.29z"/>
<rect x="22.85" y="22.43" class="st1" width="13.61" height="13.61"/>
</svg>
