<?xml version="1.0" encoding="utf-8"?>
<!-- Generator: Adobe Illustrator 25.4.1, SVG Export Plug-In . SVG Version: 6.00 Build 0)  -->
<svg version="1.1" id="Layer_1" xmlns="http://www.w3.org/2000/svg" xmlns:xlink="http://www.w3.org/1999/xlink" x="0px" y="0px"
	 viewBox="0 0 60 60" style="enable-background:new 0 0 60 60;" xml:space="preserve">
<style type="text/css">
	.st0{fill:#231F20;}
	.st1{fill:#F48165;}
</style>
<path class="st0" d="M57.86,45.33c0,0.66,0,1.33,0,1.99c-18.57,0-37.15,0-55.72,0c0-0.67,0-1.33,0-1.99c0.47,0,0.95,0,1.36,0
	c-0.06-1.66-0.22-3.2-0.16-4.72c0.06-1.52,0.44-2.99,1.65-4.36c0.11,0.52,0.22,0.83,0.23,1.15c0.07,1.96,0.1,3.92,0.18,5.88
	c0.02,0.52,0.18,1.03,0.27,1.54c1.04-4.34,0.89-8.69,0.9-13.05c0.19,0.11,0.29,0.22,0.33,0.35c0.91,3.17,1.35,6.4,1.51,9.69
	c1.46-4.72,2.34-9.44,0.2-14.28c0.3,0.1,0.52,0.23,0.63,0.42c0.39,0.64,0.81,1.28,1.11,1.97c1.53,3.59,1.49,7.35,1.17,11.14
	c-0.12,1.4-0.35,2.79-0.53,4.21c0.57,0,1.1,0,1.67,0c0-0.22,0.01-0.4,0-0.57c-0.17-2.53-0.47-5.05-0.46-7.58
	c0-2.18,0.57-4.3,1.83-6.16c0.15-0.22,0.41-0.38,0.61-0.57c0.07,0.04,0.14,0.09,0.21,0.13c-1.8,3.82-1.22,7.63-0.02,11.71
	c0.12-1.19,0.19-2.12,0.31-3.04c0.12-0.9,0.26-1.79,0.44-2.67c0.18-0.87,0.41-1.72,0.62-2.58c0.12,0.02,0.24,0.04,0.36,0.06
	c-0.11,3.55-0.24,7.1,0.44,10.59c0.08,0,0.17,0,0.25,0c0.09-2.23,0.18-4.46,0.28-6.69c0.13,0,0.25-0.01,0.38-0.01
	c1.73,2.21,1.33,4.78,1.03,7.36c1.6,0,3.16,0,4.76,0c0-2.37,0-4.68,0-6.99c-2.77-0.46-2.88-0.6-2.85-3.45c0-0.09,0-0.18,0-0.27
	c0.05-1.27,0.71-1.93,1.99-1.97c0.71-0.02,1.43,0,2.19,0c0-1.47,0-2.8,0-4.13c0-0.14-0.03-0.29-0.06-0.52c-0.7,0-1.36,0.01-2.01,0
	c-1.23-0.02-1.95-0.67-1.97-1.87c-0.03-1.72-0.03-3.45,0-5.17c0.03-1.23,0.72-1.86,1.96-1.88c0.68-0.01,1.36,0,1.96,0
	c0.12-0.58,0.21-1.01,0.3-1.45c0.79,0,1.57,0,2.36,0c0.09,0.46,0.19,0.91,0.29,1.39c7.65,0,15.3,0,22.99,0
	c0.05-0.5,0.09-0.94,0.14-1.39c0.85,0,1.69,0,2.54,0c0.03,0.47,0.06,0.94,0.1,1.4c1.57,0.2,3.32-0.52,4.26,1.32
	c0,2.12,0,4.24,0,6.35c-0.92,1.92-2.76,1.08-4.32,1.38c0,0.96,0,1.89,0,2.82c0,1.73,0,1.71,1.7,1.75c0.56,0.01,1.19,0.04,1.65,0.3
	c1.22,0.71,1.23,4.19,0.02,4.94c-0.44,0.27-1.01,0.33-1.54,0.49c0,2.29,0,4.6,0,7.02C56.24,45.33,57.05,45.33,57.86,45.33z
	 M27.77,27.93c0,1.6,0,3.07,0,4.57c7.7,0,15.36,0,23.11,0c0-1.24-0.05-2.41,0.02-3.58c0.05-0.81-0.22-1.01-1.02-1.01
	c-7.07,0.03-14.15,0.02-21.22,0.02C28.4,27.93,28.13,27.93,27.77,27.93z M52.39,41.57c-8.64,0-17.18,0-25.77,0c0,1.26,0,2.47,0,3.67
	c8.64,0,17.2,0,25.77,0C52.39,44,52.39,42.83,52.39,41.57z M52.38,38.24c-8.64,0-17.2,0-25.79,0c0,0.69,0,1.32,0,1.97
	c8.62,0,17.18,0,25.79,0C52.38,39.54,52.38,38.91,52.38,38.24z"/>
<rect x="35.27" y="24.7" class="st1" width="10.02" height="10.02"/>
</svg>
