<?xml version="1.0" encoding="utf-8"?>
<!-- Generator: Adobe Illustrator 25.4.1, SVG Export Plug-In . SVG Version: 6.00 Build 0)  -->
<svg version="1.1" id="Layer_1" xmlns="http://www.w3.org/2000/svg" xmlns:xlink="http://www.w3.org/1999/xlink" x="0px" y="0px"
	 viewBox="0 0 64 64" style="enable-background:new 0 0 64 64;" xml:space="preserve">
<style type="text/css">
	.st0{fill:#221F1F;}
	.st1{fill:#F38065;}
</style>
<path class="st0" d="M47.9,52.4c3.8,0,7.4,0,11.1,0c0,0.8,0,1.4,0,2.2c-18,0-35.9,0-53.9,0c0-0.7,0-1.4,0-2.1c3.9,0,7.8,0,11.8,0
	c0.1-1.6,0.3-3.1,0.4-4.6c0.1-2.8,0.2-5.5,0.3-8.3c0-0.6-0.4-1.3-0.8-1.8c-0.3-0.5-0.9-0.9-1.3-1.3c-1-1.1-2.1-1.8-3.7-2.2
	c-5.8-1.4-8.2-8-4.7-12.9c0.2-0.2,0.3-0.5,0.2-0.7c-0.4-1.5-1-3.1-1-4.6c0-3.2,2.8-5.9,6-6.2c0.8-0.1,1.3-0.4,1.6-1.2
	c1.4-2.9,3.9-4.2,7.1-4.1c3,0.2,5.2,1.6,6.4,4.4c0.1,0.3,0.2,0.5,0.4,0.9c1.9-0.8,3.8-1.1,5.8-0.4c5.6,1.7,7.5,8.4,3.7,12.9
	c-0.5,0.6-0.7,1.1-0.6,2c1,5.7-3.4,11.1-9.2,11.3c-0.9,0-1.5,0.3-2.1,1.1c-1.3,1.6-2.6,3.2-3.9,4.9c-0.3,0.3-0.5,0.8-0.5,1.2
	c0.1,3.2,0.2,6.3,0.4,9.6c4.5,0,8.9,0,13.5,0 M36.1,52.3c3.6,0,7.2,0,10.6,0 M20.9,39c1.2-1.3,2.1-2.4,3.1-3.5
	c-1.1-0.5-2.1-0.9-3.1-1.3C20.9,35.7,20.9,37.2,20.9,39z M17.6,33.6c-0.7,0.3-1.2,0.5-1.8,0.7c0.1-0.1,0.3-0.1,0.4-0.2
	c0.4,0.6,0.8,1.3,1.4,2.1C17.6,35.2,17.6,34.5,17.6,33.6z"/>
<path class="st0" d="M48.6,47.3c-4.8,0-9.5,0-14.3,0c0-1.4,0-2.7,0-4.1c4.7,0,9.5,0,14.3,0C48.6,44.6,48.6,45.9,48.6,47.3z"/>
<g>
	<path class="st0" d="M47.6,48.7v3.4H35.4v-3.4H47.6 M48.6,47.7H34.4v5.4h14.3V47.7L48.6,47.7z"/>
</g>
<rect x="34" y="37.3" class="st1" width="15" height="15"/>
</svg>
