<?xml version="1.0" encoding="utf-8"?>
<!-- Generator: Adobe Illustrator 25.4.1, SVG Export Plug-In . SVG Version: 6.00 Build 0)  -->
<svg version="1.1" id="Layer_1" xmlns="http://www.w3.org/2000/svg" xmlns:xlink="http://www.w3.org/1999/xlink" x="0px" y="0px"
	 viewBox="0 0 60 60" style="enable-background:new 0 0 60 60;" xml:space="preserve">
<style type="text/css">
	.st0{fill:#231F20;}
	.st1{fill:#F48165;}
</style>
<path class="st0" d="M29.38,18.79c0-0.55-0.01-1.1,0-1.65c0.01-0.74,0.42-1.16,1.16-1.19c1.07-0.04,1.92-0.45,2.35-1.49
	c0.45-1.09,0.38-2.13-0.39-3.05c-0.74-0.88-1.72-1.14-2.81-0.89c-1.31,0.31-1.98,1.18-2.03,2.53c-0.02,0.68-0.48,1.18-1.04,1.16
	c-0.6-0.02-1.02-0.57-0.97-1.26c0.19-2.72,2.21-4.6,4.9-4.57c2.23,0.03,4.28,1.86,4.57,4.07c0.32,2.44-0.91,4.45-3.23,5.25
	c-0.34,0.12-0.48,0.28-0.47,0.64c0.02,0.75-0.01,1.51,0.03,2.26c0.01,0.15,0.19,0.39,0.31,0.41c2.07,0.23,3.65,1.34,5.08,2.74
	c0.91,0.89,1.99,1.51,3.16,2c4.37,1.82,8.24,4.4,11.58,7.75c1.1,1.1,1.94,2.39,2.24,3.96c0.18,0.91-0.05,1.72-0.65,2.41
	c-0.74,0.85-1.71,1.25-2.82,1.31c-0.63,0.03-1.12-0.29-1.42-0.78c-0.46-0.74-0.9-1.51-1.25-2.31c-1.09-2.51-2.35-4.92-4.32-6.84
	c-3.08-3-6.78-4.57-11.11-4.56c-1.84,0-3.68-0.02-5.51,0.11c-2.4,0.18-4.6,1.05-6.64,2.33c-2.41,1.5-4.2,3.58-5.53,6.05
	c-0.61,1.14-1.12,2.34-1.71,3.51c-0.28,0.56-0.6,1.1-0.93,1.63c-0.45,0.71-1.11,0.94-1.95,0.82c-1.51-0.22-2.81-1.32-3.01-2.76
	c-0.07-0.53,0.04-1.13,0.2-1.65c0.39-1.23,1.13-2.27,2.01-3.2c1.9-2.01,4.14-3.61,6.45-5.1c1.58-1.02,3.21-1.96,4.99-2.61
	c1.3-0.47,2.42-1.26,3.4-2.23c1.38-1.36,2.95-2.34,4.92-2.52c0.33-0.03,0.43-0.18,0.42-0.49C29.37,19.99,29.38,19.39,29.38,18.79
	C29.38,18.79,29.38,18.79,29.38,18.79z"/>
<path class="st0" d="M30.35,38.59c-4.83,0-9.65,0-14.48,0c-0.49,0-0.9-0.14-1.13-0.6c-0.19-0.38-0.16-0.78,0.15-1.04
	c0.25-0.21,0.63-0.38,0.96-0.39c3.36-0.03,6.73-0.01,10.09-0.01c6.3,0,12.61,0,18.91,0c0.03,0,0.06,0,0.09,0
	c0.72,0,1.21,0.39,1.22,0.97c0.01,0.63-0.5,1.07-1.23,1.07C40.07,38.59,35.21,38.59,30.35,38.59z"/>
<rect x="22.88" y="36.55" class="st1" width="15.01" height="15.02"/>
</svg>
