<?xml version="1.0" encoding="utf-8"?>
<!-- Generator: Adobe Illustrator 25.4.1, SVG Export Plug-In . SVG Version: 6.00 Build 0)  -->
<svg version="1.1" id="Layer_1" xmlns="http://www.w3.org/2000/svg" xmlns:xlink="http://www.w3.org/1999/xlink" x="0px" y="0px"
	 viewBox="0 0 60 60" style="enable-background:new 0 0 60 60;" xml:space="preserve">
<style type="text/css">
	.st0{fill:#231F20;}
	.st1{fill:#F48165;}
</style>
<path class="st0" d="M14.07,6.25H2.45c-0.94,0-1.7,0.76-1.7,1.7v46.41c0,0.94,0.76,1.7,1.7,1.7h11.61c0.94,0,1.7-0.76,1.7-1.7V7.95
	C15.77,7.01,15.01,6.25,14.07,6.25z M3.67,10.86c0-0.47,0.38-0.86,0.86-0.86h7.46c0.47,0,0.86,0.38,0.86,0.86v2.22
	c0,0.47-0.38,0.86-0.86,0.86H4.53c-0.47,0-0.86-0.38-0.86-0.86V10.86z M12.85,51.98c0,0.39-0.31,0.7-0.7,0.7H4.37
	c-0.39,0-0.7-0.31-0.7-0.7v-1.2c0-0.39,0.31-0.7,0.7-0.7h7.78c0.39,0,0.7,0.31,0.7,0.7V51.98z M12.4,19.4H4.13
	c-0.28,0-0.5-0.22-0.5-0.5s0.22-0.5,0.5-0.5h8.27c0.28,0,0.5,0.22,0.5,0.5S12.67,19.4,12.4,19.4z"/>
<path class="st0" d="M30.7,6.25H19.08c-0.94,0-1.7,0.76-1.7,1.7v46.41c0,0.94,0.76,1.7,1.7,1.7H30.7c0.94,0,1.7-0.76,1.7-1.7V7.95
	C32.4,7.01,31.64,6.25,30.7,6.25z M20.3,10.86c0-0.47,0.38-0.86,0.86-0.86h7.46c0.47,0,0.86,0.38,0.86,0.86v2.22
	c0,0.47-0.38,0.86-0.86,0.86h-7.46c-0.47,0-0.86-0.38-0.86-0.86V10.86z M29.48,51.98c0,0.39-0.31,0.7-0.7,0.7H21
	c-0.39,0-0.7-0.31-0.7-0.7v-1.2c0-0.39,0.31-0.7,0.7-0.7h7.78c0.39,0,0.7,0.31,0.7,0.7V51.98z M29.03,19.4h-8.27
	c-0.28,0-0.5-0.22-0.5-0.5s0.22-0.5,0.5-0.5h8.27c0.28,0,0.5,0.22,0.5,0.5S29.3,19.4,29.03,19.4z"/>
<path class="st0" d="M44.12,5.62L32.97,8.86c-0.9,0.26-1.42,1.21-1.16,2.11l12.95,44.56c0.26,0.9,1.21,1.42,2.11,1.16l11.15-3.24
	c0.9-0.26,1.42-1.21,1.16-2.11L46.23,6.78C45.97,5.88,45.02,5.36,44.12,5.62z M35.43,12.95c-0.13-0.46,0.13-0.93,0.59-1.06
	l7.16-2.08c0.46-0.13,0.93,0.13,1.06,0.59l0.62,2.13c0.13,0.46-0.13,0.93-0.58,1.06l-7.16,2.08c-0.46,0.13-0.93-0.13-1.06-0.58
	L35.43,12.95z M55.71,49.87c0.11,0.37-0.11,0.76-0.48,0.86l-7.47,2.17c-0.37,0.11-0.76-0.11-0.86-0.48l-0.34-1.15
	c-0.11-0.37,0.11-0.76,0.48-0.86l7.47-2.17c0.37-0.11,0.76,0.11,0.86,0.48L55.71,49.87z M46.18,18.71l-7.94,2.31
	c-0.27,0.08-0.54-0.08-0.62-0.34c-0.08-0.27,0.08-0.54,0.34-0.62l7.94-2.31c0.27-0.08,0.54,0.08,0.62,0.34
	C46.6,18.35,46.45,18.63,46.18,18.71z"/>
<rect x="0.75" y="32.66" class="st1" width="15.01" height="15.02"/>
</svg>
