<?xml version="1.0" encoding="utf-8"?>
<!-- Generator: Adobe Illustrator 25.4.1, SVG Export Plug-In . SVG Version: 6.00 Build 0)  -->
<svg version="1.1" id="Layer_1" xmlns="http://www.w3.org/2000/svg" xmlns:xlink="http://www.w3.org/1999/xlink" x="0px" y="0px"
	 viewBox="0 0 60 60" style="enable-background:new 0 0 60 60;" xml:space="preserve">
<style type="text/css">
	.st0{fill:#231F20;}
	.st1{fill:#F48165;}
</style>
<path class="st0" d="M11.55,45.8c0.38,1.14,0.08,1.54-1.09,1.55c-0.85,0-1.69,0.01-2.54,0c-1.01-0.01-1.37-0.6-0.88-1.57
	c-0.5,0-0.95,0-1.4,0c-0.81-0.01-1.62,0.02-2.43-0.05c-0.91-0.08-1.35-0.58-1.35-1.5c0-6.56,0-13.11,0.01-19.67
	c0-0.82,0.55-1.41,1.43-1.44c1.39-0.04,2.78-0.05,4.16,0c0.94,0.03,1.47,0.66,1.47,1.59c0,2.34,0,4.69,0,7.03c0,0.19,0,0.39,0,0.63
	c14.05,0,28.04,0,42.09,0c0.01-0.24,0.03-0.44,0.03-0.65c0-2.25,0-4.51,0.01-6.76c0-0.97,0.58-1.6,1.56-1.62
	c1.31-0.03,2.63-0.03,3.95,0c0.99,0.02,1.58,0.66,1.58,1.66c0,6.38,0,12.76,0,19.13c0,1.01-0.45,1.54-1.47,1.61
	c-0.95,0.06-1.91,0.03-2.86,0.04c-0.29,0-0.57,0-0.87,0c0.4,1.12,0.09,1.56-1.05,1.57c-0.83,0-1.66,0-2.49,0
	c-1.11,0-1.42-0.47-1-1.55C36.11,45.8,23.86,45.8,11.55,45.8z"/>
<path class="st0" d="M10.24,31.49c0-1.99,0-3.93,0-5.88c0-1.69,0-3.39,0-5.08c0-1.05,0.49-1.55,1.55-1.55
	c3.08,0,6.16,0.02,9.25,0.02c8.89,0,17.77-0.02,26.66-0.02c0.25,0,0.51,0,0.76,0.01c0.74,0.04,1.26,0.53,1.26,1.27
	c0.01,3.7,0,7.39,0,11.09c0,0.03-0.02,0.07-0.04,0.15C36.56,31.49,23.44,31.49,10.24,31.49z"/>
<rect x="13.88" y="14.33" class="st1" width="17.16" height="17.16"/>
</svg>
