<?xml version="1.0" encoding="utf-8"?>
<!-- Generator: Adobe Illustrator 25.4.1, SVG Export Plug-In . SVG Version: 6.00 Build 0)  -->
<svg version="1.1" id="Layer_1" xmlns="http://www.w3.org/2000/svg" xmlns:xlink="http://www.w3.org/1999/xlink" x="0px" y="0px"
	 viewBox="0 0 64 64" style="enable-background:new 0 0 64 64;" xml:space="preserve">
<style type="text/css">
	.st0{fill:#221F1F;}
	.st1{fill:#F38065;}
</style>
<path class="st0" d="M10.4,20.5c0.4,0.7,0.7,1.5,1.1,2.2c-0.5,0.2-1,0.2-1.5,0.3C10.2,22.2,10.3,21.4,10.4,20.5
	C10.4,20.6,10.4,20.6,10.4,20.5z"/>
<path class="st0" d="M37.7,54.3c-0.3-0.7-0.7-1.3-1-2c-0.1-0.2,0-0.3,0.1-0.3c0.4-0.1,0.8-0.1,1.3-0.2C38,52.6,37.9,53.5,37.7,54.3
	C37.8,54.3,37.7,54.3,37.7,54.3z"/>
<polygon class="st0" points="20.8,2.9 19.5,13.1 37.7,10 45.1,53.6 49.1,54.1 54.8,7.1 "/>
<path class="st0" d="M43,53.1c-2-11.7-4-23.4-6-35.1c-0.3-1.7-0.6-3.3-1-5c-0.1-0.4-0.5-0.8-1-0.7c-0.3,0-0.6,0.1-0.9,0.1
	c-2.1,0.4-4.2,0.7-6.4,1.1c-5.3,0.9-10.5,1.8-15.8,2.8c-2.2,0.4-4.4,0.8-6.6,1.2c-0.1,0-0.2,0-0.2,0.1c-0.3,0.3-0.5,0.6-0.4,1.1
	c0.1,0.8,0.2,1.5,0.4,2.3c1.1,6.4,2.2,12.8,3.3,19.3c0,0,0,0,0,0c1.1,6.5,2.2,13,3.3,19.4c0.1,0.8,0.3,1.7,0.5,2.5
	c0.1,0.3,0.5,0.6,0.8,0.6c0.2,0,0.5,0,0.7-0.1c1.2-0.2,2.4-0.4,3.6-0.6c5-0.9,10-1.7,15-2.6c3.4-0.6,6.9-1.2,10.3-1.9
	c0.5-0.1,0.8-0.5,0.8-1.1C43.3,55.3,43.2,54.2,43,53.1z M9.4,25.4c-0.1,0-0.3,0-0.4,0.1c0.1-0.6,0.2-1.1,0.3-1.6
	c0.2-1.2,0.4-2.5,0.6-3.7c0-0.2,0.1-0.2,0.3-0.3c0.6-0.1,0.6-0.1,0.9,0.4c0.8,1.4,1.5,2.8,2.3,4.2c0,0.1,0.1,0.1,0.1,0.2
	c-0.3,0-0.5,0.1-0.7,0.1c-0.2-0.4-0.5-0.9-0.7-1.3c-0.1-0.2-0.2-0.2-0.3-0.1c-0.5,0.1-1,0.2-1.4,0.3c-0.1,0-0.2,0.1-0.2,0.2
	c0,0.4-0.1,0.8-0.2,1.1C9.8,25.2,9.7,25.4,9.4,25.4z M14.1,29.1c-0.5,1.1-1,2.3-1.5,3.4c0,0,0,0-0.1,0.1c-0.1-0.1-0.3-0.3-0.4-0.4
	c-0.7-0.8-1.5-1.6-2.2-2.4c-0.1-0.1-0.1-0.2-0.1-0.4c0.5-1.1,1-2.2,1.5-3.3c0,0,0.1-0.1,0.1-0.2c0.1,0.1,0.2,0.2,0.4,0.3
	c0.8,0.8,1.5,1.6,2.2,2.4C14.1,28.8,14.1,28.9,14.1,29.1z M34.1,45.8c0.5-1.1,1-2.2,1.5-3.4c0,0,0-0.1,0.1-0.2
	c0.3,0.3,0.6,0.5,0.8,0.8c0.6,0.7,1.2,1.3,1.8,2c0.1,0.1,0.1,0.2,0.1,0.3c-0.5,1.1-1,2.2-1.5,3.4c0,0,0,0.1-0.1,0.1
	c-0.1-0.1-0.3-0.3-0.4-0.4c-0.7-0.8-1.5-1.6-2.2-2.4C34.1,46,34.1,45.9,34.1,45.8z M38.9,50.8c-0.2,1.2-0.4,2.5-0.6,3.7
	c-0.1,0.6-0.2,0.5-0.8,0.6c0,0-0.1,0-0.2-0.1c-0.9-1.6-1.7-3.2-2.6-4.7c0,0,0,0,0-0.1c0.4-0.2,0.6-0.2,0.9,0.2
	c0.2,0.3,0.4,0.7,0.6,1c0,0.1,0.2,0.1,0.2,0.1c0.5-0.1,1-0.2,1.5-0.3c0.1,0,0.2-0.1,0.2-0.2c0.1-0.4,0.1-0.8,0.2-1.2
	c0-0.2,0.1-0.3,0.3-0.3c0.1,0,0.3,0,0.4-0.1C39.1,49.9,39,50.3,38.9,50.8z"/>
<rect x="16" y="30.8" transform="matrix(0.5 -0.866 0.866 0.5 -21.4526 39.5119)" class="st1" width="15" height="15"/>
</svg>
