<?xml version="1.0" encoding="utf-8"?>
<!-- Generator: Adobe Illustrator 25.4.1, SVG Export Plug-In . SVG Version: 6.00 Build 0)  -->
<svg version="1.1" id="Layer_1" xmlns="http://www.w3.org/2000/svg" xmlns:xlink="http://www.w3.org/1999/xlink" x="0px" y="0px"
	 viewBox="0 0 64 64" style="enable-background:new 0 0 64 64;" xml:space="preserve">
<style type="text/css">
	.st0{fill:#231F20;}
	.st1{fill:#F48165;}
</style>
<path class="st0" d="M7.57,55.86c0.39-1.41,0.75-2.77,1.13-4.13c0.71-2.56,1.47-5.11,2.14-7.68c0.25-0.97,0.66-1.54,1.75-1.68
	c1.25-0.15,2.48-0.52,3.84-0.82c0,2.17,0.06,4.23-0.03,6.28c-0.05,1.12,0.24,1.62,1.41,1.43c0.39-0.07,0.81-0.01,1.39-0.01
	c0-1.06,0-2.02,0-2.98c0-1.05,0.01-2.1-0.01-3.15c-0.02-1.18-0.27-2.33,1.46-2.71c0.73-0.16,1.29-1.08,1.99-1.7
	c0.67,0.71,1.33,1.41,1.99,2.12c1.36,1.47,2.79,1.46,4.18-0.02c0.64-0.68,1.27-1.37,1.85-1.99c1.13,0.81,2.23,1.6,3.54,2.54
	c0,2.03,0.04,4.39-0.02,6.75c-0.03,0.99,0.38,1.24,1.26,1.17c0.78-0.07,1.69,0.28,1.63-1.13c-0.09-2.12-0.02-4.25-0.02-6.45
	c3.33,0.26,6.23,1.01,7.81,4.35c0.1-0.08,0.19-0.17,0.29-0.25c0.03-0.3,0.09-0.61,0.09-0.91c0.01-3.15,0.05-6.3-0.02-9.44
	c-0.01-0.56-0.32-1.22-0.7-1.65c-1.26-1.39-2.59-2.71-3.94-4.01c-0.51-0.49-0.52-0.88-0.18-1.45c1.1-1.83,2.13-3.7,3.25-5.51
	c0.25-0.41,0.79-0.63,1.2-0.94c0.1,0.08,0.21,0.17,0.31,0.25c0,1.93,0,3.87,0,5.96c1.9,0,3.68,0.03,5.46-0.04
	c0.19-0.01,0.5-0.59,0.51-0.91c0.05-1.64,0.02-3.29,0.02-5.36c0.64,0.4,1.2,0.55,1.42,0.91c1.29,2.11,2.49,4.26,3.85,6.61
	c-1.59,1.53-3.25,3.04-4.79,4.66c-0.43,0.45-0.76,1.22-0.77,1.84c-0.07,5.13-0.02,10.27-0.1,15.4c-0.02,1.21,0.26,2.18,1.13,3.02
	c0.48,0.46,0.86,1.02,1.39,1.67C37.99,55.86,22.85,55.86,7.57,55.86z"/>
<path class="st0" d="M14.78,21.66c0-0.38,0-0.71,0-1.01c0.1-0.07,0.15-0.15,0.21-0.15c1.93-0.2,1.94-0.19,2.12-2.25
	c0.24-2.69,0.8-5.32,2.68-7.35c2.86-3.07,6.51-3.2,10.28-2.24c3.23,0.82,4.8,3.29,5.63,6.28c0.4,1.43,0.58,2.93,0.72,4.42
	c0.08,0.88,0.37,1.16,1.23,1.12c0.32-0.02,0.89,0.28,0.95,0.53c0.16,0.67-0.38,0.75-0.92,0.75c-7.49-0.01-14.97-0.01-22.46-0.01
	C15.13,21.75,15.02,21.71,14.78,21.66z"/>
<rect x="19.2" y="23.02" class="st1" width="15.01" height="15.02"/>
</svg>
