<?xml version="1.0" encoding="utf-8"?>
<!-- Generator: Adobe Illustrator 25.4.1, SVG Export Plug-In . SVG Version: 6.00 Build 0)  -->
<svg version="1.1" id="Layer_1" xmlns="http://www.w3.org/2000/svg" xmlns:xlink="http://www.w3.org/1999/xlink" x="0px" y="0px"
	 viewBox="0 0 60 60" style="enable-background:new 0 0 60 60;" xml:space="preserve">
<style type="text/css">
	.st0{fill:#F48165;}
	.st1{fill:#231F20;}
</style>
<rect x="21.15" y="7.01" class="st0" width="15.01" height="15.02"/>
<path class="st1" d="M4.7,31.24c1.17,1.02,2.66,2.44,4.26,3.69c2.62,2.05,4.65,1.2,5.21-2.1c0.15-0.87,0.27-1.75,0.47-3.06
	c0.77,0.67,1.23,1.07,1.69,1.47c2.26,1.93,4.61,1.89,6.79-0.13c2.71-2.5,3.54-5.93,4.6-9.36h3.35c0.63,1.64,1.25,3.38,1.96,5.08
	c0.44,1.05,0.92,2.11,1.56,3.03c2.23,3.22,4.91,3.56,7.98,1.14c0.47-0.37,1.07-0.59,1.61-0.88c0.12,0.56,0.31,1.11,0.35,1.68
	c0.1,1.5-0.06,3.2,1.56,3.95c1.62,0.74,2.89-0.42,4.01-1.4c1.47-1.28,2.83-2.69,4.59-3.84c-1.36,3.97-2.73,7.94-4.16,12.12
	C36.46,40.78,22.06,40.89,8,42.69C6.79,38.5,5.66,34.55,4.7,31.24z"/>
<path class="st1" d="M7.57,49.84c0-1.83,0-3.86,0-6c14.5-1.91,28.92-2.03,43.4-0.04c0,2.23,0,4.31,0,6.04
	c-7.26-0.46-14.44-1.27-21.63-1.27C22.15,48.57,14.96,49.38,7.57,49.84z"/>
<circle class="st1" cx="3.44" cy="28.52" r="2.57"/>
<circle class="st1" cx="13.82" cy="26.69" r="2.57"/>
<circle class="st1" cx="45.35" cy="27.36" r="2.57"/>
<circle class="st1" cx="56.56" cy="28.52" r="2.57"/>
</svg>
