<?xml version="1.0" encoding="utf-8"?>
<!-- Generator: Adobe Illustrator 25.4.1, SVG Export Plug-In . SVG Version: 6.00 Build 0)  -->
<svg version="1.1" id="Layer_1" xmlns="http://www.w3.org/2000/svg" xmlns:xlink="http://www.w3.org/1999/xlink" x="0px" y="0px"
	 viewBox="0 0 60 60" style="enable-background:new 0 0 60 60;" xml:space="preserve">
<style type="text/css">
	.st0{fill:#F48165;}
	.st1{fill:#231F20;}
</style>
<rect x="24.5" y="1.45" class="st0" width="13.74" height="13.75"/>
<path class="st1" d="M20.89,32.53c-2.34,4.66-6.41,6.89-11.25,7.9c-1.41,0.29-2.92,0.18-4.38,0.12c-1.92-0.07-1.93-1.92-2.82-3.09
	c1.81-0.47,3.51-0.91,5.2-1.36c3.55-0.93,5.93-3.08,7.1-6.6c0.84-2.54,1.86-5.02,2.73-7.55c1.12-3.26,3.39-4.72,6.8-4.68
	c4.2,0.05,8.4,0.05,12.6,0c3.34-0.04,5.59,1.4,6.71,4.58c0.87,2.48,1.9,4.9,2.68,7.4c1.19,3.79,3.72,6.02,7.52,6.93
	c1.57,0.38,3.12,0.81,4.68,1.22c-0.98,2.93-1.35,3.3-4.38,3.21c-5.83-0.19-10.57-2.41-13.6-7.64c-0.07-0.13-0.17-0.25-0.27-0.36
	c-0.03-0.03-0.1-0.02-0.38-0.07c-0.28,2.7-0.66,5.39-0.79,8.09c-0.06,1.36-0.51,2.1-1.76,2.61c-4.59,1.88-9.12,1.88-13.69-0.11
	c-1.08-0.47-1.49-1.08-1.56-2.26c-0.16-2.77-0.5-5.52-0.77-8.28C21.14,32.58,21.01,32.55,20.89,32.53z"/>
<path class="st1" d="M43.26,53.45c2.39,0.71,4.39,1.31,6.6,1.97c-0.62,1-1.06,1.84-1.64,2.57c-0.22,0.28-0.77,0.5-1.13,0.45
	c-5.11-0.62-10.21-1.39-15.33-1.87c-1.92-0.18-3.9,0.28-5.85,0.5c-3.91,0.44-7.82,0.94-11.74,1.34c-0.47,0.05-1.12-0.28-1.46-0.65
	c-0.54-0.58-0.88-1.34-1.47-2.29c2.15-0.66,4.17-1.29,6.44-1.99c-0.61-0.27-1.05-0.45-1.48-0.65c-1.96-0.92-4.01-1.7-5.85-2.82
	c-2.81-1.72-3.6-3.96-2.59-6.38c0.87-2.08,3.74-3.48,6.44-2.8c1.73,0.44,3.36,1.31,4.99,2.09c2.27,1.09,4.46,2.36,6.77,3.38
	c3.06,1.35,6.22,1.33,9.27-0.04c2.39-1.07,4.71-2.32,7.01-3.58c2.43-1.33,4.85-2.52,7.76-1.71c1.73,0.48,3.08,1.4,3.51,3.2
	c0.43,1.82,0.22,3.7-1.44,4.78c-2.18,1.42-4.55,2.55-6.86,3.78C44.72,52.98,44.18,53.11,43.26,53.45z"/>
</svg>
