<?xml version="1.0" encoding="utf-8"?>
<!-- Generator: Adobe Illustrator 25.4.1, SVG Export Plug-In . SVG Version: 6.00 Build 0)  -->
<svg version="1.1" id="Layer_1" xmlns="http://www.w3.org/2000/svg" xmlns:xlink="http://www.w3.org/1999/xlink" x="0px" y="0px"
	 viewBox="0 0 64 64" style="enable-background:new 0 0 64 64;" xml:space="preserve">
<style type="text/css">
	.st0{fill:#231F20;}
	.st1{fill:#F48165;}
	.st2{fill:#FFFFFF;}
</style>
<rect x="8.97" y="18.23" class="st0" width="45.6" height="22.67"/>
<rect x="24.26" y="22.3" class="st1" width="15.02" height="15.02"/>
<g>
	<path class="st2" d="M55.48,24.69c-3.97,0-7.2-3.23-7.2-7.2h1c0,3.42,2.78,6.2,6.2,6.2V24.69z"/>
</g>
<g>
	<path class="st2" d="M8.97,24.69v-1c3.42,0,6.2-2.78,6.2-6.2h1C16.17,21.46,12.94,24.69,8.97,24.69z"/>
</g>
<g>
	<path class="st2" d="M15.66,41.32h-1c0-3.42-2.78-6.2-6.2-6.2v-1C12.43,34.11,15.66,37.34,15.66,41.32z"/>
</g>
<g>
	<path class="st2" d="M49.22,41.78l-1-0.02c0.03-1.92,0.81-3.72,2.2-5.06c1.38-1.34,3.2-2.07,5.13-2.02l-0.02,1
		c-0.04,0-0.07,0-0.11,0C52.05,35.68,49.27,38.39,49.22,41.78z"/>
</g>
</svg>
