<?xml version="1.0" encoding="utf-8"?>
<!-- Generator: Adobe Illustrator 25.4.1, SVG Export Plug-In . SVG Version: 6.00 Build 0)  -->
<svg version="1.1" id="Layer_1" xmlns="http://www.w3.org/2000/svg" xmlns:xlink="http://www.w3.org/1999/xlink" x="0px" y="0px"
	 viewBox="0 0 60 60" style="enable-background:new 0 0 60 60;" xml:space="preserve">
<style type="text/css">
	.st0{fill:#231F20;}
	.st1{fill:#F48165;}
</style>
<g>
	<path class="st0" d="M11.16,26.64c7.01-0.01,14.03-0.02,21.04-0.02c5.84,0,11.69,0.01,17.53,0.02c0,7.03,0,14.06,0,21.09
		c-2.63,0-5.26,0-7.89,0c0.01-3.88,0.01-7.76,0.04-11.64c0-0.51-0.28-0.6-0.66-0.71c-3.42-1.06-6.83-2.14-10.25-3.2
		c-0.28-0.09-0.63-0.12-0.9-0.04c-3.53,1.08-7.06,2.17-10.57,3.3c-0.21,0.07-0.47,0.43-0.47,0.65c-0.02,3.88,0,7.76,0.01,11.64
		c-2.63,0-5.26,0-7.89,0C11.16,40.7,11.16,33.67,11.16,26.64z"/>
	<path class="st0" d="M31.74,9.15c0,1.17,0,2.33,0,3.54c3.19,0.7,5.43,2.47,6.59,5.65c-5.29,0-10.46,0-15.64,0
		c0.39-2.47,2.84-4.62,6.48-5.66c0-1.16,0-2.35,0-3.54C30.02,9.15,30.88,9.15,31.74,9.15z"/>
	<path class="st0" d="M41.47,21.03c0,1.02,0,1.99,0,2.99c-7.34,0-14.64,0-22.01,0c0-0.96,0-1.94,0-2.99
		C26.76,21.03,34.08,21.03,41.47,21.03z"/>
	<rect x="14.04" y="29.1" class="st0" width="32.33" height="18.62"/>
</g>
<rect x="22.94" y="35.76" class="st1" width="15.02" height="15.02"/>
</svg>
