<?xml version="1.0" encoding="utf-8"?>
<!-- Generator: Adobe Illustrator 25.4.1, SVG Export Plug-In . SVG Version: 6.00 Build 0)  -->
<svg version="1.1" id="Layer_1" xmlns="http://www.w3.org/2000/svg" xmlns:xlink="http://www.w3.org/1999/xlink" x="0px" y="0px"
	 viewBox="0 0 60 60" style="enable-background:new 0 0 60 60;" xml:space="preserve">
<style type="text/css">
	.st0{fill:#231F20;}
	.st1{fill:#F48165;}
</style>
<path class="st0" d="M5.49,19.98c0-1.25,0-2.31,0-3.46c7.88,0,15.75,0,23.7,0c0,3.49,0,6.99,0,10.57c-2.69,0.78-4.31,2.51-4.28,5.44
	c0.03,2.37,1.53,4.04,4.3,4.98c0,3.49,0,7,0,10.58c-7.9,0-15.77,0-23.69,0c0-1.13,0-2.22,0-3.49c4.61,0.43,8.67-0.65,11.58-4.53
	c1.83-2.43,2.67-5.21,2.55-8.23c-0.14-3.65-1.54-6.74-4.29-9.19C12.55,20.14,9.15,19.75,5.49,19.98z"/>
<path class="st0" d="M54.77,44.59c0,1.28,0,2.37,0,3.51c-7.9,0-15.74,0-23.66,0c0-3.51,0-7.01,0-10.59c2.65-0.79,4.31-2.5,4.28-5.43
	c-0.03-2.39-1.59-4.13-4.31-4.99c0-3.49,0-7.01,0-10.59c7.89,0,15.76,0,23.68,0c0,1.11,0,2.2,0,3.49
	c-4.76-0.43-8.93,0.74-11.83,4.87c-1.66,2.36-2.41,5.02-2.3,7.87c0.14,3.64,1.52,6.76,4.28,9.2C47.73,44.43,51.12,44.86,54.77,44.59
	z"/>
<path class="st0" d="M54.79,21.81c0,1.16,0,2.25,0,3.41c-3.79,0.78-7.57,1.56-11.32,2.33C44.86,23.91,48.45,20.95,54.79,21.81z"/>
<path class="st0" d="M16.89,27.57c-3.83-0.79-7.57-1.57-11.36-2.35c0-1.15,0-2.26,0-3.37C10.71,20.95,15.21,23.23,16.89,27.57z"/>
<path class="st0" d="M5.54,39.36c3.76-0.78,7.53-1.56,11.27-2.33c-1.22,3.35-4.69,6.63-11.27,5.76C5.54,41.68,5.54,40.56,5.54,39.36
	z"/>
<path class="st0" d="M43.4,37.01c3.85,0.8,7.62,1.57,11.39,2.35c0,1.18,0,2.27,0,3.36C49.56,43.55,45.46,41.7,43.4,37.01z"/>
<path class="st0" d="M26.63,32.26c0-2.03,1.5-3.5,3.55-3.49c2.03,0.01,3.5,1.5,3.5,3.55c0,2.01-1.53,3.51-3.56,3.49
	C28.09,35.8,26.62,34.31,26.63,32.26z"/>
<path class="st0" d="M13.36,35.59c-1.71-0.38-2.66-1.7-2.6-3.49c0.05-1.59,1.11-2.85,2.6-3.06C13.36,31.2,13.36,33.35,13.36,35.59z"
	/>
<path class="st0" d="M15.23,29.03c1.5,0.24,2.54,1.5,2.57,3.07c0.04,1.82-0.91,3.12-2.57,3.46C15.23,33.38,15.23,31.21,15.23,29.03z
	"/>
<path class="st0" d="M46.94,35.58c0-2.23,0-4.39,0-6.55c1.44,0.19,2.53,1.45,2.6,2.95C49.62,33.85,48.69,35.18,46.94,35.58z"/>
<path class="st0" d="M45.09,28.99c0,2.23,0,4.39,0,6.55c-1.41-0.17-2.53-1.45-2.61-2.93C42.4,30.76,43.34,29.41,45.09,28.99z"/>
<rect x="24.49" y="26.63" class="st1" width="11.27" height="11.27"/>
</svg>
