<?xml version="1.0" encoding="utf-8"?>
<!-- Generator: Adobe Illustrator 25.4.1, SVG Export Plug-In . SVG Version: 6.00 Build 0)  -->
<svg version="1.1" id="Layer_1" xmlns="http://www.w3.org/2000/svg" xmlns:xlink="http://www.w3.org/1999/xlink" x="0px" y="0px"
	 viewBox="0 0 60 60" style="enable-background:new 0 0 60 60;" xml:space="preserve">
<style type="text/css">
	.st0{fill:#231F20;}
	.st1{fill:#F48165;}
</style>
<path class="st0" d="M3.45,16.11c1.38-1.39,2.76-2.79,4.13-4.18c0.41-0.42,0.86-0.6,1.31-0.12c0.43,0.46,0.28,0.93-0.15,1.32
	c-0.09,0.09-0.18,0.18-0.27,0.27c-1.41,1.41-2.83,2.83-4.25,4.24c-0.22,0.22-0.51,0.38-0.84,0.62c0.45,0.47,0.74,0.79,1.04,1.1
	c8.05,8.12,16.13,16.21,24.11,24.38c1.24,1.27,2.63,1.27,4.16,1.43c0-0.51,0-0.94,0-1.48c-0.74,0-1.45,0-2.21,0
	c0-1.34,0-2.57,0-3.94c1.53-0.05,3.07-0.11,4.61-0.14c0.49-0.01,0.93,0.03,1.11-0.61c0.05-0.19,0.46-0.39,0.71-0.4
	c1.14-0.04,2.29,0.01,3.43-0.03c0.54-0.02,0.86,0.16,0.92,0.68c0.08,0.7,0.55,0.85,1.14,1.02c1.21,0.36,2.42,0.74,3.54,1.29
	c0.75,0.37,1.39,1.02,1.22,2.11c-0.78,0-1.53,0-2.36,0c0,0.71,0,1.35,0,2.08c0.75,0.05,1.5,0.1,2.37,0.15
	c0.02,0.46,0.05,0.91,0.08,1.45c1.47,0.23,2.92,0.45,4.42,0.68c-3.41,3.29-3.77,4.64-2.22,8.46c-6.38,0-12.73,0-19.2,0
	c1.35-2.19,1.62-4.44,0.53-6.74c-0.75-1.58-2-2.69-3.65-3.3c-3.55-1.31-7.14,0.5-8.62,4.45c-1.36-0.23-2.75-0.46-4.14-0.71
	c-1.59-0.29-3.18-0.57-4.75-0.93c-0.31-0.07-0.74-0.41-0.8-0.69c-0.63-2.94-1.19-5.89-1.79-8.91c4.99,0,9.93,0,15.05,0
	c-0.27-0.31-0.44-0.54-0.64-0.74c-6.31-6.36-12.6-12.72-18.94-19.05c-0.68-0.68-1.03-1.36-0.97-2.33c0.07-1.2,0.02-2.41,0.02-3.62
	c0-0.58,0.12-1.12,0.87-1.09c0.68,0.02,0.79,0.51,0.79,1.07c-0.01,0.69,0,1.38,0,2.08C3.3,16.02,3.38,16.07,3.45,16.11z"/>
<path class="st0" d="M24.86,47.16c3.12-0.01,5.58,2.42,5.59,5.5c0.01,3.07-2.48,5.56-5.55,5.56c-3.1,0-5.52-2.45-5.51-5.57
	C19.39,49.57,21.79,47.17,24.86,47.16z M24.92,49.09c-1.95-0.01-3.58,1.6-3.6,3.55c-0.02,1.95,1.57,3.59,3.52,3.64
	c1.94,0.05,3.67-1.66,3.66-3.61C28.49,50.73,26.86,49.1,24.92,49.09z"/>
<path class="st0" d="M54.8,58.44c-2.75-0.01-4.92-2.22-4.91-4.99c0.01-2.73,2.27-4.95,5-4.93c2.74,0.03,4.93,2.26,4.92,5.01
	C59.79,56.26,57.56,58.45,54.8,58.44z M54.89,56.7c1.74-0.02,3.22-1.54,3.18-3.26c-0.04-1.75-1.55-3.21-3.28-3.18
	c-1.75,0.04-3.2,1.54-3.17,3.27C51.65,55.29,53.13,56.73,54.89,56.7z"/>
<circle class="st0" cx="24.91" cy="52.61" r="1.56"/>
<rect x="34.11" y="45.65" class="st1" width="10.79" height="10.79"/>
</svg>
