<?xml version="1.0" encoding="utf-8"?>
<!-- Generator: Adobe Illustrator 25.4.1, SVG Export Plug-In . SVG Version: 6.00 Build 0)  -->
<svg version="1.1" id="Layer_1" xmlns="http://www.w3.org/2000/svg" xmlns:xlink="http://www.w3.org/1999/xlink" x="0px" y="0px"
	 viewBox="0 0 60 60" style="enable-background:new 0 0 60 60;" xml:space="preserve">
<style type="text/css">
	.st0{fill:#231F20;}
	.st1{fill:#F48165;}
</style>
<path class="st0" d="M31.48,19.63c0.3,0.48,0.55,0.88,0.8,1.28c0.58,0.89,1.17,1.77,1.74,2.67c0.06,0.09,0.11,0.27,0.07,0.31
	C34.02,23.96,33.87,24,33.75,24c-1.21,0.01-2.42,0.01-3.63,0c-0.34-0.01-0.44,0.08-0.42,0.44c0.04,0.81,0.03,1.61,0,2.42
	c-0.01,0.29,0.1,0.33,0.34,0.33c0.74-0.01,1.48-0.02,2.22-0.03c1.73-0.03,3.46,0.04,5.17,0.29c0.67,0.1,1.33,0.22,1.99,0.35
	c0.34,0.06,0.53-0.01,0.47-0.4c-0.03-0.19-0.01-0.39,0-0.59c0-0.54,0-0.54-0.55-0.54c-0.78,0-1.56,0-2.34,0
	c-0.16,0-0.32-0.05-0.48-0.08c0.06-0.17,0.1-0.37,0.2-0.52c0.51-0.81,1.04-1.61,1.56-2.42c0.04-0.06,0.07-0.13,0.14-0.26
	c-0.42,0-0.78,0.01-1.14,0c-0.39-0.01-0.45-0.12-0.23-0.44c0.59-0.86,1.19-1.7,1.78-2.55c0.04-0.06,0.07-0.13,0.16-0.29
	c-0.28,0-0.5,0-0.73,0c-0.49-0.01-0.57-0.13-0.35-0.56c0.28-0.54,0.57-1.07,0.87-1.61c0.59-1.07,1.17-2.13,1.76-3.2
	c0.06-0.11,0.19-0.19,0.28-0.29c0.09,0.1,0.19,0.18,0.25,0.29c0.57,1.01,1.13,2.03,1.69,3.05c0.33,0.6,0.66,1.2,0.97,1.81
	c0.14,0.27,0.06,0.41-0.26,0.43c-0.27,0.02-0.54,0-0.93,0c0.25,0.35,0.44,0.63,0.63,0.91c0.45,0.64,0.9,1.27,1.33,1.91
	c0.08,0.12,0.1,0.29,0.14,0.43c-0.14,0.03-0.29,0.09-0.43,0.09c-0.32,0.01-0.65,0-1.07,0c0.33,0.5,0.61,0.94,0.9,1.37
	c0.3,0.47,0.62,0.93,0.91,1.4c0.24,0.39,0.17,0.5-0.28,0.51c-0.87,0-1.74,0.01-2.62,0c-0.28,0-0.38,0.07-0.35,0.38
	c0.04,0.45,0.01,0.91,0,1.36c-0.01,0.22,0.03,0.35,0.28,0.43c2.15,0.68,4.18,1.63,6.02,2.95c1.68,1.2,3.22,2.54,4.41,4.24
	c0.85,1.21,1.42,2.52,1.58,4.03c0.23,2.01-0.47,3.68-1.69,5.18c-1.22,1.5-2.76,2.62-4.53,3.4c-1.32,0.58-2.67,1.12-4.04,1.58
	c-0.93,0.31-1.91,0.47-2.87,0.69c-0.85,0.19-1.69,0.4-2.55,0.55c-1.03,0.18-2.07,0.32-3.11,0.46c-0.9,0.12-1.8,0.22-2.7,0.33
	c-0.26,0.03-0.51,0.07-0.77,0.08c-1.78,0.07-3.55,0.17-5.33,0.2c-0.91,0.02-1.81-0.09-2.72-0.13c-0.89-0.04-1.79-0.06-2.68-0.13
	c-0.82-0.07-1.64-0.19-2.47-0.29c-0.63-0.08-1.26-0.15-1.89-0.25c-0.78-0.12-1.55-0.26-2.33-0.4c-0.74-0.13-1.48-0.24-2.2-0.44
	c-1.44-0.4-2.87-0.85-3.86-2.08c-0.75-0.93-0.74-1.97-0.04-2.94c0.65-0.91,1.52-1.5,2.56-1.87c0.22-0.08,0.46-0.11,0.65-0.24
	c0.15-0.1,0.32-0.3,0.33-0.45c0.03-0.82,0.01-1.64,0.01-2.46c0-0.26-0.1-0.38-0.4-0.37c-1.46,0.03-2.92,0.03-4.37,0.02
	c-0.33,0-0.4-0.16-0.21-0.46c0.83-1.29,1.67-2.57,2.5-3.85c0.13-0.2,0.24-0.4,0.42-0.68c-0.39,0-0.72,0-1.05,0
	c-0.34,0-0.68,0.01-1.02-0.01c-0.11,0-0.21-0.06-0.32-0.09c0.03-0.1,0.04-0.22,0.1-0.31c0.74-1.07,1.49-2.13,2.23-3.19
	c0.3-0.42,0.59-0.85,0.92-1.33c-0.57,0-1.08,0-1.59,0c-0.46,0-0.51-0.09-0.29-0.5c1.22-2.24,2.45-4.47,3.67-6.71
	c0.17-0.32,0.32-0.65,0.49-0.97c0.05-0.09,0.16-0.2,0.25-0.21c0.07-0.01,0.19,0.1,0.24,0.19c0.97,1.77,1.93,3.54,2.89,5.31
	c0.33,0.6,0.66,1.2,1.01,1.8c0.04,0.07,0.18,0.12,0.26,0.11c1.44-0.32,2.87-0.67,4.31-0.98c1-0.21,2.01-0.38,3.02-0.55
	c0.75-0.12,1.51-0.2,2.32-0.3c0.01-0.13,0.02-0.26,0.02-0.4c0-0.86-0.01-1.72,0.01-2.58c0.01-0.29-0.09-0.38-0.38-0.38
	c-1.25,0.01-2.5,0.01-3.75,0c-0.12,0-0.24-0.06-0.35-0.09c0.04-0.11,0.07-0.24,0.14-0.34c0.79-1.23,1.59-2.46,2.39-3.69
	c0.03-0.04,0.05-0.08,0.1-0.19c-0.58,0-1.11,0.01-1.64-0.01c-0.14,0-0.27-0.09-0.41-0.14c0.05-0.13,0.07-0.27,0.14-0.38
	c0.83-1.19,1.67-2.38,2.51-3.57c0.07-0.1,0.12-0.22,0.18-0.35c-0.6-0.05-1.17,0.11-1.78-0.13c0.28-0.52,0.54-1,0.8-1.49
	c1.02-1.86,2.03-3.72,3.05-5.58c0.05-0.09,0.18-0.23,0.21-0.22c0.11,0.05,0.22,0.14,0.28,0.25c0.56,1.02,1.11,2.05,1.67,3.07
	c0.66,1.21,1.33,2.42,2,3.64c0.16,0.3,0.07,0.47-0.28,0.47c-0.35,0-0.7-0.02-1.05-0.03c-0.08,0-0.17,0.03-0.33,0.05
	c0.37,0.52,0.7,1,1.03,1.47c0.55,0.78,1.11,1.57,1.65,2.36c0.08,0.12,0.09,0.28,0.13,0.42c-0.13,0.04-0.27,0.1-0.4,0.11
	C32.6,19.64,32.09,19.63,31.48,19.63z M19.7,39.95c-0.24,0.03-0.4,0.06-0.55,0.07c-1.42,0-2.84,0.01-4.26-0.01
	c-0.28,0-0.38,0.07-0.37,0.38c0.03,0.7,0.01,1.41,0.01,2.11c0,0.56,0,0.56,0.58,0.5c0.14-0.01,0.29,0,0.43-0.01
	c1.06-0.1,2.12-0.16,3.17-0.31c0.96-0.13,1.93-0.28,2.85-0.55c0.85-0.25,1.68-0.6,2.46-1.02c0.61-0.33,1.04-0.9,0.91-1.67
	c-0.12-0.74-0.48-1.36-1.07-1.84c-0.98-0.8-2.18-1.13-3.35-1.46c-1.27-0.36-2.57-0.62-3.88-0.93C17.63,36.74,18.63,38.29,19.7,39.95
	z"/>
<rect x="26.86" y="34.37" class="st1" width="9.48" height="9.48"/>
</svg>
