<?xml version="1.0" encoding="utf-8"?>
<!-- Generator: Adobe Illustrator 25.4.1, SVG Export Plug-In . SVG Version: 6.00 Build 0)  -->
<svg version="1.1" id="Layer_1" xmlns="http://www.w3.org/2000/svg" xmlns:xlink="http://www.w3.org/1999/xlink" x="0px" y="0px"
	 viewBox="0 0 64 64" style="enable-background:new 0 0 64 64;" xml:space="preserve">
<style type="text/css">
	.st0{fill:#231F20;}
	.st1{fill:#F48165;}
</style>
<g>
	
		<rect x="25.61" y="43.23" transform="matrix(-1 -1.224647e-16 1.224647e-16 -1 86.29 90.5915)" class="st0" width="35.07" height="4.13"/>
	
		<rect x="-1.74" y="34.63" transform="matrix(6.123234e-17 -1 1 6.123234e-17 -22.0777 51.3092)" class="st0" width="32.72" height="4.13"/>
	
		<rect x="28.33" y="46.64" transform="matrix(6.123234e-17 -1 1 6.123234e-17 -16.0364 81.3833)" class="st0" width="8.69" height="4.13"/>
	
		<rect x="50.44" y="46.64" transform="matrix(6.123234e-17 -1 1 6.123234e-17 6.0762 103.4958)" class="st0" width="8.69" height="4.13"/>
	
		<rect x="29.14" y="24.08" transform="matrix(-1 -1.224647e-16 1.224647e-16 -1 87.0112 63.1762)" class="st0" width="28.73" height="15.02"/>
	<rect x="43.14" y="24.08" class="st1" width="15.02" height="15.02"/>
	<g>
		<ellipse class="st0" cx="14.62" cy="28.37" rx="9.44" ry="11.98"/>
		<ellipse class="st0" cx="14.62" cy="14.93" rx="7.6" ry="8.91"/>
	</g>
</g>
</svg>
