<?xml version="1.0" encoding="utf-8"?>
<!-- Generator: Adobe Illustrator 25.4.1, SVG Export Plug-In . SVG Version: 6.00 Build 0)  -->
<svg version="1.1" id="Layer_1" xmlns="http://www.w3.org/2000/svg" xmlns:xlink="http://www.w3.org/1999/xlink" x="0px" y="0px"
	 viewBox="0 0 60 60" style="enable-background:new 0 0 60 60;" xml:space="preserve">
<style type="text/css">
	.st0{fill:#231F20;}
	.st1{fill:#F48165;}
</style>
<path class="st0" d="M27.02,27.84c3.06,0.09,4.87,1.32,5.6,3.76c0.62,2.1-0.23,4.42-2.07,5.69c-1.65,1.13-4.36,1.42-6.61-0.63
	c-1.02,0.75-2.04,1.5-3.07,2.25c-0.39,0.29-0.77,0.59-1.17,0.85c-0.31,0.2-0.41,0.44-0.38,0.81c0.31,3.23,0.61,6.46,0.87,9.69
	c0.08,1.06,0.02,2.14,0.03,3.21c0,0.17,0,0.34,0,0.55c6.47,0,12.9,0,19.37,0c0-1.24,0-2.49,0-3.78c-0.41,0-0.8,0-1.23,0
	c0-0.96,0-1.88,0-2.88c0.25,0,0.46,0,0.68,0c5.28,0,10.57,0.01,15.85-0.01c0.5,0,0.71,0.11,0.67,0.65
	c-0.05,0.72-0.01,1.44-0.01,2.21c-0.44,0-0.83,0-1.27,0c0,1.29,0,2.54,0,3.83c1.39,0,2.76,0,4.16,0c0,0.61,0,1.17,0,1.75
	c-18.56,0-37.11,0-55.69,0c0-0.56,0-1.12,0-1.73c4.29,0,8.58,0,12.93,0c0-0.66-0.03-1.26,0.01-1.85c0.14-2.29,0.27-4.58,0.46-6.87
	c0.07-0.84,0.02-1.52-0.59-2.22c-1.54-1.77-2.97-3.64-4.44-5.46c-0.1-0.12-0.2-0.23-0.34-0.38c-1.19,0.84-2.52,1.09-3.93,0.88
	c-1.09-0.16-2.02-0.67-2.8-1.45c-1.6-1.61-2.01-3.99-1.03-6.02c0.83-1.71,2.79-3.36,5.88-2.88c-1.17-2.37-1.47-4.81-0.8-7.33
	c0.67-2.54,2.15-4.53,4.35-5.96c3.58-2.32,8.4-2.07,11.73,0.53C27.37,17.53,29.56,22.52,27.02,27.84z M42.02,54.05
	c3.31,0,6.57,0,9.85,0c0-1.27,0-2.52,0-3.76c-3.31,0-6.58,0-9.85,0C42.02,51.56,42.02,52.78,42.02,54.05z M17.22,33.43
	c-1.46-0.44-2.84-0.85-4.23-1.27c0.25,1.82-0.29,3.42-1.67,4.74c1.71,1.64,3.4,3.24,5.16,4.93C16.73,38.9,16.98,36.11,17.22,33.43z
	 M22.51,32.35c-1.25,0.34-2.5,0.68-3.81,1.04c0.14,1.52,0.28,3.11,0.44,4.8c1.46-0.75,2.84-1.47,4.27-2.2
	C22.66,34.84,22.34,33.61,22.51,32.35z"/>
<rect x="40.55" y="33.98" class="st1" width="12.79" height="12.79"/>
</svg>
