<?xml version="1.0" encoding="utf-8"?>
<!-- Generator: Adobe Illustrator 25.4.1, SVG Export Plug-In . SVG Version: 6.00 Build 0)  -->
<svg version="1.1" id="Layer_1" xmlns="http://www.w3.org/2000/svg" xmlns:xlink="http://www.w3.org/1999/xlink" x="0px" y="0px"
	 viewBox="0 0 60 60" style="enable-background:new 0 0 60 60;" xml:space="preserve">
<style type="text/css">
	.st0{fill:#231F20;}
	.st1{fill:#F48165;}
</style>
<g>
	<path class="st0" d="M50.39,10.69c-0.43,0.85-0.87,1.69-1.69,2.26c-1.49,1.04-3.39,1.1-4.92,0.11c-1.48-0.96-2.25-2.8-1.89-4.5
		c0.38-1.8,1.78-3.13,3.6-3.42c1.94-0.31,3.85,0.72,4.65,2.52c0.08,0.17,0.17,0.33,0.25,0.5C50.39,9,50.39,9.84,50.39,10.69z
		 M46.2,12.91c1.92-0.01,3.49-1.58,3.48-3.48c-0.01-1.94-1.6-3.52-3.52-3.5c-1.99,0.02-3.5,1.56-3.49,3.58
		C42.68,11.39,44.26,12.92,46.2,12.91z"/>
	<path class="st0" d="M14.35,18.33c-0.58,1.32-0.7,2.57-0.39,3.86c0.03,0.12-0.15,0.36-0.29,0.44c-0.77,0.45-1.57,0.87-2.43,1.35
		c1.52,0.9,2.96,1.77,4.41,2.62c0.1,0.06,0.25,0.05,0.37,0.03c0.19-0.03,0.38-0.08,0.55-0.16c1.06-0.49,2.21-0.33,3.32-0.44
		c0.94-0.1,1.76-0.49,2.52-1.05c0.14-0.1,0.29-0.23,0.44-0.25c0.99-0.13,1.62-0.76,2.21-1.49c0.46-0.58,0.97-1.12,1.52-1.75
		c-0.63-0.16-1.19-0.28-1.73-0.44c-0.14-0.04-0.33-0.16-0.36-0.28c-0.14-0.63-0.16-1.3-0.37-1.9c-0.21-0.6-0.59-1.14-0.92-1.77
		c0.94,0.22,1.85,0.42,2.75,0.64c1.38,0.33,2.75,0.66,4.13,1c1.5,0.37,1.99,1.78,0.98,2.96c-1.31,1.53-2.67,3.02-4,4.54
		c-0.15,0.17-0.32,0.42-0.32,0.63c-0.07,3.21,0.67,6.19,2.47,8.88c0.25,0.37,0.47,0.52,0.97,0.42c2.21-0.47,4.43-0.89,6.65-1.3
		c1.39-0.25,2.42,0.31,3.04,1.6c0.89,1.87,1.77,3.74,2.65,5.61c0.51,1.07,1,2.15,1.52,3.22c0.14,0.29,0.16,0.5-0.12,0.69
		c-0.06,0.04-0.13,0.1-0.16,0.17c-0.35,0.91-1.11,0.87-1.89,0.84c-0.84-0.03-1.69,0.01-2.53-0.02c-0.19-0.01-0.4-0.2-0.56-0.34
		c-0.09-0.08-0.11-0.24-0.18-0.36c-0.47-0.75-0.56-1.41-0.13-2.3c0.77-1.59-0.04-3.52-1.62-4.36c-1.59-0.85-3.56-0.39-4.59,1.12
		c-0.26,0.39-0.55,0.56-1,0.64c-1.96,0.35-3.91,0.77-5.87,1.12c-1.24,0.23-2.36-0.14-3.21-1.03c-1.93-2.01-3.93-3.97-5.36-6.38
		c-0.88-1.49-1.53-3.12-2.32-4.67c-0.16-0.32-0.41-0.65-0.7-0.83c-2.24-1.37-4.51-2.7-6.76-4.05c-1.49-0.89-1.45-2.46,0.07-3.3
		c2.2-1.21,4.4-2.41,6.61-3.62C13.9,18.54,14.07,18.46,14.35,18.33z"/>
	<path class="st0" d="M24.02,20.73c0.02,2.68-2.14,4.88-4.82,4.92c-2.69,0.03-4.92-2.16-4.94-4.86c-0.02-2.69,2.14-4.91,4.8-4.92
		C21.85,15.85,24,17.96,24.02,20.73z"/>
	<path class="st0" d="M32.27,42.79c-0.01-1.62,1.29-2.95,2.9-2.96c1.61-0.01,2.94,1.29,2.96,2.91c0.02,1.59-1.31,2.95-2.91,2.97
		C33.62,45.73,32.28,44.4,32.27,42.79z"/>
	<path class="st0" d="M49.37,48.53c0,1.59-1.33,2.94-2.92,2.94c-1.58,0-2.93-1.34-2.94-2.93c-0.02-1.61,1.33-2.95,2.96-2.94
		C48.09,45.6,49.37,46.9,49.37,48.53z"/>
	<path class="st0" d="M31.3,5.55c-1.03-0.43-2.04-0.93-3.15-0.28c0.06-0.62,0.45-1.02,1.07-1.02c0.47,0,0.96,0.09,1.4,0.24
		c0.34,0.11,0.5,0.04,0.73-0.2c0.31-0.33,0.67-0.64,1.07-0.85c0.51-0.27,1.03-0.19,1.52,0.31C32.66,3.82,31.93,4.6,31.3,5.55z"/>
	<path class="st0" d="M26.87,8.14c-1.04,0.05-1.76,0.57-2.29,1.34c-0.24,0.35-0.44,0.46-0.87,0.25c-0.84-0.42-1.74-0.6-2.64-0.07
		c0.14-0.66,0.5-1.03,1.11-1.03c0.43,0,0.88,0.08,1.29,0.21c0.37,0.12,0.6,0.14,0.87-0.22c0.23-0.31,0.58-0.56,0.92-0.77
		C25.8,7.52,26.29,7.62,26.87,8.14z"/>
	<path class="st0" d="M30.29,12.56c-1.05-0.52-2.05-0.9-3.16-0.29c0.31-1.13,1.15-1.31,2.91-0.66c0.56-0.56,1.04-1.31,1.97-1.31
		c0.31,0,0.62,0.2,0.93,0.39C31.67,10.78,30.98,11.63,30.29,12.56z"/>
</g>
<rect x="16.51" y="42.88" class="st1" width="15.01" height="15.02"/>
</svg>
