<?xml version="1.0" encoding="utf-8"?>
<!-- Generator: Adobe Illustrator 25.4.1, SVG Export Plug-In . SVG Version: 6.00 Build 0)  -->
<svg version="1.1" id="Layer_1" xmlns="http://www.w3.org/2000/svg" xmlns:xlink="http://www.w3.org/1999/xlink" x="0px" y="0px"
	 viewBox="0 0 60 60" style="enable-background:new 0 0 60 60;" xml:space="preserve">
<style type="text/css">
	.st0{fill:#231F20;}
	.st1{fill:#F48165;}
</style>
<path class="st0" d="M48.66,25.84c-1.99,0.62-3.78,1.19-5.58,1.75c4.18,0.48,7.05,2.48,8.23,6.63c-2.59-1.54-5.1-3.22-8.18-3.79
	c3.12,3.54,3.39,6.98,0.79,8.69c-0.34-1.46-0.58-2.98-1.05-4.42c-0.5-1.51-1.56-2.66-3-3.68c-3.98,7.92-4.89,16.43-5.44,25.06
	c-2.98,0-5.89,0-8.88,0c-0.01-12.84-0.8-25.5-6.02-37.57c-4.41,2.8-6.03,6.89-6.27,11.87c-1.43-0.94-2.1-2.27-2.37-3.75
	c-0.74-3.94,0.75-6.95,4.25-9.27c-4.79,0.62-8.67,2.87-12.7,5.27c0.73-3.13,2.47-5.28,4.9-6.91c2.44-1.64,5.16-2.25,8.1-2
	c0.02-0.09,0.04-0.18,0.07-0.27c-2.75-1.03-5.5-2.06-8.25-3.1C8.75,8,13.39,7.98,17.89,10.34c1.13-4.03,3.41-6.83,7.96-7.45
	c-1.43,2.82-2.79,5.49-4.15,8.17c0.06,0.05,0.12,0.1,0.17,0.15c2.02-2.12,4.39-3.57,7.3-4.04c2.94-0.47,5.67-0.06,8.4,1.71
	c-4.63,0.99-9.05,1.97-12.97,4.81c3.3-0.59,6.07,0.05,8.31,2.41c1.58,1.67,2.31,3.83,1.9,5.82c-3.53-3.38-7.48-5.44-12.57-4.43
	c2.47,4.79,4.38,9.75,5.85,14.89c1.47,5.11,2.46,10.33,3.18,15.6c1.41-6.23,3.5-12.16,6.72-17.76c-3.42-0.85-6.13,0.41-8.6,2.5
	c-0.92-2.94,2.82-5.86,6.74-5.31c-0.99-1.23-3.61-2.35-8.1-3.57c2.49-2.12,6.53-1.36,10.57,2.12c-0.46-1.11-0.83-2.02-1.22-2.91
	c-0.4-0.9-0.84-1.79-1.27-2.69c2.03-0.4,4.51,2.09,5.05,4.92c1.25-0.28,2.5-0.67,3.77-0.8C46.3,24.31,47.51,24.84,48.66,25.84z"/>
<rect x="25.37" y="46.28" class="st1" width="9.81" height="9.81"/>
</svg>
