<?xml version="1.0" encoding="utf-8"?>
<!-- Generator: Adobe Illustrator 25.4.1, SVG Export Plug-In . SVG Version: 6.00 Build 0)  -->
<svg version="1.1" id="Layer_1" xmlns="http://www.w3.org/2000/svg" xmlns:xlink="http://www.w3.org/1999/xlink" x="0px" y="0px"
	 viewBox="0 0 60 60" style="enable-background:new 0 0 60 60;" xml:space="preserve">
<style type="text/css">
	.st0{fill:#231F20;}
	.st1{fill:#F48165;}
</style>
<path class="st0" d="M45.55,23.01c1.53-1.12,3.03-2.23,4.55-3.35c0.28,0.39,0.56,0.78,0.84,1.17c0.49,0.68,0.98,1.37,1.48,2.04
	c0.04,0.06,0.14,0.1,0.22,0.1c1.27,0.01,2.55,0,3.82,0c0.06,0,0.12,0,0.19,0c0,1.5,0,2.98,0,4.47c0.06,0.01,0.11,0.01,0.16,0.01
	c0.34,0,0.68-0.01,1.03,0c0.14,0,0.18-0.04,0.18-0.18c-0.01-0.96,0-1.93,0-2.89c0-3.47,0-6.95,0-10.42c0-0.9,0-1.81,0-2.71
	c0-0.05,0-0.1,0-0.16c-0.45,0-0.89,0-1.34,0c0,3.47,0,6.96,0,10.45c-0.06,0.01-0.11,0.01-0.16,0.01c-1.07,0-2.15,0-3.22,0
	c-0.07,0-0.18-0.04-0.22-0.1c-0.61-0.84-1.21-1.69-1.82-2.54c-0.02-0.02-0.03-0.05-0.05-0.08c1.31-0.96,2.62-1.92,3.94-2.89
	c-1.16-1.69-2.32-3.38-3.49-5.08c-3.2,2.36-6.39,4.7-9.6,7.06C43.22,19.62,44.38,21.31,45.55,23.01z"/>
<path class="st0" d="M42.79,22.72c0.36-0.29,0.7-0.56,1.06-0.85c-0.45-0.66-0.89-1.31-1.34-1.98c-0.37,0.28-0.72,0.56-1.1,0.85
	C41.87,21.41,42.33,22.06,42.79,22.72z"/>
<g>
	<g>
		<ellipse class="st0" cx="9.22" cy="39.3" rx="5.09" ry="5.31"/>
		<ellipse class="st0" cx="33.88" cy="39.3" rx="5.09" ry="5.31"/>
		
			<rect x="32.68" y="27.4" transform="matrix(-1 -5.658597e-11 5.658597e-11 -1 75.0683 67.0004)" class="st0" width="9.71" height="12.19"/>
		<path class="st0" d="M32.68,27.4c-0.21-0.27-0.44-0.55-0.67-0.83c-0.26-0.32-0.52-0.62-0.78-0.91c-2.11-2.17-4.23-4.33-6.34-6.5
			c-4.79,0-9.58,0-14.37,0c-1.8,2.84-3.59,5.68-5.39,8.51c-0.01,4-0.02,8-0.03,12c9.19-0.03,18.38-0.06,27.58-0.09
			C32.68,35.53,32.68,31.47,32.68,27.4z"/>
		<rect x="1.18" y="27.74" class="st0" width="4.8" height="11.94"/>
	</g>
	<path class="st0" d="M32.68,28.35H5.1v-9.19h22.06c3.04,0,5.51,2.47,5.51,5.51V28.35z"/>
</g>
<rect x="5.1" y="19.16" class="st1" width="14.11" height="14.11"/>
</svg>
