<?xml version="1.0" encoding="utf-8"?>
<!-- Generator: Adobe Illustrator 25.4.1, SVG Export Plug-In . SVG Version: 6.00 Build 0)  -->
<svg version="1.1" id="Layer_1" xmlns="http://www.w3.org/2000/svg" xmlns:xlink="http://www.w3.org/1999/xlink" x="0px" y="0px"
	 viewBox="0 0 60 60" style="enable-background:new 0 0 60 60;" xml:space="preserve">
<style type="text/css">
	.st0{fill:#F48165;}
	.st1{fill:#231F20;}
</style>
<rect x="22.77" y="11.12" class="st0" width="13.85" height="13.86"/>
<g>
	<path class="st1" d="M3.55,32.46c-0.57,0-1.14,0.11-1.71,0.17c0,2.9,0,5.81,0,8.71c5.03,4.92,9.16,5.43,14.69,1.83
		c5.73,3.04,8.37,3.04,13.07,0c5.69,3.05,8.34,3.05,13.07,0c6.46,3.48,9.9,3.06,14.91-1.83c0-2.9,0-5.81,0-8.71
		c-0.57-0.06-1.14-0.17-1.71-0.17C38.42,32.45,20.98,32.45,3.55,32.46z"/>
	<path class="st1" d="M51.02,22.57c-14.21,0.11-28.42,0.11-42.63,0c-3-0.02-5.17,0.85-6.55,3.53c0,1.02,0,2.03,0,3.05
		c18.58,0,37.15,0,55.73,0c0-1.02,0-2.03,0-3.05C56.19,23.42,54.01,22.55,51.02,22.57z"/>
	<path class="st1" d="M34.57,50.4c0.09-1.35-0.55-1.66-1.7-2.2c-2.3-1.1-4.31-0.79-6.53,0.06c-1.06,0.41-1.55,0.76-1.5,1.92
		c0.08,1.7,0.02,3.42,0.02,5.43c-2.36,0-4.41,0-6.48,0c0,1.26,0,2.2,0,3.14c7.55,0,15.09,0,22.64,0c0-0.99,0-1.98,0-3.28
		c-2.24,0-4.29,0-6.48,0C34.54,53.58,34.46,51.98,34.57,50.4z"/>
	<path class="st1" d="M8.49,9.08c0.18,1.35,0.57,3.14,1.53,3.83c1.7,1.24,1.92,2.65,1.8,4.43c-0.04,0.61,0.08,1.24,0.13,1.88
		c1.06,0,1.96,0,3,0c0-1.23-0.1-2.32,0.04-3.38c0.09-0.7,0.32-1.63,0.82-1.98c1.95-1.35,2.55-3.19,2.53-5.42
		c-0.02-1.8,0.03-3.61,0.05-5.41c-3.34,0-6.68,0-10.01,0C8.39,5.04,8.23,7.09,8.49,9.08z"/>
	<path class="st1" d="M41.14,9.08c0.18,1.35,0.57,3.14,1.53,3.83c1.7,1.24,1.92,2.65,1.8,4.43c-0.04,0.61,0.08,1.24,0.13,1.88
		c1.07,0,1.96,0,3,0c0-1.23-0.1-2.32,0.04-3.38c0.09-0.7,0.32-1.63,0.82-1.98c1.95-1.35,2.55-3.19,2.53-5.42
		c-0.02-1.8,0.03-3.61,0.05-5.41c-3.34,0-6.68,0-10.01,0C41.04,5.04,40.88,7.09,41.14,9.08z"/>
</g>
</svg>
