<?xml version="1.0" encoding="utf-8"?>
<!-- Generator: Adobe Illustrator 25.4.1, SVG Export Plug-In . SVG Version: 6.00 Build 0)  -->
<svg version="1.1" id="Layer_1" xmlns="http://www.w3.org/2000/svg" xmlns:xlink="http://www.w3.org/1999/xlink" x="0px" y="0px"
	 viewBox="0 0 64 64" style="enable-background:new 0 0 64 64;" xml:space="preserve">
<style type="text/css">
	.st0{fill:#221F1F;}
	.st1{fill:#F38065;}
</style>
<path class="st0" d="M17.1,26.8c0.1-1.6,0.3-3.1,0.7-4.6c0.7-2.9,2-5.4,4.2-7.5c2.3-2.2,5-3.4,8.1-3.7c2.5-0.2,4.9-0.1,7.2,0.7
	c4,1.4,6.6,4.2,8.2,8.1c0.9,2.2,1.3,4.5,1.4,7C37,26.8,27.1,26.8,17.1,26.8z"/>
<path class="st0" d="M58.4,51.4c-0.3-0.3-0.6-0.5-1-0.5c-0.6,0-1.3,0-2,0c0-0.2,0-0.4,0-0.6c0-6.5,0-9.5,0-16.1
	c0-0.2-0.1-0.4-0.2-0.6c-0.5-0.7-1.2-0.4-1.9-0.5c0,7.2,0,10.7,0,17.7c-0.7,0-1.4,0-2.2,0c0-0.2,0-0.4,0-0.6c0-7.9,0-12.3,0-20.3
	c0-0.5-0.3-1-0.8-1C50,29,49.5,29,49,28.9c0,8.6,0,13.5,0,22c-0.7,0-1.4,0-2.2,0c0-8.5,0-13.4,0-21.9c-9.9,0-19.8,0-29.7,0
	c0,8.5,0,13.4,0,21.9c-0.7,0-1.4,0-2.2,0c0-8.5,0-13.4,0-21.9c-0.4,0-0.7,0-1,0c-0.7,0.1-1,0.5-1,1.1c0,7.9,0,12.3,0,20.2
	c0,0.2,0,0.4,0,0.5c-0.8,0-1.5,0-2.2,0c0-0.2,0-0.4,0-0.6c0-6.7,0-9.8,0-16.5c0-0.1,0-0.2,0-0.3c0-0.2-0.1-0.3-0.3-0.3
	c-0.2,0-0.5,0-0.7,0c-0.6,0-1,0.5-1,1.1c0,6.5,0,9.5,0,16.1c0,0.2,0,0.3,0,0.5c-0.7,0-1.3,0-2,0c-0.4,0-0.7,0.1-1,0.4
	c-0.3,0.3-0.4,0.7-0.2,1.1C5.7,52.8,5.9,53,6.4,53c5.6,0,11.1,0,16.7,0c0,0,0.1,0,0.1,0h17.5c0.1,0,0.1,0,0.1,0
	c5.6,0,11.2,0,16.9-0.1c0.4,0,0.7-0.2,0.8-0.5C58.7,52.1,58.7,51.8,58.4,51.4z"/>
<rect x="24.5" y="38" class="st1" width="15" height="15"/>
</svg>
