<?xml version="1.0" encoding="utf-8"?>
<!-- Generator: Adobe Illustrator 25.4.1, SVG Export Plug-In . SVG Version: 6.00 Build 0)  -->
<svg version="1.1" id="Layer_1" xmlns="http://www.w3.org/2000/svg" xmlns:xlink="http://www.w3.org/1999/xlink" x="0px" y="0px"
	 viewBox="0 0 60 60" style="enable-background:new 0 0 60 60;" xml:space="preserve">
<style type="text/css">
	.st0{fill:#231F20;}
	.st1{fill:#F48165;}
</style>
<path class="st0" d="M54.88,50.51c-4.05,0-7.97,0-12.02,0c0-17.31,0-24.9,0-42.27c4,0,7.9,0,12.02,0
	C54.88,25.42,54.88,33.07,54.88,50.51z"/>
<path class="st0" d="M6.05,12.76c4.07,0,7.9,0,11.87,0c0,15.8,0,21.86,0,37.7c-3.89,0-7.79,0-11.87,0
	C6.05,34.77,6.05,28.66,6.05,12.76z"/>
<path class="st0" d="M24,32.8c4.05,0,7.88,0,11.86,0c0,9.1,0,8.48,0,17.65c-3.88,0-7.78,0-11.86,0C24,41.45,24,42.01,24,32.8z"/>
<path class="st0" d="M58.48,51.93c0,0.94,0,1.66,0,2.57c-18.65,0-37.29,0-56.05,0c0-0.8,0-1.62,0-2.57
	C21.09,51.93,39.68,51.93,58.48,51.93z"/>
<rect x="42.76" y="2.13" class="st1" width="12.22" height="12.22"/>
</svg>
