<?xml version="1.0" encoding="utf-8"?>
<!-- Generator: Adobe Illustrator 25.4.1, SVG Export Plug-In . SVG Version: 6.00 Build 0)  -->
<svg version="1.1" id="Layer_1" xmlns="http://www.w3.org/2000/svg" xmlns:xlink="http://www.w3.org/1999/xlink" x="0px" y="0px"
	 viewBox="0 0 60 60" style="enable-background:new 0 0 60 60;" xml:space="preserve">
<style type="text/css">
	.st0{fill:#231F20;}
	.st1{fill:#F48165;}
</style>
<path class="st0" d="M14.24,57.47c-2.77,0-5.49,0-8.26,0c0-17.87,0-35.69,0-53.56c2.76,0,5.48,0,8.26,0
	C14.24,21.74,14.24,39.57,14.24,57.47z"/>
<path class="st0" d="M47.45,57.46c0-17.86,0-35.68,0-53.55c2.76,0,5.5,0,8.3,0c0,17.84,0,35.67,0,53.55
	C52.99,57.46,50.27,57.46,47.45,57.46z"/>
<path class="st0" d="M40.45,57.47c-6.41,0-12.76,0-19.16,0c0-7.87,0-15.72,0-23.61c6.38,0,12.74,0,19.16,0
	C40.45,41.71,40.45,49.55,40.45,57.47z M30.1,35.13c0,7.06,0,14.05,0,21.02c0.56,0,1.04,0,1.54,0c0-7.04,0-14.01,0-21.02
	C31.11,35.13,30.62,35.13,30.1,35.13z"/>
<path class="st0" d="M30.46,20.63c-0.3,0-0.52,0-0.82,0c0.12-0.72,0.23-1.39,0.35-2.06c0.05,0,0.1,0,0.15-0.01
	C30.24,19.24,30.35,19.91,30.46,20.63z"/>
<path class="st0" d="M15.64,10.1c0,15.81,0,31.56,0,47.33c1.52,0,3,0,4.54,0c0-8.26,0-16.45,0-24.65c7.17,0,14.27,0,21.44,0
	c0,8.26,0,16.45,0,24.68c1.5,0,2.93,0,4.44,0c0-15.82,0-31.58,0-47.36C35.9,10.1,25.79,10.1,15.64,10.1z"/>
<rect x="23.9" y="15.39" class="st1" width="13.12" height="13.12"/>
</svg>
