<?xml version="1.0" encoding="utf-8"?>
<!-- Generator: Adobe Illustrator 25.4.1, SVG Export Plug-In . SVG Version: 6.00 Build 0)  -->
<svg version="1.1" id="Layer_1" xmlns="http://www.w3.org/2000/svg" xmlns:xlink="http://www.w3.org/1999/xlink" x="0px" y="0px"
	 viewBox="0 0 60 60" style="enable-background:new 0 0 60 60;" xml:space="preserve">
<style type="text/css">
	.st0{fill:#231F20;}
	.st1{fill:#F48165;}
</style>
<path class="st0" d="M12.56,37.56c4.4-3.17,8.73-6.28,13.13-9.45c-0.56-0.72-1.09-1.42-1.63-2.11c-1.69-2.16-3.38-4.31-5.07-6.47
	c-0.98-1.25-0.92-2.24,0.41-3.14c3.22-2.19,6.48-4.3,9.75-6.42c0.84-0.54,1.73-1.05,2.66-1.4c0.98-0.38,1.89,0.02,2.49,0.86
	c0.61,0.86,0.64,1.78-0.01,2.63c-0.34,0.45-0.78,0.85-1.25,1.17c-2.38,1.62-4.79,3.21-7.19,4.81c-0.17,0.11-0.34,0.23-0.56,0.39
	c5.42,6.48,10.81,12.93,16.21,19.38c-0.05,0.07-0.09,0.14-0.14,0.22c-0.53-0.16-1.07-0.28-1.58-0.49c-2.55-1.02-5.09-1-7.65-0.06
	c-0.63,0.23-1.29,0.43-1.96,0.54c-1.4,0.23-2.78,0.22-4.12-0.38c-1.85-0.83-3.78-1.15-5.78-0.66c-0.47,0.12-0.93,0.32-1.38,0.53
	c-1.91,0.91-3.87,0.78-5.84,0.27C12.93,37.75,12.81,37.67,12.56,37.56z"/>
<path class="st0" d="M56.12,41.6c0,0.97,0,2.1,0,3.28c-0.98,0.13-1.92-0.05-2.84-0.32c-0.63-0.19-1.23-0.45-1.85-0.68
	c-1.32-0.47-2.6-0.51-3.87,0.19c-1.82,1.01-3.82,0.97-5.78,0.76c-1.21-0.13-2.41-0.49-3.58-0.88c-1.44-0.48-2.86-0.57-4.29-0.08
	c-1.82,0.62-3.65,1.23-5.6,1.02c-1.15-0.12-2.29-0.42-3.42-0.68c-0.64-0.15-1.24-0.46-1.88-0.59c-0.9-0.18-1.77-0.08-2.64,0.33
	c-2.89,1.37-5.88,1.35-8.81,0.24c-2.21-0.84-4.31-0.88-6.47,0C3.61,44.82,2.61,45,1.53,44.86c0-1.14,0-2.28,0-3.33
	c1.53-0.46,2.99-1.02,4.5-1.33c2.27-0.45,4.51-0.28,6.72,0.62c2.07,0.85,4.21,0.83,6.28-0.17c2.06-0.99,4.19-0.97,6.23-0.1
	c2.37,1.01,4.65,0.98,7.01,0.09c2.51-0.94,5.03-0.92,7.53,0.1c1.57,0.64,3.21,0.68,4.86,0.55c0.48-0.04,0.97-0.23,1.39-0.46
	c2.19-1.15,4.42-1.08,6.69-0.3C53.81,40.92,54.91,41.23,56.12,41.6z"/>
<path class="st0" d="M56.11,48.21c0,1.02,0,2.16,0,3.34c-1.37,0.03-2.64-0.22-3.88-0.71c-0.61-0.24-1.23-0.47-1.87-0.59
	c-1.04-0.19-2.02,0.02-2.97,0.53c-1.52,0.83-3.2,0.83-4.88,0.76c-1.45-0.06-2.85-0.38-4.2-0.91c-1.65-0.65-3.31-0.58-4.95,0.04
	c-1.96,0.74-3.97,1.12-6.05,0.79c-0.96-0.15-1.93-0.43-2.84-0.79c-1.56-0.61-3.03-0.68-4.57,0.14c-1.6,0.84-3.38,0.8-5.14,0.73
	c-1.37-0.05-2.65-0.46-3.93-0.95c-1.77-0.68-3.6-0.59-5.37,0.11c-1.25,0.5-2.51,0.89-3.92,0.86c0-1.16,0-2.31,0-3.43
	c1.65-0.46,3.27-1.07,4.95-1.36c2.04-0.35,4.08-0.21,6.06,0.62c2.18,0.92,4.39,0.9,6.57-0.13c2.06-0.98,4.2-0.9,6.23-0.03
	c2.27,0.97,4.46,0.97,6.72,0.12c2.57-0.97,5.13-1,7.71,0.03c1.58,0.63,3.24,0.79,4.92,0.53c0.44-0.07,0.9-0.19,1.29-0.39
	c2.27-1.22,4.57-1.11,6.92-0.27C53.92,47.6,54.98,47.87,56.11,48.21z"/>
<rect x="35.29" y="17.09" transform="matrix(0.8152 -0.5792 0.5792 0.8152 -5.8286 28.3497)" class="st1" width="12.44" height="12.44"/>
</svg>
