<?xml version="1.0" encoding="utf-8"?>
<!-- Generator: Adobe Illustrator 25.4.1, SVG Export Plug-In . SVG Version: 6.00 Build 0)  -->
<svg version="1.1" id="Layer_1" xmlns="http://www.w3.org/2000/svg" xmlns:xlink="http://www.w3.org/1999/xlink" x="0px" y="0px"
	 viewBox="0 0 60 60" style="enable-background:new 0 0 60 60;" xml:space="preserve">
<style type="text/css">
	.st0{fill:#231F20;}
	.st1{fill:#F48165;}
</style>
<path class="st0" d="M33.97,36.13c0.21,0,0.4,0,0.58,0c6.48,0,12.96,0,19.44-0.01c0.36,0,0.58,0.1,0.78,0.4
	c1.21,1.84,2.44,3.67,3.66,5.5c0.1,0.15,0.2,0.32,0.35,0.55c-0.51,0-0.95,0.02-1.39-0.02c-0.11-0.01-0.23-0.2-0.32-0.33
	c-1.01-1.5-2.02-3.01-3.01-4.52c-0.15-0.23-0.31-0.33-0.59-0.33c-6.68,0.01-13.36,0.01-20.05,0c-0.29,0-0.44,0.1-0.59,0.33
	c-1.09,1.67-2.2,3.33-3.29,5.01c-0.16,0.25-0.34,0.35-0.62,0.37c-2.77,0.27-5.53,0.56-8.3,0.84c-0.61,0.06-1.21,0.11-1.81,0.19
	c-1.47,0.19-2.52-0.62-2.69-2.09c-0.01-0.06-0.01-0.11-0.03-0.24c-0.16,0.08-0.3,0.15-0.42,0.23c-0.53,0.32-1.06,0.65-1.6,0.96
	c-0.43,0.25-0.86,0.15-1.11-0.22c-0.25-0.38-0.15-0.86,0.27-1.13c0.7-0.44,1.41-0.86,2.11-1.29c1.46-0.89,2.92-1.77,4.38-2.66
	c0.11-0.07,0.22-0.14,0.43-0.28c-3.61,0-7.1,0-10.66,0c0-0.4-0.01-0.74,0.01-1.08c0-0.07,0.13-0.18,0.21-0.2
	c0.12-0.04,0.26-0.01,0.39-0.01c3.91,0,7.83,0,11.74-0.01c0.28,0,0.6-0.09,0.85-0.23c2.45-1.47,4.88-2.95,7.33-4.43
	c0.26-0.16,0.42-0.33,0.51-0.65c0.49-1.77,1.01-3.53,1.53-5.29c0.07-0.24,0.19-0.48,0.34-0.7c1.17-1.72,2.36-3.44,3.54-5.16
	c0.63-0.91,1.49-1.34,2.58-1.12c1.09,0.21,1.74,0.9,1.98,2c0.26,1.19,0.55,2.37,0.82,3.55c0.03,0.12,0.07,0.25,0.12,0.41
	c0.18-0.1,0.33-0.18,0.47-0.27c1.34-0.81,2.68-1.62,4.01-2.43c0.35-0.21,0.69-0.22,1,0.05c0.27,0.23,0.35,0.55,0.21,0.87
	c-0.09,0.19-0.27,0.38-0.46,0.49c-1.07,0.67-2.15,1.31-3.23,1.97c-0.12,0.07-0.24,0.16-0.42,0.28c4.3,1.95,7.24,5.09,8.89,9.57
	c-0.26,0-0.44,0-0.62,0c-5.23,0-10.47,0.03-15.7-0.03C34.71,34.99,34.25,35.3,33.97,36.13z M19.92,39.52
	c0.2,0.03,0.29,0.06,0.36,0.05c1.84-0.19,3.68-0.38,5.52-0.58c0.11-0.01,0.25-0.05,0.3-0.13c0.33-0.45,0.63-0.92,0.97-1.42
	c-0.12-0.02-0.17-0.04-0.22-0.04c-1.11,0-2.23-0.01-3.34,0c-0.15,0-0.31,0.06-0.44,0.14c-0.92,0.55-1.83,1.11-2.74,1.66
	C20.22,39.28,20.12,39.37,19.92,39.52z M25.57,36.03c0.01,0.03,0.02,0.07,0.02,0.1c0.74,0,1.49,0.01,2.23-0.01
	c0.1,0,0.22-0.13,0.29-0.22c0.4-0.58,0.8-1.17,1.19-1.76c0.06-0.09,0.08-0.21,0.12-0.31c-0.03-0.02-0.06-0.05-0.09-0.07
	C28.07,34.51,26.82,35.27,25.57,36.03z"/>
<path class="st0" d="M26,29.06c-2.87,0-5.16-2.32-5.15-5.22c0.01-2.88,2.34-5.21,5.2-5.19c2.85,0.02,5.13,2.34,5.13,5.21
	C31.17,26.76,28.88,29.06,26,29.06z"/>
<rect x="3.04" y="42.38" transform="matrix(-0.5605 -0.8282 0.8282 -0.5605 -26.9428 79.7867)" class="st1" width="9.32" height="9.32"/>
</svg>
