<?xml version="1.0" encoding="utf-8"?>
<!-- Generator: Adobe Illustrator 25.4.1, SVG Export Plug-In . SVG Version: 6.00 Build 0)  -->
<svg version="1.1" id="Layer_1" xmlns="http://www.w3.org/2000/svg" xmlns:xlink="http://www.w3.org/1999/xlink" x="0px" y="0px"
	 viewBox="0 0 64 64" style="enable-background:new 0 0 64 64;" xml:space="preserve">
<style type="text/css">
	.st0{fill:#231F20;}
	.st1{fill:#F48165;}
</style>
<g>
	<path class="st0" d="M54.04,12.45L54.04,12.45c-6.42-5.41-16-4.59-21.41,1.82l-0.55,0.66l-0.71-0.85
		c-5.41-6.42-14.99-7.23-21.41-1.82c-6.42,5.41-7.23,14.99-1.82,21.41l2.3,2.73c0.03-0.02,0.06-0.03,0.09-0.05
		C17.76,43.6,25,50.84,32.25,58.08c6.19-6.1,12.37-12.21,18.56-18.31c0.03,0,0.06-0.01,0.09-0.02l4.97-5.89
		C61.28,27.45,60.46,17.86,54.04,12.45z"/>
	
		<rect x="24.77" y="39.96" transform="matrix(0.7071 -0.7071 0.7071 0.7071 -24.11 36.7265)" class="st1" width="15.02" height="15.02"/>
</g>
</svg>
