<?xml version="1.0" encoding="utf-8"?>
<!-- Generator: Adobe Illustrator 25.4.1, SVG Export Plug-In . SVG Version: 6.00 Build 0)  -->
<svg version="1.1" id="Layer_1" xmlns="http://www.w3.org/2000/svg" xmlns:xlink="http://www.w3.org/1999/xlink" x="0px" y="0px"
	 viewBox="0 0 60 60" style="enable-background:new 0 0 60 60;" xml:space="preserve">
<style type="text/css">
	.st0{fill:#231F20;}
	.st1{fill:#F48165;}
</style>
<path class="st0" d="M43.7,9c0,3.2,0,6.4,0,9.8c-0.8-0.7-1.4-1.3-2.1-1.9c-0.7-0.7-1.4-1.3-2.1-2c-2.2-2.1-2.4-2.6-1.9-5.9
	C39.6,9,41.6,9,43.7,9z"/>
<path class="st0" d="M29.4,7.3C21.6,14.6,13.9,21.8,6.2,29c0,0.1,0.1,0.2,0.1,0.3c1.4,0,2.8,0,4.3,0c0,0.6,0,1,0,1.4
	c0,6.3,0,12.5,0,18.8c0,1.6,0,1.6,1.6,1.6c11.4,0,22.8,0,34.3,0c1.6,0,1.7,0,1.7-1.6c0-6.3,0-12.6,0-18.9c0-0.4,0-0.8,0-1.3
	c1.5,0,2.9,0,4.3,0c0-0.1,0.1-0.2,0.1-0.3C44.9,21.8,37.2,14.6,29.4,7.3z"/>
<rect x="22.4" y="28.7" class="st1" width="15" height="15"/>
</svg>
