<?xml version="1.0" encoding="utf-8"?>
<!-- Generator: Adobe Illustrator 25.4.1, SVG Export Plug-In . SVG Version: 6.00 Build 0)  -->
<svg version="1.1" id="Layer_1" xmlns="http://www.w3.org/2000/svg" xmlns:xlink="http://www.w3.org/1999/xlink" x="0px" y="0px"
	 viewBox="0 0 64 64" style="enable-background:new 0 0 64 64;" xml:space="preserve">
<style type="text/css">
	.st0{fill:#221F1F;}
	.st1{fill:none;stroke:#221F1F;stroke-width:3;stroke-miterlimit:10;}
	.st2{fill:#F38065;}
</style>
<path class="st0" d="M33.6,7.9c0,8.5,0,17.1,0,25.6c0,0.1,0,0.2-0.1,0.4c-7.7,0-15.4,0-23.1,0c0-0.2-0.1-0.4-0.1-0.7
	c0-8.3,0-16.6,0-24.9c0-0.1,0-0.3,0-0.4C18.2,7.9,25.9,7.9,33.6,7.9z M16.9,23.8c1.8,0,3.2,0,4.8,0c-1.1,1.7-2.1,3.3-3.2,4.9
	c0.8,0.5,1.6,1,2.4,1.6c2.1-3.1,4.1-6.2,6.2-9.4c-1.6,0-3,0-4.6,0c1.1-1.6,2.1-3,3.1-4.5c-0.8-0.6-1.6-1.1-2.3-1.6
	C21.1,17.7,19.1,20.6,16.9,23.8z"/>
<path class="st0" d="M10.5,36.8c7.7,0,15.4,0,23.1,0c0,2.9,0,5.9,0,8.8c-7.7,0-15.4,0-23.1,0C10.5,42.7,10.5,39.8,10.5,36.8z
	 M23.4,42.5c0-1,0-1.9,0-2.7c-1.1,0-2.1,0-3.1,0c0,1,0,1.8,0,2.7C21.3,42.5,22.3,42.5,23.4,42.5z"/>
<path class="st0" d="M39.8,32.9c0-2.2,0-4.4,0-6.6c4.2,0,8.3,0,12.5,0c0,2.2,0,4.4,0,6.6C48.2,32.9,44.1,32.9,39.8,32.9z"/>
<path class="st0" d="M51.2,23.2c-3.3,0-6.5,0-9.8,0c0-1.8,0-3.6,0-5.4c3.2,0,6.5,0,9.8,0C51.2,19.5,51.2,21.3,51.2,23.2z M46,20.2
	c-0.5,0-0.9,0-1.4,0c0,0.4,0,0.8,0.1,1.1c0.5,0,0.9,0,1.3,0C46,20.9,46,20.6,46,20.2z M47.9,21.3c0-0.4,0-0.8,0-1.1
	c-0.5,0-0.9,0-1.3,0c0,0.4,0,0.8,0,1.1C47.1,21.3,47.5,21.3,47.9,21.3z"/>
<polyline class="st1" points="46.1,33.9 46.1,55.4 21.1,55.4 21.1,45.6 "/>
<rect x="38.6" y="13.4" class="st2" width="15" height="15"/>
</svg>
