<?xml version="1.0" encoding="utf-8"?>
<!-- Generator: Adobe Illustrator 25.4.1, SVG Export Plug-In . SVG Version: 6.00 Build 0)  -->
<svg version="1.1" id="Layer_1" xmlns="http://www.w3.org/2000/svg" xmlns:xlink="http://www.w3.org/1999/xlink" x="0px" y="0px"
	 viewBox="0 0 60 60" style="enable-background:new 0 0 60 60;" xml:space="preserve">
<style type="text/css">
	.st0{fill:#231F20;}
	.st1{fill:#F48165;}
</style>
<path class="st0" d="M50.04,28.24c-0.17-0.03-0.29-0.07-0.42-0.08c-3.97-0.16-7.16-1.98-9.91-4.69c-2.37-2.34-4.22-5.07-5.65-8.07
	c-0.89-1.86-1.64-3.78-2.45-5.68c-0.05-0.12-0.06-0.27-0.1-0.4c-0.13-0.41,0.12-0.46,0.44-0.46c1.56,0.01,3.12,0.01,4.68,0.01
	c3.41,0,6.82,0,10.23,0c2.81,0,5.62,0,8.43-0.01c0.34,0,0.47,0.12,0.46,0.45c0,0.77,0.01,1.54,0.01,2.31c0,9.16-0.01,18.33,0,27.49
	c0,0.5-0.13,0.64-0.63,0.63c-2.11-0.03-4.21-0.02-6.32-0.01c-0.44,0-0.6-0.13-0.58-0.59c0.09-2.88,0.41-5.74,1.11-8.54
	C49.51,29.84,49.78,29.08,50.04,28.24z"/>
<path class="st0" d="M10.81,28.2c0.28,1.06,0.54,2.02,0.8,2.99c0.53,2.03,0.79,4.1,0.91,6.18c0.03,0.6,0.04,1.2,0.11,1.79
	c0.06,0.49-0.18,0.58-0.59,0.58c-1.95-0.01-3.9-0.01-5.86-0.02c-1.09,0-1.09,0-1.09-1.07c0-9.66,0-19.32,0-28.98
	c0-0.79,0-0.8,0.78-0.8c3.51,0,7.02,0.01,10.53,0.01c3.77,0,7.54-0.01,11.3-0.01c0.41,0,0.82,0.01,1.23,0.01
	c0.37-0.01,0.51,0.16,0.38,0.51c-0.32,0.88-0.61,1.78-0.97,2.64c-1.19,2.84-2.58,5.58-4.39,8.08c-2.01,2.77-4.36,5.18-7.48,6.72
	c-1.59,0.78-3.27,1.18-5.03,1.33C11.25,28.18,11.04,28.19,10.81,28.2z"/>
<path class="st0" d="M30.42,7c-8.8,0-17.61,0-26.41,0C3.11,7,3.1,7,3.1,6.08c0-0.82,0-1.64-0.01-2.47C3.08,3.18,3.27,3.01,3.71,3.01
	c6.83,0.01,13.67,0,20.5,0c7.55,0,15.11,0,22.66,0c3.37,0,6.75,0,10.12,0c0.62,0,0.74,0.13,0.74,0.77c0,0.86-0.02,1.71,0.02,2.57
	c0.03,0.52-0.2,0.67-0.66,0.66c-1.37-0.01-2.74,0-4.11,0C45.46,7.01,37.94,7.01,30.42,7C30.42,7,30.42,7,30.42,7z"/>
<path class="st0" d="M30.57,41.67c3.46,0,6.92,0,10.38,0c3.43,0,6.85,0,10.28-0.01c1.99,0,3.97-0.01,5.96,0
	c0.69,0,0.76,0.09,0.76,0.77c0,1.15,0,1.15-1.17,1.15c-7.5,0-15,0.01-22.51,0.01c-6.15,0-12.3-0.01-18.45-0.01
	c-3.79,0-7.57,0.01-11.36,0.01c-0.15,0-0.31,0-0.46,0c-0.63-0.03-0.7-0.1-0.7-0.72c0-1.2,0-1.2,1.21-1.2
	c6.11,0,12.23-0.01,18.34-0.01c2.57,0,5.14,0,7.71,0C30.57,41.66,30.57,41.66,30.57,41.67z"/>
<path class="st0" d="M53.8,53.34c-1.08,0-2.16,0.01-3.24-0.01c-0.15,0-0.42-0.18-0.42-0.28c-0.01-1.64-0.28-3.29,0.17-4.9
	c0.4-1.43,1.43-2.29,2.85-2.57c1.49-0.29,2.74,0.25,3.65,1.47c0.59,0.79,0.92,1.7,0.91,2.71c-0.01,0.94,0,1.88,0,2.83
	c0,0.62-0.13,0.76-0.74,0.77C55.93,53.35,54.86,53.34,53.8,53.34C53.8,53.34,53.8,53.34,53.8,53.34z"/>
<path class="st0" d="M6.93,53.34c-1.06,0-2.12-0.01-3.19,0c-0.45,0.01-0.66-0.17-0.65-0.64c0.01-1.16-0.01-2.33,0.01-3.49
	c0.03-1.61,1.64-3.42,3.23-3.67c1.82-0.29,3.57,0.76,4.14,2.52c0.15,0.46,0.23,0.96,0.25,1.45c0.04,1.08,0,2.16,0.01,3.24
	c0,0.45-0.14,0.63-0.63,0.61C9.05,53.31,7.99,53.34,6.93,53.34C6.93,53.34,6.93,53.34,6.93,53.34z"/>
<path class="st0" d="M35.11,53.34c-1.04,0-2.09-0.02-3.13,0.01c-0.47,0.01-0.66-0.16-0.66-0.61c0.01-1.18-0.03-2.36,0.02-3.54
	c0.09-2.26,2.06-3.92,4.31-3.67c1.58,0.18,3.11,1.76,3.19,3.42c0.06,1.3,0.02,2.6,0.02,3.9c0,0.35-0.11,0.51-0.51,0.5
	C37.26,53.32,36.19,53.34,35.11,53.34C35.11,53.34,35.11,53.34,35.11,53.34z"/>
<path class="st0" d="M25.67,53.34c-1.06,0-2.12-0.01-3.18,0.01c-0.36,0.01-0.51-0.13-0.51-0.46c0-1.33-0.05-2.67,0.02-4
	c0.09-1.63,1.62-3.16,3.19-3.35c2.04-0.25,3.49,1.02,4.04,2.48c0.17,0.45,0.22,0.97,0.24,1.46c0.04,1.06,0.02,2.12,0.01,3.18
	c0,0.59-0.1,0.68-0.69,0.68C27.76,53.34,26.72,53.34,25.67,53.34C25.67,53.34,25.67,53.34,25.67,53.34z"/>
<path class="st0" d="M16.34,53.34c-1.04,0-2.09-0.02-3.13,0.01c-0.4,0.01-0.58-0.15-0.58-0.52c0-1.32-0.05-2.64,0.04-3.95
	c0.12-1.68,1.51-3.13,3.06-3.34c1.78-0.23,3.37,0.65,4.03,2.32c0.19,0.48,0.29,1.02,0.32,1.54c0.05,1.09,0.02,2.19,0.02,3.29
	c0,0.61-0.07,0.67-0.68,0.67C18.39,53.34,17.36,53.34,16.34,53.34C16.34,53.34,16.34,53.34,16.34,53.34z"/>
<path class="st0" d="M44.47,53.34c-1.06,0-2.12-0.02-3.18,0.01c-0.4,0.01-0.54-0.17-0.54-0.51c0.01-1.44-0.03-2.88,0.09-4.31
	c0.12-1.43,1.62-2.81,3.06-3c1.67-0.21,3.35,0.68,3.94,2.16c0.19,0.47,0.34,0.98,0.36,1.48c0.05,1.2,0.02,2.4,0.02,3.59
	c0,0.41-0.15,0.61-0.62,0.59C46.56,53.32,45.51,53.34,44.47,53.34C44.47,53.34,44.47,53.34,44.47,53.34z"/>
<rect x="22.34" y="25.09" class="st1" width="16.56" height="16.56"/>
</svg>
