<?xml version="1.0" encoding="utf-8"?>
<!-- Generator: Adobe Illustrator 25.4.1, SVG Export Plug-In . SVG Version: 6.00 Build 0)  -->
<svg version="1.1" id="Layer_1" xmlns="http://www.w3.org/2000/svg" xmlns:xlink="http://www.w3.org/1999/xlink" x="0px" y="0px"
	 viewBox="0 0 64 64" style="enable-background:new 0 0 64 64;" xml:space="preserve">
<style type="text/css">
	.st0{fill:#231F20;}
	.st1{fill:#F48165;}
</style>
<path class="st0" d="M19.5,61.6C13.7,55.67,7.92,49.77,2.03,43.75c0.14-0.1,0.36-0.21,0.52-0.37
	c10.82-10.58,21.63-21.16,32.43-31.76c0.42-0.41,0.77-0.53,1.37-0.4c4.45,0.97,8.91,1.9,13.37,2.83c0.36,0.07,0.51,0.19,0.58,0.57
	c0.34,1.94,0.72,3.87,1.09,5.81c0.02,0.13,0.08,0.26,0.11,0.38c3.54,0.29,7.43-2.49,8.19-6.59c0.86-4.69-2.31-8.69-6.47-9.5
	c-4.71-0.92-8.87,2.42-9.6,6.86c-0.74-0.05-1.48-0.1-2.23-0.15c1-6.42,6.13-9.8,12.28-8.88c3.91,0.59,8.99,4.23,8.25,11.66
	c-0.4,3.97-4.03,8.72-10,8.89c0.17,0.93,0.34,1.85,0.51,2.77c0.16,0.84,0.31,1.67,0.49,2.5c0.07,0.36-0.02,0.61-0.29,0.87
	c-10.94,10.7-21.88,21.41-32.81,32.11C19.69,61.44,19.57,61.54,19.5,61.6z M44.6,17.26c0.82,0.84,1.57,1.61,2.35,2.41
	c0.4-0.7,0.27-1.42-0.25-2.01C46.22,17.13,45.42,16.93,44.6,17.26z M43.37,18.92c-0.34,0.96,1.02,2.3,1.92,1.98
	C44.66,20.24,44,19.57,43.37,18.92z"/>
<rect x="13.4" y="46.64" transform="matrix(0.7151 -0.699 0.699 0.7151 -31.3477 28.7505)" class="st1" width="12.4" height="12.4"/>
</svg>
