<?xml version="1.0" encoding="utf-8"?>
<!-- Generator: Adobe Illustrator 25.4.1, SVG Export Plug-In . SVG Version: 6.00 Build 0)  -->
<svg version="1.1" id="Layer_1" xmlns="http://www.w3.org/2000/svg" xmlns:xlink="http://www.w3.org/1999/xlink" x="0px" y="0px"
	 viewBox="0 0 64 64" style="enable-background:new 0 0 64 64;" xml:space="preserve">
<style type="text/css">
	.st0{fill:#231F20;}
	.st1{fill:#F48165;}
</style>
<g>
	
		<rect x="2.46" y="20.99" transform="matrix(-0.8261 0.5636 -0.5636 -0.8261 64.2912 26.2773)" class="st0" width="51.26" height="4.13"/>
	<g>
		
			<rect x="42.79" y="22.67" transform="matrix(-1 -4.514667e-11 4.514667e-11 -1 100.6817 79.9763)" class="st0" width="15.11" height="34.63"/>
		
			<rect x="30.13" y="33" transform="matrix(-1 -4.493351e-11 4.493351e-11 -1 73.6182 90.2982)" class="st0" width="13.36" height="24.31"/>
		
			<rect x="15.49" y="42.41" transform="matrix(-1 -4.031143e-11 4.031143e-11 -1 45.868 99.7125)" class="st0" width="14.89" height="14.89"/>
	</g>
	
		<rect x="42.83" y="22.56" transform="matrix(-1 -4.482293e-11 4.482293e-11 -1 100.6817 60.1348)" class="st1" width="15.02" height="15.02"/>
</g>
</svg>
