<?xml version="1.0" encoding="utf-8"?>
<!-- Generator: Adobe Illustrator 25.4.1, SVG Export Plug-In . SVG Version: 6.00 Build 0)  -->
<svg version="1.1" id="Layer_1" xmlns="http://www.w3.org/2000/svg" xmlns:xlink="http://www.w3.org/1999/xlink" x="0px" y="0px"
	 viewBox="0 0 60 60" style="enable-background:new 0 0 60 60;" xml:space="preserve">
<style type="text/css">
	.st0{fill:#231F20;}
	.st1{fill:#F48165;}
</style>
<path class="st0" d="M54.7,49.6l-5.6,5.6l-10-10l-1.6-1.6c2.4-1.2,4.3-3.2,5.6-5.6L54.7,49.6z"/>
<path class="st0" d="M27.2,4.7c-11.6,0-21,9.4-21,21c0,11.6,9.4,21,21,21c3.8,0,7.4-1,10.5-2.8c3.1-1.8,5.8-4.5,7.6-7.6
	c1.8-3.1,2.8-6.7,2.8-10.5C48.1,14.1,38.7,4.7,27.2,4.7z M35.5,41.6c-2.5,1.3-5.4,2.1-8.4,2.1c-10,0-18-8.1-18-18c0-10,8.1-18,18-18
	c10,0,18,8.1,18,18c0,3-0.7,5.9-2.1,8.4C41.4,37.3,38.8,40,35.5,41.6z"/>
<rect x="21.2" y="25.4" class="st1" width="13" height="13"/>
<polygon class="st0" points="33.7,16.9 27.7,10.5 21.8,16.9 15.8,23.4 15.8,38.3 21.2,38.3 21.2,25.4 34.2,25.4 34.2,38.3 
	39.6,38.3 39.6,31.1 39.6,28.8 39.6,23.4 "/>
</svg>
