<?xml version="1.0" encoding="utf-8"?>
<!-- Generator: Adobe Illustrator 25.4.1, SVG Export Plug-In . SVG Version: 6.00 Build 0)  -->
<svg version="1.1" id="Layer_1" xmlns="http://www.w3.org/2000/svg" xmlns:xlink="http://www.w3.org/1999/xlink" x="0px" y="0px"
	 viewBox="0 0 64 64" style="enable-background:new 0 0 64 64;" xml:space="preserve">
<style type="text/css">
	.st0{fill:#221F1F;}
	.st1{fill:#F38065;}
</style>
<path class="st0" d="M32.4,58.1c0-0.4,0.1-0.7,0.1-1.1c0-7.4,0-14.8,0-22.2c0-0.7-0.2-1.1-0.8-1.6c-6.6-4.6-13.1-9.3-19.7-14
	c-0.5-0.4-0.7-0.8-0.7-1.4c0-2.7,0-5.4,0-8.4c3.5,2.5,6.9,4.9,10.5,7.5c0-1.2,0-2.2,0-3.2c3.2,0,6.3,0,9.5,0c0,1.3,0,2.5,0,3.7
	c0,1.7,0.1,3.5,0,5.2c0,0.8,0.3,1.3,0.9,1.7c3.1,2.2,6.1,4.4,9.2,6.6c0.3,0.2,0.5,0.4,0.8,0.6c-1.4,2.1-2.8,4.1-4.3,6.2
	c-1.1-0.7-2.1-1.4-3.2-2.2c0,7.6,0,15.1,0,22.6c0.5,0,1,0.1,1.4,0.1c0,0.1,0.1,0.2,0.1,0.3c0.2,1.9,0.2,1.9-1.6,1.9
	c-7.2,0-14.3,0-21.5,0c-0.5,0-1.1,0-1.7,0c0-0.7,0-1.4,0-2.2C18.4,58.1,25.4,58.1,32.4,58.1z"/>
<path class="st0" d="M47.7,60.4c-2.1,0-4.2,0-6.3,0c-1.3,0-1.5-0.6-1.2-1.8c0.2-0.9,0-1.9-0.1-2.8c-0.1-0.9-0.1-1.8-0.3-2.7
	c-0.1-0.5-0.3-1-0.5-1.5c-0.1-0.3-0.2-0.8-0.1-1c0.7-0.8,0.5-1.7,0.6-2.6c0.2-1.1,0.3-2.2,0.4-3.3c0-0.5,0-1-0.2-1.5
	c-0.3-0.8,0.1-1.5,1-1.6c0.6,0,1.3,0,1.9,0c3.6,0,7.2,0,10.8,0c1.6,0,1.8,0.4,1.3,1.9c-0.1,0.5,0,1,0.1,1.5c0.1,1.2,0.2,2.3,0.4,3.4
	c0.1,0.7,0.4,1.3,0.6,2c0.1,0.3,0.1,0.7,0,1.1c-0.1,0.5-0.4,1-0.5,1.5c-0.2,1.3-0.3,2.7-0.4,4c0,0.6,0.1,1.2,0.2,1.8
	c0.2,0.8-0.3,1.4-1.3,1.4C52,60.4,49.9,60.4,47.7,60.4z M47.8,46.8c-0.9,1.1-1.7,2.2-2.5,3.2c-0.9,1.3-0.8,2.9,0.1,3.9
	c1.1,1.2,3,1.4,4.3,0.4c1.2-0.8,1.6-2.5,0.8-3.9C49.7,49.3,48.7,48.1,47.8,46.8z"/>
<path class="st0" d="M47.8,34.6c-0.6,0-1.1-0.4-1-1c0.1-0.6,0.4-0.9,1-1c0.5,0,1.1,0.5,1,1C48.7,34.2,48.4,34.6,47.8,34.6z"/>
<path class="st0" d="M43.9,28.1c0.5,0,0.9,0.3,0.9,0.9c0,0.6-0.4,1.1-0.9,1.1c-0.6,0-0.9-0.3-1-0.9C42.8,28.6,43.3,28.1,43.9,28.1z"
	/>
<path class="st0" d="M45.1,31.2c0-0.7,0.5-1.1,1-1.1c0.6,0.1,0.9,0.4,0.9,1c0,0.6-0.5,1-1,1C45.5,32.1,45.2,31.7,45.1,31.2z"/>
<path class="st0" d="M48.1,37.7c-0.5-0.1-0.8-0.4-0.8-1c0-0.5,0.5-1,1-1c0.6,0,0.9,0.4,0.9,1C49.3,37.2,48.8,37.7,48.1,37.7z"/>
<path class="st0" d="M42.6,27.1c-0.1,0.6-0.4,0.9-1,1c-0.6,0-1-0.5-1-1c0-0.6,0.4-0.9,1-0.9C42.2,26.1,42.5,26.5,42.6,27.1z"/>
<g>
	<rect x="34.4" y="17.3" transform="matrix(0.7115 -0.7027 0.7027 0.7115 -2.2929 29.9963)" class="st0" width="1.9" height="1.1"/>
	<rect x="41.6" y="10.5" transform="matrix(0.7115 -0.7027 0.7027 0.7115 4.4333 32.8563)" class="st0" width="1.4" height="1.1"/>
	<rect x="39.1" y="12.6" transform="matrix(0.7115 -0.7027 0.7027 0.7115 2.3242 31.9595)" class="st0" width="1.9" height="1.1"/>
	
		<rect x="36.8" y="14.9" transform="matrix(0.7115 -0.7027 0.7027 0.7115 1.565576e-02 30.9779)" class="st0" width="1.9" height="1.1"/>
</g>
<g>
	<rect x="39.9" y="16.9" transform="matrix(0.7115 -0.7027 0.7027 0.7115 -0.471 33.773)" class="st0" width="1.9" height="1.1"/>
	<rect x="47.1" y="10.2" transform="matrix(0.7115 -0.7027 0.7027 0.7115 6.2552 36.6331)" class="st0" width="1.4" height="1.1"/>
	<rect x="44.6" y="12.3" transform="matrix(0.7115 -0.7027 0.7027 0.7115 4.1461 35.7363)" class="st0" width="1.9" height="1.1"/>
	<rect x="42.3" y="14.6" transform="matrix(0.7115 -0.7027 0.7027 0.7115 1.8376 34.7547)" class="st0" width="1.9" height="1.1"/>
</g>
<g>
	<rect x="34.9" y="11.9" transform="matrix(0.7115 -0.7027 0.7027 0.7115 1.652 28.7802)" class="st0" width="1.9" height="1.1"/>
	<rect x="42" y="5.1" transform="matrix(0.7115 -0.7027 0.7027 0.7115 8.3782 31.6403)" class="st0" width="1.4" height="1.1"/>
	<rect x="39.6" y="7.2" transform="matrix(0.7115 -0.7027 0.7027 0.7115 6.2691 30.7435)" class="st0" width="1.9" height="1.1"/>
	<rect x="37.3" y="9.5" transform="matrix(0.7115 -0.7027 0.7027 0.7115 3.9606 29.7618)" class="st0" width="1.9" height="1.1"/>
</g>
<g>
	<rect x="31.8" y="10.7" transform="matrix(0.7115 -0.7027 0.7027 0.7115 1.5581 26.2267)" class="st0" width="1.9" height="1.1"/>
	<rect x="38.9" y="3.9" transform="matrix(0.7115 -0.7027 0.7027 0.7115 8.2842 29.0868)" class="st0" width="1.4" height="1.1"/>
	<rect x="36.5" y="6" transform="matrix(0.7115 -0.7027 0.7027 0.7115 6.1751 28.19)" class="st0" width="1.9" height="1.1"/>
	<rect x="34.1" y="8.4" transform="matrix(0.7115 -0.7027 0.7027 0.7115 3.8666 27.2083)" class="st0" width="1.9" height="1.1"/>
</g>
<rect x="12.5" y="35.9" class="st1" width="15" height="15"/>
</svg>
