<?xml version="1.0" encoding="utf-8"?>
<!-- Generator: Adobe Illustrator 25.4.1, SVG Export Plug-In . SVG Version: 6.00 Build 0)  -->
<svg version="1.1" id="Layer_1" xmlns="http://www.w3.org/2000/svg" xmlns:xlink="http://www.w3.org/1999/xlink" x="0px" y="0px"
	 viewBox="0 0 64 64" style="enable-background:new 0 0 64 64;" xml:space="preserve">
<style type="text/css">
	.st0{fill:#221F1F;}
	.st1{fill:#F38065;}
</style>
<path class="st0" d="M34.3,19.2c0.4-1,0.7-1.9,1.1-3c0.4,0.8,0.7,1.4,1,2.1c0.1,0.2,0,0.5-0.1,0.7c-0.9,1.7-0.9,3.2,0.2,4.8
	c0.1,0.2,0.2,0.4,0.3,0.7c0.6,1.7-0.2,3.1-2,3.1c-3.3,0.1-6.6,0-9.9,0c-0.3,0-0.5-0.1-0.8-0.1c-1.3-0.3-1.9-1.4-1.3-2.6
	c0.2-0.4,0.5-0.8,0.8-1.2c1.9-2.3,3.8-4.6,5.7-6.9c0.1-0.2,0.3-0.3,0.4-0.4c1.2-1.2,2.7-1.1,3.6,0.4C33.6,17.5,33.9,18.3,34.3,19.2z
	"/>
<path class="st0" d="M44.5,46.1c-4.6,0-9.1,0-13.7,0c0-2,0-4,0-6.1c4.6,0,9.1,0,13.7,0C44.5,42,44.5,44,44.5,46.1z"/>
<path class="st0" d="M15.1,46.1c0-2.1,0-4.1,0-6.1c4.6,0,9.2,0,13.8,0c0,2,0,4,0,6.1C24.3,46.1,19.7,46.1,15.1,46.1z"/>
<path class="st0" d="M21,48.1c0,2,0,4,0,6.1c-4.6,0-9.1,0-13.7,0c0-2,0-4,0-6.1C11.8,48.1,16.4,48.1,21,48.1z"/>
<path class="st0" d="M23,54.1c0-2.1,0-4,0-6.1c4.6,0,9.1,0,13.7,0c0,2,0,4,0,6.1C32.1,54.1,27.6,54.1,23,54.1z"/>
<path class="st0" d="M52.4,48.1c0,2,0,4,0,6.1c-4.6,0-9.1,0-13.7,0c0-2,0-4,0-6.1C43.2,48.1,47.8,48.1,52.4,48.1z"/>
<path class="st0" d="M43.3,11.1c1.1,0,2,0.7,2.3,1.6c0.3,1-0.1,2.1-1,2.6c-2.1,1-4.2,2-6.3,2.9c-0.6,0.3-1.1,0-1.3-0.5
	c-0.3-0.7-0.7-1.4-1-2.1c-0.3-0.6-0.1-1.2,0.5-1.5c2-0.9,4-1.9,6-2.8C42.9,11.1,43.2,11.1,43.3,11.1z"/>
<rect x="24.9" y="29" class="st1" width="9.6" height="9.6"/>
</svg>
