<?xml version="1.0" encoding="utf-8"?>
<!-- Generator: Adobe Illustrator 25.4.1, SVG Export Plug-In . SVG Version: 6.00 Build 0)  -->
<svg version="1.1" id="Layer_1" xmlns="http://www.w3.org/2000/svg" xmlns:xlink="http://www.w3.org/1999/xlink" x="0px" y="0px"
	 viewBox="0 0 60 60" style="enable-background:new 0 0 60 60;" xml:space="preserve">
<style type="text/css">
	.st0{fill:#FFFFFF;}
	.st1{fill:#F48165;}
	.st2{fill:#231F20;}
</style>
<rect x="3.5" y="48.89" class="st0" width="62.06" height="2.22"/>
<rect x="19.15" y="3.55" transform="matrix(0.9701 0.2428 -0.2428 0.9701 3.086 -5.8331)" class="st1" width="12.11" height="12.11"/>
<path class="st2" d="M20.82,33.68c0.49,1.26,0.94,2.54,1.47,3.78c0.48,1.12,0.7,2.2,0.45,3.45c-0.64,3.17-1.15,6.38-1.74,9.56
	c-0.26,1.41-1.46,2.2-2.84,1.95c-1.25-0.23-2.1-1.48-1.87-2.81c0.53-3.08,1.09-6.15,1.62-9.23c0.06-0.34,0.04-0.74-0.08-1.05
	c-1.06-2.77-2.13-5.54-3.23-8.3c-0.31-0.78-0.34-1.52-0.11-2.34c0.8-2.86,1.54-5.73,2.29-8.61c0.03-0.12-0.06-0.28-0.1-0.42
	c-0.11,0.11-0.28,0.21-0.31,0.34c-0.3,1.05-0.57,2.1-0.88,3.25c-0.13-0.16-0.22-0.26-0.3-0.37c-0.55-0.88-1.1-1.76-1.64-2.64
	c-0.63-1.04-0.38-1.94,0.69-2.49c1.35-0.68,2.7-1.37,4.08-2c0.37-0.17,0.88-0.24,1.27-0.14c2.42,0.6,4.82,1.26,7.22,1.89
	c0.75,0.19,1.17,0.64,1.34,1.4c0.43,1.96,0.9,3.92,1.37,5.88c0.09,0.38,0.23,0.77,0.43,1.11c1.06,1.89,2.15,3.76,3.23,5.64
	c0.32,0.56,0.51,1.12,0.18,1.74c-0.59,1.1-2.05,1.13-2.71,0.02c-0.86-1.45-1.68-2.92-2.52-4.39c-0.06-0.1-0.12-0.2-0.17-0.3
	c-0.66-1.18-1.47-2.3-1.65-3.73c-0.29,1.09-0.58,2.17-0.87,3.26c-0.18,0.67-0.32,1.34-0.53,2c-0.11,0.35-0.01,0.51,0.25,0.71
	c1.15,0.87,2.27,1.77,3.42,2.64c0.57,0.43,0.98,0.97,1.16,1.67c0.81,3.07,1.62,6.15,2.42,9.22c0.37,1.41-0.37,2.72-1.69,3.07
	c-1.33,0.35-2.59-0.44-2.97-1.86c-0.71-2.68-1.4-5.38-2.12-8.05c-0.09-0.32-0.32-0.65-0.58-0.86c-1.28-1.03-2.58-2.02-3.88-3.02
	C20.87,33.64,20.85,33.66,20.82,33.68z"/>
<path class="st2" d="M48.83,20.57c0.16,0.01,0.33-0.01,0.48,0.04c3.88,1.54,7.13,3.84,9,7.71c0.85,1.76,1.24,3.63,1.33,5.6
	c0.29,6.08-1.79,11.48-4.55,16.71c-0.3,0.58-0.64,1.14-0.99,1.68c-0.09,0.15-0.31,0.3-0.47,0.3c-1.01-0.02-2.02-0.08-3.13-0.13
	c0.44-0.62,0.86-1.18,1.26-1.75c2.56-3.74,4.66-7.71,5.71-12.16c0.85-3.58,0.86-7.12-0.76-10.52c-1.42-2.97-3.77-5.04-6.57-6.66
	c-0.43-0.25-0.87-0.48-1.31-0.72C48.83,20.65,48.83,20.61,48.83,20.57z"/>
<path class="st2" d="M16.4,43.39c-0.13,0.79-0.26,1.61-0.43,2.43c-0.02,0.12-0.23,0.25-0.38,0.3c-3.27,1.09-6.54,2.16-9.81,3.23
	C5.62,49.4,5.4,49.4,5.24,49.34c-1.41-0.54-2.81-1.1-4.22-1.66c-0.05-0.02-0.1-0.05-0.13-0.06C6.07,46.2,11.21,44.8,16.4,43.39z"/>
<path class="st2" d="M40.72,20.77c0.22,0.06,0.55,0.06,0.73,0.22c0.87,0.78,1.8,1.52,2.51,2.43c1.46,1.86,1.48,3.92,0.4,5.99
	c-0.96,1.82-2.41,3.22-3.98,4.49c-2.57,2.09-5.43,3.74-8.36,5.26c-0.05,0.02-0.11,0.03-0.22,0.05c-0.14-0.49-0.27-0.98-0.42-1.51
	c1.1-0.56,2.21-1.08,3.28-1.66c2.59-1.4,5.11-2.91,7.14-5.08c0.56-0.6,1.06-1.27,1.46-1.98c1.18-2.13,0.95-4.26-0.63-6.14
	C42.03,22.11,41.36,21.45,40.72,20.77z"/>
<path class="st2" d="M42.72,51.21c-0.5-0.06-1.04-0.09-1.56-0.2c-0.48-0.1-0.54-0.36-0.23-0.73c0.7-0.84,2.93-0.84,3.63-0.01
	c0.32,0.38,0.24,0.66-0.27,0.76C43.78,51.12,43.26,51.15,42.72,51.21z"/>
<path class="st2" d="M44.75,54.45c-0.53-0.06-1.07-0.1-1.59-0.2c-0.44-0.09-0.51-0.41-0.2-0.76c0.72-0.81,2.92-0.8,3.61,0.01
	c0.32,0.38,0.26,0.64-0.21,0.74C45.83,54.36,45.29,54.39,44.75,54.45z"/>
<path class="st2" d="M30.37,51.22c-0.53-0.07-1.07-0.1-1.59-0.21c-0.46-0.09-0.52-0.39-0.22-0.75c0.7-0.83,2.95-0.82,3.63,0.02
	c0.31,0.38,0.25,0.63-0.23,0.73C31.44,51.12,30.9,51.15,30.37,51.22z"/>
<path class="st2" d="M36.73,49.74c-0.48-0.06-1.02-0.1-1.54-0.21c-0.43-0.09-0.54-0.43-0.2-0.69c0.36-0.28,0.82-0.49,1.26-0.6
	c0.77-0.19,1.54-0.05,2.19,0.42c0.17,0.13,0.29,0.4,0.32,0.62c0.01,0.08-0.31,0.26-0.49,0.29C37.78,49.64,37.28,49.68,36.73,49.74z"
	/>
<path class="st2" d="M24.01,53.19c-0.46-0.06-0.98-0.09-1.48-0.19c-0.52-0.11-0.62-0.48-0.19-0.79c0.36-0.26,0.81-0.44,1.25-0.53
	c0.73-0.15,1.46-0.05,2.08,0.4c0.19,0.14,0.27,0.43,0.4,0.64c-0.19,0.11-0.37,0.27-0.57,0.31C25.02,53.12,24.54,53.14,24.01,53.19z"
	/>
<path class="st2" d="M11.8,51.21c-0.49-0.06-1.01-0.1-1.51-0.19c-0.17-0.03-0.43-0.18-0.44-0.29c-0.01-0.17,0.11-0.41,0.25-0.53
	c0.7-0.59,1.54-0.65,2.38-0.48c0.38,0.07,0.74,0.28,1.07,0.5c0.14,0.09,0.26,0.36,0.24,0.53c-0.01,0.11-0.27,0.26-0.44,0.28
	C12.85,51.11,12.34,51.15,11.8,51.21z"/>
<path class="st2" d="M35.45,52.49c-0.53-0.06-1.03-0.09-1.51-0.18c-0.18-0.03-0.44-0.19-0.46-0.32c-0.03-0.16,0.12-0.46,0.26-0.52
	c0.54-0.22,1.11-0.52,1.66-0.51c0.59,0.01,1.24,0.24,1.76,0.54c0.49,0.29,0.38,0.68-0.2,0.8C36.46,52.41,35.94,52.43,35.45,52.49z"
	/>
<path class="st2" d="M25.11,50.04c-0.51-0.06-1.02-0.1-1.53-0.2c-0.5-0.11-0.57-0.4-0.24-0.78c0.71-0.8,2.91-0.79,3.6,0.02
	c0.3,0.36,0.23,0.65-0.23,0.75C26.19,49.94,25.66,49.98,25.11,50.04z"/>
<path class="st2" d="M23.31,43.16c0.13-0.77,0.22-1.43,0.36-2.07c0.03-0.15,0.2-0.31,0.35-0.38c0.32-0.16,0.67-0.26,1.08-0.4
	c0.17,0.61,0.33,1.21,0.52,1.88C24.86,42.5,24.13,42.81,23.31,43.16z"/>
<path class="st2" d="M43.48,46.97c-0.57,0.08-1.12,0.21-1.67,0.22c-0.49,0.01-0.99-0.08-1.47-0.18c-0.1-0.02-0.27-0.35-0.22-0.42
	c0.4-0.66,1.1-0.71,1.76-0.7C42.79,45.9,43.26,46.22,43.48,46.97z"/>
<path class="st2" d="M45.94,44.85c-0.44-0.06-0.88-0.09-1.31-0.18c-0.4-0.08-0.43-0.33-0.2-0.63c0.55-0.71,2.56-0.7,3.11,0.02
	c0.25,0.32,0.15,0.55-0.23,0.61C46.86,44.76,46.4,44.8,45.94,44.85z"/>
<path class="st2" d="M39.82,43.76c-0.46-0.06-0.91-0.09-1.33-0.19c-0.41-0.1-0.46-0.35-0.18-0.66c0.58-0.66,2.42-0.66,3.02,0.01
	c0.27,0.3,0.28,0.56-0.17,0.65C40.71,43.67,40.25,43.71,39.82,43.76z"/>
<path class="st2" d="M49.15,45.91c0.27-0.24,0.45-0.49,0.7-0.62c0.77-0.42,2.01-0.32,2.55,0.19c0.13,0.12,0.28,0.32,0.26,0.47
	c-0.02,0.12-0.26,0.24-0.43,0.29C51.41,46.48,49.78,46.34,49.15,45.91z"/>
<path class="st2" d="M47.69,48.77c-0.42-0.05-0.84-0.09-1.25-0.16c-0.15-0.03-0.36-0.14-0.4-0.26c-0.04-0.12,0.07-0.33,0.18-0.44
	c0.58-0.62,2.34-0.63,2.94-0.02c0.12,0.12,0.22,0.33,0.2,0.49c-0.01,0.09-0.26,0.2-0.41,0.23C48.54,48.68,48.12,48.71,47.69,48.77z"
	/>
<path class="st2" d="M35.48,45.8c-0.47-0.06-0.91-0.09-1.34-0.16c-0.45-0.08-0.46-0.35-0.2-0.65c0.57-0.69,2.52-0.67,3.06,0.02
	c0.22,0.28,0.24,0.55-0.19,0.63C36.36,45.71,35.9,45.75,35.48,45.8z"/>
<path class="st2" d="M55.47,40.76c-0.74,0.3-1.46,0.28-2.17,0.12c-0.3-0.07-0.31-0.25-0.13-0.46
	C53.64,39.83,55.07,40.01,55.47,40.76z"/>
<path class="st2" d="M39.94,40.75c0.36-0.77,1.85-0.95,2.28-0.33c0.06,0.08-0.04,0.4-0.11,0.42C41.4,41.03,40.68,41.05,39.94,40.75z
	"/>
<path class="st2" d="M56.82,38.49c-0.75,0.27-1.44,0.28-2.14,0.09c-0.09-0.02-0.13-0.26-0.19-0.4c0.44-0.13,0.88-0.34,1.33-0.38
	C56.23,37.76,56.66,37.91,56.82,38.49z"/>
<path class="st2" d="M47.58,41.92c-0.87,0.36-1.66,0.28-2.54,0.05c0.29-0.64,0.77-0.73,1.27-0.73
	C46.82,41.24,47.28,41.33,47.58,41.92z"/>
<path class="st2" d="M49.24,37.32c-0.91,0-1.68,0-2.52,0c0.18-0.72,0.67-0.77,1.13-0.8C48.38,36.49,48.9,36.56,49.24,37.32z"/>
<path class="st2" d="M43.47,38.71c-0.26-0.03-0.49-0.05-0.71-0.1c-0.15-0.04-0.29-0.14-0.43-0.21c0.1-0.15,0.17-0.36,0.31-0.43
	c0.58-0.3,1.18-0.3,1.76,0.02c0.13,0.07,0.19,0.26,0.28,0.4c-0.12,0.07-0.24,0.17-0.37,0.2C44.02,38.65,43.73,38.67,43.47,38.71z"/>
<path class="st2" d="M36.66,39.73c-0.32-0.04-0.62-0.06-0.92-0.12c-0.33-0.07-0.33-0.27-0.13-0.49c0.37-0.42,1.67-0.44,2.08-0.03
	c0.23,0.24,0.23,0.45-0.13,0.52C37.26,39.67,36.95,39.69,36.66,39.73z"/>
<path class="st2" d="M35.5,41.74c-0.53,0.32-1.53,0.35-2.32,0.07c0.01-0.4,0.19-0.59,0.68-0.69C34.73,40.96,35.28,41.17,35.5,41.74z
	"/>
<path class="st2" d="M47.8,39.53c0.09-0.56,0.41-0.68,0.76-0.74c0.22-0.04,0.46-0.1,0.68-0.05c0.38,0.07,0.87,0.09,0.9,0.6
	c0.01,0.08-0.59,0.26-0.92,0.28C48.76,39.65,48.3,39.57,47.8,39.53z"/>
<path class="st2" d="M42.33,36.57c-0.76,0.31-1.49,0.25-2.22,0.1c-0.05-0.01-0.13-0.37-0.06-0.45
	C40.56,35.63,41.88,35.81,42.33,36.57z"/>
<path class="st2" d="M52.29,43.03c-0.87,0.31-1.65,0.31-2.48,0.02c0.14-0.57,0.56-0.67,1.01-0.69
	C51.38,42.33,51.94,42.34,52.29,43.03z"/>
<path class="st2" d="M45.45,32.71c-0.69,0-1.3,0-1.99,0c0.26-0.65,0.72-0.7,1.16-0.66C44.97,32.07,45.41,32.1,45.45,32.71z"/>
<path class="st2" d="M49.77,34.42c-0.71,0-1.33,0-1.99,0c0.2-0.53,0.4-0.66,0.93-0.68C49.23,33.73,49.53,33.89,49.77,34.42z"/>
<path class="st2" d="M54.85,33.71c0.41-0.72,1.53-0.88,1.9-0.41c0.05,0.07-0.07,0.39-0.11,0.39C56.08,33.72,55.53,33.71,54.85,33.71
	z"/>
<path class="st2" d="M55.79,35.87c-0.75,0-1.39,0-2.08,0c0.15-0.54,0.5-0.61,0.87-0.63C55.03,35.22,55.47,35.22,55.79,35.87z"/>
<path class="st2" d="M51.05,33.03c0.56-0.78,1.58-0.77,2.03-0.01C52.4,33.28,51.76,33.25,51.05,33.03z"/>
<path class="st2" d="M52.69,35.86c-0.78,0-1.41,0-2.1,0c0.17-0.53,0.51-0.61,0.88-0.63C51.92,35.22,52.34,35.25,52.69,35.86z"/>
<path class="st2" d="M46.58,35.16c-0.77,0-1.41,0-2.04,0c-0.02-0.09-0.05-0.17-0.07-0.26c0.3-0.12,0.59-0.31,0.9-0.36
	C45.8,34.48,46.24,34.53,46.58,35.16z"/>
<path class="st2" d="M50.19,28.77c-0.61,0-1.11,0-1.62,0c-0.02-0.07-0.05-0.13-0.07-0.2c0.24-0.11,0.47-0.29,0.72-0.33
	C49.57,28.2,49.93,28.26,50.19,28.77z"/>
<path class="st2" d="M45.72,30.71c0.47-0.7,1.23-0.7,1.67,0C46.83,30.71,46.32,30.71,45.72,30.71z"/>
<path class="st2" d="M51.93,29.69c0.45-0.7,1.26-0.69,1.64,0C53.02,29.69,52.52,29.69,51.93,29.69z"/>
<path class="st2" d="M47.59,28.48c-0.55,0-1.06,0-1.56,0c-0.02-0.07-0.04-0.14-0.06-0.22c0.25-0.1,0.49-0.25,0.74-0.28
	C47.05,27.94,47.4,27.98,47.59,28.48z"/>
<path class="st2" d="M49.63,31.1c0.49-0.65,1.19-0.65,1.69,0C50.73,31.1,50.22,31.1,49.63,31.1z"/>
<path class="st2" d="M52.87,27.7c-0.6,0-1.11,0-1.66,0C51.65,27.01,52.38,27,52.87,27.7z"/>
<path class="st2" d="M54.26,28.15c0.6-0.68,1.25-0.67,1.73,0C55.4,28.15,54.89,28.15,54.26,28.15z"/>
<path class="st2" d="M56.58,31.34c-0.58,0-1.08,0-1.63,0C55.38,30.67,56.12,30.67,56.58,31.34z"/>
<path class="st2" d="M47.58,32.62c0.42-0.55,1.11-0.55,1.54-0.05C48.72,32.89,48.2,32.91,47.58,32.62z"/>
<path class="st2" d="M52.87,26.36c0.36-0.45,0.72-0.46,1.22,0C53.58,26.36,53.23,26.36,52.87,26.36z"/>
<path class="st2" d="M47.07,26.27c-0.35,0-0.7,0-1.16,0c0.44-0.51,0.79-0.4,1.15-0.2C47.06,26.14,47.07,26.2,47.07,26.27z"/>
<path class="st2" d="M50.47,25.33c0.48-0.45,0.82-0.42,1.18,0C51.3,25.33,50.95,25.33,50.47,25.33z"/>
<path class="st2" d="M51.13,23.94c-0.35,0-0.71,0-1.21,0C50.42,23.48,50.78,23.5,51.13,23.94z"/>
<path class="st2" d="M48.09,24.67c0.49-0.46,0.77-0.46,1.15,0C48.86,24.67,48.51,24.67,48.09,24.67z"/>
<path class="st2" d="M50.18,26.37c-0.5,0-0.85,0-1.23,0C49.28,25.91,49.57,25.89,50.18,26.37z"/>
<path class="st2" d="M52.12,24.57c0.43-0.41,0.69-0.41,1.23,0C52.9,24.57,52.55,24.57,52.12,24.57z"/>
<path class="st2" d="M46.07,23.71c-0.44,0-0.77,0-1.13,0C45.21,23.24,45.6,23.22,46.07,23.71z"/>
<path class="st2" d="M48.77,27.26c-0.47,0-0.81,0-1.15,0C47.84,26.82,48.19,26.79,48.77,27.26z"/>
<path class="st2" d="M47.5,24.51c-0.45,0-0.78,0-1.14,0C46.64,24.05,46.99,24.02,47.5,24.51z"/>
</svg>
