<?xml version="1.0" encoding="utf-8"?>
<!-- Generator: Adobe Illustrator 25.4.1, SVG Export Plug-In . SVG Version: 6.00 Build 0)  -->
<svg version="1.1" id="Layer_1" xmlns="http://www.w3.org/2000/svg" xmlns:xlink="http://www.w3.org/1999/xlink" x="0px" y="0px"
	 viewBox="0 0 60 60" style="enable-background:new 0 0 60 60;" xml:space="preserve">
<style type="text/css">
	.st0{fill:#231F20;}
	.st1{fill:#F48165;}
</style>
<rect x="42.68" y="23.41" class="st0" width="4.84" height="28.2"/>
<rect x="37.59" y="8.39" class="st1" width="15.02" height="15.02"/>
<path class="st0" d="M36.61,33.76h-1.98l-4.26-7.95h-17.4l-4.31,7.95H7.39v11.82h2.77v4.76h3.75v-4.76h15.83v4.76h3.75v-4.76h3.11
	V33.76z M15.51,28h12.3l2.34,4.61H13.14L15.51,28z M12.18,41.59c-1.06,0-1.93-0.86-1.93-1.93c0-1.06,0.86-1.93,1.93-1.93
	s1.93,0.86,1.93,1.93C14.1,40.73,13.24,41.59,12.18,41.59z M31.76,41.59c-1.06,0-1.93-0.86-1.93-1.93c0-1.06,0.86-1.93,1.93-1.93
	c1.06,0,1.93,0.86,1.93,1.93C33.69,40.73,32.83,41.59,31.76,41.59z"/>
</svg>
