<?xml version="1.0" encoding="utf-8"?>
<!-- Generator: Adobe Illustrator 25.4.1, SVG Export Plug-In . SVG Version: 6.00 Build 0)  -->
<svg version="1.1" id="Layer_1" xmlns="http://www.w3.org/2000/svg" xmlns:xlink="http://www.w3.org/1999/xlink" x="0px" y="0px"
	 viewBox="0 0 64 64" style="enable-background:new 0 0 64 64;" xml:space="preserve">
<style type="text/css">
	.st0{fill:#F48165;}
	.st1{fill:#231F20;}
</style>
<rect x="23.09" y="27.07" class="st0" width="15.02" height="15.02"/>
<path class="st1" d="M51.41,22.28c-0.09,0.88-0.23,2.22-1.14,3.41c-0.27,0.36-0.55,0.78-0.96,1.01c-0.39,0.21-1.03,0.43-1.31,0.83
	v21.69c0,0.32-0.26,0.58-0.58,0.58h-1.57c-0.32,0-0.58-0.26-0.58-0.58V27.69c-0.01-0.04-0.04-0.08-0.06-0.12
	c-0.26-0.43-0.94-0.65-1.34-0.87c-0.41-0.23-0.69-0.65-0.96-1.01c-0.91-1.19-1.05-2.53-1.13-3.41c-0.05-0.42-0.18-1.99,0.46-3.89
	c0.29-0.87,0.59-1.76,1.25-2.54c0,0,0,0,0.01-0.01c0.68-1.03,1.83-1.71,3.14-1.71c1.51,0,2.82,0.91,3.42,2.22
	c0.41,0.65,0.65,1.35,0.88,2.04C51.58,20.29,51.45,21.86,51.41,22.28z"/>
<path class="st1" d="M19.39,25.47c0,0.04,0,0.18-0.06,0.33c-0.06,0.14-0.14,0.22-0.19,0.27c-0.31,0.15-0.98,0.54-1.44,1.34
	c-0.24,0.43-0.34,0.84-0.39,1.12H17.3v20.76c0,0.32-0.26,0.58-0.58,0.58h-1.57c-0.32,0-0.58-0.26-0.58-0.58V28.17
	c-0.05-0.23-0.15-0.49-0.3-0.76c-0.46-0.8-1.14-1.19-1.44-1.34c-0.05-0.05-0.13-0.13-0.19-0.27c-0.07-0.15-0.06-0.29-0.06-0.33
	c0.03-1.22-0.11-2.43,0.04-3.63c0.15-1.24,0.28-2.49,0.39-3.73c0.11-1.25,0.22-2.51,0.29-3.76h0.73v8.58
	c0.06,0.16,0.21,0.28,0.37,0.31c0.2,0.02,0.4-0.1,0.49-0.3v-8.57h0.58c0.04,2.81,0.08,5.61,0.11,8.42c0,0.04-0.01,0.15,0.05,0.25
	c0.08,0.12,0.2,0.18,0.35,0.18h0.01c0.15,0,0.27-0.06,0.34-0.18c0.07-0.1,0.06-0.21,0.05-0.25c0.04-2.81,0.08-5.61,0.11-8.42h0.59
	v8.57c0.08,0.2,0.29,0.32,0.49,0.3c0.16-0.03,0.31-0.15,0.36-0.31v-8.58h0.74c0.07,1.25,0.18,2.51,0.29,3.76
	c0.11,1.24,0.24,2.49,0.39,3.73C19.5,23.04,19.35,24.25,19.39,25.47z"/>
</svg>
