<?xml version="1.0" encoding="utf-8"?>
<!-- Generator: Adobe Illustrator 25.4.1, SVG Export Plug-In . SVG Version: 6.00 Build 0)  -->
<svg version="1.1" id="Layer_1" xmlns="http://www.w3.org/2000/svg" xmlns:xlink="http://www.w3.org/1999/xlink" x="0px" y="0px"
	 viewBox="0 0 64 64" style="enable-background:new 0 0 64 64;" xml:space="preserve">
<style type="text/css">
	.st0{fill:#231F20;}
	.st1{fill:none;}
	.st2{fill:#231F20;stroke:#FFFFFF;stroke-width:0.7577;stroke-linecap:round;stroke-linejoin:round;stroke-miterlimit:10;}
	.st3{fill:#F48165;}
	.st4{fill:#FFFFFF;}
</style>
<g>
	<polygon class="st0" points="59.64,50.41 59.64,54.54 4.36,54.54 4.36,50.41 8.71,50.41 8.71,35.4 21.9,35.4 21.9,50.41 
		24.49,50.41 24.49,35.4 39.51,35.4 39.51,50.41 42.35,50.41 42.35,35.4 55.54,35.4 55.54,50.41 	"/>
	<rect x="8.71" y="19.23" class="st0" width="46.83" height="13.51"/>
</g>
<path class="st0" d="M8.53,16.64"/>
<path class="st0" d="M47.8,19.23c0.98,1.6,2.66,2.92,4.39,2.96c1.29,0.02,2.46-0.66,3.35-1.65v-1.31H47.8z M42.07,22.19
	c1.7-0.03,3.32-1.39,4.35-2.96h-8.69C38.74,20.83,40.32,22.21,42.07,22.19z M32.02,22c1.91-0.03,3.62-1.13,4.48-2.77h-9.12
	C28.27,20.92,30.05,22.03,32.02,22z M21.88,22.17c1.97-0.03,3.73-1.21,4.55-2.94h-9.24C18.03,21.01,19.85,22.2,21.88,22.17z
	 M8.71,21.38c0.67,0.57,1.49,0.95,2.36,1.07c2.17,0.3,4.4-1.04,5.3-3.22H8.71V21.38z"/>
<path class="st0" d="M56.81,18.33v0.42h-0.1c-0.3,0.65-0.7,1.26-1.17,1.79v-1.31H47.8c-0.09-0.16-0.18-0.32-0.26-0.48h-0.82
	c-0.09,0.16-0.19,0.32-0.3,0.48h-8.69c-0.11-0.16-0.2-0.32-0.29-0.48h-0.71c-0.07,0.17-0.14,0.33-0.23,0.48h-9.12
	c-0.08-0.16-0.15-0.32-0.22-0.48h-0.52c-0.06,0.16-0.13,0.32-0.21,0.48h-9.24c-0.08-0.15-0.14-0.32-0.2-0.48h-0.44
	c-0.05,0.17-0.11,0.33-0.18,0.48H8.71v2.15c-0.74-0.61-1.32-1.45-1.64-2.42v-0.63l0.14-0.5l0.35-1.19h48.75
	c0.12,0.4,0.23,0.79,0.35,1.19C56.71,18,56.76,18.16,56.81,18.33z"/>
<path class="st0" d="M56.31,16.63H7.56l0.65-2.26h47.44C55.87,15.13,56.09,15.88,56.31,16.63z"/>
<polyline class="st1" points="56.31,16.64 56.71,16.64 56.81,16.64 "/>
<line class="st1" x1="7.56" y1="16.64" x2="7.07" y2="16.64"/>
<path class="st2" d="M16.75,18.72c-0.04,0.32-0.11,0.63-0.2,0.92c-0.76,2.46-3.15,4.02-5.48,3.7c-1.82-0.25-3.39-1.62-4-3.49
	c-0.12-0.36-0.21-0.74-0.25-1.13H16.75z"/>
<path class="st2" d="M16.75,18.72h10.13c-0.05,0.32-0.13,0.62-0.24,0.92c-0.71,1.99-2.61,3.39-4.76,3.42
	c-2.21,0.03-4.17-1.38-4.89-3.42C16.88,19.35,16.8,19.04,16.75,18.72z"/>
<path class="st2" d="M26.88,18.72H37c-0.06,0.32-0.16,0.63-0.27,0.92c-0.77,1.9-2.62,3.22-4.71,3.25c-2.15,0.03-4.07-1.29-4.86-3.25
	C27.04,19.35,26.94,19.04,26.88,18.72z"/>
<path class="st2" d="M37,18.72h10.17c-0.12,0.3-0.27,0.61-0.45,0.92c-1,1.76-2.78,3.41-4.65,3.44c-1.92,0.02-3.64-1.65-4.63-3.44
	C37.27,19.33,37.12,19.02,37,18.72z"/>
<path class="st2" d="M57.06,18.72c-0.07,0.23-0.15,0.46-0.25,0.69c-0.03,0.08-0.06,0.16-0.1,0.23c-0.86,1.87-2.54,3.47-4.52,3.44
	c-1.9-0.04-3.74-1.63-4.65-3.44c-0.15-0.3-0.28-0.61-0.37-0.92H57.06z"/>
<path class="st0" d="M55.26,22.23"/>
<path class="st0" d="M58.64,20.25"/>
<rect x="8.7" y="29.94" class="st0" width="46.82" height="22.59"/>
<rect x="35.78" y="29.58" class="st3" width="15.02" height="15.02"/>
<rect x="8.23" y="9.46" class="st0" width="47.4" height="5.42"/>
<rect x="15.69" y="29.57" class="st4" width="11.66" height="21"/>
</svg>
