<?xml version="1.0" encoding="utf-8"?>
<!-- Generator: Adobe Illustrator 25.4.1, SVG Export Plug-In . SVG Version: 6.00 Build 0)  -->
<svg version="1.1" id="Layer_1" xmlns="http://www.w3.org/2000/svg" xmlns:xlink="http://www.w3.org/1999/xlink" x="0px" y="0px"
	 viewBox="0 0 64 64" style="enable-background:new 0 0 64 64;" xml:space="preserve">
<style type="text/css">
	.st0{fill:#221F1F;}
	.st1{fill:#F38065;}
</style>
<path class="st0" d="M52.1,35.1c-0.3-0.1-0.3-0.2-0.3-0.5c0-1.3,0-2.6,0-3.9c0-1-0.2-1.8-0.9-2.6c-3.2-4-6.4-8-9.6-11.9
	c-0.6-0.7-1.3-1.1-2.2-1.1c-9.9,0-19.7,0-29.6,0c-1.6,0-2.9,1.4-2.9,2.9c0,7.5,0,15,0,22.5c0,1.6,1.2,2.8,2.8,2.8c1,0,1.9,0,2.9,0
	c0.2,0.5,0.3,1,0.5,1.4c1.1,2.4,2.9,3.8,5.5,4.1c0.1,0,0.1,0.1,0.2,0.1c0.5,0,0.9,0,1.4,0c0.6-0.2,1.3-0.3,1.9-0.5
	c2.2-0.9,3.6-2.5,4.2-4.7c0.1-0.3,0.2-0.4,0.6-0.4c5.4,0,10.9,0,16.3,0c0.3,0,0.4,0,0.5,0.3c0.9,3,2.9,4.8,6,5.2
	c0.1,0,0.1,0.1,0.2,0.1c0.5,0,0.9,0,1.4,0c0.3-0.1,0.6-0.1,0.9-0.2c2.7-0.6,4.8-2.9,5.3-5.6C57.9,39.2,55.4,35.8,52.1,35.1z
	 M19.2,46.1c-2.3,0-4.2-1.9-4.1-4.3c0-2.4,1.9-4.3,4.3-4.3c2.4,0,4.2,2,4.2,4.4C23.5,44.3,21.6,46.2,19.2,46.1z M37.6,40.4
	c-3.8,0-7.5,0-11.3,0c0-2.8,0-5.6,0-8.5c0.2,0,0.4,0,0.5,0c1.2,0,2.4,0,3.6,0c1,0,1.5-0.8,1.5-1.4c0-0.8-0.6-1.4-1.5-1.4
	c-1.2,0-2.5,0-3.7,0c-0.4,0-0.5-0.1-0.5-0.5c0-3.4,0-6.9,0-10.3c0-0.4,0.1-0.5,0.5-0.5c3.1,0,6.1,0,9.2,0c1.2,0,1.7,0.5,1.7,1.7
	c0,6.8,0,13.7,0,20.5C37.7,40.2,37.7,40.3,37.6,40.4z M40.5,29.2c0-3.2,0-6.3,0-9.6c2.6,3.2,5.1,6.4,7.7,9.6
	C45.5,29.2,43,29.2,40.5,29.2z M50.4,46.1c-2.3,0-4.3-1.9-4.3-4.2c0-2.3,1.9-4.3,4.2-4.3c2.3,0,4.2,1.9,4.3,4.2
	C54.6,44.2,52.7,46.1,50.4,46.1z"/>
<rect x="8.7" y="18.9" class="st1" width="15" height="15"/>
</svg>
