<?xml version="1.0" encoding="utf-8"?>
<!-- Generator: Adobe Illustrator 25.4.1, SVG Export Plug-In . SVG Version: 6.00 Build 0)  -->
<svg version="1.1" id="Layer_1" xmlns="http://www.w3.org/2000/svg" xmlns:xlink="http://www.w3.org/1999/xlink" x="0px" y="0px"
	 viewBox="0 0 60 60" style="enable-background:new 0 0 60 60;" xml:space="preserve">
<style type="text/css">
	.st0{fill:#231F20;}
	.st1{fill:#F48165;}
</style>
<g>
	<path class="st0" d="M17.49,47.09c9.68,0,19.37,0,29.05,0c0.56,0,0.79-0.23,0.79-0.78c0-5.84,0-11.68,0-17.52
		c0-5.86,0-11.73,0-17.59c0-0.52-0.24-0.76-0.76-0.76c-9.69,0-19.38,0-29.07,0c-0.54,0-0.78,0.23-0.78,0.77c0,11.7,0,23.41,0,35.11
		C16.72,46.86,16.95,47.09,17.49,47.09z M33.08,45.21c-0.71,0-1.42,0-2.13,0c-1.08,0-1.83-0.75-1.83-1.83c0-0.81,0-1.63,0-2.44
		c0-0.82,0-1.64,0-2.46c0-1.06,0.75-1.81,1.81-1.82c0.72,0,1.45,0,2.17,0c1.07,0,1.82,0.76,1.82,1.84c0,1.62,0,3.24,0,4.86
		C34.93,44.46,34.18,45.21,33.08,45.21z M35.01,33.09c-0.45,0.01-0.89,0-1.37,0c0,0.47,0,0.91,0,1.36c0,0.1,0,0.2-0.04,0.28
		c-0.09,0.23-0.28,0.34-0.52,0.35c-0.7,0-1.4,0.01-2.1,0c-0.37-0.01-0.57-0.23-0.58-0.62c-0.01-0.37,0-0.73,0-1.1
		c0-0.08,0-0.16,0-0.27c-0.49,0-0.95,0-1.41,0c-0.49,0-0.9-0.19-1.23-0.54c-0.31-0.32-0.47-0.7-0.47-1.15c0-0.24,0-0.48,0-0.74
		c-0.02,0-0.04,0-0.06,0h1.17c0,0.24-0.01,0.47,0,0.7c0.02,0.39,0.25,0.61,0.65,0.61c0.74,0,1.48,0,2.21,0c1.27,0,2.54,0,3.8,0
		c0.3,0,0.56-0.17,0.59-0.44c0.03-0.28,0.01-0.57,0.01-0.87h1.13c0,0.23,0,0.44,0,0.64C36.77,32.34,36.06,33.07,35.01,33.09z"/>
	<path class="st0" d="M47.11,48.27c-0.04-0.05-0.12-0.08-0.18-0.09c-0.18,0-0.36,0.02-0.53,0.02c-9.56,0-19.12,0-28.69,0
		c-0.2,0-0.4-0.03-0.6-0.03c-0.06,0-0.13,0.03-0.16,0.07c-0.38,0.49-0.75,0.98-1.13,1.47c0.04,0.06,0.08,0.12,0.12,0.17
		c0.59,0.82,1.18,1.65,1.76,2.48c0.11,0.16,0.22,0.22,0.42,0.22c7.55-0.01,15.1,0,22.64,0c1.75,0,3.49,0,5.24,0
		c0.15,0,0.25-0.05,0.33-0.17c0.13-0.21,0.28-0.4,0.43-0.6c0.5-0.7,0.99-1.39,1.49-2.09C47.85,49.24,47.48,48.75,47.11,48.27z
		 M39.68,50.27c-0.07,0.01-0.15,0-0.22,0c-4.95,0-9.91,0-14.86,0c-0.15,0-0.3-0.01-0.43-0.07c-0.22-0.09-0.32-0.34-0.28-0.58
		c0.04-0.22,0.22-0.4,0.45-0.44c0.09-0.01,0.18-0.01,0.27-0.01c2.48,0,4.95,0,7.43,0c2.51,0,5.01,0,7.52,0
		c0.38,0,0.63,0.21,0.63,0.54C40.18,50,39.96,50.25,39.68,50.27z"/>
	<path class="st0" d="M31.51,33.96c0.34,0,0.67,0,1.01,0c0-0.3,0-0.58,0-0.86c-0.35,0-0.68,0-1.01,0
		C31.51,33.39,31.51,33.67,31.51,33.96z"/>
	<path class="st0" d="M33.15,37.78c-0.75,0-1.51,0-2.26,0c-0.42,0-0.66,0.25-0.66,0.68c0,0.82,0,1.64,0,2.46c0,0.83,0,1.65,0,2.48
		c0,0.45,0.24,0.7,0.68,0.7c0.74,0,1.48,0,2.21,0c0.43,0,0.68-0.25,0.68-0.68c0-1.65,0-3.31,0-4.96
		C33.81,38.03,33.57,37.78,33.15,37.78z"/>
</g>
<rect x="24.51" y="14.26" class="st1" width="15.01" height="15.02"/>
</svg>
