<?xml version="1.0" encoding="utf-8"?>
<!-- Generator: Adobe Illustrator 25.4.1, SVG Export Plug-In . SVG Version: 6.00 Build 0)  -->
<svg version="1.1" id="Layer_1" xmlns="http://www.w3.org/2000/svg" xmlns:xlink="http://www.w3.org/1999/xlink" x="0px" y="0px"
	 viewBox="0 0 60 60" style="enable-background:new 0 0 60 60;" xml:space="preserve">
<style type="text/css">
	.st0{fill:#231F20;}
	.st1{fill:#F48165;}
</style>
<path class="st0" d="M44.77,11.48c0-0.5,0-0.91,0-1.39c0.25-0.01,0.46-0.03,0.67-0.03c0.55-0.01,1.1-0.04,1.65,0
	c0.85,0.07,1.48,0.04,1.8-1.04c0.32-1.07,1.64-1.67,2.72-1.56c1.25,0.12,2.26,0.94,2.56,2.15c0.09,0.39,0.26,0.45,0.6,0.45
	c0.82-0.01,1.64,0,2.51,0c0,2.14,0,4.23,0,6.4c-1.51,0-3.02,0-4.56,0c0,3.12,0,6.17,0,9.29c0.33,0.02,0.67,0.04,1.05,0.07
	c0,0.74,0,1.46,0,2.2c-0.35,0.02-0.67,0.04-1.05,0.07c-0.01,0.21-0.03,0.4-0.03,0.6c0,7.92,0,15.84-0.01,23.76
	c0,0.53,0.14,0.76,0.68,0.86c1.56,0.3,3.11,0.66,4.66,1.01c0.14,0.03,0.36,0.22,0.36,0.34c0.03,0.88,0.02,1.75,0.02,2.66
	c-4.82,0-9.6,0-14.39,0c0-0.95,0-1.86,0-2.84c1.08-0.24,2.16-0.47,3.24-0.71c0.78-0.17,1.56-0.38,2.36-0.51
	c0.46-0.07,0.54-0.29,0.54-0.69c-0.01-4.14-0.01-8.29-0.01-12.43c0-7.61,0-15.22,0-22.82c0-0.25,0-0.51,0-0.82
	c-1.77,0-3.51,0-5.31,0c0-0.79,0-1.53,0-2.31c-0.23-0.02-0.39-0.03-0.55-0.03c-0.81,0-1.62,0.04-2.42-0.01
	c-1-0.06-1.74-0.02-2.26,1.18c-0.65,1.47-2.19,1.84-3.71,1.91c-1.72,0.07-3.38-0.32-5-0.87c-2.53-0.84-4.97-1.87-7.07-3.55
	c-1.05-0.83-1.93-1.82-2.16-3.21c-0.3-1.83,0.49-3.26,1.81-4.41c2.13-1.86,4.68-2.56,7.47-2.51c2.16,0.04,4.15,0.65,5.86,2.01
	c2.02,1.59,3.22,3.66,3.56,6.21c0.05,0.41,0.15,0.61,0.62,0.59C42.2,11.46,43.44,11.48,44.77,11.48z"/>
<path class="st0" d="M2.51,53.28c0-0.95,0-1.86,0-2.85c0.38,0,0.74-0.04,1.1,0.01c0.59,0.07,0.9-0.17,1.21-0.67
	c1.93-3.07,3.88-6.12,5.88-9.14c0.69-1.05,1.54-2,2.33-2.99c0.34-0.43,0.77-0.61,1.34-0.61c2.46-0.01,4.91-0.07,7.37-0.09
	c0.35,0,0.51-0.09,0.6-0.45c0.2-0.87,0.46-1.72,0.7-2.55c-0.69,0.39-1.34,0.87-2.06,1.12c-1.72,0.6-3.39,0.24-4.97-0.57
	c-0.41-0.21-0.76-0.58-0.62-1.12c0.13-0.49,0.56-0.72,1-0.72c2.62,0.01,4.26-1.62,5.78-3.43c1.71-2.04,3.08-4.32,4.28-6.7
	c0.26-0.52,0.55-0.69,1.12-0.68c1.69,0.04,3.37,0.01,5.06,0.01c1.1,0,1.55,0.48,1.36,1.59c-0.25,1.53-0.55,3.06-0.86,4.58
	c-0.96,4.75-1.94,9.49-2.91,14.23c-0.04,0.19-0.09,0.38-0.14,0.6c-2.26,0-4.5,0-6.73,0c-1.98,0-3.96,0.01-5.94-0.01
	c-0.33,0-0.53,0.11-0.71,0.38c-1.56,2.26-3.13,4.51-4.68,6.78c-0.11,0.16-0.15,0.39-0.16,0.59c-0.02,0.88-0.01,1.76-0.01,2.68
	C8.73,53.28,5.65,53.28,2.51,53.28z"/>
<path class="st0" d="M13.89,56.83c0.7-1.04,1.34-2.02,2.01-2.98c0.09-0.12,0.34-0.19,0.51-0.19c1.74-0.01,3.48-0.01,5.23-0.01
	c0.2,0,0.4,0,0.64,0c0.29-1.64,0.58-3.26,0.88-4.94c-2.31,0-4.59,0-6.9,0c0-1.44,0-2.82,0-4.25c5.15,0,10.28,0,15.46,0
	c1.13-5.09,2.25-10.15,3.38-15.28c1.38,0.3,2.73,0.6,4.13,0.91c-1.37,6.2-2.74,12.37-4.12,18.59c-2.26,0-4.51,0-6.81,0
	c0.22,1.26,0.42,2.44,0.64,3.62c0.08,0.43,0.04,1.03,0.31,1.23c0.3,0.23,0.87,0.1,1.32,0.11c1.61,0.01,3.23,0.01,4.84-0.01
	c0.34,0,0.53,0.11,0.71,0.38c0.59,0.92,1.2,1.82,1.85,2.8C29.92,56.83,21.95,56.83,13.89,56.83z"/>
<path class="st0" d="M23.33,13.53c3.54,2.44,7.37,3.99,11.6,4.5c-1.01,1.87-4.1,3.47-7.12,2.53C24.83,19.64,22.98,16.83,23.33,13.53
	z"/>
<rect x="44.59" y="3.77" class="st1" width="12.8" height="12.8"/>
</svg>
