<?xml version="1.0" encoding="utf-8"?>
<!-- Generator: Adobe Illustrator 25.4.1, SVG Export Plug-In . SVG Version: 6.00 Build 0)  -->
<svg version="1.1" id="Layer_1" xmlns="http://www.w3.org/2000/svg" xmlns:xlink="http://www.w3.org/1999/xlink" x="0px" y="0px"
	 viewBox="0 0 60 60" style="enable-background:new 0 0 60 60;" xml:space="preserve">
<style type="text/css">
	.st0{fill:#231F20;}
	.st1{fill:#F48165;}
</style>
<path class="st0" d="M14.36,35.48v15.95h31.29V35.48H14.36z M41.04,47.69H18.96v-8.47h22.08V47.69z"/>
<rect x="20.7" y="40.87" class="st0" width="18.61" height="5.16"/>
<polygon class="st0" points="47.42,56.2 47.42,52.94 12.58,52.94 12.58,56.2 9.24,56.2 9.24,57.94 50.76,57.94 50.76,56.2 "/>
<rect x="23.31" y="1.3" class="st1" width="13.39" height="13.39"/>
<path class="st0" d="M32.46,18.18c0-0.98-0.06-1.91,0.03-2.83c0-0.05,0.03-0.1,0.04-0.15h-4.96c0.12,0.98,0.04,1.99,0.04,2.95
	c-4.01,0.83-7.53,2.12-9.34,6.12c3.72,2.64,5,6.45,5.91,10.52c3.69,0,7.33,0.02,10.97-0.04c0.28,0,0.7-0.56,0.8-0.93
	c0.85-3.19,2.36-6.01,4.56-8.47c0.4-0.45,0.82-0.89,1.22-1.34C39.65,20.37,36.35,18.87,32.46,18.18z"/>
</svg>
