<?xml version="1.0" encoding="utf-8"?>
<!-- Generator: Adobe Illustrator 25.4.1, SVG Export Plug-In . SVG Version: 6.00 Build 0)  -->
<svg version="1.1" id="Layer_1" xmlns="http://www.w3.org/2000/svg" xmlns:xlink="http://www.w3.org/1999/xlink" x="0px" y="0px"
	 viewBox="0 0 64 64" style="enable-background:new 0 0 64 64;" xml:space="preserve">
<style type="text/css">
	.st0{fill:#231F20;}
	.st1{fill:#F48165;}
</style>
<g>
	<path class="st0" d="M52.85,59.64H11.22V40.71c0-2.51,2.03-4.54,4.54-4.54h32.55c2.51,0,4.54,2.03,4.54,4.54V59.64z"/>
	<rect x="11.15" y="44.71" class="st1" width="15.02" height="15.02"/>
	<path class="st0" d="M35.72,31.07h-7.64c-2.51,0-4.55-2.04-4.55-4.55V17h16.74v9.52C40.27,29.03,38.23,31.07,35.72,31.07z"/>
	<path class="st0" d="M40.21,13c-5.52-0.03-11.04-0.07-16.56-0.1c-1.35-1.16-2.69-2.31-4.04-3.47l12.25-4.21
		c4.11,1.43,8.22,2.86,12.33,4.3C42.86,10.68,41.54,11.84,40.21,13z"/>
</g>
</svg>
