<?xml version="1.0" encoding="utf-8"?>
<!-- Generator: Adobe Illustrator 25.4.1, SVG Export Plug-In . SVG Version: 6.00 Build 0)  -->
<svg version="1.1" id="Layer_1" xmlns="http://www.w3.org/2000/svg" xmlns:xlink="http://www.w3.org/1999/xlink" x="0px" y="0px"
	 viewBox="0 0 60 60" style="enable-background:new 0 0 60 60;" xml:space="preserve">
<style type="text/css">
	.st0{fill:#231F20;}
	.st1{fill:#F48165;}
</style>
<path class="st0" d="M50.61,5.36c0.17,0.98-0.56,1.07-1.21,1.19c-8.63,1.66-17.27,3.31-25.91,4.96c-4.02,0.77-8.03,1.55-12.06,2.27
	c-0.4,0.07-0.85-0.17-1.28-0.27c0.35-0.24,0.67-0.63,1.05-0.71c10.79-2.09,21.59-4.14,32.38-6.22c1.84-0.35,3.66-0.81,5.48-1.22
	C49.58,5.36,50.09,5.36,50.61,5.36z"/>
<path class="st0" d="M19.9,57.84c0-11.03,0-21.94,0-32.97c7.13,0,14.22,0,21.4,0c0,5.95,0,11.88,0,17.98
	c-0.69-0.18-1.33-0.3-1.94-0.52c-0.62-0.22-1.21-0.54-2.02-0.91c-0.93,5.46-1.16,10.86-0.35,16.42
	C31.3,57.84,25.69,57.84,19.9,57.84z M23.62,41.09c-0.69-0.56-1.09-1.13-1.46-1.11c-0.38,0.02-0.98,0.58-1.03,0.96
	c-0.04,0.31,0.55,0.95,0.94,1.01C22.43,42.01,22.89,41.52,23.62,41.09z"/>
<path class="st0" d="M46.57,8.19c0,0.68,0,1.28,0,1.89c0,9.75,0,19.49,0,29.24c0,3.03-0.41,3.43-3.82,3.51c0-6.38,0-12.75,0-19.25
	c-8.11,0-16.04,0-24.15,0c0,11.39,0,22.8,0,34.29c-1.35,0-2.5,0-3.84,0c-0.03-0.56-0.09-1.1-0.09-1.65
	c-0.01-13.49,0.01-26.98-0.03-40.48c0-1.14,0.2-1.67,1.5-1.91c9.81-1.82,19.6-3.75,29.4-5.64C45.82,8.14,46.12,8.19,46.57,8.19z"/>
<rect x="27.32" y="38.62" class="st1" width="19.25" height="19.25"/>
</svg>
