<?xml version="1.0" encoding="utf-8"?>
<!-- Generator: Adobe Illustrator 25.4.1, SVG Export Plug-In . SVG Version: 6.00 Build 0)  -->
<svg version="1.1" id="Layer_1" xmlns="http://www.w3.org/2000/svg" xmlns:xlink="http://www.w3.org/1999/xlink" x="0px" y="0px"
	 viewBox="0 0 60 60" style="enable-background:new 0 0 60 60;" xml:space="preserve">
<style type="text/css">
	.st0{fill:#231F20;}
	.st1{fill:#F48165;}
</style>
<path class="st0" d="M20.19,40.01c0,4.69,0,9.31,0,14.06c-0.49,0.03-0.88,0.05-1.38,0.08c0-3.9,0-7.71,0-11.52
	c-0.09-0.02-0.19-0.03-0.28-0.05c-0.32,1.32-0.66,2.63-0.97,3.95c-0.45,1.92-0.88,3.85-1.33,5.77c-0.1,0.41-0.23,0.81-0.4,1.19
	c-0.72,1.57-1.84,2.16-3.18,1.69c-1.44-0.5-2.18-1.86-1.81-3.42c1.08-4.62,2.17-9.23,3.27-13.84c0.1-0.41,0.2-0.81,0.3-1.22
	c0.65-2.62,1.01-2.92,3.76-3.12c0.16-0.01,0.31-0.08,0.49-0.12c0-1.12,0-2.2,0-3.37c-1.25-0.03-2.32-0.31-2.49-1.7
	c-1.29,0.04-1.89,0.76-2.24,1.71c-0.26,0.73-0.63,1.03-1.38,0.71c0.04-1.7,0.93-3.07,2.47-3.55c2.5-0.78,4.99-1.66,7.55-2.16
	c2.67-0.52,4.85-1.58,6.61-3.7c1.14-1.38,2.45-2.49,2.87-4.44c0.43-2,2.33-2.87,4.35-2.48c1.62,0.31,3.03,1.97,2.84,3.8
	c-0.32,3.17-0.82,6.32-1.31,9.47c-0.43,2.78-0.95,5.55-1.43,8.32c-0.43,2.46-2.01,3.85-4.5,3.87c-3.53,0.03-7.07,0.01-10.6,0.01
	C21.03,39.95,20.66,39.99,20.19,40.01z M20.17,33.62c2.82,0,5.58,0.01,8.35-0.02c0.2,0,0.54-0.29,0.58-0.5
	c0.22-1.07,0.37-2.15,0.54-3.23c0.16-1.03,0.3-2.07,0.45-3.08c-3.03,2.13-6.73,1.75-9.91,3.03C20.17,31.03,20.17,32.26,20.17,33.62z
	"/>
<path class="st0" d="M25.23,46.34c-1.54,0-2.91,0-4.47,0c0-1.05,0-1.99,0-2.94c0-0.92,0-1.84,0-2.89c5.17,0,10.23,0,15.39,0
	c1.7-7.85,3.37-15.58,5.06-23.42c2.01,0.46,3.91,0.9,5.95,1.36c-0.48,2.16-0.94,4.24-1.41,6.31c-1.14,4.95-2.33,9.88-3.41,14.84
	c-0.26,1.17-0.2,2.42-0.24,3.63c-0.03,0.96-0.01,1.92-0.01,3.01c-1.34,0-2.58,0-4.04,0c0.45,1.01,0.82,1.83,1.2,2.65
	c0.7,1.53,1.43,3.04,2.11,4.58c0.72,1.63-0.07,2.91-1.82,2.92c-5.22,0.02-10.43,0.02-15.65,0c-1.77-0.01-2.55-1.27-1.82-2.93
	c0.86-1.96,1.77-3.9,2.65-5.85C24.88,47.25,25.02,46.87,25.23,46.34z M31.71,55.29c0,0,0-0.01,0-0.01c2.52,0,5.04,0.01,7.57,0
	c1.51-0.01,1.69-0.28,1.07-1.63c-1.02-2.21-2.04-4.42-3.14-6.58c-0.19-0.36-0.79-0.72-1.2-0.73c-2.9-0.06-5.8-0.06-8.7,0
	c-0.41,0.01-0.99,0.4-1.18,0.77c-1.09,2.17-2.1,4.39-3.1,6.61c-0.51,1.13-0.26,1.55,1,1.57C26.59,55.31,29.15,55.29,31.71,55.29z"/>
<rect x="29.78" y="3.33" transform="matrix(0.9898 -0.1422 0.1422 0.9898 -0.8562 5.0607)" class="st1" width="10.37" height="10.38"/>
</svg>
