<?xml version="1.0" encoding="utf-8"?>
<!-- Generator: Adobe Illustrator 25.4.1, SVG Export Plug-In . SVG Version: 6.00 Build 0)  -->
<svg version="1.1" id="Layer_1" xmlns="http://www.w3.org/2000/svg" xmlns:xlink="http://www.w3.org/1999/xlink" x="0px" y="0px"
	 viewBox="0 0 60 60" style="enable-background:new 0 0 60 60;" xml:space="preserve">
<style type="text/css">
	.st0{fill:#231F20;}
	.st1{fill:#F48165;}
</style>
<path class="st0" d="M57.74,46.88c0-8.72,0-17.36,0-26.07c-0.84,0-1.63,0-2.43,0c0-4.06,0-8.05,0-12.11c0.71,0,1.36,0,2.01,0
	c0-1.23,0-2.39,0-3.52c-14.09,0-28.12,0-42.16,0c0,1.2,0,2.34,0,3.55c0.7,0,1.35,0,2.03,0c0,4.06,0,8.06,0,12.13
	c-5.02,0-9.99,0-14.94,0c0,8.71,0,17.34,0,26.05c10.61,0,21.18,0,31.75,0c0.02,0.05,0.04,0.09,0.06,0.14
	c-2.94,2.56-5.89,5.13-8.92,7.77c10.54,0,20.91,0,31.41,0c-3.05-2.65-6-5.22-8.94-7.78c0.02-0.05,0.05-0.1,0.07-0.15
	C51.02,46.88,54.37,46.88,57.74,46.88z M53.52,35.01c-2.88,0-5.72,0-8.61,0c0-0.85,0-1.64,0-2.47c2.88,0,5.71,0,8.61,0
	C53.52,33.37,53.52,34.17,53.52,35.01z M53.58,25.96c-0.04,0.59-0.01,1.18-0.01,1.82c-2.93,0-5.77,0-8.66,0c0-0.86,0-1.65,0-2.49
	c0.22-0.02,0.42-0.04,0.61-0.04c2.46,0,4.91,0.01,7.37-0.01C53.45,25.23,53.62,25.43,53.58,25.96z M21.13,9.43
	c10.01,0,20.03,0,30.11,0c0,0.83,0,1.61,0,2.43c-10.03,0-20.05,0-30.11,0C21.13,11.06,21.13,10.27,21.13,9.43z M21.13,15.57
	c10.01,0,20.03,0,30.11,0c0,0.83,0,1.6,0,2.42c-10.04,0-20.05,0-30.11,0C21.13,17.2,21.13,16.41,21.13,15.57z M31.98,27.77
	c0-0.73-0.02-1.43,0.02-2.13c0.01-0.13,0.25-0.36,0.39-0.36c2.74-0.02,5.48-0.02,8.31-0.02c0,0.87,0,1.66,0,2.51
	C37.82,27.77,34.94,27.77,31.98,27.77z M40.69,32.55c0,0.82,0,1.63,0,2.47c-2.89,0-5.75,0-8.68,0c0-0.85,0-1.64,0-2.47
	C34.92,32.55,37.78,32.55,40.69,32.55z M47.43,41.82c0,1.68,0,3.3,0,4.99c-4.39,0-8.71,0-13.09,0c0-1.64,0-3.27,0-4.97
	c-1.02,0-1.99,0-3,0c0-0.58,0-1.1,0-1.68c6.16,0,12.33,0,18.55,0c0,0.53,0,1.06,0,1.65C49.08,41.82,48.3,41.82,47.43,41.82z"/>
<rect x="6.11" y="24.47" class="st1" width="15.01" height="15.02"/>
</svg>
