<?xml version="1.0" encoding="utf-8"?>
<!-- Generator: Adobe Illustrator 25.4.1, SVG Export Plug-In . SVG Version: 6.00 Build 0)  -->
<svg version="1.1" id="Layer_1" xmlns="http://www.w3.org/2000/svg" xmlns:xlink="http://www.w3.org/1999/xlink" x="0px" y="0px"
	 viewBox="0 0 60 60" style="enable-background:new 0 0 60 60;" xml:space="preserve">
<style type="text/css">
	.st0{fill:#231F20;}
	.st1{fill:#F48165;}
</style>
<path class="st0" d="M32.96,28.69c1.73,2.37,3.32,4.69,5.06,6.89c1.6,2.02,1.98,4.13,1.28,6.61c-0.93,3.29-1.64,6.65-2.46,9.98
	c-0.05,0.2-0.26,0.51-0.4,0.51c-1.87,0.03-3.73,0.02-5.69,0.02c0.28-1.26,0.54-2.44,0.81-3.61c0.65-2.89,1.29-5.78,1.97-8.66
	c0.1-0.44,0-0.68-0.32-0.96c-3.27-2.86-6.53-5.75-9.81-8.61c-2.28-1.99-2.37-5.07-0.16-7.11c2.32-2.14,4.67-4.25,7.01-6.38
	c0.17-0.15,0.34-0.3,0.65-0.57c-0.39-0.02-0.6-0.04-0.82-0.04c-5.85,0-11.7-0.01-17.55,0.02c-0.65,0-0.83-0.19-0.82-0.82
	c0.04-1.7,0.01-3.41,0.01-5.16c0.26-0.02,0.46-0.05,0.66-0.05c7.7,0,15.4-0.01,23.09,0c3.21,0,6.65,2.5,7.4,5.45
	c0.47,1.87,0.17,3.57-1.42,4.95c-2.72,2.36-5.37,4.8-8.05,7.2C33.28,28.46,33.14,28.55,32.96,28.69z"/>
<path class="st0" d="M20.26,31.71c1.58,1.45,3.07,2.82,4.59,4.22c-4.38,5.6-8.72,11.15-13.1,16.74c-1.58-1.19-3.1-2.35-4.69-3.55
	C11.45,43.33,15.83,37.56,20.26,31.71z"/>
<path class="st0" d="M31.85,56.31c0.44-0.97,1.01-1.67,2.12-1.64c1.04,0.03,1.58,0.68,1.87,1.5c0.32-0.39,0.57-0.91,0.98-1.15
	c0.42-0.25,1.02-0.34,1.52-0.28c0.88,0.1,1.58,1.08,1.57,1.97c-0.01,0.91-0.73,1.76-1.64,1.92c-1.09,0.19-1.86-0.27-2.36-1.48
	c-0.4,0.92-0.98,1.54-2.04,1.51c-1.02-0.03-1.63-0.6-2-1.51c-0.54,1.24-1.38,1.73-2.46,1.47c-0.88-0.21-1.47-1.01-1.45-1.98
	c0.02-0.96,0.72-1.82,1.59-1.94C30.61,54.54,31.38,55.05,31.85,56.31z"/>
<path class="st0" d="M5.22,53.3c-1.24,0.65-2.19,0.53-2.88-0.28c-0.59-0.7-0.62-1.71-0.06-2.46c0.54-0.73,1.52-0.99,2.38-0.64
	c0.98,0.41,1.33,1.23,1.08,2.69c0.89-0.55,1.76-0.63,2.6,0.03c0.76,0.61,0.83,1.4,0.58,2.29c1.34-0.62,2.23-0.5,2.92,0.37
	c0.56,0.71,0.56,1.66,0.01,2.4c-0.54,0.73-1.55,1-2.38,0.64c-0.98-0.42-1.32-1.24-1.08-2.7c-0.88,0.56-1.76,0.71-2.59,0.05
	C5.01,55.1,4.96,54.25,5.22,53.3z"/>
<rect x="42.42" y="2.72" transform="matrix(0.6319 0.7751 -0.7751 0.6319 24.6247 -34.331)" class="st1" width="12.08" height="12.08"/>
</svg>
