<?xml version="1.0" encoding="utf-8"?>
<!-- Generator: Adobe Illustrator 25.4.1, SVG Export Plug-In . SVG Version: 6.00 Build 0)  -->
<svg version="1.1" id="Layer_1" xmlns="http://www.w3.org/2000/svg" xmlns:xlink="http://www.w3.org/1999/xlink" x="0px" y="0px"
	 viewBox="0 0 64 64" style="enable-background:new 0 0 64 64;" xml:space="preserve">
<style type="text/css">
	.st0{fill:#221F1F;}
	.st1{fill:#F38065;}
</style>
<path class="st0" d="M36.7,26.1c0.2,0,0.4,0,0.6,0c7,0,13.9,0,20.9,0c0.4,0,0.6,0.1,0.8,0.4c1.3,2,2.6,3.9,3.9,5.9
	c0.1,0.2,0.2,0.3,0.4,0.6c-0.5,0-1,0-1.5,0c-0.1,0-0.2-0.2-0.3-0.4c-1.1-1.6-2.2-3.2-3.2-4.9c-0.2-0.3-0.3-0.4-0.6-0.4
	c-7.2,0-14.4,0-21.6,0c-0.3,0-0.5,0.1-0.6,0.4c-1.2,1.8-2.4,3.6-3.5,5.4c-0.2,0.3-0.4,0.4-0.7,0.4c-3,0.3-6,0.6-8.9,0.9
	c-0.7,0.1-1.3,0.1-2,0.2c-1.6,0.2-2.7-0.7-2.9-2.2c0-0.1,0-0.1,0-0.3c-0.2,0.1-0.3,0.2-0.5,0.2c-0.6,0.3-1.1,0.7-1.7,1
	c-0.5,0.3-0.9,0.2-1.2-0.2c-0.3-0.4-0.2-0.9,0.3-1.2c0.7-0.5,1.5-0.9,2.3-1.4c1.6-1,3.1-1.9,4.7-2.9c0.1-0.1,0.2-0.2,0.5-0.3
	c-3.9,0-7.6,0-11.5,0c0-0.4,0-0.8,0-1.2c0-0.1,0.1-0.2,0.2-0.2c0.1,0,0.3,0,0.4,0c4.2,0,8.4,0,12.6,0c0.3,0,0.7-0.1,0.9-0.3
	c2.6-1.6,5.2-3.2,7.9-4.8c0.3-0.2,0.5-0.4,0.6-0.7c0.5-1.9,1.1-3.8,1.6-5.7c0.1-0.3,0.2-0.5,0.4-0.7c1.3-1.9,2.5-3.7,3.8-5.5
	c0.7-1,1.6-1.4,2.8-1.2c1.2,0.2,1.9,1,2.1,2.1c0.3,1.3,0.6,2.5,0.9,3.8c0,0.1,0.1,0.3,0.1,0.4c0.2-0.1,0.4-0.2,0.5-0.3
	c1.4-0.9,2.9-1.7,4.3-2.6c0.4-0.2,0.7-0.2,1.1,0.1c0.3,0.2,0.4,0.6,0.2,0.9c-0.1,0.2-0.3,0.4-0.5,0.5c-1.1,0.7-2.3,1.4-3.5,2.1
	c-0.1,0.1-0.3,0.2-0.5,0.3c4.6,2.1,7.8,5.5,9.6,10.3c-0.3,0-0.5,0-0.7,0c-5.6,0-11.3,0-16.9,0C37.5,24.9,37,25.2,36.7,26.1z
	 M21.6,29.7c0.2,0,0.3,0.1,0.4,0.1c2-0.2,4-0.4,5.9-0.6c0.1,0,0.3-0.1,0.3-0.1c0.4-0.5,0.7-1,1-1.5c-0.1,0-0.2,0-0.2,0
	c-1.2,0-2.4,0-3.6,0c-0.2,0-0.3,0.1-0.5,0.2c-1,0.6-2,1.2-2.9,1.8C21.9,29.5,21.8,29.6,21.6,29.7z M27.7,26c0,0,0,0.1,0,0.1
	c0.8,0,1.6,0,2.4,0c0.1,0,0.2-0.1,0.3-0.2c0.4-0.6,0.9-1.3,1.3-1.9c0.1-0.1,0.1-0.2,0.1-0.3c0,0-0.1,0-0.1-0.1
	C30.3,24.4,29,25.2,27.7,26z"/>
<path class="st0" d="M28.1,18.5c-3.1,0-5.5-2.5-5.5-5.6c0-3.1,2.5-5.6,5.6-5.6c3.1,0,5.5,2.5,5.5,5.6C33.7,16,31.2,18.5,28.1,18.5z"
	/>
<rect x="3.4" y="32.8" transform="matrix(-0.5605 -0.8282 0.8282 -0.5605 -18.1534 66.028)" class="st1" width="10" height="10"/>
</svg>
