<?xml version="1.0" encoding="utf-8"?>
<!-- Generator: Adobe Illustrator 25.4.1, SVG Export Plug-In . SVG Version: 6.00 Build 0)  -->
<svg version="1.1" id="Layer_1" xmlns="http://www.w3.org/2000/svg" xmlns:xlink="http://www.w3.org/1999/xlink" x="0px" y="0px"
	 viewBox="0 0 60 60" style="enable-background:new 0 0 60 60;" xml:space="preserve">
<style type="text/css">
	.st0{fill:#231F20;}
	.st1{fill:#F48165;}
</style>
<path class="st0" d="M45.57,55.74h1.03c-0.24-1.58-1.49-2.54-3.5-2.54c-8.6,0-17.19,0-25.79-0.01c-1.36,0-2.17-0.64-2.08-1.66
	c0.1-1.19,0.88-1.62,2.02-1.62c3.5,0.01,7-0.01,10.5,0.01c1.01,0.01,2.11,0.02,1.99,1.63c0.55-0.03,1-0.06,1.45-0.08
	c0-0.74,0-1.31,0-1.89c0-1.96,0-1.96,1.95-1.97c7.27,0,14.53,0.01,21.8-0.01c2.32,0,3.61-1.29,3.68-3.6
	c0.03-0.93,0.01-1.86,0.01-2.79c-0.01-3.28-1.12-4.41-4.37-4.42c-7.09-0.01-14.18-0.01-21.27-0.01c-0.4,0-0.82,0.06-1.19-0.06
	c-0.26-0.09-0.43-0.43-0.64-0.66c0.21-0.19,0.38-0.46,0.62-0.55c0.28-0.1,0.61-0.05,0.92-0.05c5.94,0,11.88-0.01,17.81,0
	c0.4,0,0.79,0.08,1.19,0.08c0.39,0,1.11,0.01,1.12-0.09c0.1-0.6,0.09-1.22,0-1.83c-0.01-0.07-0.67-0.01-1-0.1
	c-0.33-0.09-0.73-0.22-0.92-0.47c-0.45-0.6-0.8-1.27-1.18-1.92c-1.63-2.77-3.26-5.55-4.92-8.39c0.49-0.11,0.85-0.19,1.25-0.27
	c-0.04-0.54-0.08-1-0.11-1.37c-10.42,0-20.68,0-30.98,0c-0.22,0.83-0.46,1.66,1.18,1.53c-2.15,3.63-4.14,7.03-6.16,10.4
	c-0.16,0.26-0.57,0.42-0.9,0.52c-0.35,0.11-1.06,0.06-1.07,0.15c-0.08,0.6-0.06,1.22,0.06,1.81c0.02,0.08,0.75,0.03,1.15,0.03
	c0.18,0,0.35-0.07,0.52-0.07c6.34-0.01,12.67-0.02,19.01,0.02c0.32,0,0.64,0.41,0.95,0.63c-0.32,0.22-0.61,0.52-0.96,0.63
	c-0.37,0.11-0.79,0.03-1.19,0.03c-7.13,0.01-14.27,0-21.4,0.02c-2.64,0.01-3.88,1.27-3.91,3.92c-0.01,0.97-0.01,1.95,0,2.92
	c0.03,2.77,1.21,3.95,4,3.96c7.27,0.01,14.53,0,21.8,0c0.35,0,0.72-0.04,1.06,0.03c0.21,0.05,0.38,0.28,0.57,0.43
	c-0.16,0.17-0.3,0.45-0.49,0.5c-0.59,0.15-1.2,0.3-1.81,0.31c-3.46,0.03-6.91,0.02-10.37,0.01c-1.24,0-2.16,0.47-2.59,1.66
	c-0.72,1.98,0.49,3.64,2.66,3.65c8.77,0.01,17.55,0,26.32,0.01C44.58,54.23,45.33,54.78,45.57,55.74z M42.78,22.55
	c0.24,0.01,0.54,0.31,0.68,0.55c1.9,3.34,3.78,6.7,5.66,10.06c0.04,0.07,0,0.17,0,0.52c-1.76,0-3.48,0.02-5.19-0.03
	c-0.28-0.01-0.69-0.29-0.79-0.55c-1.28-3.43-2.51-6.87-3.85-10.59C40.62,22.53,41.7,22.49,42.78,22.55z M37.14,22.53
	c0.27,0.02,0.68,0.3,0.76,0.55c1.15,3.34,2.26,6.7,3.37,10.06c0.03,0.1-0.05,0.25-0.13,0.54c-1.73,0-3.49,0.02-5.24-0.03
	c-0.21-0.01-0.57-0.34-0.6-0.56c-0.48-3.45-0.93-6.9-1.41-10.59C35.14,22.5,36.14,22.46,37.14,22.53z M18.23,32.03
	c-0.37,1.24-0.97,1.82-2.33,1.69c-1.31-0.12-2.64-0.03-4.31-0.03c0.31-0.67,0.45-1.06,0.66-1.42c1.51-2.69,3.13-5.34,4.52-8.09
	c0.68-1.35,1.52-1.92,2.99-1.7c0.51,0.08,1.04,0.01,1.81,0.01c-0.5,1.45-0.92,2.68-1.35,3.91C19.54,28.29,18.8,30.13,18.23,32.03z
	 M26.44,26.86c-0.24,1.93-0.46,3.87-0.77,5.79c-0.06,0.38-0.49,0.97-0.77,0.99c-1.71,0.09-3.43,0.05-5.48,0.05
	c0.6-1.84,1.09-3.39,1.6-4.93c0.57-1.72,1.19-3.43,1.72-5.16c0.27-0.86,0.73-1.21,1.64-1.12c0.78,0.07,1.57,0.02,2.56,0.02
	C26.75,24.08,26.61,25.47,26.44,26.86z M27.65,30.54c0.18-2.25,0.52-4.48,0.69-6.73c0.08-1.03,0.47-1.36,1.48-1.33
	c2.95,0.08,2.57-0.31,2.81,2.59c0.19,2.34,0.45,4.67,0.76,6.99c0.17,1.26-0.18,1.84-1.52,1.65c-0.48-0.07-0.97-0.01-1.46-0.01
	C27.05,33.59,27.33,34.48,27.65,30.54z"/>
<path class="st0" d="M39.55,19.57c-6.09,0-12.1,0-18.1,0c-0.71-2.21,0.76-5.8,3.13-7.71c3.09-2.49,7.21-2.79,10.68-0.77
	C38.13,12.77,40.06,16.5,39.55,19.57z"/>
<path class="st0" d="M20.4,8.21c0.85,0.6,1.71,1.2,2.66,1.87c-0.34,0.36-0.6,0.64-1,1.07c-0.68-0.96-1.3-1.82-1.92-2.69
	C20.23,8.38,20.31,8.3,20.4,8.21z"/>
<path class="st0" d="M25.09,5.18c0.55,0.86,1.1,1.73,1.72,2.7c-0.39,0.23-0.7,0.41-1.24,0.72c-0.28-1.2-0.53-2.25-0.78-3.29
	C24.89,5.26,24.99,5.22,25.09,5.18z"/>
<path class="st0" d="M20.24,13.53c-0.55,1.44-1.27,1.26-3.49-0.79C18.05,13.03,19.1,13.27,20.24,13.53z"/>
<path class="st0" d="M38.84,11.21c-0.44-0.4-0.73-0.65-1.13-1.02c1.06-0.76,1.9-1.36,2.75-1.97c0.09,0.07,0.18,0.14,0.27,0.21
	C40.15,9.28,39.57,10.13,38.84,11.21z"/>
<path class="st0" d="M41.18,14.84c-0.22-0.51-0.36-0.81-0.56-1.27c1.17-0.29,2.24-0.55,3.3-0.81c0.04,0.08,0.08,0.16,0.12,0.24
	C43.14,13.58,42.24,14.16,41.18,14.84z"/>
<path class="st0" d="M31.17,7.31c-0.51,0-0.91,0-1.44,0c0.2-1.1,0.38-2.1,0.57-3.11c0.1,0,0.19-0.01,0.29-0.01
	C30.77,5.19,30.96,6.19,31.17,7.31z"/>
<path class="st0" d="M35.39,8.56c-0.57-0.27-0.87-0.41-1.32-0.63c0.58-0.94,1.12-1.82,1.67-2.69c0.1,0.03,0.21,0.07,0.31,0.1
	C35.84,6.35,35.63,7.35,35.39,8.56z"/>
<path class="st0" d="M16.05,18.22c0.91-0.17,1.82-0.34,2.86-0.53c0,0.5,0,0.89,0,1.39c-1.04-0.19-1.95-0.36-2.86-0.52
	C16.05,18.45,16.05,18.33,16.05,18.22z"/>
<path class="st0" d="M41.97,19.08c0-0.54,0-0.86,0-1.35c0.99,0.16,1.91,0.3,2.82,0.45c0.01,0.13,0.02,0.27,0.03,0.4
	C43.94,18.73,43.05,18.89,41.97,19.08z"/>
<rect x="24.48" y="36.97" class="st1" width="10.49" height="10.49"/>
</svg>
