<?xml version="1.0" encoding="utf-8"?>
<!-- Generator: Adobe Illustrator 25.4.1, SVG Export Plug-In . SVG Version: 6.00 Build 0)  -->
<svg version="1.1" id="Layer_1" xmlns="http://www.w3.org/2000/svg" xmlns:xlink="http://www.w3.org/1999/xlink" x="0px" y="0px"
	 viewBox="0 0 60 60" style="enable-background:new 0 0 60 60;" xml:space="preserve">
<style type="text/css">
	.st0{fill:#F48165;}
	.st1{fill:#231F20;}
</style>
<rect x="24.9" y="33.36" class="st0" width="11.09" height="11.09"/>
<g>
	<path class="st1" d="M39.67,22.96c-1.44-5.75-4.65-8.66-9.27-8.58c-4.76,0.08-7.9,2.99-9.16,8.58c-1.31,0-2.65,0-3.99,0
		c-3.2,0-3.2,0-4.06,3.3c-1.32-0.93-2.57-1.82-4.02-2.85c2.22-1.62,4.32-3.15,6.56-4.78c-0.8-2.52-1.6-5.05-2.47-7.79
		c2.44,0,4.67-0.05,6.9,0.02c0.98,0.03,1.38-0.34,1.65-1.23c0.62-2.09,1.34-4.15,2.09-6.46c1.84,1.33,3.59,2.5,5.23,3.82
		c1.02,0.83,1.75,0.77,2.75-0.04c1.6-1.3,3.32-2.43,5.17-3.77c0.76,2.3,1.49,4.4,2.12,6.53c0.25,0.84,0.64,1.16,1.53,1.14
		c2.24-0.06,4.49-0.02,6.98-0.02c-0.7,2.21-1.3,4.3-2.04,6.32c-0.39,1.07-0.26,1.71,0.74,2.37c1.78,1.16,3.46,2.48,5.34,3.85
		c-1.3,0.97-2.49,1.85-3.66,2.72c-0.14-0.09-0.28-0.13-0.3-0.2c-1.12-2.94-1.12-2.94-4.33-2.94C42.19,22.96,40.96,22.96,39.67,22.96
		z"/>
	<path class="st1" d="M36.72,45.26c0.11,1.25,0.26,2.49,0.31,3.74c0.04,1.07,0.4,1.64,1.57,1.8c1.97,0.27,3.92,0.73,5.87,1.13
		c1.62,0.33,1.62,0.35,1.55,2.2c-10.36,0-20.72,0-31.2,0c-0.01-1.14,0.02-1.99,1.53-2.19c2.16-0.29,4.28-0.88,6.44-1.26
		c0.8-0.14,1.03-0.49,1.06-1.25c0.06-1.36,0.23-2.71,0.36-4.18C28.33,45.26,32.45,45.26,36.72,45.26z"/>
	<path class="st1" d="M10.64,43.14c0.8-3,1.59-5.93,2.37-8.85c3.46,0,6.8,0,10.33,0c-0.25,2.96-0.5,5.85-0.75,8.85
		C18.65,43.14,14.74,43.14,10.64,43.14z"/>
	<path class="st1" d="M50.3,43.21c-4.01,0-7.85,0-11.88,0c-0.27-2.93-0.55-5.86-0.84-8.97c3.34,0,6.59-0.01,9.84,0.02
		c0.22,0,0.59,0.24,0.64,0.43C48.82,37.49,49.54,40.3,50.3,43.21z"/>
	<path class="st1" d="M26.11,24.81c3.06,0,5.82,0,8.71,0c0.23,2.51,0.45,4.96,0.67,7.48c-3.34,0-6.58,0-10.01,0
		C25.7,29.74,25.9,27.3,26.11,24.81z"/>
	<path class="st1" d="M13.53,32.3c0.64-2.38,1.2-4.58,1.83-6.76c0.09-0.32,0.53-0.76,0.82-0.76c2.61-0.06,5.22-0.03,8.02-0.03
		c-0.23,2.6-0.45,5.04-0.68,7.55C20.19,32.3,16.95,32.3,13.53,32.3z"/>
	<path class="st1" d="M36.74,24.74c2.73,0,5.26-0.02,7.8,0.02c0.32,0,0.87,0.2,0.93,0.42c0.68,2.31,1.29,4.65,1.95,7.11
		c-3.44,0-6.64,0-9.98,0C37.21,29.8,36.98,27.35,36.74,24.74z"/>
</g>
</svg>
