<?xml version="1.0" encoding="utf-8"?>
<!-- Generator: Adobe Illustrator 25.4.1, SVG Export Plug-In . SVG Version: 6.00 Build 0)  -->
<svg version="1.1" id="Layer_1" xmlns="http://www.w3.org/2000/svg" xmlns:xlink="http://www.w3.org/1999/xlink" x="0px" y="0px"
	 viewBox="0 0 64 64" style="enable-background:new 0 0 64 64;" xml:space="preserve">
<style type="text/css">
	.st0{fill:#231F20;}
	.st1{fill:#F48165;}
	.st2{fill:none;stroke:#231F20;stroke-miterlimit:10;}
</style>
<g>
	<path class="st0" d="M52.85,58.42H11.22V39.49c0-2.51,2.03-4.54,4.54-4.54h32.55c2.51,0,4.54,2.03,4.54,4.54V58.42z"/>
	<rect x="11.15" y="43.49" class="st1" width="15.02" height="15.02"/>
	<path class="st0" d="M35.71,32.31h-7.64c-2.51,0-4.55-2.04-4.55-4.55v-9.52c1.1-0.7,2.41-1.43,3.93-2.11
		c1.64-0.74,3.17-1.26,4.51-1.63c1.47,0.78,2.61,1.47,3.37,1.95c1.07,0.67,1.73,1.15,2.84,1.48c0.86,0.25,1.6,0.31,2.09,0.31
		c0,3.17,0,6.34,0,9.52C40.27,30.28,38.23,32.31,35.71,32.31z"/>
</g>
<path class="st0" d="M23.46,17.62c-0.05-2.04-0.01-3.45,1.98-5.51c1.27-1.31,5.53-2.85,8.18-2.97c1.5-0.07,3.3-0.31,4.91-0.02
	c0.53,0.1,1.17,0.2,1.61,0.51c0.7,0.49,0.97,2.25,0.42,2.9c-0.66,0.79-2.3,0.55-3.22,0.61c-1.08,0.07-2.16,0.2-3.24,0.37
	c-2.14,0.35-4.26,0.89-6.3,1.62c-1.2,0.43-1.9,0.88-3.06,1.41C24.46,16.67,23.56,17.29,23.46,17.62z"/>
<path class="st0" d="M24.55,12.07c-0.08-0.43-0.13-1.13,0.18-1.83c0.62-1.41,2.22-1.84,3.1-2.07c2.32-0.62,4.36,0.17,5.21,0.56
	c-0.57,0.07-1.37,0.2-2.33,0.42c-1.05,0.25-2.18,0.51-3.48,1.15C26.55,10.63,25.58,11.18,24.55,12.07z"/>
<path class="st0" d="M32.41,14.33c1.78,0.35,2.86,1.09,3.63,1.6c1.41,0.93,2.79,1.93,3.87,1.68c0.56-0.13,0.89-0.68,1.02-1.2
	c0.17-0.65,0.02-1.33-0.36-1.88c-0.02-0.02-0.03-0.05-0.05-0.07c-0.09-0.13-0.2-0.24-0.32-0.34c-0.24-0.19-0.51-0.27-1.17-0.34
	c-1.49-0.14-2.66,0.05-3.11,0.12C35.09,14.02,33.9,14.19,32.41,14.33z"/>
<path class="st2" d="M13.97,32.37c2.05-1.64,2.48-2.92,2.41-3.85c-0.11-1.42-1.65-1.88-2.17-3.69c-0.39-1.37,0-2.7,0.4-3.61"/>
<path class="st2" d="M19.35,32.37c1.14-1.21,1.28-2.08,1.2-2.65c-0.15-1.13-1.2-1.57-1.36-2.89c-0.1-0.81,0.18-1.5,0.4-1.93"/>
<path class="st2" d="M43.05,32.37c2.05-1.64,2.48-2.92,2.41-3.85c-0.11-1.42-1.65-1.88-2.17-3.69c-0.39-1.37,0-2.7,0.4-3.61"/>
<path class="st2" d="M48.42,32.37c1.14-1.21,1.28-2.08,1.2-2.65c-0.15-1.13-1.2-1.57-1.36-2.89c-0.1-0.81,0.18-1.5,0.4-1.93"/>
</svg>
