<?xml version="1.0" encoding="utf-8"?>
<!-- Generator: Adobe Illustrator 25.4.1, SVG Export Plug-In . SVG Version: 6.00 Build 0)  -->
<svg version="1.1" id="Layer_1" xmlns="http://www.w3.org/2000/svg" xmlns:xlink="http://www.w3.org/1999/xlink" x="0px" y="0px"
	 viewBox="0 0 60 60" style="enable-background:new 0 0 60 60;" xml:space="preserve">
<style type="text/css">
	.st0{fill:#231F20;}
	.st1{fill:#F48165;}
</style>
<rect x="32.16" y="17.9" transform="matrix(0.6147 0.7887 -0.7887 0.6147 32.7448 -19.0289)" class="st0" width="7.38" height="12.2"/>
<rect x="36.32" y="11.85" transform="matrix(0.6147 0.7887 -0.7887 0.6147 31.1173 -26.7523)" class="st1" width="13.25" height="13.25"/>
<rect x="44.86" y="10.55" transform="matrix(0.6147 0.7887 -0.7887 0.6147 29.6892 -35.795)" class="st0" width="13.25" height="3.89"/>
<path class="st0" d="M23.34,18.37c2.47,0.03,4.49,2.08,4.46,4.55c-0.02,2.46-2.09,4.48-4.56,4.46c-2.49-0.02-4.43-2.03-4.4-4.55
	C18.87,20.28,20.82,18.34,23.34,18.37z"/>
<path class="st0" d="M8.16,55.52c0-3.35,0-6.74,0-10.22c2.94,3.17,5.59,5.98,8.18,8.87c0.29,0.33,0.43,0.86,0.48,1.36h5.2
	c-0.01-0.37-0.02-0.74-0.04-1.11c-0.06-1.1-0.53-2.38-1.23-3.22c-2.28-2.75-4.76-5.33-7.23-8.06c1.8-2.34,3.53-4.6,5.26-6.86
	c0.13,0.04,0.25,0.08,0.38,0.12c0,2.27,0,4.54,0,6.84c3.3,0,6.38,0,9.49,0c0-1.49,0-2.85,0-4.41c-1.68,0-3.27,0-4.98,0
	c0-1.92,0.17-3.67-0.06-5.37c-0.16-1.17-0.62-2.53-1.42-3.32c-1.8-1.77-3.91-3.24-5.98-4.9c-0.3,0.27-0.63,0.48-0.87,0.77
	c-3.87,4.67-7.77,9.32-11.56,14.06c-0.55,0.69-0.8,1.79-0.82,2.7C2.9,47,2.91,51.26,2.91,55.52H8.16z"/>
<path class="st0" d="M36.3,55.52c1.55-8.58,3.1-17.16,4.67-25.85c-1.07,0-1.79,0-2.57,0c-1.56,8.65-3.12,17.25-4.67,25.85H36.3z"/>
<path class="st0" d="M46.83,55.52c-1.55-8.58-3.1-17.16-4.67-25.85c1.07,0,1.79,0,2.57,0c1.56,8.65,3.12,17.25,4.67,25.85H46.83z"/>
</svg>
