<?xml version="1.0" encoding="utf-8"?>
<!-- Generator: Adobe Illustrator 25.4.1, SVG Export Plug-In . SVG Version: 6.00 Build 0)  -->
<svg version="1.1" id="Layer_1" xmlns="http://www.w3.org/2000/svg" xmlns:xlink="http://www.w3.org/1999/xlink" x="0px" y="0px"
	 viewBox="0 0 60 60" style="enable-background:new 0 0 60 60;" xml:space="preserve">
<style type="text/css">
	.st0{fill:#231F20;}
	.st1{fill:#F48165;}
</style>
<path class="st0" d="M7.73,8.84c14.9,0,29.65,0,44.54,0c0,13.11,0,26.17,0,39.31c-14.82,0-29.62,0-44.54,0
	C7.73,35.02,7.73,22.02,7.73,8.84z M10.41,39.51c0.13,0.04,0.26,0.08,0.38,0.12c3.81-7.22,7.62-14.44,11.59-21.96
	c2.84,5.77,5.5,11.2,8.21,16.72c2.84-1.86,5.46-3.57,8.15-5.33c3.61,3.4,7.19,6.76,10.98,10.32c0-9.52,0-18.57,0-27.67
	c-13.16,0-26.22,0-39.32,0C10.41,21.07,10.41,30.29,10.41,39.51z"/>
<rect x="31.38" y="12.95" class="st1" width="15.01" height="15.02"/>
</svg>
