<?xml version="1.0" encoding="utf-8"?>
<!-- Generator: Adobe Illustrator 25.4.1, SVG Export Plug-In . SVG Version: 6.00 Build 0)  -->
<svg version="1.1" id="Layer_1" xmlns="http://www.w3.org/2000/svg" xmlns:xlink="http://www.w3.org/1999/xlink" x="0px" y="0px"
	 viewBox="0 0 60 60" style="enable-background:new 0 0 60 60;" xml:space="preserve">
<style type="text/css">
	.st0{fill:#231F20;}
	.st1{fill:#F48165;}
</style>
<path class="st0" d="M32.79,20.53c-0.71,0.88-1.33,1.62-1.89,2.4c-0.16,0.23-0.18,0.59-0.18,0.89c0,2.44,0.04,4.89,0.02,7.33
	c-0.01,1.64-1.65,2.6-3.11,1.84c-0.72-0.37-1.02-1.01-1.03-1.77c-0.03-2.99-0.05-5.97-0.02-8.96c0-0.4,0.24-0.88,0.52-1.19
	c1.94-2.18,3.91-4.32,5.87-6.48c0.4-0.44,0.88-0.66,1.48-0.66c2.69,0.01,5.39,0.01,8.08,0c0.63,0,1.13,0.22,1.54,0.68
	c1.96,2.16,3.95,4.3,5.85,6.5c0.35,0.41,0.52,1.1,0.53,1.66c0.04,2.22-0.03,4.44-0.05,6.67c-0.01,0.58,0,1.17-0.01,1.75
	c-0.01,1.27-0.76,2.07-1.95,2.09c-1.33,0.02-2.2-0.76-2.21-2.07c-0.01-1.86,0.02-3.73,0.04-5.59c0-0.13-0.02-0.27,0.01-0.4
	c0.42-1.97-0.76-3.22-2.08-4.62c0,0.38,0,0.62,0,0.85c0,2.9,0.02,5.79-0.02,8.69c-0.01,0.64,0.22,1.03,0.69,1.41
	c1.2,0.98,2.37,1.99,3.54,3c0.87,0.75,1.25,1.66,1.23,2.84c-0.05,3.82,0,7.63-0.02,11.45c0,0.54-0.09,1.14-0.33,1.61
	c-0.51,0.97-1.7,1.32-2.89,0.99c-0.94-0.26-1.59-1.07-1.59-2.16c-0.02-3.46-0.03-6.92,0.01-10.37c0.01-0.71-0.14-1.19-0.74-1.67
	c-1.67-1.32-3.25-2.75-4.87-4.14c-0.44-0.37-0.94-0.37-1.33-0.04c-1.79,1.49-3.57,3-5.32,4.54c-0.21,0.18-0.35,0.56-0.35,0.85
	c-0.02,3.59-0.01,7.19-0.02,10.78c0,1.1-0.64,1.95-1.6,2.24c-1.16,0.34-2.27,0.03-2.86-0.89c-0.22-0.34-0.37-0.79-0.37-1.19
	c-0.03-4.2-0.01-8.4-0.02-12.6c0-0.73,0.31-1.32,0.82-1.78c1.35-1.21,2.72-2.41,4.12-3.57c0.43-0.36,0.58-0.71,0.5-1.27
	c-0.09-0.55-0.01-1.12-0.01-1.68c0.02-2.47,0.04-4.94,0.05-7.41C32.84,20.96,32.81,20.83,32.79,20.53z"/>
<path class="st0" d="M38.52,13.36c-2.6,0.15-4.47-2.19-4.45-4.38c0.02-2.47,1.97-4.42,4.45-4.41c2.5,0,4.38,1.93,4.4,4.45
	C42.93,11.68,40.6,13.52,38.52,13.36z"/>
<path class="st0" d="M13.25,33.14c0.89-0.49,1.77-0.59,2.68-0.2c0.72,0.31,1.2,0.97,1.21,1.63c0,0.36-0.11,0.54-0.5,0.54
	c-3.77-0.01-7.54-0.01-11.31,0c-0.41,0-0.49-0.19-0.42-0.55c0.27-1.37,2.08-2.13,3.46-1.45c0.14,0.07,0.27,0.16,0.45,0.27
	c0.43-0.87,1.13-1.31,2.11-1.34C11.9,32,12.69,32.28,13.25,33.14z"/>
<path class="st0" d="M54.71,31.79c0,1.28,0.02,2.44-0.02,3.6c0,0.15-0.27,0.42-0.42,0.43c-1.32,0.03-2.65,0.02-3.97,0.01
	c-0.14,0-0.31-0.08-0.4-0.19c-0.45-0.57-0.88-1.16-1.34-1.78c1.06-0.2,1.84-0.83,2.25-1.88c0.03-0.09,0.2-0.18,0.31-0.18
	C52.29,31.78,53.45,31.79,54.71,31.79z"/>
<path class="st0" d="M22.4,31.79c1.22,0,2.36-0.01,3.5,0.01c0.11,0,0.28,0.09,0.32,0.18c0.44,1.06,1.25,1.64,2.36,1.81
	c-0.51,0.64-0.98,1.26-1.47,1.85c-0.09,0.1-0.27,0.17-0.41,0.18c-1.3,0.01-2.6,0.02-3.91-0.01c-0.13,0-0.37-0.22-0.38-0.34
	C22.39,34.28,22.4,33.07,22.4,31.79z"/>
<path class="st0" d="M44.19,37.97c-3.84,0-7.47,0-11.11,0c0.87-0.81,1.49-1.88,2.98-1.75c1.76,0.15,3.54,0.06,5.31,0.02
	c0.6-0.01,1.07,0.12,1.5,0.56C43.23,37.17,43.66,37.5,44.19,37.97z"/>
<path class="st0" d="M14.79,18.1c-0.13,0.32-0.22,0.6-0.35,0.86c-0.18,0.34-0.36,0.68-0.6,0.97c-0.68,0.81-0.55,1.51,0.08,2.33
	c1.15,1.49,1.12,2.2,0.13,3.78c-0.98,1.58-1.04,1.34,0.04,2.86c0.21,0.29,0.49,0.57,0.57,0.9c0.07,0.29-0.1,0.64-0.16,0.97
	c-0.24-0.14-0.53-0.24-0.7-0.44c-0.38-0.47-0.71-0.98-1.04-1.48c-0.55-0.85-0.56-1.73-0.06-2.6c0.16-0.29,0.35-0.57,0.53-0.85
	c0.78-1.22,0.79-1.23-0.08-2.41c-0.58-0.78-1.09-1.63-0.66-2.6c0.39-0.89,0.96-1.71,1.48-2.54c0.08-0.13,0.37-0.22,0.52-0.17
	C14.62,17.7,14.7,17.95,14.79,18.1z"/>
<path class="st0" d="M9.78,27.5c0.17-0.49,0.3-0.93,0.48-1.36c0.12-0.29,0.32-0.54,0.47-0.81c0.75-1.31,0.95-1-0.08-2.39
	c-0.89-1.21-1.03-2.38-0.16-3.64c0.32-0.46,0.58-0.96,0.92-1.4c0.11-0.15,0.37-0.19,0.56-0.28c0.07,0.22,0.2,0.43,0.21,0.65
	c0.01,0.18-0.1,0.39-0.19,0.56c-0.15,0.28-0.29,0.56-0.49,0.8c-0.79,0.96-0.76,1.84,0.07,2.8c0.91,1.04,0.85,2.15,0.13,3.34
	c-1.17,1.93-1.22,1.43,0.08,3.39c0.17,0.26,0.42,0.52,0.46,0.8c0.03,0.25-0.19,0.53-0.3,0.8c-0.19-0.12-0.43-0.19-0.56-0.36
	c-0.38-0.5-0.76-1-1.06-1.55C10.09,28.45,9.96,27.97,9.78,27.5z"/>
<path class="st0" d="M7.15,27.04c0.18-0.37,0.42-1.08,0.83-1.66c0.64-0.9,0.68-1.65-0.06-2.52c-0.95-1.11-0.99-2.34-0.16-3.57
	c0.27-0.41,0.48-0.87,0.78-1.25c0.15-0.19,0.46-0.27,0.7-0.4c0.05,0.28,0.21,0.62,0.12,0.84c-0.26,0.61-0.59,1.2-0.96,1.76
	c-0.35,0.55-0.35,1.03,0.05,1.54c0.27,0.35,0.52,0.73,0.73,1.12c0.43,0.78,0.45,1.58,0.02,2.37c-0.28,0.51-0.58,1.01-0.88,1.51
	c-0.28,0.45-0.27,0.88,0.04,1.31c0.32,0.46,0.66,0.91,0.92,1.4c0.14,0.26,0.22,0.6,0.18,0.88c-0.05,0.36-0.42,0.53-0.63,0.23
	C8.13,29.62,7.2,28.74,7.15,27.04z"/>
<path class="st0" d="M35.45,35.76c1.01-0.86,1.86-1.62,2.75-2.32c0.15-0.12,0.57-0.1,0.73,0.03c0.87,0.69,1.71,1.44,2.69,2.29
	C39.52,35.76,37.58,35.76,35.45,35.76z"/>
<path class="st0" d="M50.19,36.27c1.5,0,2.95,0,4.46,0c0,0.56,0,1.1,0,1.69c-1.48,0-2.94,0-4.46,0
	C50.19,37.42,50.19,36.87,50.19,36.27z"/>
<path class="st0" d="M22.44,36.29c1.51,0,2.95,0,4.41,0c0,0.57,0,1.1,0,1.67c-1.48,0-2.92,0-4.41,0
	C22.44,37.41,22.44,36.88,22.44,36.29z"/>
<rect x="2.81" y="35.09" class="st1" width="16.41" height="16.41"/>
</svg>
