<?xml version="1.0" encoding="utf-8"?>
<!-- Generator: Adobe Illustrator 25.4.1, SVG Export Plug-In . SVG Version: 6.00 Build 0)  -->
<svg version="1.1" id="Layer_1" xmlns="http://www.w3.org/2000/svg" xmlns:xlink="http://www.w3.org/1999/xlink" x="0px" y="0px"
	 viewBox="0 0 60 60" style="enable-background:new 0 0 60 60;" xml:space="preserve">
<style type="text/css">
	.st0{fill:#231F20;}
	.st1{fill:#F48165;}
</style>
<g>
	<path class="st0" d="M28.97,43.05c5.01,0,10.03,0,15.04,0c2.26,0,3.95,1.58,3.93,3.66c-0.02,2.04-1.7,3.61-3.89,3.61
		c-9.47,0-18.94,0.01-28.4-0.01c-0.77,0-1.21,0.19-1.61,0.89c-1.09,1.93-2.28,3.8-3.46,5.68c-1.13,1.81-3.2,2.35-4.98,1.35
		c-1.73-0.98-2.37-3.03-1.31-4.87c1.56-2.72,3.2-5.41,4.94-8.02c1.03-1.54,2.65-2.27,4.53-2.28C18.82,43.05,23.89,43.05,28.97,43.05
		z"/>
	<path class="st0" d="M36.77,40.55c0.44-0.69,0.88-1.38,1.42-2.23c-0.4-0.02-0.68-0.06-0.96-0.06c-2.88,0-5.75,0.02-8.63-0.02
		c-0.66-0.01-1.08,0.18-1.25,0.81c-0.41,1.56-1.43,2.03-2.96,1.82c-0.78-0.11-1.59-0.02-2.63-0.02c0.41-0.96,0.74-1.72,1.12-2.59
		c-1.1,0-2.09-0.05-3.07,0.03c-0.29,0.02-0.72,0.32-0.82,0.58c-0.66,1.79-1.96,2.24-3.71,2c-0.71-0.1-1.45-0.02-2.38-0.02
		c0.21-0.5,0.31-0.81,0.47-1.08c0.88-1.45,1.81-2.88,2.66-4.35c0.59-1.02,1.4-1.45,2.58-1.45c7.21,0.02,14.42,0,21.63,0.03
		c0.73,0,1.17-0.22,1.58-0.84c1.59-2.39,3.23-4.75,4.88-7.11c0.63-0.9,1.45-1.22,2.41-0.96c0.85,0.24,1.44,0.81,1.5,1.69
		c0.04,0.52-0.07,1.15-0.35,1.57c-2.71,4.02-5.48,8.01-8.24,12.01c-0.13,0.19-0.35,0.44-0.54,0.45c-1.53,0.04-3.06,0.02-4.59,0.02
		C36.85,40.74,36.81,40.64,36.77,40.55z"/>
	<path class="st0" d="M12.85,13.05c1.6,1.43,3.16,2.84,4.72,4.24c0.14,0.12,0.29,0.24,0.42,0.36c0.55,0.51,0.71,1.1,0.24,1.72
		c-0.44,0.6-1.12,0.62-1.78,0.04c-1.42-1.24-2.81-2.52-4.22-3.78c-0.32-0.29-0.65-0.56-1-0.86C10.46,15.3,9.69,15.76,9,16.31
		c-0.2,0.16-0.29,0.58-0.28,0.87c0.05,1.82,0.16,3.65,0.23,5.47c0.03,0.68-0.31,1.14-0.98,1.26c-0.64,0.11-1.08-0.21-1.26-0.83
		c-0.08-0.26-0.1-0.55-0.12-0.82c-0.07-1.27-0.12-2.53-0.18-3.8c-0.01-0.31-0.05-0.61-0.08-0.96c-1.15,0.14-2.25,0.27-3.44,0.42
		c0-4.24,0-8.31,0-12.46c4.11,0,8.2,0,12.37,0c0,0.65,0,1.29,0,2.04c1.36,0.16,2.67,0.31,3.98,0.46c0.86,0.1,1.72,0.18,2.58,0.29
		c0.87,0.12,1.33,0.61,1.21,1.33c-0.13,0.8-0.67,1.07-1.42,0.99c-1.97-0.21-3.94-0.4-5.9-0.68c-0.77-0.11-1.25-0.02-1.57,0.8
		C13.85,11.48,13.33,12.2,12.85,13.05z"/>
	<path class="st0" d="M56.95,10.25c0,0.98,0,1.9,0,2.83c0.05,10.77,0.1,32.87,0.14,43.64c0,0.28,0.02,0.56-0.01,0.84
		c-0.11,0.84-0.68,1.36-1.4,1.31c-0.72-0.05-1.21-0.62-1.21-1.47c-0.01-4.92,0-9.84-0.01-14.77c0-6.38-0.01-24.08-0.01-30.46
		C54.45,10.45,55.05,9.97,56.95,10.25z"/>
	<path class="st0" d="M40.32,52.36c0,1.44,0.16,2.76-0.04,4.02c-0.29,1.8-1.99,2.87-3.94,2.73c-1.68-0.12-3.11-1.6-3.22-3.38
		c-0.05-0.89-0.05-1.8,0.01-2.69c0.02-0.24,0.33-0.65,0.52-0.65C35.84,52.35,38.03,52.36,40.32,52.36z"/>
</g>
<rect x="42.79" y="0.87" class="st1" width="14.17" height="14.17"/>
</svg>
