<?xml version="1.0" encoding="utf-8"?>
<!-- Generator: Adobe Illustrator 25.4.1, SVG Export Plug-In . SVG Version: 6.00 Build 0)  -->
<svg version="1.1" id="Layer_1" xmlns="http://www.w3.org/2000/svg" xmlns:xlink="http://www.w3.org/1999/xlink" x="0px" y="0px"
	 viewBox="0 0 64 64" style="enable-background:new 0 0 64 64;" xml:space="preserve">
<style type="text/css">
	.st0{fill:#221F1F;}
	.st1{fill:#F38065;}
</style>
<path class="st0" d="M14.5,38.8c4.8-3.4,9.4-6.8,14.2-10.2c-0.6-0.8-1.2-1.5-1.8-2.3c-1.8-2.3-3.6-4.7-5.5-7c-1.1-1.4-1-2.4,0.4-3.4
	c3.5-2.4,7-4.6,10.5-6.9c0.9-0.6,1.9-1.1,2.9-1.5c1.1-0.4,2,0,2.7,0.9c0.7,0.9,0.7,1.9,0,2.8c-0.4,0.5-0.8,0.9-1.3,1.3
	c-2.6,1.8-5.2,3.5-7.8,5.2c-0.2,0.1-0.4,0.3-0.6,0.4c5.8,7,11.7,13.9,17.5,20.9c0,0.1-0.1,0.2-0.1,0.2c-0.6-0.2-1.2-0.3-1.7-0.5
	c-2.7-1.1-5.5-1.1-8.3-0.1c-0.7,0.3-1.4,0.5-2.1,0.6c-1.5,0.2-3,0.2-4.4-0.4c-2-0.9-4.1-1.2-6.2-0.7c-0.5,0.1-1,0.3-1.5,0.6
	c-2.1,1-4.2,0.8-6.3,0.3C14.8,39,14.7,38.9,14.5,38.8z"/>
<path class="st0" d="M61.4,43.1c0,1,0,2.3,0,3.5c-1.1,0.1-2.1-0.1-3.1-0.3c-0.7-0.2-1.3-0.5-2-0.7c-1.4-0.5-2.8-0.5-4.2,0.2
	c-2,1.1-4.1,1-6.2,0.8c-1.3-0.1-2.6-0.5-3.9-0.9c-1.6-0.5-3.1-0.6-4.6-0.1c-2,0.7-3.9,1.3-6,1.1c-1.2-0.1-2.5-0.5-3.7-0.7
	c-0.7-0.2-1.3-0.5-2-0.6c-1-0.2-1.9-0.1-2.8,0.4c-3.1,1.5-6.3,1.5-9.5,0.3c-2.4-0.9-4.7-1-7,0c-1.6,0.7-2.7,0.8-3.8,0.7
	c0-1.2,0-2.5,0-3.6c1.6-0.5,3.2-1.1,4.9-1.4c2.5-0.5,4.9-0.3,7.2,0.7c2.2,0.9,4.5,0.9,6.8-0.2c2.2-1.1,4.5-1,6.7-0.1
	c2.6,1.1,5,1.1,7.6,0.1c2.7-1,5.4-1,8.1,0.1c1.7,0.7,3.5,0.7,5.2,0.6c0.5,0,1-0.2,1.5-0.5c2.4-1.2,4.8-1.2,7.2-0.3
	C59,42.4,60.1,42.7,61.4,43.1z"/>
<path class="st0" d="M61.4,50.2c0,1.1,0,2.3,0,3.6c-1.5,0-2.8-0.2-4.2-0.8c-0.7-0.3-1.3-0.5-2-0.6c-1.1-0.2-2.2,0-3.2,0.6
	c-1.6,0.9-3.5,0.9-5.3,0.8c-1.6-0.1-3.1-0.4-4.5-1c-1.8-0.7-3.6-0.6-5.3,0c-2.1,0.8-4.3,1.2-6.5,0.8c-1-0.2-2.1-0.5-3.1-0.8
	c-1.7-0.7-3.3-0.7-4.9,0.1c-1.7,0.9-3.6,0.9-5.5,0.8c-1.5-0.1-2.9-0.5-4.2-1c-1.9-0.7-3.9-0.6-5.8,0.1c-1.4,0.5-2.7,1-4.2,0.9
	c0-1.3,0-2.5,0-3.7c1.8-0.5,3.5-1.2,5.3-1.5c2.2-0.4,4.4-0.2,6.5,0.7c2.3,1,4.7,1,7.1-0.1c2.2-1.1,4.5-1,6.7,0c2.4,1,4.8,1,7.2,0.1
	c2.8-1,5.5-1.1,8.3,0c1.7,0.7,3.5,0.8,5.3,0.6c0.5-0.1,1-0.2,1.4-0.4c2.5-1.3,4.9-1.2,7.5-0.3C59.1,49.6,60.2,49.9,61.4,50.2z"/>
<rect x="39" y="16.7" transform="matrix(0.8152 -0.5792 0.5792 0.8152 -5.1032 30.7806)" class="st1" width="13.4" height="13.4"/>
</svg>
