<?xml version="1.0" encoding="utf-8"?>
<!-- Generator: Adobe Illustrator 25.4.1, SVG Export Plug-In . SVG Version: 6.00 Build 0)  -->
<svg version="1.1" id="Layer_1" xmlns="http://www.w3.org/2000/svg" xmlns:xlink="http://www.w3.org/1999/xlink" x="0px" y="0px"
	 viewBox="0 0 64 64" style="enable-background:new 0 0 64 64;" xml:space="preserve">
<style type="text/css">
	.st0{fill:#221F1F;}
	.st1{fill:#F38065;}
</style>
<path class="st0" d="M26.7,8.5c2.8-0.6,5.9-0.3,8.8,1c3.5,1.6,6.3,3.9,8.1,7.3c1.4,2.6,1.9,5.3,1.6,8.2c-0.4,4.5-2.1,8.4-5,11.9
	c-1.5,1.8-3.4,3.1-5.5,4c-0.2,0.1-0.5,0-0.7-0.1c-5-3.4-10-6.7-15-10.1c-2.2-1.5-4.4-3-6.7-4.5c-0.3-0.2-0.4-0.4-0.4-0.8
	c0.2-5.2,2.7-9.3,6.5-12.7C20.8,10.7,23.4,9.3,26.7,8.5z"/>
<path class="st0" d="M12.4,29.5c6.2,4.2,12.3,8.3,18.4,12.5c-0.3,0.1-0.6,0.2-1,0.2c-1.3,0-2.7,0-4-0.1c-1.4-0.1-2.8,0-4.2,0.5
	c-0.6,0.2-1,0.5-1.3,1.1c-1.3,2.3-2.5,4.5-3.8,6.8c-0.2,0.3-0.4,0.7-0.6,1c-0.9,1.5-1.9,1.9-3.5,1.3c-1.3-0.4-2.5-1.2-3.3-2.3
	c-0.9-1.2-1-2.3,0-3.5c1.2-1.5,2.5-2.9,3.7-4.4c0.7-0.9,1.4-1.7,2-2.6c0.7-1,0.4-2.1,0.3-3.1c-0.3-1.5-1.2-2.8-1.7-4.1
	C13.1,31.6,12.8,30.6,12.4,29.5z"/>
<rect x="41.9" y="38.4" transform="matrix(0.6514 -0.7587 0.7587 0.6514 -17.5791 53.4937)" class="st1" width="15" height="15"/>
</svg>
