<?xml version="1.0" encoding="utf-8"?>
<!-- Generator: Adobe Illustrator 25.4.1, SVG Export Plug-In . SVG Version: 6.00 Build 0)  -->
<svg version="1.1" id="Layer_1" xmlns="http://www.w3.org/2000/svg" xmlns:xlink="http://www.w3.org/1999/xlink" x="0px" y="0px"
	 viewBox="0 0 64 64" style="enable-background:new 0 0 64 64;" xml:space="preserve">
<style type="text/css">
	.st0{fill:#221F1F;}
	.st1{fill:#F38065;}
</style>
<path class="st0" d="M46.9,22.2c-0.1,3.6-1.1,6.6-3,9.4c-2.7,4.2-6.4,7.2-11.2,8.7c-1.8,0.6-3.7,0.8-5.6,0.7c-0.8,0-1.5,0.3-2.3,0.5
	c-1.9,0.5-3.7,1.1-5.4,2.2c-0.6,0.4-1.2,0.8-1.7,1.3c-2.1,2.1-4.3,4.2-6.4,6.3c-0.9,0.9-2,0.9-2.9,0c-0.4-0.4-0.8-0.7-1.1-1.1
	c-0.9-0.9-0.9-2,0-2.8c2.1-2.1,4.3-4.3,6.4-6.4c1.4-1.4,2.2-3.1,2.8-4.9c0.5-1.3,0.8-2.6,1.1-4c0-0.2,0.1-0.3,0-0.5
	c-0.2-4.2,1.2-8,3.7-11.3c2.7-3.6,6.1-6.3,10.5-7.7c2.6-0.8,5.2-1,7.9-0.3c3.8,1.1,6.5,4.3,7,8.4C46.9,21.4,46.9,21.9,46.9,22.2z
	 M15.9,41.6c0.4,0.4,0.8,0.8,1.2,1.2c0.2,0.2,0.3,0.2,0.5,0c1.3-0.9,2.7-1.6,4.1-2.2c0.5-0.2,0.9-0.3,1.5-0.5c-2-1-3.4-2.4-4.4-4.4
	C18.1,37.9,17.3,39.8,15.9,41.6z M21.6,36.5c0.8-0.8,1.5-1.5,2.3-2.3c-0.6-0.6-1.3-1.3-2-2c-0.5,0.5-1.1,1.1-1.6,1.6
	c-0.1,0.1-0.1,0.2,0,0.3C20.6,35.1,21,35.9,21.6,36.5z M24.7,35c-0.8,0.7-1.5,1.5-2.3,2.3c0.7,0.6,1.4,1,2.2,1.3c0.1,0,0.3,0,0.3,0
	c0.6-0.6,1.1-1.1,1.7-1.6C25.9,36.3,25.3,35.6,24.7,35z M38.8,26.3c0.6,0.6,1.3,1.3,1.9,1.9c0.6-0.6,1.3-1.3,1.9-1.9
	c-0.6-0.6-1.3-1.3-1.9-1.9C40,25,39.4,25.6,38.8,26.3z M32.6,25.5c0.6-0.6,1.3-1.3,1.9-1.9c-0.6-0.6-1.3-1.3-1.9-1.9
	c-0.6,0.6-1.3,1.3-1.9,1.9C31.4,24.2,32,24.9,32.6,25.5z M32.7,32.3c-0.6,0.6-1.3,1.3-1.9,1.9c0.6,0.7,1.3,1.3,1.9,1.9
	c0.6-0.6,1.3-1.3,1.9-1.9C33.9,33.6,33.3,33,32.7,32.3z M27.3,27c-0.6,0.6-1.3,1.3-1.9,1.9c0.6,0.6,1.3,1.3,1.9,1.9
	c0.6-0.6,1.3-1.3,1.9-1.9C28.6,28.3,28,27.7,27.3,27z M39.9,18.3c-0.6-0.6-1.3-1.3-1.9-1.9c-0.6,0.6-1.3,1.3-1.9,1.9
	c0.6,0.6,1.3,1.3,1.9,1.9C38.7,19.5,39.3,18.9,39.9,18.3z M39.9,29c-0.7-0.7-1.3-1.3-1.9-2c-0.6,0.6-1.3,1.3-1.9,1.9
	c0.6,0.6,1.3,1.3,2,1.9C38.7,30.2,39.3,29.6,39.9,29z M31.9,36.9c-0.6-0.6-1.3-1.3-1.9-1.9c-0.6,0.6-1.3,1.3-1.9,1.9
	c0.6,0.6,1.3,1.3,1.9,1.9C30.6,38.2,31.3,37.6,31.9,36.9z M35.3,33.5c0.6-0.6,1.3-1.3,1.9-1.9c-0.6-0.7-1.3-1.3-1.9-1.9
	c-0.6,0.6-1.3,1.3-1.9,1.9C34.1,32.2,34.7,32.9,35.3,33.5z M35.4,19.1c-0.7,0.6-1.3,1.3-1.9,1.9c0.6,0.6,1.3,1.3,1.8,1.9
	c0.6-0.6,1.3-1.3,1.9-1.9C36.6,20.3,36,19.7,35.4,19.1z M30,33.5c0.6-0.6,1.3-1.3,1.9-1.9c-0.6-0.6-1.3-1.3-1.9-1.9
	c-0.6,0.6-1.3,1.3-1.9,1.9C28.7,32.2,29.4,32.9,30,33.5z M22.7,31.5c0.7,0.7,1.3,1.3,1.9,1.9c0.6-0.6,1.3-1.3,1.8-1.8
	c-0.6-0.6-1.2-1.3-1.9-1.9C24,30.3,23.4,30.9,22.7,31.5z M30,19c-0.7,0.7-1.3,1.3-1.9,1.9c0.6,0.6,1.3,1.3,1.9,1.9
	c0.6-0.6,1.3-1.3,1.9-1.9C31.3,20.3,30.6,19.6,30,19z M28.1,26.2c0.6,0.6,1.3,1.3,1.9,1.9c0.6-0.6,1.3-1.3,1.9-1.9
	c-0.6-0.6-1.3-1.3-1.9-1.9C29.4,25,28.7,25.6,28.1,26.2z M35.3,28.1c0.6-0.6,1.3-1.3,1.9-1.9c-0.6-0.6-1.3-1.3-1.9-1.9
	c-0.6,0.6-1.3,1.3-1.9,1.9C34.1,26.9,34.7,27.5,35.3,28.1z M24.7,24.4c-0.6,0.6-1.3,1.3-1.9,1.9c0.6,0.6,1.3,1.3,1.9,1.9
	c0.6-0.6,1.3-1.3,1.9-1.9C25.9,25.6,25.3,25,24.7,24.4z M39.9,23.7c-0.6-0.7-1.3-1.3-1.9-1.9c-0.6,0.6-1.3,1.3-1.9,1.9
	c0.6,0.6,1.3,1.3,1.9,1.9C38.6,24.9,39.3,24.2,39.9,23.7z M41.5,23.5c0.6,0.7,1.3,1.3,2,2c0.4-0.4,0.9-0.9,1.3-1.4
	c0.2-0.2,0.2-0.8,0.1-1c-0.4-0.6-1-1.1-1.5-1.5C42.7,22.3,42.1,23,41.5,23.5z M30.8,28.9c0.6,0.7,1.3,1.3,1.9,1.9
	c0.6-0.6,1.3-1.3,2-1.9c-0.6-0.6-1.3-1.3-1.9-1.9C32,27.6,31.4,28.3,30.8,28.9z M42.5,21c-0.6-0.7-1.3-1.3-1.9-1.9
	c-0.6,0.6-1.3,1.3-1.8,1.8c0.6,0.6,1.3,1.3,1.9,1.9C41.3,22.2,42,21.6,42.5,21z M22,30.8c0.6-0.6,1.3-1.3,1.9-1.9
	c-0.6-0.6-1.3-1.3-1.9-1.9c-0.6,0.6-1.3,1.3-1.9,1.9C20.7,29.6,21.4,30.2,22,30.8z M32.6,20.2c0.7-0.7,1.3-1.3,1.9-1.9
	c-0.6-0.6-1.3-1.3-1.9-1.9c-0.6,0.6-1.3,1.3-1.9,1.9C31.4,18.9,32,19.6,32.6,20.2z M29.2,23.6c-0.6-0.7-1.3-1.3-1.9-1.9
	c-0.6,0.6-1.3,1.3-1.9,1.8c0.6,0.6,1.3,1.3,1.9,1.9C28,24.9,28.6,24.2,29.2,23.6z M27.3,36.2c0.6-0.6,1.3-1.3,1.9-1.9
	c-0.6-0.6-1.2-1.3-1.8-1.9c-0.6,0.6-1.3,1.3-1.9,1.9C26,34.9,26.7,35.6,27.3,36.2z M37.3,15.5c-0.5-0.4-0.9-0.9-1.3-1.3
	c-0.3-0.3-0.9-0.4-1.2-0.1c-0.5,0.5-1,1-1.4,1.4c0.7,0.7,1.3,1.3,2,2C36,16.9,36.6,16.2,37.3,15.5z M24.9,19.3
	c-0.6,0.7-1.1,1.3-1.7,2c-0.1,0.1-0.1,0.2,0,0.3c0.4,0.5,0.9,0.9,1.3,1.4c0.7-0.7,1.4-1.4,2-2C26,20.4,25.5,19.8,24.9,19.3z
	 M38,32.4c-0.6,0.6-1.3,1.3-1.9,1.9c0.5,0.5,0.9,1,1.5,1.5c0.7-0.6,1.4-1.2,2-1.8C39.1,33.4,38.5,32.9,38,32.4z M25.7,18.5
	c0.6,0.6,1.1,1.1,1.6,1.6c0.6-0.6,1.3-1.3,2-2c-0.4-0.4-0.8-0.8-1.2-1.2c-0.1-0.1-0.2-0.1-0.3,0C27,17.5,26.4,18,25.7,18.5z
	 M40.4,33.2c0.5-0.7,1.1-1.4,1.6-2.1c0-0.1,0-0.2,0-0.3c-0.4-0.4-0.8-0.9-1.2-1.3c-0.7,0.7-1.4,1.3-2,2
	C39.3,32.1,39.8,32.6,40.4,33.2z M38.7,15.5c0.7,0.7,1.4,1.4,2,2c0.5-0.5,1.1-1,1.6-1.6c-0.1-0.1-0.3-0.2-0.4-0.3
	c-0.4-0.2-0.7-0.5-1.1-0.7c-0.9-0.5-0.9-0.5-1.6,0.3C39,15.3,38.8,15.4,38.7,15.5z M41.5,18.3c0.6,0.6,1.3,1.3,2,2
	c0.1-0.2,0.3-0.4,0.5-0.6c0.6-0.6,0.6-0.6,0.2-1.3c-0.1-0.1-0.1-0.3-0.2-0.4c-0.3-0.4-0.6-0.9-0.9-1.3
	C42.5,17.2,41.9,17.8,41.5,18.3z M22.5,22.2c-0.5,0.8-0.9,1.6-1.3,2.4c0,0.1,0,0.2,0,0.3c0.2,0.3,0.4,0.6,0.6,0.8
	c0.8-0.8,1.4-1.4,2-2.1C23.5,23.2,23,22.7,22.5,22.2z M36.7,36.5c-0.5-0.5-1-1-1.3-1.4c-0.6,0.6-1.3,1.3-2,2
	c0.2,0.2,0.4,0.4,0.7,0.6c0.1,0.1,0.3,0.1,0.4,0.1C35.2,37.3,36,36.9,36.7,36.5z M32,15.5c-0.3-0.2-0.6-0.5-0.8-0.4
	c-0.9,0.3-1.7,0.8-2.5,1.2c0.5,0.5,0.9,0.9,1.2,1.3C30.6,16.9,31.3,16.2,32,15.5z M42.7,30.2c0.4-0.7,0.7-1.4,1-2.1
	c0.3-0.7,0.3-0.8-0.3-1.2c-0.7,0.7-1.3,1.3-1.9,1.9C41.8,29.3,42.2,29.7,42.7,30.2z M27.3,37.7c-0.4,0.4-0.9,0.9-1.4,1.4
	c0.9,0.1,1.9,0.1,2.9,0.2C28.3,38.7,27.8,38.2,27.3,37.7z M21.2,31.7c-0.5-0.5-1-1-1.5-1.5c0,0.9,0,1.9,0.2,2.8
	C20.4,32.5,20.8,32,21.2,31.7z M44.9,21.8c0,0,0.1,0,0.1,0c-0.1-0.5-0.1-1-0.2-1.6c-0.3,0.3-0.5,0.5-0.8,0.7
	C44.3,21.2,44.6,21.5,44.9,21.8z M20.1,27.3C20.2,27.3,20.2,27.3,20.1,27.3c0.4-0.3,0.8-0.7,1.1-1c-0.2-0.2-0.3-0.3-0.6-0.6
	C20.5,26.2,20.3,26.8,20.1,27.3z M32.7,37.7c-0.4,0.4-0.8,0.7-1.2,1.2c0.6-0.2,1.2-0.4,1.8-0.6C33,38,32.9,37.8,32.7,37.7z
	 M38.7,14.1c-0.6-0.1-1.1-0.1-1.7-0.2c0.4,0.4,0.6,0.7,0.9,1C38.2,14.7,38.4,14.5,38.7,14.1z"/>
<rect x="42.2" y="34.3" transform="matrix(0.7071 -0.7071 0.7071 0.7071 -14.9909 47.3471)" class="st1" width="15" height="15"/>
</svg>
