<?xml version="1.0" encoding="utf-8"?>
<!-- Generator: Adobe Illustrator 25.4.1, SVG Export Plug-In . SVG Version: 6.00 Build 0)  -->
<svg version="1.1" id="Layer_1" xmlns="http://www.w3.org/2000/svg" xmlns:xlink="http://www.w3.org/1999/xlink" x="0px" y="0px"
	 viewBox="0 0 60 60" style="enable-background:new 0 0 60 60;" xml:space="preserve">
<style type="text/css">
	.st0{fill:#231F20;}
	.st1{fill:#F48165;}
</style>
<path class="st0" d="M5.57,26.84c12.54,0,24.97,0,37.53,0c0,8.9,0,17.72,0,26.72c-12.45,0-24.91,0-37.53,0
	C5.57,44.75,5.57,35.94,5.57,26.84z"/>
<path class="st0" d="M23.28,14.5c-0.02,5.51-4.65,10.17-10.11,10.17C7.59,24.69,2.9,20.03,2.87,14.45
	C2.83,8.79,7.39,4.26,13.11,4.28C18.84,4.29,23.29,8.77,23.28,14.5z M8.77,14.44c0,2.4,1.89,4.32,4.27,4.35
	c2.42,0.03,4.29-1.81,4.34-4.26c0.05-2.52-1.9-4.52-4.35-4.47C10.66,10.1,8.77,12.04,8.77,14.44z"/>
<path class="st0" d="M35.64,4.26c5.7,0.06,10.18,4.61,10.14,10.29c-0.04,5.5-4.66,10.11-10.16,10.14
	c-5.61,0.03-10.3-4.78-10.24-10.49C25.44,8.69,30.07,4.21,35.64,4.26z M39.9,14.49c0.03-2.44-1.98-4.49-4.37-4.46
	c-2.31,0.03-4.26,2-4.28,4.33c-0.03,2.39,1.81,4.35,4.15,4.43C37.83,18.88,39.87,16.93,39.9,14.49z"/>
<path class="st0" d="M57.13,48.73c-2.26-1.03-4.48-1.58-6.04-2.89c-1.69-1.42-3.13-2.76-5.63-2.12c0-2.32,0-4.41,0-6.64
	c0.43-0.07,0.9-0.26,1.34-0.21c1.46,0.15,2.47-0.35,3.44-1.51c1.72-2.05,4.06-2.95,6.89-2.91C57.13,37.66,57.13,42.84,57.13,48.73z"
	/>
<rect x="5.57" y="31.52" class="st1" width="22.05" height="22.05"/>
</svg>
