<?xml version="1.0" encoding="utf-8"?>
<!-- Generator: Adobe Illustrator 25.4.1, SVG Export Plug-In . SVG Version: 6.00 Build 0)  -->
<svg version="1.1" id="Layer_1" xmlns="http://www.w3.org/2000/svg" xmlns:xlink="http://www.w3.org/1999/xlink" x="0px" y="0px"
	 viewBox="0 0 60 60" style="enable-background:new 0 0 60 60;" xml:space="preserve">
<style type="text/css">
	.st0{fill:#231F20;}
	.st1{fill:#F48165;}
</style>
<path class="st0" d="M21.71,38.57c-0.63,2.82-1.19,5.36-1.78,8c-1.7-0.93-3.47-1.79-5.36-1.31c-1.75,0.44-3.39,1.31-5.06,1.99
	c0.36-1.63,0.74-3.42,1.14-5.21c0.38-1.71,0.8-3.41,1.13-5.12c0.08-0.41-0.04-0.95-0.26-1.31c-1.02-1.64-2.15-3.21-3.16-4.85
	c-0.28-0.45-0.48-1.06-0.43-1.57c0.25-2.72,0.58-5.43,0.91-8.14c0.1-0.8,0.73-1.26,1.5-1.21c0.77,0.05,1.26,0.57,1.28,1.42
	c0.06,2.17,0.05,4.34,0.18,6.51c0.05,0.83,0.29,1.71,0.68,2.43c0.54,1.01,1.28,1.93,2,2.83c0.92,1.15,2.17,1.79,3.63,1.83
	c3.47,0.08,6.95,0.11,10.43,0.13c1.13,0.01,2.26-0.1,3.39-0.13c1.23-0.03,1.96,0.57,2.01,1.63c0.05,1.04-0.63,1.8-1.82,1.88
	c-1.81,0.11-3.62,0.17-5.44,0.21C25.03,38.6,23.4,38.57,21.71,38.57z"/>
<path class="st0" d="M48.32,52.48c-0.41-1.86-0.81-3.47-1.12-5.1c-0.12-0.64-0.4-0.79-1.01-0.8c-2.26-0.04-4.51-0.14-6.77-0.22
	c-0.27-0.01-0.53-0.03-0.8-0.06c-0.94-0.12-1.48-0.69-1.44-1.48c0.05-0.83,0.73-1.32,1.7-1.3c3.38,0.04,6.77,0.13,10.15,0.07
	c3.08-0.05,5.77-2.75,5.94-5.85c0.08-1.57,0.04-3.15,0.06-4.72c0.01-0.96,0.41-1.51,1.11-1.54c0.67-0.02,1.06,0.47,1.17,1.39
	c0.21,1.77,0.42,3.53,0.66,5.3c0.12,0.91,0.04,1.73-0.56,2.51c-0.81,1.06-1.53,2.19-2.21,3.34c-0.21,0.36-0.23,0.86-0.23,1.3
	c0,0.41,0.14,0.82,0.22,1.22c0.36,1.67,0.38,1.7-1.12,2.6C52.22,50.25,50.34,51.31,48.32,52.48z"/>
<path class="st0" d="M18.92,25.6c2.31,0,4.25,1.94,4.25,4.26c0,2.31-1.97,4.27-4.27,4.26c-2.38-0.01-4.23-1.86-4.25-4.23
	C14.65,27.46,16.49,25.6,18.92,25.6z"/>
<path class="st0" d="M49.21,42.91c-1.9-0.02-3.39-1.52-3.38-3.41c0.01-1.88,1.55-3.4,3.42-3.39c1.85,0.01,3.4,1.58,3.4,3.43
	C52.64,41.41,51.09,42.93,49.21,42.91z"/>
<path class="st0" d="M55.98,50.62c-1.58,0.26-2.94,1.09-4.41,1.64c-1.86,0.69-3.66,0.53-5.44-0.27c-0.77-0.35-1.56-0.68-2.34-1.02
	c-1.08-0.47-2.1-0.26-3.13,0.19c-1.04,0.46-2.09,0.91-3.17,1.27c-1.17,0.4-2.39,0.41-3.56-0.01c-1.08-0.39-2.16-0.82-3.21-1.3
	c-1.23-0.56-2.41-0.51-3.63,0.06c-1.07,0.5-2.17,0.94-3.29,1.3c-1.26,0.4-2.55,0.28-3.78-0.19c-0.92-0.35-1.84-0.73-2.74-1.14
	c-1.25-0.58-2.45-0.54-3.7,0.05c-1.11,0.52-2.27,0.96-3.43,1.33c-0.99,0.31-2.02,0.27-3.01-0.06c-0.89-0.29-1.76-0.64-2.63-1
	c-0.78-0.33-1.54-0.73-2.41-0.78c-0.05,0-0.09-0.05-0.13-0.07c0-1.12,0-2.25,0-3.37c0.13,0,0.26,0,0.38,0
	c0.22,0.03,0.44,0.07,0.66,0.11c1.34,0.24,2.56,0.81,3.77,1.39c1.31,0.63,2.58,0.71,3.89,0.01c0.49-0.26,1-0.5,1.53-0.67
	c0.94-0.31,1.91-0.56,2.86-0.84c0.26,0,0.51,0,0.77,0c0.36,0.06,0.74,0.08,1.07,0.2c1.15,0.42,2.32,0.82,3.43,1.34
	c1.28,0.59,2.5,0.65,3.76,0.01c0.52-0.26,1.05-0.52,1.6-0.71c0.94-0.31,1.91-0.56,2.86-0.84c0.26,0,0.51,0,0.77,0
	c0.36,0.06,0.73,0.08,1.07,0.2c0.99,0.35,1.98,0.69,2.94,1.13c1.3,0.58,2.57,1.02,3.97,0.35c0.62-0.3,1.23-0.61,1.88-0.83
	c0.94-0.32,1.9-0.57,2.86-0.84c0.26,0,0.51,0,0.77,0c0.53,0.11,1.08,0.16,1.58,0.34c0.86,0.3,1.71,0.64,2.53,1.03
	c1.42,0.69,2.83,0.92,4.29,0.1c0.46-0.26,0.96-0.47,1.46-0.64c0.94-0.31,1.91-0.56,2.86-0.84c0.15,0,0.31,0,0.46,0
	C55.98,48.37,55.98,49.49,55.98,50.62z"/>
<path class="st0" d="M55.98,57.05c-0.8-0.07-1.48,0.3-2.18,0.6c-1.11,0.47-2.18,1.01-3.38,1.26c-1.3,0.28-2.53,0.09-3.74-0.38
	c-0.86-0.34-1.72-0.69-2.55-1.08c-1.12-0.53-2.23-0.51-3.35,0c-0.82,0.37-1.64,0.73-2.48,1.07c-1.88,0.77-3.75,0.66-5.59-0.16
	c-0.78-0.34-1.57-0.65-2.34-1.01c-1.06-0.49-2.08-0.33-3.09,0.11c-0.9,0.39-1.79,0.79-2.7,1.14c-1.77,0.69-3.51,0.55-5.23-0.2
	c-0.62-0.27-1.23-0.54-1.85-0.81c-0.71-0.31-1.44-0.53-2.23-0.6c-0.9-0.08-1.58-0.92-1.49-1.76c0.11-0.99,0.88-1.67,1.83-1.62
	c1.12,0.05,2.16,0.39,3.18,0.83c0.71,0.3,1.43,0.6,2.13,0.92c0.98,0.44,1.93,0.3,2.87-0.09c0.95-0.4,1.88-0.82,2.84-1.2
	c1.77-0.7,3.51-0.53,5.22,0.21c0.84,0.36,1.69,0.69,2.52,1.07c1.01,0.46,1.97,0.31,2.94-0.11c1.05-0.45,2.09-0.93,3.16-1.3
	c1.65-0.57,3.28-0.35,4.86,0.34c0.8,0.35,1.62,0.65,2.42,1.03c1.04,0.49,2.04,0.35,3.05-0.07c1.13-0.48,2.27-0.95,3.43-1.35
	c0.54-0.19,1.15-0.18,1.73-0.27C55.98,54.75,55.98,55.9,55.98,57.05z"/>
<rect x="18.65" y="3.92" transform="matrix(-0.5792 -0.8152 0.8152 -0.5792 31.9877 39.3601)" class="st1" width="15.01" height="15.02"/>
</svg>
