<?xml version="1.0" encoding="utf-8"?>
<!-- Generator: Adobe Illustrator 25.4.1, SVG Export Plug-In . SVG Version: 6.00 Build 0)  -->
<svg version="1.1" id="Layer_1" xmlns="http://www.w3.org/2000/svg" xmlns:xlink="http://www.w3.org/1999/xlink" x="0px" y="0px"
	 viewBox="0 0 64 64" style="enable-background:new 0 0 64 64;" xml:space="preserve">
<style type="text/css">
	.st0{fill:#231F20;}
	.st1{fill:#F48165;}
</style>
<g>
	<path class="st0" d="M31.99,46.65c2.28,0,4.42-0.63,6.24-1.73v8.15H25.75v-8.16C27.58,46.02,29.72,46.65,31.99,46.65z"/>
	<path class="st0" d="M44.11,32.79c0,0.62-0.05,1.22-0.14,1.82c-0.54,3.64-2.71,6.75-5.74,8.57c-1.82,1.1-3.96,1.73-6.24,1.73
		c-2.28,0-4.42-0.63-6.24-1.74c-3.03-1.82-5.19-4.93-5.73-8.56c-0.09-0.6-0.14-1.2-0.14-1.82H44.11z"/>
	<rect x="23.53" y="12.04" class="st0" width="16.93" height="2.39"/>
	<rect x="24.49" y="15.97" class="st1" width="15.02" height="15.02"/>
</g>
</svg>
