<?xml version="1.0" encoding="utf-8"?>
<!-- Generator: Adobe Illustrator 25.4.1, SVG Export Plug-In . SVG Version: 6.00 Build 0)  -->
<svg version="1.1" id="Layer_1" xmlns="http://www.w3.org/2000/svg" xmlns:xlink="http://www.w3.org/1999/xlink" x="0px" y="0px"
	 viewBox="0 0 60 60" style="enable-background:new 0 0 60 60;" xml:space="preserve">
<style type="text/css">
	.st0{fill:#010101;}
	.st1{fill:#F48165;}
	.st2{fill:#FFFFFF;}
</style>
<rect x="7.1" y="17.9" class="st0" width="45.6" height="22.7"/>
<rect x="22.4" y="22" class="st1" width="15" height="15"/>
<g>
	<path class="st2" d="M53.7,24.4c-4,0-7.2-3.2-7.2-7.2h1c0,3.4,2.8,6.2,6.2,6.2V24.4z"/>
</g>
<g>
	<path class="st2" d="M7.1,24.4v-1c3.4,0,6.2-2.8,6.2-6.2h1C14.3,21.2,11.1,24.4,7.1,24.4z"/>
</g>
<g>
	<path class="st2" d="M13.8,41h-1c0-3.4-2.8-6.2-6.2-6.2v-1C10.6,33.8,13.8,37,13.8,41z"/>
</g>
<g>
	<path class="st2" d="M47.4,41.5l-1,0c0-1.9,0.8-3.7,2.2-5.1c1.4-1.3,3.2-2.1,5.1-2l0,1c0,0-0.1,0-0.1,0
		C50.2,35.4,47.4,38.1,47.4,41.5z"/>
</g>
</svg>
