<?xml version="1.0" encoding="utf-8"?>
<!-- Generator: Adobe Illustrator 25.4.1, SVG Export Plug-In . SVG Version: 6.00 Build 0)  -->
<svg version="1.1" id="Layer_1" xmlns="http://www.w3.org/2000/svg" xmlns:xlink="http://www.w3.org/1999/xlink" x="0px" y="0px"
	 viewBox="0 0 64 64" style="enable-background:new 0 0 64 64;" xml:space="preserve">
<style type="text/css">
	.st0{fill:#231F20;}
	.st1{fill:#F48165;}
</style>
<g>
	<rect x="21.26" y="19.21" class="st0" width="21.62" height="21.62"/>
	<g>
		<path class="st0" d="M25.95,29.83c0,2.74,1.81,5.07,4.3,5.84l0-11.68C27.76,24.76,25.95,27.08,25.95,29.83L25.95,29.83z"/>
		<path class="st0" d="M38.12,29.83c0-2.77-1.85-5.12-4.38-5.86l0,11.72C36.27,34.95,38.12,32.6,38.12,29.83z"/>
		<path class="st0" d="M15.25,29.83c0-6.04-4.75-10.99-10.69-11.29v22.58C10.51,40.82,15.25,35.87,15.25,29.83z"/>
		<path class="st0" d="M45.26,29.83c0-7.96,6.31-14.48,14.18-14.78V9.29h-25.7l0,11.1c4.47,0.81,7.87,4.73,7.87,9.44
			c0,4.71-3.4,8.63-7.87,9.44l0,11.1h25.71v-5.76C51.57,44.31,45.26,37.79,45.26,29.83z"/>
		<path class="st0" d="M30.25,39.25c-4.43-0.84-7.79-4.75-7.79-9.43c0-4.68,3.36-8.59,7.79-9.43l0-11.11H4.56v5.76
			c7.87,0.31,14.18,6.82,14.18,14.78S12.43,44.31,4.56,44.61v5.76h25.69L30.25,39.25z"/>
		<path class="st0" d="M59.44,41.12V18.54c-5.95,0.3-10.69,5.25-10.69,11.29S53.49,40.82,59.44,41.12z"/>
	</g>
	<rect x="24.49" y="22.32" class="st1" width="15.02" height="15.02"/>
</g>
</svg>
