<?xml version="1.0" encoding="utf-8"?>
<!-- Generator: Adobe Illustrator 25.4.1, SVG Export Plug-In . SVG Version: 6.00 Build 0)  -->
<svg version="1.1" id="Layer_1" xmlns="http://www.w3.org/2000/svg" xmlns:xlink="http://www.w3.org/1999/xlink" x="0px" y="0px"
	 viewBox="0 0 60 60" style="enable-background:new 0 0 60 60;" xml:space="preserve">
<style type="text/css">
	.st0{fill:#231F20;}
	.st1{fill:#F48165;}
</style>
<path class="st0" d="M57.78,30.92c-1.02,0.2-2.04,0.41-3.05,0.61c-0.75,0.15-1.5,0.31-2.25,0.44c-0.26,0.05-0.34,0.16-0.36,0.42
	c-0.33,4.32-1.86,8.17-4.64,11.49c-3.36,4.01-7.65,6.41-12.84,7.17c-0.46,0.07-0.92,0.12-1.38,0.14c-0.29,0.01-0.41,0.11-0.47,0.4
	c-0.29,1.54-0.6,3.07-0.91,4.61c-0.02,0.11-0.05,0.22-0.15,0.34c-0.1-0.46-0.19-0.91-0.28-1.37c-0.23-1.18-0.47-2.36-0.69-3.54
	c-0.05-0.25-0.11-0.41-0.43-0.44c-5.69-0.43-10.4-2.82-14.11-7.13c-2.9-3.37-4.47-7.3-4.8-11.73c-0.02-0.26-0.1-0.36-0.36-0.41
	c-1.56-0.29-3.12-0.61-4.68-0.92c-0.1-0.02-0.19-0.05-0.3-0.15c0.28-0.06,0.56-0.14,0.84-0.19c1.39-0.28,2.78-0.56,4.17-0.81
	c0.26-0.05,0.32-0.16,0.34-0.39c0.65-8.26,5.82-15.02,13.64-17.83c1.68-0.6,3.43-0.95,5.22-1.06c0.33-0.02,0.44-0.14,0.5-0.45
	c0.29-1.53,0.6-3.05,0.9-4.57c0.02-0.11,0.06-0.21,0.14-0.32c0.2,1,0.4,2.01,0.6,3.01c0.13,0.66,0.27,1.33,0.39,1.99
	c0.04,0.22,0.12,0.31,0.36,0.33c3.93,0.28,7.51,1.53,10.66,3.89c4.85,3.64,7.63,8.48,8.26,14.53c0.08,0.74,0.07,0.75,0.81,0.89
	c1.49,0.29,2.98,0.58,4.46,0.88c0.14,0.03,0.28,0.07,0.42,0.1C57.78,30.86,57.78,30.89,57.78,30.92z M28.82,24.09
	c-0.14,0.06-0.22,0.08-0.3,0.12c-2.47,1.29-3.92,3.3-4.14,6.08c-0.34,4.19,2.82,7.72,7.01,7.98c0.75,0.05,1.31-0.2,1.81-0.71
	c1.2-1.22,1.34-2.98,0.37-4.57c-0.52-0.85-1.28-1.47-2.06-2.06c-0.22-0.16-0.44-0.34-0.61-0.55c-0.24-0.29-0.15-0.54,0.19-0.68
	c0.23-0.09,0.48-0.14,0.71-0.23c0.69-0.28,0.87-1,0.37-1.56c-0.23-0.26-0.51-0.49-0.79-0.69C30.28,26.41,29.27,25.51,28.82,24.09z
	 M35.74,37.05c0.03,0,0.06,0.01,0.08,0c0.1-0.06,0.2-0.11,0.28-0.18c2.45-1.9,3.48-4.38,2.92-7.44c-0.68-3.77-4.46-6.45-8.17-5.9
	c-0.38,0.06-0.41,0.2-0.35,0.51c0.21,1.05,0.85,1.82,1.61,2.52c0.35,0.32,0.73,0.61,1.07,0.94c0.61,0.58,0.6,1.34-0.01,1.92
	c-0.12,0.11-0.24,0.22-0.38,0.31c-0.25,0.17-0.27,0.37-0.08,0.6c0.18,0.22,0.35,0.46,0.56,0.66c0.39,0.37,0.8,0.73,1.19,1.09
	c1.12,1.02,1.57,2.3,1.43,3.79C35.87,36.26,35.8,36.65,35.74,37.05z M43.94,42.63c-0.08-0.07-0.12-0.12-0.17-0.15
	c-2.15-1.43-4.29-2.87-6.44-4.29c-0.1-0.06-0.3-0.04-0.42,0.03c-0.45,0.24-0.88,0.53-1.34,0.75c-0.22,0.11-0.31,0.25-0.36,0.47
	c-0.5,2.57-1.01,5.13-1.52,7.7c-0.03,0.16-0.05,0.33-0.09,0.55C37.68,47.2,41.08,45.51,43.94,42.63z M29.95,47.64
	c-0.11-0.56-0.22-1.08-0.32-1.61c-0.43-2.15-0.86-4.3-1.27-6.45c-0.07-0.34-0.2-0.55-0.53-0.69c-0.34-0.14-0.68-0.33-0.98-0.56
	c-0.27-0.2-0.47-0.17-0.73,0.01c-2.05,1.38-4.1,2.75-6.15,4.12c-0.1,0.07-0.19,0.14-0.29,0.22C22.41,45.61,26.68,47.46,29.95,47.64z
	 M43.75,18.92c-2.87-2.79-6.22-4.41-10.16-4.87c0.01,0.13,0.02,0.19,0.03,0.25c0.53,2.69,1.06,5.38,1.61,8.07
	c0.03,0.14,0.18,0.29,0.31,0.37c0.34,0.21,0.71,0.37,1.04,0.59c0.23,0.16,0.38,0.13,0.6-0.01c1.05-0.71,2.1-1.41,3.15-2.11
	C41.45,20.45,42.58,19.7,43.75,18.92z M19.9,18.8c0.09,0.08,0.15,0.13,0.21,0.17c2.15,1.45,4.3,2.9,6.46,4.34
	c0.09,0.06,0.28,0.05,0.39-0.01c0.33-0.15,0.63-0.37,0.96-0.51c0.28-0.12,0.38-0.31,0.43-0.59c0.44-2.25,0.89-4.5,1.33-6.75
	c0.09-0.45,0.17-0.9,0.27-1.42C26.04,14.51,22.74,16.09,19.9,18.8z M14.92,29.04c0.18-0.03,0.28-0.04,0.39-0.06
	c2.37-0.47,4.73-0.97,7.11-1.39c0.75-0.13,1.28-0.37,1.56-1.13c0.1-0.28,0.14-0.46-0.03-0.71c-1-1.47-1.98-2.96-2.96-4.44
	c-0.47-0.71-0.94-1.41-1.45-2.16C16.92,21.97,15.37,25.22,14.92,29.04z M19.39,42.41c0.1-0.14,0.17-0.22,0.24-0.32
	c1.33-1.99,2.64-4,4.01-5.96c0.34-0.48,0.43-0.85,0.09-1.36c-0.17-0.26-0.32-0.42-0.64-0.48c-1.79-0.34-3.57-0.7-5.35-1.05
	c-0.92-0.18-1.83-0.36-2.82-0.56C15.37,36.43,16.85,39.63,19.39,42.41z M48.61,28.99c-0.47-3.75-1.95-6.93-4.49-9.68
	c-0.11,0.16-0.19,0.27-0.27,0.38c-1.3,1.95-2.59,3.9-3.92,5.83c-0.34,0.5-0.53,0.91-0.12,1.45c0.15,0.2,0.27,0.34,0.53,0.39
	c2.19,0.42,4.37,0.86,6.56,1.29C47.45,28.77,47.99,28.87,48.61,28.99z M48.61,32.78c-0.17,0.02-0.28,0.02-0.38,0.05
	c-2.68,0.53-5.36,1.05-8.04,1.58c-0.35,0.07-0.66,0.82-0.46,1.12c1.02,1.52,2.03,3.04,3.05,4.56c0.48,0.72,0.96,1.43,1.48,2.2
	C46.72,39.55,48.15,36.42,48.61,32.78z"/>
<rect x="24.36" y="23.45" class="st1" width="15.01" height="15.02"/>
</svg>
