<?xml version="1.0" encoding="utf-8"?>
<!-- Generator: Adobe Illustrator 25.4.1, SVG Export Plug-In . SVG Version: 6.00 Build 0)  -->
<svg version="1.1" id="Layer_1" xmlns="http://www.w3.org/2000/svg" xmlns:xlink="http://www.w3.org/1999/xlink" x="0px" y="0px"
	 viewBox="0 0 64 64" style="enable-background:new 0 0 64 64;" xml:space="preserve">
<style type="text/css">
	.st0{fill:#231F20;}
	.st1{fill:#F48165;}
</style>
<rect x="44.68" y="24.08" class="st0" width="4.84" height="28.2"/>
<rect x="39.59" y="9.06" class="st1" width="15.02" height="15.02"/>
<path class="st0" d="M38.61,34.43h-1.98l-4.26-7.95h-17.4l-4.31,7.95H9.39v11.82h2.77v4.76h3.75v-4.76h15.83v4.76h3.75v-4.76h3.11
	V34.43z M17.51,28.67h12.3l2.34,4.61H15.14L17.51,28.67z M14.18,42.26c-1.06,0-1.93-0.86-1.93-1.93c0-1.06,0.86-1.93,1.93-1.93
	s1.93,0.86,1.93,1.93C16.1,41.4,15.24,42.26,14.18,42.26z M33.76,42.26c-1.06,0-1.93-0.86-1.93-1.93c0-1.06,0.86-1.93,1.93-1.93
	s1.93,0.86,1.93,1.93C35.69,41.4,34.83,42.26,33.76,42.26z"/>
</svg>
