<?xml version="1.0" encoding="utf-8"?>
<!-- Generator: Adobe Illustrator 25.4.1, SVG Export Plug-In . SVG Version: 6.00 Build 0)  -->
<svg version="1.1" id="Layer_1" xmlns="http://www.w3.org/2000/svg" xmlns:xlink="http://www.w3.org/1999/xlink" x="0px" y="0px"
	 viewBox="0 0 64 64" style="enable-background:new 0 0 64 64;" xml:space="preserve">
<style type="text/css">
	.st0{fill:#221F1F;}
	.st1{fill:#F38065;}
</style>
<g>
	<path class="st0" d="M39.5,36.7c1.4,1.4,2.9,2.9,4.4,4.4c-3.9,3.9-7.8,7.8-11.7,11.7c-1.4-1.4-2.9-2.9-4.4-4.4
		C31.7,44.5,35.6,40.5,39.5,36.7z"/>
	<path class="st0" d="M21.6,18.6c3.5-3.5,7.1-7.1,10.7-10.7c0.3,0.3,0.6,0.6,0.9,0.9c1.1,1.1,2.3,2.3,3.4,3.4c0.2,0.2,0.3,0.3,0,0.6
		c-3.4,3.4-6.8,6.8-10.3,10.3c-0.1,0.1-0.1,0.1-0.1,0.1C24.6,21.6,23.1,20.1,21.6,18.6z"/>
	<path class="st0" d="M54.6,30.5c-1.7,1.7-3.4,3.4-5.1,5.1c-2.9-2.9-5.8-5.8-8.6-8.6c1.7-1.7,3.4-3.4,5.1-5.1
		C48.8,24.7,51.7,27.6,54.6,30.5z"/>
	<path class="st0" d="M9.8,30.4c1.2-1.2,2.5-2.5,3.8-3.8c3.7,3.7,7.5,7.5,11.2,11.2c-1.2,1.2-2.5,2.5-3.8,3.8
		C17.3,37.9,13.5,34.1,9.8,30.4z"/>
	<path class="st0" d="M44.6,21.2c-1.6,1.6-3.1,3.1-4.7,4.7c-2.6-2.6-5.2-5.2-7.8-7.8c1.5-1.6,3.1-3.1,4.7-4.7
		C39.4,15.9,42,18.6,44.6,21.2z"/>
	<path class="st0" d="M21.7,20c1.2,1.2,2.4,2.4,3.6,3.6c-2.1,2.1-4.3,4.3-6.4,6.4c-1.2-1.2-2.4-2.4-3.6-3.6
		C17.4,24.3,19.6,22.1,21.7,20z"/>
	<path class="st0" d="M30.5,44.3c-1,1-2,2-3,3c-1.8-1.8-3.6-3.6-5.3-5.3c1-1,2-2,3-3C26.9,40.7,28.7,42.5,30.5,44.3z"/>
	<path class="st0" d="M47.9,36c-1.2,1.2-2.4,2.4-3.6,3.6c-1.3-1.3-2.7-2.7-4-4c1.2-1.2,2.4-2.4,3.6-3.5C45.2,33.3,46.6,34.7,47.9,36
		z"/>
</g>
<rect x="24.1" y="23.8" transform="matrix(0.7071 -0.7071 0.7071 0.7071 -12.8739 31.5295)" class="st1" width="15" height="15"/>
</svg>
