<?xml version="1.0" encoding="utf-8"?>
<!-- Generator: Adobe Illustrator 25.4.1, SVG Export Plug-In . SVG Version: 6.00 Build 0)  -->
<svg version="1.1" id="Layer_1" xmlns="http://www.w3.org/2000/svg" xmlns:xlink="http://www.w3.org/1999/xlink" x="0px" y="0px"
	 viewBox="0 0 64 64" style="enable-background:new 0 0 64 64;" xml:space="preserve">
<style type="text/css">
	.st0{fill:#221F1F;}
	.st1{fill:#F38065;}
</style>
<path class="st0" d="M14.2,45.7c0-2.8,0-5.3,0-7.9c-0.1-5.9-0.1-5.9,4.1-10c4.2-4.2,8.4-8.4,12.6-12.6c1.4-1.4,2-1.4,3.4,0
	c7.2,7.1,14.3,14.2,21.5,21.3c1.6,1.6,1.7,3.3,0.4,4.7c-1.3,1.4-3.1,1.4-4.7-0.1c-3-2.9-6-5.9-9-8.9c-1.8-1.8-3.5-3.6-5.2-5.3
	c-3.4,3.5-6.7,6.8-10.2,10.3c2.9,2.9,6.1,6,9.3,9.2c2.5,2.5,5.1,5,7.6,7.6c1.1,1.2,1.4,2.6,0.7,3.9c-0.7,1.3-1.9,1.9-3.3,1.5
	c-0.8-0.2-1.6-0.8-2.2-1.4c-5.8-5.7-11.5-11.5-17.3-17.3c-0.4-0.4-0.8-0.8-1.4-1.4c-0.1,0.7-0.1,1.1-0.1,1.5c0,2.6,0,5.1,0,7.7
	c0,2.3-1.2,3.5-3.5,3.5c-3.9,0-7.8,0-11.8,0c-2,0-3.4-1.3-3.4-3.1c0-1.6,1.4-3.1,3.2-3.1c2.2-0.1,4.4,0,6.6,0
	C12.3,45.7,13.2,45.7,14.2,45.7z"/>
<rect x="37.1" y="4.9" transform="matrix(-0.7071 -0.7071 0.7071 -0.7071 67.4222 52.7934)" class="st1" width="15" height="15"/>
<path class="st0" d="M62.6,30.1c-0.5-0.8-1.1-1.3-1.9-1.8c-0.8-0.5-1.7-0.8-2.7-0.9c-0.1,0-0.3-0.1-0.3-0.2
	c-0.2-0.5-0.4-0.9-0.5-1.4c0-0.1,0.1-0.2,0.1-0.2c1.8-0.5,4.1-0.1,5.4,1.7c0.3,0.4,0.5,0.9,0.3,1.4C63,29.2,62.8,29.7,62.6,30.1
	C62.7,30.1,62.6,30.1,62.6,30.1z"/>
<path class="st0" d="M52.8,29.4c1.6,0.3,3.1,0,4.4-1c0,0,0,0,0,0c0.4-0.5,0.9-0.4,1.4-0.4c0.3,0,0.7,0.2,1.1,0.3
	c-0.3,0.4-0.5,0.8-0.8,1.1c-0.9,1-1.9,1.6-3.2,1.9c-0.6,0.1-1.1,0.1-1.6,0c-0.1,0-0.2-0.1-0.3-0.2C53.3,30.6,53,30,52.8,29.4z"/>
<path class="st0" d="M60.1,28.4c0.4,0.3,0.8,0.6,1.2,0.9c0.2,0.1,0.2,0.2,0.1,0.4c-0.6,1.5-1.8,2.4-3.2,3.1
	c-0.8,0.4-1.6,0.2-2.3-0.1c-0.5-0.2-1-0.5-1.4-0.9C57,31.8,58.8,30.6,60.1,28.4z"/>
<path class="st0" d="M57.1,25.2c0.1-0.6,0.2-1.1,0.3-1.6c0-0.1,0.2-0.2,0.3-0.3c1-0.4,2.1-0.3,3.1,0.1c0.5,0.2,0.9,0.4,1.2,0.8
	c0.7,0.8,1.1,1.7,1.2,2.7C61.5,25.2,59.5,24.7,57.1,25.2z"/>
<path class="st0" d="M57.2,22.5c-0.1,0.4-0.3,0.9-0.4,1.3c-0.3,1.3-0.2,2.5,0.5,3.7c0.1,0.1,0,0.2-0.1,0.3c-0.4,0.4-1,0.7-1.6,1
	c-0.2-0.4-0.3-0.7-0.5-1.1c-0.5-1.5-0.4-3,0.5-4.3c0.2-0.4,0.5-0.6,0.9-0.7C56.8,22.6,57,22.5,57.2,22.5z"/>
<path class="st0" d="M55.1,23.3c-0.9,1.9-0.8,3.7,0.1,5.6C54.8,29,54.3,29,53.9,29c-0.1,0-0.1-0.1-0.2-0.2c-0.7-1-0.9-2-0.7-3.2
	c0-0.3,0.2-0.5,0.3-0.7C53.8,24.2,54.4,23.7,55.1,23.3z"/>
<path class="st0" d="M61.9,29.8c0.2,0.3,0.3,0.5,0.4,0.8c0,0.1,0,0.2-0.1,0.2c-0.8,1.1-1.9,1.9-3.3,2.2
	C60.2,32.2,61.2,31.2,61.9,29.8z"/>
<path class="st0" d="M53.2,28.9c-0.4,0-0.5-0.1-0.6-0.5c0-0.4,0-0.7-0.1-1.1C52.8,27.9,53,28.4,53.2,28.9z"/>
<path class="st0" d="M59.3,22.7c-0.6,0.1-1.1,0.1-1.6,0.2c0.2-0.4,0.2-0.4,0.6-0.4C58.6,22.5,59,22.6,59.3,22.7
	C59.3,22.6,59.3,22.7,59.3,22.7z"/>
</svg>
