<?xml version="1.0" encoding="utf-8"?>
<!-- Generator: Adobe Illustrator 25.4.1, SVG Export Plug-In . SVG Version: 6.00 Build 0)  -->
<svg version="1.1" id="Layer_1" xmlns="http://www.w3.org/2000/svg" xmlns:xlink="http://www.w3.org/1999/xlink" x="0px" y="0px"
	 viewBox="0 0 60 60" style="enable-background:new 0 0 60 60;" xml:space="preserve">
<style type="text/css">
	.st0{fill:#231F20;}
	.st1{fill:#F48165;}
</style>
<path class="st0" d="M51.6,10.9c0,2.51-2.05,4.55-4.56,4.55c-2.53,0-4.54-2.05-4.54-4.63c0-2.41,2.08-4.47,4.51-4.47
	C49.56,6.36,51.6,8.38,51.6,10.9z M46.55,10.4c-0.19,0-0.32,0-0.46,0c-0.34,0.01-0.56,0.21-0.55,0.51c0.01,0.28,0.22,0.49,0.54,0.5
	c0.29,0.01,0.59,0,0.88,0c0.41,0,0.59-0.19,0.6-0.6c0-0.61,0-1.22,0-1.83c0-0.38-0.21-0.62-0.52-0.61c-0.3,0.01-0.49,0.24-0.49,0.61
	C46.55,9.45,46.55,9.91,46.55,10.4z"/>
<g>
	<path class="st0" d="M57,41.63c0,0.78,0,1.5,0,2.3c0.42,0,0.78-0.01,1.14,0c0.7,0.03,1.17,0.49,1.19,1.14
		c0.02,0.68-0.46,1.18-1.2,1.19c-1.14,0.02-2.28,0.01-3.46,0.01c-0.11,0.97,0.3,2.28-1.17,2.31c-1.52,0.02-1.13-1.32-1.23-2.27
		c-14.85,0-29.66,0-44.52,0c-0.11,0.93,0.28,2.24-1.17,2.27c-1.54,0.03-1.12-1.33-1.23-2.31c-1.11,0-2.17,0-3.24,0
		c-0.92,0-1.44-0.44-1.42-1.2c0.02-0.72,0.53-1.13,1.41-1.14c0.29,0,0.57,0,0.91,0c0-0.79,0-1.51,0-2.29c5.48,0,10.91,0,16.43,0
		c0,0.74,0,1.48,0,2.26c0.81,0,1.53,0,2.34,0c0-0.74,0-1.48,0-2.27c5.5,0,10.91,0,16.41,0c0,0.72,0,1.46,0,2.25
		c0.83,0,1.57,0,2.36,0c0-0.74,0-1.47,0-2.24C46.03,41.63,51.46,41.63,57,41.63z"/>
	<path class="st0" d="M56.98,39.21c-5.5,0-10.92,0-16.37,0c-0.02-0.21-0.04-0.4-0.04-0.59c0-3.22,0-6.45,0-9.67
		c0-1.05,0.4-1.44,1.47-1.44c4.49,0,8.99,0,13.48,0c1.06,0,1.46,0.4,1.46,1.45C56.98,32.34,56.98,35.74,56.98,39.21z"/>
	<path class="st0" d="M21.79,39.19c0-1.08,0-2.13,0-3.17c0-2.37,0-4.74,0-7.11c0-1.01,0.41-1.41,1.42-1.41c4.54,0,9.09,0,13.63,0
		c0.89,0,1.36,0.42,1.36,1.25c0.01,3.4,0,6.79,0,10.19c0,0.07-0.03,0.14-0.05,0.25C32.74,39.19,27.32,39.19,21.79,39.19z"/>
	<path class="st0" d="M19.39,39.2c-5.47,0-10.88,0-16.37,0c0-1.27,0-2.51,0-3.75c0-2.17,0-4.35,0-6.52c0-1.01,0.41-1.42,1.42-1.42
		c4.54,0,9.09,0,13.63,0c0.9,0,1.36,0.41,1.37,1.25c0.01,3.39,0,6.79,0,10.18C19.44,39.01,19.41,39.08,19.39,39.2z"/>
</g>
<rect x="24.11" y="27.47" class="st1" width="11.78" height="11.78"/>
</svg>
