<?xml version="1.0" encoding="utf-8"?>
<!-- Generator: Adobe Illustrator 25.4.1, SVG Export Plug-In . SVG Version: 6.00 Build 0)  -->
<svg version="1.1" id="Layer_1" xmlns="http://www.w3.org/2000/svg" xmlns:xlink="http://www.w3.org/1999/xlink" x="0px" y="0px"
	 viewBox="0 0 60 60" style="enable-background:new 0 0 60 60;" xml:space="preserve">
<style type="text/css">
	.st0{fill:#231F20;}
	.st1{fill:#F48165;}
</style>
<path class="st0" d="M8.29,38.2c0,0.31,0.06,0.62,0.1,1c1.87,0,3.67,0,5.63,0c0-0.56,0-1.05,0-1.54c0-2.89-0.02-5.77,0.02-8.66
	c0.01-0.44,0.19-1.13,0.48-1.26c1.64-0.74,3.35-1.34,5.31-2.1c-2.72,10.8-5.4,21.46-8.09,32.12h6.97c1-2.9,2.01-5.8,3.01-8.7
	c0.11-0.31,0.28-0.61,0.5-1.07c1.74,2.36,3.25,4.66,5.03,6.74c0.82,0.97,1.4,1.96,1.75,3.03h5.74c0-1.37,0-2.75-0.01-4.12
	c0-0.47-0.23-0.97-0.48-1.39c-2.34-3.99-4.74-7.94-7.04-11.95c-0.31-0.55-0.41-1.4-0.24-2.01c0.54-2.03,1.24-4.02,1.89-6.02
	c0.15-0.48,0.32-0.95,0.59-1.74c0.95,1.75,1.66,3.19,2.51,4.54c0.25,0.4,0.88,0.79,1.34,0.8c2.7,0.08,5.41,0.04,8.11,0.04
	c1.91,0,3.82,0,5.79,0c0.03-0.37,0.06-0.59,0.06-0.81c0-1.55,0-3.11,0-4.91c-3.17,0-6.19-0.03-9.2,0.02
	c-0.83,0.01-1.33-0.26-1.78-0.97c-1.78-2.83-3.61-5.63-5.42-8.43c-1.95-3.01-3.96-3.74-7.38-2.61c-4.73,1.58-9.44,3.21-14.18,4.77
	c-0.8,0.26-1.05,0.66-1.04,1.48C8.3,29.04,8.28,33.62,8.29,38.2z"/>
<rect x="25.25" y="3.72" transform="matrix(0.9354 0.3535 -0.3535 0.9354 5.6592 -10.5636)" class="st1" width="12.99" height="12.99"/>
</svg>
