<?xml version="1.0" encoding="utf-8"?>
<!-- Generator: Adobe Illustrator 25.4.1, SVG Export Plug-In . SVG Version: 6.00 Build 0)  -->
<svg version="1.1" id="Layer_1" xmlns="http://www.w3.org/2000/svg" xmlns:xlink="http://www.w3.org/1999/xlink" x="0px" y="0px"
	 viewBox="0 0 64 64" style="enable-background:new 0 0 64 64;" xml:space="preserve">
<style type="text/css">
	.st0{fill:#F48165;}
	.st1{fill:#231F20;}
</style>
<g>
	
		<rect x="15.4" y="10.32" transform="matrix(0.8271 -0.5621 0.5621 0.8271 -6.0596 15.9563)" class="st0" width="15.02" height="15.02"/>
	
		<rect x="20.53" y="30.31" transform="matrix(0.6531 0.7572 -0.7572 0.6531 34.848 -4.7805)" class="st1" width="4.23" height="10.67"/>
	
		<rect x="15.69" y="31.28" transform="matrix(-0.6442 0.7648 -0.7648 -0.6442 56.8362 45.6193)" class="st1" width="4.23" height="9.49"/>
	
		<rect x="37.58" y="19.78" transform="matrix(-0.2969 -0.9549 0.9549 -0.2969 27.4895 70.4757)" class="st1" width="4.23" height="10.67"/>
	
		<rect x="42.16" y="21.95" transform="matrix(0.8958 -0.4444 0.4444 0.8958 -7.2517 22.4579)" class="st1" width="4.23" height="9.49"/>
	
		<rect x="44.6" y="37.81" transform="matrix(0.8271 -0.5621 0.5621 0.8271 -18.5246 34.4417)" class="st1" width="4.23" height="19.05"/>
	
		<rect x="27.32" y="40.45" transform="matrix(0.6531 0.7572 -0.7572 0.6531 44.9841 -6.3645)" class="st1" width="4.23" height="10.93"/>
	<rect x="23.88" y="47.83" class="st1" width="4.23" height="10.93"/>
	
		<rect x="28.95" y="26.19" transform="matrix(0.8271 -0.5621 0.5621 0.8271 -13.4695 25.2052)" class="st1" width="10.56" height="16.62"/>
</g>
</svg>
