<?xml version="1.0" encoding="utf-8"?>
<!-- Generator: Adobe Illustrator 25.4.1, SVG Export Plug-In . SVG Version: 6.00 Build 0)  -->
<svg version="1.1" id="Layer_1" xmlns="http://www.w3.org/2000/svg" xmlns:xlink="http://www.w3.org/1999/xlink" x="0px" y="0px"
	 viewBox="0 0 64 64" style="enable-background:new 0 0 64 64;" xml:space="preserve">
<style type="text/css">
	.st0{fill:#231F20;}
	.st1{fill:#F48165;}
</style>
<path class="st0" d="M26.31,60.68c3.63-7.3-2.57-13.98-9.26-12.23c-0.03-0.35-0.1-0.69-0.1-1.04c-0.01-5.77,0-11.55,0-17.46
	c9.62,0,19.11,0,28.78,0c-0.17,3.48,0.5,6.91-0.86,10.34c-2.49,6.27-4.76,12.64-7.04,19c-0.39,1.07-0.9,1.44-2.01,1.41
	C32.73,60.64,29.65,60.68,26.31,60.68z"/>
<path class="st0" d="M19.37,49.62c3.67,0.01,6.71,3.03,6.69,6.66c-0.01,3.62-3.11,6.67-6.74,6.65c-3.63-0.02-6.6-3.1-6.56-6.78
	C12.8,52.54,15.76,49.61,19.37,49.62z M15.55,56.17c-0.04,2.19,1.65,3.96,3.8,3.97c2.14,0.01,3.93-1.75,3.93-3.88
	c0-2.08-1.65-3.78-3.76-3.84C17.31,52.35,15.58,53.98,15.55,56.17z"/>
<rect x="21.32" y="3.05" transform="matrix(0.9173 0.3981 -0.3981 0.9173 8.1771 -7.968)" class="st0" width="3.91" height="25.31"/>
<rect x="36.16" y="4.25" transform="matrix(0.7071 -0.7071 0.7071 0.7071 4.4755 34.3254)" class="st1" width="15.02" height="15.02"/>
<rect x="33.8" y="21.25" transform="matrix(0.7071 -0.7071 0.7071 0.7071 -6.522 33.4973)" class="st0" width="6.74" height="6.74"/>
</svg>
