<?xml version="1.0" encoding="utf-8"?>
<!-- Generator: Adobe Illustrator 25.4.1, SVG Export Plug-In . SVG Version: 6.00 Build 0)  -->
<svg version="1.1" id="Layer_1" xmlns="http://www.w3.org/2000/svg" xmlns:xlink="http://www.w3.org/1999/xlink" x="0px" y="0px"
	 viewBox="0 0 60 60" style="enable-background:new 0 0 60 60;" xml:space="preserve">
<style type="text/css">
	.st0{fill:#231F20;}
	.st1{fill:#F48165;}
</style>
<g>
	<path class="st0" d="M22.35,49.11c-0.65,1.68,0.72,1.49,1.5,1.72c0.61,3.54,0.7,3.68,2.53,3.66c1.72-0.02,1.81-0.15,2.38-3.68
		c0.82,0,1.65,0,2.47,0c0.61,3.55,0.68,3.66,2.39,3.68c1.82,0.03,1.91-0.11,2.53-3.65c0.79-0.23,2.15-0.05,1.49-1.73
		C32.55,49.11,27.44,49.11,22.35,49.11z M26.98,53.16c-0.11,0.21-1.31,0.21-1.44-0.03c-0.34-0.57-0.34-1.34-0.5-2.14
		c0.89,0,1.52,0,2.45,0C27.34,51.76,27.31,52.54,26.98,53.16z M34.41,53.15c-0.16,0.24-1.32,0.22-1.44-0.01
		c-0.32-0.59-0.32-1.35-0.47-2.16c0.88,0,1.5,0,2.53,0C34.81,51.84,34.77,52.61,34.41,53.15z"/>
	<path class="st0" d="M48.14,10.01c-0.02-3.97-2.3-6.23-6.28-6.23c-7.8-0.01-15.61,0-23.41,0c-4.43,0-6.6,2.15-6.6,6.56
		c-0.01,10.46-0.01,20.92,0,31.38c0,4.16,2.18,6.35,6.28,6.36c7.86,0.01,15.72,0.01,23.57,0c4.32,0,6.44-2.15,6.44-6.53
		c0.01-5.2,0-10.41,0-15.61C48.15,20.63,48.16,15.32,48.14,10.01z M43.24,11.92c-2.99,0-5.9,0-8.93,0c0-1,0-2,0-3.12
		c2.92,0,5.86,0,8.93,0C43.24,9.91,43.24,10.86,43.24,11.92z"/>
</g>
<rect x="19.72" y="24.77" class="st1" width="20.57" height="20.57"/>
</svg>
