<?xml version="1.0" encoding="utf-8"?>
<!-- Generator: Adobe Illustrator 25.4.1, SVG Export Plug-In . SVG Version: 6.00 Build 0)  -->
<svg version="1.1" id="Layer_1" xmlns="http://www.w3.org/2000/svg" xmlns:xlink="http://www.w3.org/1999/xlink" x="0px" y="0px"
	 viewBox="0 0 64 64" style="enable-background:new 0 0 64 64;" xml:space="preserve">
<style type="text/css">
	.st0{fill:#231F20;}
	.st1{fill:#F48165;}
</style>
<g>
	<g>
		
			<rect x="19.42" y="22.65" transform="matrix(-1.836970e-16 1 -1 -1.836970e-16 57.195 -7.7698)" class="st0" width="26.13" height="4.13"/>
		<rect x="5.41" y="25.95" class="st0" width="54.58" height="12.58"/>
		
			<rect x="28.72" y="37.42" transform="matrix(-1.836970e-16 1 -1 -1.836970e-16 76.4165 11.0068)" class="st0" width="7.97" height="12.58"/>
		<rect x="24.97" y="24.71" class="st1" width="15.02" height="15.02"/>
		<rect x="19.42" y="10.05" class="st0" width="26.13" height="4.13"/>
	</g>
	<path class="st0" d="M37,59.01c0,2.29-2.03,4.1-4.38,3.75c-1.98-0.3-3.29-2.21-3.19-4.21c0.05-0.92,0.24-1.69,0.63-2.65
		c0.43-1.02,1.3-2.7,3.11-4.36c0.06-0.06,0.17-0.06,0.23,0c0.82,0.91,1.86,2.26,2.71,4.09C36.76,57.04,37,57.89,37,59.01z"/>
</g>
</svg>
