<?xml version="1.0" encoding="utf-8"?>
<!-- Generator: Adobe Illustrator 25.4.1, SVG Export Plug-In . SVG Version: 6.00 Build 0)  -->
<svg version="1.1" id="Layer_1" xmlns="http://www.w3.org/2000/svg" xmlns:xlink="http://www.w3.org/1999/xlink" x="0px" y="0px"
	 viewBox="0 0 60 60" style="enable-background:new 0 0 60 60;" xml:space="preserve">
<style type="text/css">
	.st0{fill:#231F20;}
	.st1{fill:#F48165;}
</style>
<path class="st0" d="M47.54,6.87c0.47-0.46,0.93-0.91,1.39-1.36c4.67,4.88,4.94,12.84,0.02,18.09c-0.45-0.44-0.91-0.89-1.37-1.34
	c1.96-2.19,3.11-4.72,3.11-7.7C50.68,11.58,49.51,9.06,47.54,6.87z"/>
<path class="st0" d="M46.2,8.22c3.56,3.54,3.53,9.12-0.01,12.63c-0.39-0.4-0.78-0.8-1.17-1.2c2.73-3.38,2.73-6.81-0.02-10.22
	C45.39,9.03,45.79,8.63,46.2,8.22z"/>
<path class="st0" d="M43.68,18.34c-0.42-0.41-0.82-0.8-1.22-1.19c1.38-1.63,1.31-3.68,0.02-5.17c0.39-0.41,0.79-0.81,1.18-1.22
	C45.78,12.59,45.9,16.35,43.68,18.34z"/>
<path class="st0" d="M31.5,6.87c-0.47-0.46-0.93-0.91-1.39-1.36c-4.67,4.88-4.94,12.84-0.02,18.09c0.45-0.44,0.91-0.89,1.37-1.34
	c-1.96-2.19-3.11-4.72-3.11-7.7C28.36,11.58,29.54,9.06,31.5,6.87z"/>
<path class="st0" d="M32.84,8.22c-3.56,3.54-3.53,9.12,0.01,12.63c0.39-0.4,0.78-0.8,1.17-1.2c-2.73-3.38-2.73-6.81,0.02-10.22
	C33.66,9.03,33.25,8.63,32.84,8.22z"/>
<path class="st0" d="M35.36,18.34c0.42-0.41,0.82-0.8,1.22-1.19c-1.38-1.63-1.31-3.68-0.02-5.17c-0.39-0.41-0.79-0.81-1.18-1.22
	C33.27,12.59,33.15,16.35,35.36,18.34z"/>
<rect x="38.24" y="13.31" class="st0" width="2.77" height="22.44"/>
<path class="st0" d="M4.02,30.08v24.42h49.96V30.08H4.02z M13.59,44.71H8.74v-4.85h4.85V44.71z M21,44.71h-4.85v-4.85H21V44.71z
	 M28.42,44.71h-4.85v-4.85h4.85V44.71z"/>
<rect x="40.63" y="41.14" class="st1" width="13.35" height="13.35"/>
</svg>
