<?xml version="1.0" encoding="utf-8"?>
<!-- Generator: Adobe Illustrator 25.4.1, SVG Export Plug-In . SVG Version: 6.00 Build 0)  -->
<svg version="1.1" id="Layer_1" xmlns="http://www.w3.org/2000/svg" xmlns:xlink="http://www.w3.org/1999/xlink" x="0px" y="0px"
	 viewBox="0 0 64 64" style="enable-background:new 0 0 64 64;" xml:space="preserve">
<style type="text/css">
	.st0{fill:#221F1F;}
	.st1{fill:#F38065;}
</style>
<path class="st0" d="M40.4,36c0,0.4-0.1,0.7-0.1,1.1c0,3.2,0,6.3,0,9.7c2.6,0.7,5.5,1.5,8.3,2.4c2.9,0.8,4.5,3.3,4.1,6.2
	c-0.4,3.1-2.7,4.7-6,4c-4.6-0.9-9.3-2-13.9-2.9c-1-0.2-2.2-0.2-3.2,0c-4.6,0.9-9.2,1.9-13.8,2.9c-3,0.6-5.5-0.6-6.1-3.1
	c-0.8-3.1,0.8-6.1,3.7-7c2.9-0.9,5.9-1.7,8.8-2.5c0-3.6,0-7.1,0-10.7c-0.1,0-0.3-0.1-0.4-0.1c-0.2,0.3-0.5,0.7-0.7,1
	c-2.4,4.9-6.7,7.9-10.5,11.5c-1.4,1.3-3.8,0.9-5.1-0.6c-1.3-1.6-1.4-3.6,0.1-5.2c2.2-2.2,4.4-4.4,6.6-6.6c0.8-0.8,1.5-1.8,2.1-2.7
	c1.8-3,3.7-6,5.3-9.2c1.5-3.1,3.8-4.8,7.1-4.9c3.7-0.1,7.4,0.1,11,0.4c2.1,0.2,3.7,1.5,4.6,3.4c0.2,0.4,0.4,0.7,0.6,1.1
	c3.5,6.8,7.7,13.2,13.7,18.2c1.6,1.4,1.8,2.9,0.9,4.6c-0.8,1.5-2.3,2.4-4,2.2c-0.7-0.1-1.5-0.5-2.1-1c-2.1-1.9-4.2-3.7-6.1-5.7
	C43.5,40.3,42,38.1,40.4,36z"/>
<path class="st0" d="M31.1,17.9c-4.4,0-7.9-3.5-7.9-8c0-4.4,3.5-7.9,8-7.9c4.4,0,8,3.6,8,7.9C39.2,14.4,35.6,18,31.1,17.9z"/>
<rect x="24.6" y="24" transform="matrix(-0.7071 -0.7071 0.7071 -0.7071 31.6852 74.1914)" class="st1" width="13.1" height="13.1"/>
</svg>
