<?xml version="1.0" encoding="utf-8"?>
<!-- Generator: Adobe Illustrator 25.4.1, SVG Export Plug-In . SVG Version: 6.00 Build 0)  -->
<svg version="1.1" id="Layer_1" xmlns="http://www.w3.org/2000/svg" xmlns:xlink="http://www.w3.org/1999/xlink" x="0px" y="0px"
	 viewBox="0 0 60 60" style="enable-background:new 0 0 60 60;" xml:space="preserve">
<style type="text/css">
	.st0{fill:#231F20;}
	.st1{fill:#F48165;}
</style>
<path class="st0" d="M11.19,13.52c0.13-0.57,0.21-1.17,0.39-1.74c1.44-4.49,5.39-7.59,10.11-7.76c3.12-0.11,6.25-0.15,9.37,0.02
	c6.76,0.36,11.58,6.77,10.2,13.34c-0.14,0.64-0.38,0.87-1.05,0.88c-0.89,0.01-1.79,0.12-2.66,0.3c-3.05,0.63-4.23,2.62-4.06,5.74
	c0.02,0.45,0.13,0.91,0.22,1.56c-1.32,0.17-2.61,0.34-3.95,0.52c0.43-1.23,0.93-2.26,1.14-3.34c1.04-5.4-2.67-10.29-8.26-10.72
	c-2.51-0.2-5.07-0.1-7.59,0.09C13.79,12.48,12.57,13.09,11.19,13.52z"/>
<path class="st0" d="M18.45,29.28c-1.17-0.15-3.05-0.15-4.78-0.66c-3.53-1.04-5.67-4.75-5.15-8.44c0.53-3.71,3.67-6.61,7.37-6.73
	c2.12-0.07,4.25-0.06,6.37-0.01c3.95,0.08,7.22,3.14,7.61,7.07c0.39,3.94-2.26,7.66-6.17,8.42C22.21,29.23,20.65,29.15,18.45,29.28z
	"/>
<path class="st0" d="M33.14,27.23c0.7-0.43,1.1-0.29,1.68,0.17c0.8,0.62,1.8,1,2.75,1.4c0.37,0.15,0.56,0.27,0.66,0.69
	c0.25,1.04,0.62,2.06,0.87,3.1c0.31,1.28,0.05,2.5-0.65,3.6c-0.47,0.73-0.95,1.47-1.54,2.1c-0.81,0.87-1.24,1.88-1.35,3.03
	c-0.12,1.24-0.16,2.49-0.2,3.74c-0.02,0.4-0.02,0.69-0.55,0.69c-4.66-0.02-9.32-0.01-13.98-0.02c-0.07,0-0.14-0.04-0.38-0.11
	c0.29-0.66,0.51-1.34,0.86-1.94c1.42-2.45,3.55-4.21,5.77-5.88c0.79-0.6,1.6-1.21,2.28-1.93c1.29-1.38,1.37-2.78,0.24-4.3
	c-0.71-0.96-1.55-1.83-2.38-2.79c0.42-0.38,0.82-0.81,1.3-1.12c0.18-0.12,0.59-0.05,0.8,0.08c0.75,0.48,1.45,1.06,2.2,1.54
	c0.45,0.29,0.93,0.55,1.44,0.71c0.27,0.09,0.74,0.05,0.9-0.13c0.16-0.18,0.14-0.63,0.04-0.91C33.7,28.37,33.41,27.83,33.14,27.23z"
	/>
<path class="st0" d="M45.37,19.31c2.38,0.09,4.77,0.05,7.12,0.31c3.13,0.35,4.6,3.33,3.19,6.18c-0.64,1.29-1.82,1.75-3.12,1.94
	c-0.91,0.14-1.83,0.2-2.75,0.2c-3.43,0-6.86-0.01-10.29-0.07c-0.81-0.01-1.63-0.19-2.41-0.41c-1.32-0.38-2.18-1.28-2.33-2.66
	c-0.09-0.87-0.08-1.79,0.09-2.65c0.35-1.68,1.69-2.29,3.21-2.53c0.98-0.16,1.99-0.19,2.98-0.22c1.43-0.03,2.87-0.01,4.3-0.01
	C45.37,19.37,45.37,19.34,45.37,19.31z"/>
<rect x="20.48" y="42.33" class="st1" width="15.01" height="15.02"/>
</svg>
