<?xml version="1.0" encoding="utf-8"?>
<!-- Generator: Adobe Illustrator 25.4.1, SVG Export Plug-In . SVG Version: 6.00 Build 0)  -->
<svg version="1.1" id="Layer_1" xmlns="http://www.w3.org/2000/svg" xmlns:xlink="http://www.w3.org/1999/xlink" x="0px" y="0px"
	 viewBox="0 0 60 60" style="enable-background:new 0 0 60 60;" xml:space="preserve">
<style type="text/css">
	.st0{fill:#F48165;}
</style>
<path d="M48.76,40.42c-3.53-4.09-7.04-8.19-10.55-12.3c-0.11-0.13-0.17-0.32-0.18-0.49c-0.02-0.51-0.01-1.01-0.01-1.54
	c-1.25,0-2.45,0-3.69,0c0,0.51-0.01,0.99,0,1.48c0.01,0.26-0.05,0.36-0.34,0.36c-2.25-0.01-4.5-0.01-6.76,0
	c-0.28,0-0.34-0.1-0.34-0.36c0.02-0.48,0-0.97,0-1.48c-1.24,0-2.45,0-3.69,0c0,0.52,0.02,1.01-0.01,1.51
	c-0.01,0.19-0.08,0.41-0.2,0.55c-1.21,1.43-2.43,2.85-3.65,4.27c-2.35,2.74-4.71,5.49-7.06,8.24c-0.1,0.11-0.19,0.28-0.19,0.42
	c-0.01,2.41-0.04,4.83,0.01,7.24c0.04,2.12,1.65,3.65,3.77,3.65c9.82,0,19.64,0,29.46-0.01c0.38,0,0.78-0.05,1.15-0.16
	c1.6-0.47,2.62-1.88,2.63-3.65c0.01-2.24-0.01-4.48,0.01-6.72C49.15,41.03,49.02,40.73,48.76,40.42z"/>
<path d="M30.83,14.57c4.61,0.13,9.38,0.58,14.03,1.9c1.75,0.5,3.46,1.13,4.99,2.13c1.53,1,2.68,2.33,3.15,4.13
	c0.43,1.62,0.23,3.14-1.02,4.37c-0.83,0.82-1.88,1.14-3.01,1.17c-1.76,0.05-3.42-0.39-4.95-1.27c-0.82-0.47-1.4-1.16-1.78-2.02
	c-0.19-0.43-0.37-0.87-0.57-1.3c-0.34-0.75-0.89-1.26-1.66-1.57c-2.15-0.86-4.38-1.39-6.67-1.69c-4.12-0.53-8.06,0.2-11.92,1.6
	c-0.98,0.35-1.64,1-2.01,1.96c-0.08,0.2-0.18,0.4-0.25,0.61c-0.56,1.54-1.7,2.48-3.2,3.02c-1.3,0.47-2.64,0.77-4.04,0.64
	c-2.98-0.28-4.45-2.75-3.7-5.52c0.54-1.99,1.86-3.39,3.61-4.4c2.02-1.17,4.23-1.83,6.49-2.35C22.17,15.06,26.9,14.63,30.83,14.57z"
	/>
<rect x="23.11" y="24.67" class="st0" width="15.02" height="15.02"/>
</svg>
